<svg width="1806" height="799" viewBox="0 0 1806 799" fill="none" xmlns="http://www.w3.org/2000/svg">
<rect width="1806" height="799" fill="url(#paint0_linear_4516_3366)"/>
<g clip-path="url(#clip0_4516_3366)">
<g opacity="0.6">
<path d="M1716.39 2.34149C1716.39 259.066 1508.07 467.183 1251.09 467.183C994.116 467.183 785.796 259.066 785.796 2.34149C785.796 -254.383 994.116 -462.5 1251.09 -462.5C1508.07 -462.5 1716.39 -254.383 1716.39 2.34149Z" fill="url(#paint1_linear_4516_3366)" stroke="url(#paint2_linear_4516_3366)"/>
<path d="M1020.2 2.34149C1020.2 259.066 811.883 467.183 554.906 467.183C297.929 467.183 89.6084 259.066 89.6084 2.34149C89.6084 -254.383 297.929 -462.5 554.906 -462.5C811.883 -462.5 1020.2 -254.383 1020.2 2.34149Z" fill="url(#paint3_linear_4516_3366)" stroke="url(#paint4_linear_4516_3366)"/>
<path d="M1368.75 113.658C1368.75 370.383 1160.43 578.5 903.456 578.5C646.479 578.5 438.158 370.383 438.158 113.658C438.158 -143.066 646.479 -351.183 903.456 -351.183C1160.43 -351.183 1368.75 -143.066 1368.75 113.658Z" fill="url(#paint5_linear_4516_3366)" stroke="url(#paint6_radial_4516_3366)"/>
</g>
</g>
<defs>
<linearGradient id="paint0_linear_4516_3366" x1="903" y1="0" x2="903" y2="799" gradientUnits="userSpaceOnUse">
<stop offset="1" stop-color="#3D5BCF"/>
</linearGradient>
<linearGradient id="paint1_linear_4516_3366" x1="1251.09" y1="-463" x2="1251.09" y2="467.683" gradientUnits="userSpaceOnUse">
<stop stop-color="#3D5BCF"/>
<stop offset="1" stop-color="#4E68D0"/>
</linearGradient>
<linearGradient id="paint2_linear_4516_3366" x1="1665.2" y1="-380.153" x2="734.361" y2="-33.6442" gradientUnits="userSpaceOnUse">
<stop stop-color="#7389E8" stop-opacity="0"/>
<stop offset="1" stop-color="#3D5BCF"/>
</linearGradient>
<linearGradient id="paint3_linear_4516_3366" x1="554.906" y1="-463" x2="554.906" y2="467.683" gradientUnits="userSpaceOnUse">
<stop stop-color="#3D5BCF"/>
<stop offset="1" stop-color="#4E68D0"/>
</linearGradient>
<linearGradient id="paint4_linear_4516_3366" x1="1042.78" y1="-43.9237" x2="-36.2618" y2="195.38" gradientUnits="userSpaceOnUse">
<stop stop-color="#3D5BCF"/>
<stop offset="1" stop-color="#8495DD" stop-opacity="0"/>
</linearGradient>
<linearGradient id="paint5_linear_4516_3366" x1="903.456" y1="-351.683" x2="903.456" y2="579" gradientUnits="userSpaceOnUse">
<stop stop-color="#3D5BCF"/>
<stop offset="1" stop-color="#4E68D0"/>
</linearGradient>
<radialGradient id="paint6_radial_4516_3366" cx="0" cy="0" r="1" gradientUnits="userSpaceOnUse" gradientTransform="translate(903.456 113.658) rotate(89.968) scale(964.037 964.982)">
<stop offset="0.046875" stop-color="#97A3D5" stop-opacity="0"/>
<stop offset="1" stop-color="#3D5BCF"/>
</radialGradient>
<clipPath id="clip0_4516_3366">
<rect width="1628" height="579" fill="white" transform="translate(89)"/>
</clipPath>
</defs>
</svg>
