<svg width="66" height="65" viewBox="0 0 66 65" fill="none" xmlns="http://www.w3.org/2000/svg">
<g clip-path="url(#clip0_4511_1207)">
<path d="M33 65C50.9493 65 65.5 50.4493 65.5 32.5C65.5 14.5507 50.9493 0 33 0C15.0507 0 0.5 14.5507 0.5 32.5C0.5 50.4493 15.0507 65 33 65Z" fill="#8A9EED"/>
<g clip-path="url(#clip1_4511_1207)">
<path d="M33 65C50.9493 65 65.5 50.4493 65.5 32.5C65.5 14.5507 50.9493 0 33 0C15.0507 0 0.5 14.5507 0.5 32.5C0.5 50.4493 15.0507 65 33 65Z" fill="#8A9EED"/>
<path d="M39.8809 46.7439H17.0293C16.7881 46.7439 16.5977 46.5535 16.5977 46.3123V28.8435C16.5977 28.7039 16.6611 28.5769 16.7754 28.5007L30.791 18.0652C30.9434 17.9509 31.1592 17.9509 31.3115 18.0652L45.3145 28.5007C45.4287 28.5769 45.4922 28.7166 45.4922 28.8435V35.6482C45.4922 35.8894 45.3018 36.0798 45.0605 36.0798C44.8193 36.0798 44.6289 35.8894 44.6289 35.6482V29.0593L31.0576 18.9412L17.4736 29.0593V45.8679H39.8936C40.1348 45.8679 40.3252 46.0584 40.3252 46.2996C40.3252 46.5408 40.1221 46.7439 39.8809 46.7439Z" fill="#FFFFFE"/>
<path d="M42.0771 24.5273C41.8359 24.5273 41.6455 24.3369 41.6455 24.0957V19.3477C41.6455 19.1064 41.8359 18.916 42.0771 18.916C42.3184 18.916 42.5088 19.1064 42.5088 19.3477V24.0957C42.5088 24.3242 42.3184 24.5273 42.0771 24.5273Z" fill="#FFFFFE"/>
<path d="M39.2715 22.4834C39.0303 22.4834 38.8398 22.293 38.8398 22.0518V19.335C38.8398 19.0938 39.0303 18.9033 39.2715 18.9033C39.5127 18.9033 39.7031 19.0938 39.7031 19.335V22.0518C39.7031 22.293 39.5127 22.4834 39.2715 22.4834Z" fill="#FFFFFE"/>
<path d="M43.0801 19.7793H38.2812C38.04 19.7793 37.8496 19.5889 37.8496 19.3477V17.5322C37.8496 17.291 38.04 17.1006 38.2812 17.1006H43.0801C43.3213 17.1006 43.5117 17.291 43.5117 17.5322V19.3477C43.5117 19.5889 43.3086 19.7793 43.0801 19.7793ZM38.7129 18.916H42.6484V17.9766H38.7129V18.916Z" fill="#FFFFFE"/>
<path d="M32.7207 41.5391C32.6064 41.5391 32.4922 41.4883 32.416 41.4121C32.3906 41.3867 32.3779 41.374 32.3652 41.3486C32.3525 41.3232 32.3398 41.2979 32.3271 41.2725C32.3145 41.2471 32.3018 41.2217 32.3018 41.1963C32.3018 41.1709 32.2891 41.1455 32.2891 41.1074C32.2891 40.9932 32.3398 40.8789 32.416 40.8027C32.4922 40.7266 32.6064 40.6758 32.7207 40.6758C32.835 40.6758 32.9492 40.7266 33.0254 40.8027C33.1016 40.8789 33.1523 40.9932 33.1523 41.1074C33.1523 41.1328 33.1523 41.1709 33.1396 41.1963C33.1396 41.2217 33.127 41.2471 33.1143 41.2725C33.1016 41.2979 33.0889 41.3232 33.0762 41.3486C33.0635 41.374 33.0381 41.3994 33.0254 41.4121C32.9492 41.4883 32.835 41.5391 32.7207 41.5391Z" fill="#FFFFFE"/>
<path d="M34.3838 46.7441C34.1426 46.7441 33.9521 46.5537 33.9521 46.3125V36.3467H28.1377V46.3125C28.1377 46.5537 27.9473 46.7441 27.7061 46.7441C27.4648 46.7441 27.2744 46.5537 27.2744 46.3125V35.9023C27.2744 35.6611 27.4648 35.4707 27.7061 35.4707H34.3838C34.625 35.4707 34.8154 35.6611 34.8154 35.9023V46.3125C34.8154 46.5537 34.625 46.7441 34.3838 46.7441Z" fill="#FFFFFE"/>
<path d="M27.7061 44.4209H17.0293C16.7881 44.4209 16.5977 44.2305 16.5977 43.9893C16.5977 43.748 16.7881 43.5576 17.0293 43.5576H27.7061C27.9473 43.5576 28.1377 43.748 28.1377 43.9893C28.1377 44.2305 27.9346 44.4209 27.7061 44.4209Z" fill="#FFFFFE"/>
<path d="M38.7002 44.4209H34.3711C34.1299 44.4209 33.9395 44.2305 33.9395 43.9893C33.9395 43.748 34.1299 43.5576 34.3711 43.5576H38.7002C38.9414 43.5576 39.1318 43.748 39.1318 43.9893C39.1445 44.2305 38.9414 44.4209 38.7002 44.4209Z" fill="#FFFFFE"/>
<path d="M48.6279 29.2751H45.0479C44.8067 29.2751 44.6162 29.0847 44.6162 28.8435C44.6162 28.6023 44.8067 28.4119 45.0479 28.4119H47.2949L31.0322 16.6179L14.7696 28.4119H17.0166C17.2578 28.4119 17.4483 28.6023 17.4483 28.8435C17.4483 29.0847 17.2578 29.2751 17.0166 29.2751H13.4492C13.2588 29.2751 13.0938 29.1482 13.043 28.9705C12.9795 28.7927 13.043 28.6023 13.1953 28.488L30.791 15.7292C30.9434 15.615 31.1465 15.615 31.2988 15.7292L48.8946 28.488C49.0469 28.6023 49.1104 28.7927 49.0469 28.9705C48.9834 29.1609 48.8184 29.2751 48.6279 29.2751Z" fill="#FFFFFE"/>
<path d="M31.0449 26.7236C29.7627 26.7236 28.7217 25.6826 28.7217 24.4004C28.7217 23.1182 29.7627 22.0771 31.0449 22.0771C32.3271 22.0771 33.3682 23.1182 33.3682 24.4004C33.3682 25.6826 32.3271 26.7236 31.0449 26.7236ZM31.0449 22.9531C30.2451 22.9531 29.585 23.6006 29.585 24.4131C29.585 25.2129 30.2324 25.873 31.0449 25.873C31.8447 25.873 32.5049 25.2256 32.5049 24.4131C32.4922 23.6006 31.8447 22.9531 31.0449 22.9531Z" fill="#FFFFFE"/>
<path d="M45.0479 49.2451C41.1758 49.2451 38.0273 46.0967 38.0273 42.2246C38.0273 38.3525 41.1758 35.2041 45.0479 35.2041C48.9199 35.2041 52.0684 38.3525 52.0684 42.2246C52.0684 46.0967 48.9199 49.2451 45.0479 49.2451ZM45.0479 36.0801C41.6582 36.0801 38.9033 38.835 38.9033 42.2246C38.9033 45.6143 41.6582 48.3691 45.0479 48.3691C48.4375 48.3691 51.1924 45.6143 51.1924 42.2246C51.1924 38.835 48.4375 36.0801 45.0479 36.0801Z" fill="#FFFFFE"/>
<path d="M39.4238 34.0615H34.3584C34.1172 34.0615 33.9268 33.8711 33.9268 33.6299V28.5645C33.9268 28.3232 34.1172 28.1328 34.3584 28.1328H39.4238C39.665 28.1328 39.8555 28.3232 39.8555 28.5645V33.6299C39.8555 33.8711 39.665 34.0615 39.4238 34.0615ZM34.79 33.1982H38.9922V28.9961H34.79V33.1982Z" fill="#FFFFFE"/>
<path d="M36.8848 34.0615C36.6436 34.0615 36.4531 33.8711 36.4531 33.6299V28.5645C36.4531 28.3232 36.6436 28.1328 36.8848 28.1328C37.126 28.1328 37.3164 28.3232 37.3164 28.5645V33.6299C37.3291 33.8711 37.126 34.0615 36.8848 34.0615Z" fill="#FFFFFE"/>
<path d="M27.7187 34.0615H22.6533C22.4121 34.0615 22.2217 33.8711 22.2217 33.6299V28.5645C22.2217 28.3232 22.4121 28.1328 22.6533 28.1328H27.7187C27.96 28.1328 28.1504 28.3232 28.1504 28.5645V33.6299C28.1504 33.8711 27.96 34.0615 27.7187 34.0615ZM23.085 33.1982H27.2871V28.9961H23.085V33.1982Z" fill="#FFFFFE"/>
<path d="M25.1924 34.0615C24.9512 34.0615 24.7607 33.8711 24.7607 33.6299V28.5645C24.7607 28.3232 24.9512 28.1328 25.1924 28.1328C25.4336 28.1328 25.624 28.3232 25.624 28.5645V33.6299C25.624 33.8711 25.4336 34.0615 25.1924 34.0615Z" fill="#FFFFFE"/>
<path d="M45.8603 47.1123L44.3242 47.0996C44.083 47.0996 43.8926 46.9092 43.8926 46.668V46.1475C43.6387 46.0713 43.3975 45.9697 43.1562 45.8428L42.8008 46.1982C42.6357 46.3633 42.3564 46.3633 42.1914 46.1982L41.0996 45.1064C40.9346 44.9414 40.9346 44.6621 41.0996 44.4971L41.4551 44.1416C41.3281 43.9131 41.2266 43.6592 41.1504 43.4053H40.6299C40.3887 43.4053 40.1982 43.2148 40.1982 42.9736L40.1855 41.4375C40.1855 41.3232 40.2363 41.209 40.3125 41.1328C40.3887 41.0566 40.5029 41.0059 40.6172 41.0059H41.125C41.2012 40.752 41.3027 40.5234 41.417 40.2949L41.0488 39.9268C40.8838 39.7617 40.8838 39.4824 41.0488 39.3174L42.1279 38.2383C42.2041 38.1621 42.3184 38.1113 42.4326 38.1113C42.5469 38.1113 42.6611 38.1621 42.7373 38.2383L43.1055 38.6064C43.334 38.4922 43.5752 38.3906 43.8164 38.3145V37.8066C43.8164 37.6924 43.8672 37.5781 43.9434 37.502C44.0195 37.4258 44.1338 37.375 44.248 37.375L45.7842 37.3877C46.0254 37.3877 46.2158 37.5781 46.2158 37.8193V38.3398C46.4697 38.416 46.7109 38.5176 46.9521 38.6445L47.3076 38.2891C47.4727 38.124 47.752 38.124 47.917 38.2891L49.0088 39.3809C49.1738 39.5459 49.1738 39.8252 49.0088 39.9902L48.6533 40.3457C48.7803 40.5742 48.8818 40.8281 48.958 41.082H49.4785C49.7197 41.082 49.9102 41.2725 49.9102 41.5137L49.9228 43.0498C49.9228 43.1641 49.8721 43.2783 49.7959 43.3545C49.7197 43.4307 49.6055 43.4814 49.4912 43.4814H48.9834C48.9072 43.7354 48.8057 43.9639 48.6914 44.1924L49.0596 44.5605C49.1357 44.6367 49.1865 44.751 49.1865 44.8652C49.1865 44.9795 49.1357 45.0937 49.0596 45.1699L47.9805 46.249C47.9043 46.3252 47.79 46.376 47.6758 46.376C47.5615 46.376 47.4473 46.3252 47.3711 46.249L47.0029 45.8809C46.7744 45.9951 46.5332 46.0967 46.292 46.1729V46.6807C46.292 46.7949 46.2412 46.9092 46.165 46.9854C46.0762 47.0615 45.9746 47.1123 45.8603 47.1123ZM44.7559 46.2363H45.4287V45.8301C45.4287 45.627 45.5684 45.4492 45.7715 45.3984C46.1523 45.3223 46.5205 45.1699 46.8506 44.9668C47.0283 44.8525 47.2441 44.8779 47.3965 45.0303L47.6885 45.3223L48.1455 44.8652L47.8535 44.5732C47.7139 44.4336 47.6885 44.2051 47.79 44.0273C48.0059 43.6973 48.1455 43.3418 48.2217 42.9482C48.2598 42.7451 48.4375 42.6055 48.6406 42.6055H49.0469V41.9326H48.6279C48.4248 41.9326 48.2471 41.793 48.209 41.5898C48.1201 41.1963 47.9678 40.8408 47.752 40.498C47.6377 40.3203 47.6631 40.1045 47.8027 39.9522L48.0947 39.6602L47.6123 39.1777L47.3203 39.4697C47.1807 39.6094 46.9521 39.6348 46.7744 39.5205C46.4443 39.3047 46.0762 39.1523 45.6826 39.0635C45.4795 39.0254 45.3398 38.8477 45.3398 38.6445V38.2256H44.667V38.6318C44.667 38.835 44.5273 39.0127 44.3242 39.0635C43.9434 39.1397 43.5752 39.292 43.2451 39.4951C43.0674 39.6094 42.8516 39.584 42.6992 39.4316L42.4072 39.1396L41.9502 39.5967L42.2422 39.8887C42.3818 40.0283 42.4072 40.2568 42.3057 40.4346C42.0898 40.7646 41.9502 41.1201 41.874 41.5137C41.8359 41.7168 41.6582 41.8564 41.4551 41.8564H41.0488V42.5293H41.4678C41.6709 42.5293 41.8486 42.6689 41.8867 42.8721C41.9756 43.2656 42.1279 43.6211 42.3438 43.9639C42.458 44.1416 42.4326 44.3574 42.293 44.5098L42.001 44.8018L42.4834 45.2842L42.7754 44.9922C42.915 44.8525 43.1436 44.8271 43.3213 44.9414C43.6514 45.1572 44.0195 45.3096 44.4131 45.3984C44.6162 45.4365 44.7559 45.6143 44.7559 45.8174V46.2363Z" fill="#FFFFFE"/>
<path d="M45.0861 44.4338C44.5149 44.4338 43.9436 44.218 43.5119 43.7863C42.6486 42.9231 42.6359 41.5266 43.4865 40.676C44.3371 39.8254 45.7336 39.8381 46.5969 40.7014C47.4602 41.5647 47.4729 42.9611 46.6223 43.8117C46.1906 44.218 45.6447 44.4338 45.0861 44.4338ZM45.0227 40.9045C44.6926 40.9045 44.3498 41.0315 44.0959 41.2854C43.5881 41.7932 43.5881 42.6438 44.1213 43.1643C44.6418 43.6848 45.4924 43.6975 46.0002 43.1897C46.508 42.6818 46.508 41.8313 45.9748 41.3107C45.7209 41.0315 45.3654 40.9045 45.0227 40.9045Z" fill="#FFFFFE"/>
</g>
</g>
<defs>
<clipPath id="clip0_4511_1207">
<rect width="65" height="65" fill="white" transform="translate(0.5)"/>
</clipPath>
<clipPath id="clip1_4511_1207">
<rect width="65" height="65" fill="white" transform="translate(0.5)"/>
</clipPath>
</defs>
</svg>
