<svg width="66" height="65" viewBox="0 0 66 65" fill="none" xmlns="http://www.w3.org/2000/svg">
<g clip-path="url(#clip0_4511_1157)">
<path d="M33 65C50.9493 65 65.5 50.4493 65.5 32.5C65.5 14.5507 50.9493 0 33 0C15.0507 0 0.5 14.5507 0.5 32.5C0.5 50.4493 15.0507 65 33 65Z" fill="#EE7C48"/>
<g clip-path="url(#clip1_4511_1157)">
<path d="M33 65C50.9493 65 65.5 50.4493 65.5 32.5C65.5 14.5507 50.9493 0 33 0C15.0507 0 0.5 14.5507 0.5 32.5C0.5 50.4493 15.0507 65 33 65Z" fill="#EE7C48"/>
<path d="M48.2598 50.6167C48.1455 50.6167 48.0312 50.5786 47.9551 50.4897L46.0508 48.5855C45.873 48.4077 45.873 48.1411 46.0508 47.9761C46.2285 47.811 46.4951 47.7983 46.6602 47.9761L48.2598 49.5757L51.04 46.7954L49.4658 45.2212C49.2881 45.0435 49.2881 44.7769 49.4658 44.6118C49.6436 44.4341 49.9102 44.4341 50.0752 44.6118L51.9541 46.4907C52.1318 46.6685 52.1318 46.9351 51.9541 47.1001L48.5518 50.5024C48.4883 50.5659 48.374 50.6167 48.2598 50.6167Z" fill="white"/>
<path d="M43.2832 47.4297H16.5342C15.1123 47.4297 13.957 46.2744 13.957 44.8525V17.1006C13.957 15.6787 15.1123 14.5234 16.5342 14.5234H44.1211C45.543 14.5234 46.6982 15.6787 46.6982 17.1006V40.7773C46.6982 41.0186 46.5078 41.209 46.2666 41.209C46.0254 41.209 45.835 41.0186 45.835 40.7773V17.1006C45.835 16.1611 45.0605 15.3867 44.1211 15.3867H16.5342C15.5947 15.3867 14.8203 16.1611 14.8203 17.1006V44.8398C14.8203 45.7793 15.5947 46.5537 16.5342 46.5537H43.2705C43.5117 46.5537 43.7021 46.7441 43.7021 46.9854C43.7021 47.2393 43.5117 47.4297 43.2832 47.4297Z" fill="#F9FAFA"/>
<path d="M46.2793 20.1982H14.3887C14.1475 20.1982 13.957 20.0078 13.957 19.7666C13.957 19.5254 14.1475 19.335 14.3887 19.335H46.2793C46.5205 19.335 46.7109 19.5254 46.7109 19.7666C46.7109 20.0078 46.5205 20.1982 46.2793 20.1982Z" fill="#F9FAFA"/>
<path d="M19.6064 17.7861H17.6387C17.3975 17.7861 17.207 17.5957 17.207 17.3545C17.207 17.1133 17.3975 16.9229 17.6387 16.9229H19.5937C19.835 16.9229 20.0254 17.1133 20.0254 17.3545C20.0254 17.5957 19.8477 17.7861 19.6064 17.7861Z" fill="#F9FAFA"/>
<path d="M23.9482 17.7861H21.9932C21.752 17.7861 21.5615 17.5957 21.5615 17.3545C21.5615 17.1133 21.752 16.9229 21.9932 16.9229H23.9482C24.1895 16.9229 24.3799 17.1133 24.3799 17.3545C24.3799 17.5957 24.1895 17.7861 23.9482 17.7861Z" fill="#F9FAFA"/>
<path d="M28.29 17.7861H26.335C26.0937 17.7861 25.9033 17.5957 25.9033 17.3545C25.9033 17.1133 26.0937 16.9229 26.335 16.9229H28.29C28.5312 16.9229 28.7217 17.1133 28.7217 17.3545C28.7217 17.5957 28.5312 17.7861 28.29 17.7861Z" fill="#F9FAFA"/>
<path d="M44.959 42.1997C44.8447 42.1997 44.7305 42.1616 44.6543 42.0728L41.3154 38.7212C41.1377 38.5435 41.1377 38.2769 41.3154 38.1118C41.4932 37.9341 41.7598 37.9341 41.9248 38.1118L45.2764 41.4634C45.4541 41.6411 45.4541 41.9077 45.2764 42.0728C45.1748 42.1489 45.0732 42.1997 44.959 42.1997Z" fill="white"/>
<path d="M43.8037 43.355C43.6895 43.355 43.5752 43.3169 43.499 43.228L42.4199 42.1489C42.2422 41.9712 42.2422 41.7046 42.4199 41.5396C42.5977 41.3618 42.8643 41.3618 43.0293 41.5396L44.1084 42.6187C44.2861 42.7964 44.2861 43.063 44.1084 43.228C44.0322 43.3042 43.918 43.355 43.8037 43.355Z" fill="white"/>
<path d="M42.6484 44.4976C42.5342 44.4976 42.4199 44.4595 42.3438 44.3706L41.2646 43.2915C41.0869 43.1138 41.0869 42.8472 41.2646 42.6821C41.4424 42.5044 41.709 42.5044 41.874 42.6821L42.9531 43.7612C43.1309 43.939 43.1309 44.2056 42.9531 44.3706C42.877 44.4595 42.7627 44.4976 42.6484 44.4976Z" fill="white"/>
<path d="M26.7666 38.873H24.6719C24.4307 38.873 24.2402 38.6826 24.2402 38.4414V35.6738H22.9707V38.4414C22.9707 38.6826 22.7803 38.873 22.5391 38.873H20.4443C20.2031 38.873 20.0127 38.6826 20.0127 38.4414V28.3105C20.0127 28.0693 20.2031 27.8789 20.4443 27.8789H22.5391C22.7803 27.8789 22.9707 28.0693 22.9707 28.3105V33.1094H26.7539C26.9951 33.1094 27.1855 33.2998 27.1855 33.541V38.4414C27.1982 38.6826 27.0078 38.873 26.7666 38.873ZM25.1035 38.0098H26.335V33.9727H22.5518C22.3105 33.9727 22.1201 33.7822 22.1201 33.541V28.7422H20.8887V38.0098H22.1201V35.2422C22.1201 35.001 22.3105 34.8105 22.5518 34.8105H24.6846C24.9258 34.8105 25.1162 35.001 25.1162 35.2422L25.1035 38.0098Z" fill="#F9FAFA"/>
<path d="M31.1338 38.873H29.5088C29.2676 38.873 29.0771 38.6826 29.0771 38.4414V31.8145C29.0771 31.5732 29.2676 31.3828 29.5088 31.3828C29.75 31.3828 29.9404 31.5732 29.9404 31.8145V37.9971H30.6895V31.8145C30.6895 31.5732 30.8799 31.3828 31.1211 31.3828C31.3623 31.3828 31.5527 31.5732 31.5527 31.8145V38.4414C31.5654 38.6826 31.3623 38.873 31.1338 38.873Z" fill="#F9FAFA"/>
<path d="M35.4121 32.2588H25.2178C24.9766 32.2588 24.7861 32.0684 24.7861 31.8271V29.4277C24.7861 29.1865 24.9766 28.9961 25.2178 28.9961H35.4121C35.6533 28.9961 35.8437 29.1865 35.8437 29.4277V31.8271C35.8564 32.0557 35.6533 32.2588 35.4121 32.2588ZM25.6494 31.3955H34.9805V29.8594H25.6494V31.3955Z" fill="#F9FAFA"/>
<path d="M40.2109 38.873H38.1162C37.875 38.873 37.6846 38.6826 37.6846 38.4414V35.6738H36.415V38.4414C36.415 38.6826 36.2246 38.873 35.9834 38.873H33.8887C33.6475 38.873 33.457 38.6826 33.457 38.4414V33.541C33.457 33.2998 33.6475 33.1094 33.8887 33.1094H37.6719V28.3105C37.6719 28.0693 37.8623 27.8789 38.1035 27.8789H40.1982C40.4395 27.8789 40.6299 28.0693 40.6299 28.3105V38.4414C40.6426 38.6826 40.4521 38.873 40.2109 38.873ZM38.5605 38.0098H39.792V28.7422H38.5605V33.541C38.5605 33.7822 38.3701 33.9727 38.1289 33.9727H34.3457V37.9971H35.5771V35.2295C35.5771 34.9883 35.7676 34.7979 36.0088 34.7979H38.1416C38.3828 34.7979 38.5732 34.9883 38.5732 35.2295L38.5605 38.0098Z" fill="#F9FAFA"/>
<path d="M42.5215 41.5264H17.8926C17.6514 41.5264 17.4609 41.3359 17.4609 41.0947V25.6572C17.4609 25.416 17.6514 25.2256 17.8926 25.2256H42.7754C43.0166 25.2256 43.207 25.416 43.207 25.6572V37.2734C43.207 37.5146 43.0166 37.7051 42.7754 37.7051C42.5342 37.7051 42.3438 37.5146 42.3438 37.2734V26.0889H18.3242V40.6504H42.5215C42.7627 40.6504 42.9531 40.8408 42.9531 41.082C42.9531 41.3359 42.75 41.5264 42.5215 41.5264Z" fill="#F9FAFA"/>
<path d="M45.7207 48.7876C44.9463 48.7876 44.1592 48.4956 43.5752 47.8989L40.1221 44.4458C39.6396 43.9634 39.6396 43.1763 40.1221 42.6812C40.3379 42.4653 40.6299 42.3384 40.9092 42.313C40.9219 42.0083 41.0615 41.729 41.2773 41.5259C41.4932 41.3101 41.7725 41.1831 42.0645 41.1577C42.0771 40.8657 42.2041 40.5864 42.4326 40.3706C42.915 39.8882 43.7021 39.8882 44.1973 40.3706C44.375 40.5483 44.375 40.8149 44.1973 40.98C44.0195 41.1577 43.7529 41.1577 43.5879 40.98C43.4355 40.8276 43.1943 40.8276 43.0547 40.98C42.9023 41.1323 42.9023 41.3735 43.0547 41.5132C43.1436 41.6021 43.1816 41.7163 43.1816 41.8179C43.1816 41.9321 43.1436 42.0464 43.0547 42.1226C42.877 42.3003 42.6104 42.3003 42.4453 42.1226C42.3818 42.0591 42.2803 42.0083 42.1787 42.0083C42.0771 42.0083 41.9756 42.0464 41.9121 42.1226C41.8486 42.186 41.7978 42.2876 41.7978 42.3892C41.7978 42.4907 41.8359 42.5923 41.9121 42.6558C42.001 42.7446 42.0391 42.8589 42.0391 42.9604C42.0391 43.0747 42.001 43.189 41.9121 43.2651C41.7344 43.4429 41.4678 43.4429 41.3027 43.2651C41.1504 43.1128 40.9092 43.1128 40.7695 43.2651C40.7061 43.3286 40.6553 43.4302 40.6553 43.5317C40.6553 43.6333 40.6934 43.7349 40.7695 43.7983L44.2227 47.2515C44.6289 47.6577 45.1748 47.8862 45.7588 47.8862C46.3428 47.8862 46.8887 47.6577 47.2949 47.2515L48.9453 45.6011C49.8086 44.7378 49.3896 43.6841 48.6533 42.0591C48.3486 41.3862 48.0312 40.688 47.8281 39.9644C47.7773 39.7612 47.5742 39.647 47.3584 39.6978C47.1553 39.7485 47.041 39.9517 47.0918 40.1675L47.3965 41.2974C47.4473 41.4878 47.3584 41.6909 47.1934 41.7798C47.0156 41.8813 46.8125 41.8433 46.6729 41.7163L42.5088 37.5522C42.3564 37.3999 42.1152 37.3999 41.9756 37.5522C41.8359 37.7046 41.8232 37.9458 41.9756 38.0855C42.1533 38.2632 42.1533 38.5298 41.9756 38.6948C41.7979 38.8726 41.5312 38.8726 41.3662 38.6948C40.8838 38.2124 40.8838 37.4253 41.3662 36.9302C41.8486 36.4478 42.6357 36.4478 43.1309 36.9302L46.2285 40.0278C46.2412 39.8247 46.292 39.6343 46.3936 39.4439C46.5586 39.1519 46.8252 38.9487 47.1426 38.8599C47.8154 38.6821 48.4883 39.0757 48.666 39.7485C48.8437 40.4087 49.1484 41.0688 49.4404 41.7036C50.1514 43.2651 50.9004 44.8901 49.5547 46.2231L47.9043 47.8735C47.2695 48.4956 46.4951 48.7876 45.7207 48.7876Z" fill="white"/>
</g>
</g>
<defs>
<clipPath id="clip0_4511_1157">
<rect width="65" height="65" fill="white" transform="translate(0.5)"/>
</clipPath>
<clipPath id="clip1_4511_1157">
<rect width="65" height="65" fill="white" transform="translate(0.5)"/>
</clipPath>
</defs>
</svg>
