<svg width="66" height="65" viewBox="0 0 66 65" fill="none" xmlns="http://www.w3.org/2000/svg">
<g clip-path="url(#clip0_4511_1333)">
<path d="M33 65C50.9493 65 65.5 50.4493 65.5 32.5C65.5 14.5507 50.9493 0 33 0C15.0507 0 0.5 14.5507 0.5 32.5C0.5 50.4493 15.0507 65 33 65Z" fill="#EE7C48"/>
<path d="M23.8721 31.9795H16.7373C16.4453 31.9795 16.2168 31.751 16.2168 31.459C16.2168 31.167 16.4453 30.9385 16.7373 30.9385H23.8721C24.1641 30.9385 24.3926 31.167 24.3926 31.459C24.3926 31.7383 24.1514 31.9795 23.8721 31.9795Z" fill="#FFFFFE"/>
<path d="M20.3047 31.9795C20.0127 31.9795 19.7842 31.751 19.7842 31.459V29.8721C19.7842 29.5801 20.0127 29.3516 20.3047 29.3516C20.5967 29.3516 20.8252 29.5801 20.8252 29.8721V31.459C20.8252 31.7383 20.584 31.9795 20.3047 31.9795Z" fill="#FFFFFE"/>
<path d="M23.3643 37.8956C23.3262 37.8956 23.2881 37.8956 23.25 37.883C18.959 36.9562 17.8164 31.7765 17.7657 31.5607C17.7022 31.2814 17.8926 31.0021 18.1719 30.9386C18.4512 30.8751 18.7305 31.0529 18.794 31.3449C18.8067 31.3956 19.835 36.0802 23.4786 36.8673C23.7579 36.9308 23.9356 37.2101 23.8721 37.4894C23.8213 37.7306 23.6055 37.8956 23.3643 37.8956Z" fill="#FFFFFE"/>
<path d="M17.2326 37.8954C16.9914 37.8954 16.7756 37.7303 16.7248 37.4891C16.6613 37.2098 16.839 36.9305 17.1183 36.867C20.7492 36.0799 21.7902 31.3954 21.8029 31.3446C21.8664 31.0653 22.133 30.8876 22.425 30.9383C22.7043 31.0018 22.882 31.2684 22.8312 31.5477C22.7804 31.7635 21.6506 36.9432 17.3468 37.87C17.3088 37.8954 17.2707 37.8954 17.2326 37.8954Z" fill="#FFFFFE"/>
<path d="M24.5068 40.0791H24.1387C23.8467 40.0791 23.6182 39.8506 23.6182 39.5586C23.6182 39.2666 23.8467 39.0381 24.1387 39.0381H24.5068C25.167 39.0381 25.7129 38.4922 25.7129 37.832V29.415C25.7129 28.7549 25.167 28.209 24.5068 28.209H16.0898C15.4297 28.209 14.8838 28.7549 14.8838 29.415V37.832C14.8838 38.4922 15.4297 39.0381 16.0898 39.0381H21.3584C21.6504 39.0381 21.8789 39.2666 21.8789 39.5586C21.8789 39.8506 21.6504 40.0791 21.3584 40.0791H16.0898C14.8584 40.0791 13.8428 39.0762 13.8428 37.832V29.415C13.8428 28.1836 14.8457 27.168 16.0898 27.168H24.5068C25.7383 27.168 26.7539 28.1709 26.7539 29.415V37.832C26.7539 39.0762 25.751 40.0791 24.5068 40.0791Z" fill="#FFFFFE"/>
<path d="M24.1387 42.8594C23.8467 42.8594 23.6182 42.6309 23.6182 42.3389V39.5586C23.6182 39.2666 23.8467 39.0381 24.1387 39.0381C24.4307 39.0381 24.6592 39.2666 24.6592 39.5586V42.3389C24.6592 42.6309 24.4307 42.8594 24.1387 42.8594Z" fill="#FFFFFE"/>
<path d="M24.1387 42.8594C24.0117 42.8594 23.8721 42.8086 23.7705 42.707L20.9902 39.9268C20.7871 39.7236 20.7871 39.3936 20.9902 39.1904C21.1934 38.9873 21.5234 38.9873 21.7266 39.1904L24.5068 41.9707C24.71 42.1738 24.71 42.5039 24.5068 42.707C24.4053 42.8086 24.2783 42.8594 24.1387 42.8594Z" fill="#FFFFFE"/>
<path d="M48.0566 27.7139C47.7647 27.7139 47.5361 27.4854 47.5361 27.1934V22.7246C47.5361 21.709 46.7109 20.8838 45.6953 20.8838C44.6797 20.8838 43.8545 21.709 43.8545 22.7246V27.2061C43.8545 27.498 43.626 27.7266 43.334 27.7266C43.042 27.7266 42.8135 27.498 42.8135 27.2061V22.7246C42.8135 21.1377 44.1084 19.8428 45.6953 19.8428C47.2822 19.8428 48.5772 21.1377 48.5772 22.7246V27.2061C48.5772 27.4854 48.3486 27.7139 48.0566 27.7139Z" fill="#FFFFFE"/>
<path d="M48.0566 24.2988H43.3467C43.0547 24.2988 42.8262 24.0703 42.8262 23.7783C42.8262 23.4863 43.0547 23.2578 43.3467 23.2578H48.0566C48.3486 23.2578 48.5772 23.4863 48.5772 23.7783C48.5772 24.0703 48.3486 24.2988 48.0566 24.2988Z" fill="#FFFFFE"/>
<path d="M41.8613 33.0205C41.7978 33.0205 41.7217 33.0078 41.6582 32.9824C41.4678 32.9062 41.3408 32.7158 41.3408 32.5V30.2275C40.1729 30.1514 39.2461 29.1738 39.2461 27.9932V19.5762C39.2461 18.3447 40.249 17.3291 41.4932 17.3291H49.9102C51.1416 17.3291 52.1572 18.332 52.1572 19.5762V27.9932C52.1572 29.2246 51.1543 30.2402 49.9102 30.2402H44.8574L42.2295 32.8682C42.1279 32.9697 41.9883 33.0205 41.8613 33.0205ZM41.4932 18.3701C40.833 18.3701 40.2871 18.916 40.2871 19.5762V27.9932C40.2871 28.6533 40.833 29.1992 41.4932 29.1992H41.8613C42.1533 29.1992 42.3818 29.4277 42.3818 29.7197V31.2559L44.2734 29.3643C44.375 29.2627 44.502 29.2119 44.6416 29.2119H49.9102C50.5703 29.2119 51.1162 28.666 51.1162 28.0059V19.5889C51.1162 18.9287 50.5703 18.3828 49.9102 18.3828L41.4932 18.3701Z" fill="#FFFFFE"/>
<path d="M33.1017 49.7406C30.7784 49.7406 28.5187 49.2836 26.3985 48.3822C23.1739 47.0238 20.4698 44.7387 18.5782 41.7933C18.5782 41.7807 18.5655 41.7807 18.5655 41.768C18.1593 41.1332 17.7911 40.473 17.4737 39.7875C17.3468 39.5336 17.461 39.2162 17.7276 39.1019C17.9816 38.975 18.2989 39.0892 18.4132 39.3558C18.7179 40.0033 19.0733 40.6381 19.4542 41.2474C19.4542 41.2601 19.4669 41.2601 19.4669 41.2728C21.2442 44.0404 23.7833 46.1732 26.8048 47.4555C28.798 48.2933 30.9181 48.725 33.1017 48.725C34.7267 48.725 36.339 48.4838 37.8751 48.014C39.5382 47.5062 41.0997 46.7318 42.5089 45.7162C42.5216 45.7035 42.5216 45.7035 42.5343 45.7035C46.7618 42.6693 49.2882 37.7435 49.2882 32.5385C49.2882 31.6371 49.212 30.723 49.0597 29.8344C49.0089 29.5551 49.1993 29.2885 49.4913 29.2377C49.7706 29.1869 50.0372 29.3773 50.088 29.6693C50.2403 30.6088 50.3292 31.5736 50.3292 32.5385C50.3292 35.3187 49.6564 38.0863 48.3614 40.5365C47.1173 42.8978 45.3273 44.9672 43.1564 46.5287C43.1437 46.5414 43.1437 46.5414 43.131 46.5541C41.6202 47.6459 39.9444 48.4711 38.1671 49.017C36.5421 49.474 34.8282 49.7406 33.1017 49.7406Z" fill="#FFFFFE"/>
<path d="M17.0927 28.209C17.0419 28.209 16.9911 28.1963 16.9404 28.1836C16.6611 28.1074 16.5087 27.8154 16.5976 27.5361C17.6386 24.0576 19.8222 20.9346 22.7294 18.7383C25.7382 16.4658 29.331 15.2598 33.1142 15.2598C34.8534 15.2598 36.58 15.5137 38.2304 16.0342C39.3476 16.377 40.4267 16.8467 41.455 17.4053C41.7089 17.5449 41.7978 17.8623 41.6581 18.1162C41.5185 18.3701 41.2011 18.459 40.9472 18.3193C39.9824 17.7861 38.9667 17.3545 37.913 17.0244C36.3642 16.542 34.7392 16.3008 33.1015 16.3008C26.0048 16.3008 19.6191 21.0488 17.5878 27.8408C17.5243 28.0693 17.3085 28.209 17.0927 28.209Z" fill="#FFFFFE"/>
<path d="M19.0098 42.0215C18.7178 42.0215 18.4893 41.793 18.4893 41.501C18.4893 41.209 18.7178 40.9805 19.0098 40.9805C19.3018 40.9805 19.5303 41.209 19.5303 41.501C19.5303 41.793 19.3018 42.0215 19.0098 42.0215Z" fill="#FFFFFE"/>
<path d="M32.5046 44.0529C31.8444 44.0529 31.1462 43.7609 30.6257 43.3293C30.3083 43.0754 30.0417 42.7834 29.7751 42.5041C29.4069 42.1105 29.0642 41.7424 28.6452 41.5139C28.239 41.2853 27.7692 41.1711 27.2614 41.0568C26.7155 40.9299 26.1442 40.7902 25.611 40.4982C25.2937 40.3205 25.0017 40.092 24.7478 39.8127C24.5446 39.6096 24.5573 39.2795 24.7732 39.0764C24.9763 38.8732 25.3064 38.8859 25.5095 39.1017C25.6999 39.3049 25.903 39.4699 26.1315 39.5969C26.5251 39.8254 27.0075 39.9269 27.5026 40.0539C28.0612 40.1809 28.6325 40.3205 29.1657 40.6252C29.7116 40.9426 30.1306 41.3869 30.5368 41.8185C30.7907 42.0851 31.0192 42.3391 31.2858 42.5549C31.8444 43.0119 32.7077 43.2277 33.1013 42.8088C33.4948 42.4025 33.3425 41.5773 33.2155 40.9172C32.7966 38.6193 32.8474 36.1945 33.3933 33.9221C33.4821 33.5666 33.5964 33.1476 33.9138 32.8303C34.1804 32.5637 34.4851 32.4494 34.7644 32.3478C34.8278 32.3225 34.904 32.2971 34.9675 32.2717C35.8181 31.9162 36.4275 31.0148 36.4528 30.0881C36.4655 29.1613 35.8942 28.2473 35.0564 27.8537C34.1423 27.4221 33.0632 27.5998 31.9206 27.7775C30.778 27.968 29.5847 28.1584 28.4421 27.7521C27.236 27.3332 26.3728 26.2668 26.2966 25.1242C26.2585 24.4641 26.5124 23.7785 26.9821 23.2707C27.4138 22.8137 27.9724 22.5598 28.5564 22.5598C29.4069 22.5598 30.0798 23.0676 30.6765 23.4992C31.1716 23.8674 31.6413 24.2101 32.1364 24.2482C32.2507 24.2609 32.3142 24.2355 32.3269 24.2228C32.3903 24.1721 32.3523 23.842 32.3396 23.6389C32.3269 23.4865 32.3015 23.3215 32.3015 23.1564C32.2888 21.5568 34.0026 20.6935 35.6911 20.5412L35.7927 20.5285C36.4401 20.4777 37.1003 20.4143 37.4304 20.0334C37.7351 19.6779 37.7224 19.0812 37.697 18.548C37.6589 17.926 37.6081 17.2658 37.5446 16.593C37.5192 16.301 37.7224 16.0471 38.0144 16.0217C38.3064 15.9963 38.5603 16.1994 38.5857 16.4914C38.6618 17.1769 38.7126 17.8498 38.738 18.4973C38.7634 19.0305 38.8142 20.0207 38.2175 20.7189C37.6081 21.4299 36.6433 21.506 35.8689 21.5695L35.7673 21.5822C34.7771 21.6711 33.3171 22.1535 33.3298 23.1437C33.3298 23.258 33.3425 23.385 33.3552 23.5119C33.406 23.9943 33.4821 24.6418 32.9235 25.0607C32.695 25.2258 32.3903 25.3019 32.0476 25.2766C31.2478 25.2258 30.6003 24.7434 30.0417 24.3244C29.5339 23.9435 29.0515 23.5881 28.531 23.5881C28.239 23.5881 27.947 23.7277 27.7185 23.9689C27.4392 24.2609 27.2868 24.6672 27.3122 25.048C27.363 25.7844 27.9597 26.4826 28.7595 26.7619C29.6482 27.0793 30.6638 26.9143 31.7302 26.7365C32.9743 26.5334 34.2692 26.3303 35.4753 26.8889C36.6814 27.4475 37.4939 28.7551 37.4685 30.0881C37.4431 31.4338 36.5925 32.6906 35.3483 33.2111C35.2722 33.2492 35.1833 33.2746 35.1071 33.3C34.9167 33.3762 34.7263 33.4396 34.6247 33.5412C34.4978 33.6682 34.4343 33.9094 34.3835 34.1379C33.8757 36.2707 33.8249 38.5432 34.2185 40.7014C34.3708 41.5519 34.5866 42.7199 33.8249 43.507C33.4694 43.8879 32.9997 44.0529 32.5046 44.0529Z" fill="#FFFFFE"/>
<path d="M42.839 46.6044C42.547 46.6044 42.3185 46.3759 42.3185 46.0839C42.3185 46.0585 42.3185 46.0331 42.3312 45.995C42.4073 45.4872 42.3312 44.9032 42.2677 44.3446C42.1281 43.2909 41.9757 42.0848 42.9025 41.2723L42.9532 41.2342C43.0294 41.1708 43.1691 41.0438 43.1818 40.993C43.2072 40.8915 42.8263 40.5741 42.6993 40.4725L42.674 40.4598C41.8615 39.7997 41.4171 38.911 41.4933 38.0731C41.5568 37.3622 42.1661 36.1815 42.8644 35.7245C43.2579 35.4579 43.5372 35.0897 43.6261 34.6962C43.8292 33.8202 43.6388 33.4266 43.3214 32.7792C43.1183 32.3729 42.9025 31.9032 42.7374 31.243C42.674 30.9637 42.839 30.6844 43.1183 30.621C43.3976 30.5575 43.6769 30.7225 43.7404 31.0018C43.8673 31.5477 44.0577 31.9413 44.2482 32.3221C44.5909 33.0331 44.921 33.6932 44.629 34.9247C44.4767 35.5848 44.045 36.1688 43.423 36.5878C43.0167 36.8544 42.547 37.7303 42.5089 38.162C42.4708 38.6571 42.7628 39.2157 43.3087 39.6473L43.3341 39.66C43.7277 39.9774 44.3751 40.4979 44.172 41.2469C44.0831 41.6151 43.8165 41.8436 43.6134 42.0087L43.5753 42.0468C43.0802 42.4784 43.1437 43.1385 43.2833 44.1923C43.3722 44.827 43.4484 45.4872 43.3468 46.1473C43.3214 46.4139 43.1056 46.6044 42.839 46.6044Z" fill="#FFFFFE"/>
<path d="M38.0271 48.9913C37.8493 48.9913 37.6716 48.9024 37.57 48.7374C37.0115 47.7725 36.3894 47.1631 35.6657 46.8965C34.8786 46.5919 33.99 46.6934 33.0505 46.795C32.2761 46.8838 31.4763 46.9727 30.6765 46.8458C30.4734 46.8204 30.2956 46.7696 30.1052 46.7315C29.7751 46.6553 29.4577 46.5792 29.1531 46.5919C28.2644 46.6299 27.5661 47.4297 27.0075 48.2169C26.8425 48.4454 26.5124 48.4962 26.2839 48.3311C26.0554 48.1661 26.0046 47.836 26.1697 47.6075C26.8806 46.6299 27.782 45.627 29.1023 45.5635C29.5466 45.5381 29.9402 45.6397 30.3337 45.7286C30.5114 45.7667 30.6765 45.8047 30.8415 45.8301C31.5017 45.9317 32.1999 45.8555 32.9363 45.7794C33.9646 45.6651 35.0183 45.5508 36.0466 45.9444C36.9988 46.3126 37.7986 47.0616 38.4841 48.2422C38.6238 48.4961 38.5476 48.8135 38.2937 48.9532C38.2048 48.9786 38.1159 48.9913 38.0271 48.9913Z" fill="#FFFFFE"/>
<g clip-path="url(#clip1_4511_1333)">
<path d="M33 65C50.9492 65 65.5 50.4492 65.5 32.5C65.5 14.5507 50.9492 0 33 0C15.0507 0 0.5 14.5507 0.5 32.5C0.5 50.4492 15.0507 65 33 65Z" fill="#EE7C48"/>
<path fill-rule="evenodd" clip-rule="evenodd" d="M19.2355 52.0768C17.9355 52.0768 16.9414 51.0826 16.9414 49.8591V15.2179C16.9414 13.9944 17.9355 12.9238 19.2355 12.9238H41.6414C42.9414 12.9238 43.9355 13.9944 43.9355 15.2179V29.1356H46.4591C47.912 29.1356 49.0591 30.2826 49.0591 31.7356V50.6238C49.1355 51.465 48.4473 52.0768 47.6061 52.0768C38.1238 52.0768 28.6414 52.0768 19.2355 52.0768ZM45.6179 36.5532H42.9414C42.6355 36.5532 42.3296 36.2474 42.3296 35.9415V33.265C42.3296 32.9591 42.6355 32.7297 42.9414 32.7297H45.6179C45.9238 32.7297 46.1532 32.9591 46.1532 33.265V35.9415C46.1532 36.2474 45.9238 36.5532 45.6179 36.5532ZM43.4767 35.4062H45.0826V33.8768H43.4767V35.4062ZM40.112 36.5532H37.4355C37.1296 36.5532 36.8238 36.2474 36.8238 35.9415V33.265C36.8238 32.9591 37.1296 32.7297 37.4355 32.7297H40.112C40.4179 32.7297 40.6473 32.9591 40.6473 33.265V35.9415C40.6473 36.2474 40.4179 36.5532 40.112 36.5532ZM37.9708 35.4062H39.5767V33.8768H37.9708V35.4062ZM46.3826 48.865H36.8238C36.5179 48.865 36.2885 48.6356 36.2885 48.3297C36.2885 48.0238 36.5179 47.7179 36.8238 47.7179H46.3826C46.6885 47.7179 46.9179 48.0238 46.9179 48.3297C46.9179 48.6356 46.6885 48.865 46.3826 48.865ZM46.3826 45.8062H36.8238C36.5179 45.8062 36.2885 45.5768 36.2885 45.2709C36.2885 44.965 36.5179 44.6591 36.8238 44.6591H46.3826C46.6885 44.6591 46.9179 44.965 46.9179 45.2709C46.9179 45.5768 46.6885 45.8062 46.3826 45.8062ZM46.3826 42.7474H36.8238C36.5179 42.7474 36.2885 42.5179 36.2885 42.2121C36.2885 41.9062 36.5179 41.6003 36.8238 41.6003H46.3826C46.6885 41.6003 46.9179 41.9062 46.9179 42.2121C46.9179 42.5179 46.6885 42.7474 46.3826 42.7474ZM44.0885 39.765H39.1179C38.812 39.765 38.5826 39.4591 38.5826 39.1532C38.5826 38.8474 38.812 38.6179 39.1179 38.6179H44.0885C44.3943 38.6179 44.6238 38.8474 44.6238 39.1532C44.6238 39.4591 44.3943 39.765 44.0885 39.765ZM42.7885 29.1356V20.1121H18.0885V49.8591C18.0885 50.4709 18.5473 51.0062 19.2355 51.0062H34.1473C34.0708 50.8532 34.0708 50.7003 34.0708 50.6238V48.865H21.8355C21.5296 48.865 21.3002 48.6356 21.3002 48.3297C21.3002 48.0238 21.5296 47.7179 21.8355 47.7179H34.0708V46.1121H21.8355C21.5296 46.1121 21.3002 45.8826 21.3002 45.5003C21.3002 45.1944 21.5296 44.965 21.8355 44.965H34.0708V43.3591H21.8355C21.5296 43.3591 21.3002 43.0532 21.3002 42.7474C21.3002 42.4415 21.5296 42.2121 21.8355 42.2121H34.0708V40.6062H21.8355C21.5296 40.6062 21.3002 40.3768 21.3002 39.9944C21.3002 39.6885 21.5296 39.4591 21.8355 39.4591H34.0708V37.3179H21.8355C21.5296 37.3179 21.3002 37.0885 21.3002 36.7826V32.1944C21.3002 31.8885 21.5296 31.6591 21.8355 31.6591H34.0708C34.1473 30.2062 35.2943 29.1356 36.7473 29.1356H42.7885ZM35.6002 51.0062H47.6061C47.8355 51.0062 47.9885 50.8532 47.9885 50.6238V31.7356C47.9885 30.8944 47.3002 30.2062 46.4591 30.2062H36.7473C35.9061 30.2062 35.2179 30.8944 35.2179 31.7356V50.6238C35.2179 50.8532 35.3708 51.0062 35.6002 51.0062ZM34.0708 36.2474V32.8062H22.4473V36.2474H34.0708ZM30.0943 28.9062C29.7885 28.9062 29.5591 28.6768 29.5591 28.3709V28.2179C28.9473 27.9885 28.5649 27.4532 28.5649 26.765C28.5649 26.4591 28.7943 26.2297 29.1767 26.2297C29.4826 26.2297 29.712 26.4591 29.712 26.765C29.712 26.9944 29.7885 27.1474 29.9414 27.1474H30.0943C30.1708 27.1474 30.2473 27.1474 30.3238 27.2238C30.4767 27.1474 30.6296 26.9944 30.6296 26.765C30.6296 26.5356 30.4002 26.3827 30.1708 26.3827C29.3296 26.3827 28.6414 25.6944 28.6414 24.7768C28.6414 24.0885 29.0238 23.5532 29.5591 23.3238V23.1709C29.5591 22.865 29.7885 22.6356 30.0943 22.6356C30.4767 22.6356 30.7061 22.865 30.7061 23.1709V23.3238C31.2414 23.5532 31.7002 24.0121 31.7002 24.7768C31.7002 25.0827 31.4708 25.3885 31.1649 25.3885C30.8591 25.3885 30.5532 25.0827 30.5532 24.7768C30.5532 24.3944 30.1708 24.3179 30.0943 24.3179C30.0943 24.3179 29.712 24.3944 29.712 24.7768C29.712 25.0827 29.9414 25.2356 30.0943 25.2356C31.012 25.2356 31.7002 25.9238 31.7002 26.765C31.7002 27.4532 31.3179 27.9885 30.7061 28.2179V28.3709C30.7061 28.6768 30.4767 28.9062 30.0943 28.9062ZM30.0943 30.665C27.4943 30.665 25.2767 28.4474 25.2767 25.7709C25.2767 23.0179 27.4943 20.8768 30.0943 20.8768C32.8473 20.8768 35.0649 23.0179 35.0649 25.7709C35.0649 28.4474 32.8473 30.665 30.0943 30.665ZM30.0943 22.0238C28.0296 22.0238 26.3473 23.7062 26.3473 25.7709C26.3473 27.8356 28.0296 29.5179 30.0943 29.5179C32.2355 29.5179 33.9179 27.8356 33.9179 25.7709C33.9179 23.7062 32.2355 22.0238 30.0943 22.0238ZM22.9826 18.0474H19.2355C18.8532 18.0474 18.6238 17.8179 18.6238 17.5121V15.5238C18.6238 15.2179 18.8532 14.9885 19.2355 14.9885H22.9826C23.2885 14.9885 23.5943 15.2179 23.5943 15.5238V17.4356C23.5943 17.8179 23.2885 18.0474 22.9826 18.0474ZM19.7708 16.9003H22.4473V16.1356H19.7708V16.9003ZM34.3002 17.0532H33.0767C32.7708 17.0532 32.4649 16.8238 32.4649 16.5179C32.4649 16.2121 32.7708 15.9062 33.0767 15.9062H34.3002C34.6061 15.9062 34.912 16.2121 34.912 16.5179C34.912 16.8238 34.6061 17.0532 34.3002 17.0532ZM37.2826 17.0532H36.0591C35.7532 17.0532 35.4473 16.8238 35.4473 16.5179C35.4473 16.2121 35.7532 15.9062 36.0591 15.9062H37.2826C37.5885 15.9062 37.8943 16.2121 37.8943 16.5179C37.8943 16.8238 37.5885 17.0532 37.2826 17.0532ZM40.2649 17.0532H39.0414C38.7355 17.0532 38.5061 16.8238 38.5061 16.5179C38.5061 16.2121 38.7355 15.9062 39.0414 15.9062H40.2649C40.6473 15.9062 40.8767 16.2121 40.8767 16.5179C40.8767 16.8238 40.5708 17.0532 40.2649 17.0532ZM24.2826 18.965L27.8002 14.0709H19.2355C18.5473 14.0709 18.0885 14.6062 18.0885 15.2179V18.965H24.2826ZM29.1002 14.0709L25.6591 18.965H42.7885V15.2179C42.7885 14.6062 42.2532 14.0709 41.6414 14.0709H29.1002Z" fill="white"/>
</g>
</g>
<defs>
<clipPath id="clip0_4511_1333">
<rect width="65" height="65" fill="white" transform="translate(0.5)"/>
</clipPath>
<clipPath id="clip1_4511_1333">
<rect width="65" height="65" fill="white" transform="translate(0.5)"/>
</clipPath>
</defs>
</svg>
