<svg width="66" height="65" viewBox="0 0 66 65" fill="none" xmlns="http://www.w3.org/2000/svg">
<g clip-path="url(#clip0_4511_1521)">
<path d="M33 65C50.9493 65 65.5 50.4493 65.5 32.5C65.5 14.5507 50.9493 0 33 0C15.0507 0 0.5 14.5507 0.5 32.5C0.5 50.4493 15.0507 65 33 65Z" fill="#8A9EED"/>
<g clip-path="url(#clip1_4511_1521)">
<path d="M33 65C50.9493 65 65.5 50.4493 65.5 32.5C65.5 14.5507 50.9493 0 33 0C15.0507 0 0.5 14.5507 0.5 32.5C0.5 50.4493 15.0507 65 33 65Z" fill="#8A9EED"/>
<path d="M14.1475 48.75C13.8809 48.75 13.665 48.5342 13.665 48.2676V23.8926C13.665 23.626 13.8809 23.4102 14.1475 23.4102H17.6387C17.9053 23.4102 18.1211 23.626 18.1211 23.8926C18.1211 24.1592 17.9053 24.375 17.6387 24.375H14.6299V48.2676C14.6426 48.5342 14.4141 48.75 14.1475 48.75Z" fill="#F9FAFA"/>
<path d="M51.6875 48.75C51.4209 48.75 51.2051 48.5342 51.2051 48.2676V24.375H48.2852C48.0186 24.375 47.8027 24.1592 47.8027 23.8926C47.8027 23.626 48.0186 23.4102 48.2852 23.4102H51.7002C51.9668 23.4102 52.1826 23.626 52.1826 23.8926V48.2676C52.1699 48.5342 51.9541 48.75 51.6875 48.75Z" fill="#F9FAFA"/>
<path d="M35.7678 50.2102H30.4104C30.2834 50.2102 30.1565 50.1594 30.0676 50.0706L28.6077 48.6106C28.4172 48.4202 28.4172 48.1155 28.6077 47.925C28.7981 47.7346 29.1028 47.7346 29.2932 47.925L30.6135 49.2454H35.5774L36.8977 47.925C37.0881 47.7346 37.3928 47.7346 37.5833 47.925C37.7737 48.1155 37.7737 48.4202 37.5833 48.6106L36.1233 50.0706C36.0217 50.1594 35.8948 50.2102 35.7678 50.2102Z" fill="#F9FAFA"/>
<path d="M51.1162 53.1426H14.7188C13.335 53.1426 12.2051 52.0127 12.2051 50.6289V48.2676C12.2051 48.001 12.4209 47.7852 12.6875 47.7852H28.9375C29.2041 47.7852 29.4199 48.001 29.4199 48.2676C29.4199 48.5342 29.2041 48.75 28.9375 48.75H13.1699V50.6162C13.1699 51.4668 13.8682 52.165 14.7188 52.165H51.1162C51.9668 52.165 52.665 51.4668 52.665 50.6162V48.75H37.2275C36.9609 48.75 36.7451 48.5342 36.7451 48.2676C36.7451 48.001 36.9609 47.7852 37.2275 47.7852H53.1475C53.4141 47.7852 53.6299 48.001 53.6299 48.2676V50.6289C53.6426 52.0127 52.5127 53.1426 51.1162 53.1426Z" fill="#F9FAFA"/>
<path d="M48.2725 45.335H17.6387C17.3721 45.335 17.1562 45.1191 17.1562 44.8525V12.1875C17.1562 11.9209 17.3721 11.7051 17.6387 11.7051H48.2725C48.5391 11.7051 48.7549 11.9209 48.7549 12.1875V44.8525C48.7676 45.1191 48.5391 45.335 48.2725 45.335ZM18.1338 44.3574H47.79V12.6699H18.1338V44.3574Z" fill="#F9FAFA"/>
<path d="M48.2725 19.5H17.6387C17.3721 19.5 17.1562 19.2842 17.1562 19.0176C17.1562 18.751 17.3721 18.5352 17.6387 18.5352H48.2725C48.5391 18.5352 48.7549 18.751 48.7549 19.0176C48.7676 19.2842 48.5391 19.5 48.2725 19.5Z" fill="#F9FAFA"/>
<path d="M21.5488 17.5449C20.4697 17.5449 19.5938 16.6689 19.5938 15.5898C19.5938 14.5107 20.4697 13.6348 21.5488 13.6348C22.6279 13.6348 23.5039 14.5107 23.5039 15.5898C23.4912 16.6689 22.6152 17.5449 21.5488 17.5449ZM21.5488 14.625C21.0156 14.625 20.5713 15.0566 20.5713 15.6025C20.5713 16.1484 21.0029 16.5801 21.5488 16.5801C22.082 16.5801 22.5264 16.1484 22.5264 15.6025C22.5264 15.0566 22.082 14.625 21.5488 14.625Z" fill="white"/>
<path d="M26.4238 17.5449C25.3447 17.5449 24.4688 16.6689 24.4688 15.5898C24.4688 14.5107 25.3447 13.6348 26.4238 13.6348C27.5029 13.6348 28.3789 14.5107 28.3789 15.5898C28.3662 16.6689 27.4902 17.5449 26.4238 17.5449ZM26.4238 14.625C25.8906 14.625 25.4463 15.0566 25.4463 15.6025C25.4463 16.1484 25.8779 16.5801 26.4238 16.5801C26.957 16.5801 27.4014 16.1484 27.4014 15.6025C27.4014 15.0566 26.957 14.625 26.4238 14.625Z" fill="white"/>
<path d="M31.2988 17.5449C30.2197 17.5449 29.3438 16.6689 29.3438 15.5898C29.3438 14.5107 30.2197 13.6348 31.2988 13.6348C32.3779 13.6348 33.2539 14.5107 33.2539 15.5898C33.2412 16.6689 32.3652 17.5449 31.2988 17.5449ZM31.2988 14.625C30.7656 14.625 30.3213 15.0566 30.3213 15.6025C30.3213 16.1484 30.7529 16.5801 31.2988 16.5801C31.8447 16.5801 32.2764 16.1484 32.2764 15.6025C32.2764 15.0566 31.832 14.625 31.2988 14.625Z" fill="white"/>
<path d="M45.835 17.5449H36.085C35.8184 17.5449 35.6025 17.3291 35.6025 17.0625V14.1426C35.6025 13.876 35.8184 13.6602 36.085 13.6602H45.835C46.1016 13.6602 46.3174 13.876 46.3174 14.1426V17.0625C46.3301 17.3291 46.1016 17.5449 45.835 17.5449ZM36.5801 16.5801H45.3525V14.625H36.5801V16.5801Z" fill="#F9FAFA"/>
<path d="M48.2725 29.7324H17.6387C17.3721 29.7324 17.1562 29.5166 17.1562 29.25C17.1562 28.9834 17.3721 28.7676 17.6387 28.7676H48.2725C48.5391 28.7676 48.7549 28.9834 48.7549 29.25C48.7676 29.5166 48.5391 29.7324 48.2725 29.7324Z" fill="#F9FAFA"/>
<path d="M28.7724 29.7324C28.62 29.7324 28.4804 29.6689 28.3788 29.542L24.3671 24.1846L19.8857 29.5674C19.7079 29.7705 19.4033 29.7959 19.2001 29.6309C18.997 29.4531 18.9716 29.1484 19.1367 28.9453L24.0117 23.0928C24.1132 22.9785 24.2529 22.915 24.3925 22.915C24.5449 22.915 24.6845 22.9912 24.7734 23.1055L29.1659 28.958C29.331 29.1738 29.2802 29.4785 29.0644 29.6436C28.9755 29.707 28.874 29.7324 28.7724 29.7324Z" fill="#F9FAFA"/>
<path d="M37.5448 29.7324C37.4052 29.7324 37.2655 29.6689 37.1767 29.5547L32.1366 23.6133L27.6298 27.6631C27.4267 27.8408 27.122 27.8281 26.9442 27.625C26.7665 27.4219 26.7792 27.1172 26.9823 26.9395L31.8573 22.5469C31.9589 22.458 32.0858 22.4199 32.2128 22.4199C32.3397 22.4326 32.4667 22.4961 32.5556 22.5977L37.913 28.9326C38.0907 29.1357 38.0653 29.4404 37.8495 29.6182C37.7733 29.6943 37.6591 29.7324 37.5448 29.7324Z" fill="#F9FAFA"/>
<path d="M39.5 29.7324C39.2334 29.7324 39.0176 29.5166 39.0176 29.25V19.0176C39.0176 18.751 39.2334 18.5352 39.5 18.5352C39.7666 18.5352 39.9824 18.751 39.9824 19.0176V29.25C39.9824 29.5166 39.7666 29.7324 39.5 29.7324Z" fill="#F9FAFA"/>
<path d="M46.3301 21.9375H41.4551C41.1885 21.9375 40.9727 21.7217 40.9727 21.4551C40.9727 21.1885 41.1885 20.9727 41.4551 20.9727H46.3301C46.5967 20.9727 46.8125 21.1885 46.8125 21.4551C46.8125 21.7217 46.5967 21.9375 46.3301 21.9375Z" fill="white"/>
<path d="M46.3301 24.375H41.4551C41.1885 24.375 40.9727 24.1592 40.9727 23.8926C40.9727 23.626 41.1885 23.4102 41.4551 23.4102H46.3301C46.5967 23.4102 46.8125 23.626 46.8125 23.8926C46.8125 24.1592 46.5967 24.375 46.3301 24.375Z" fill="white"/>
<path d="M46.3301 26.8125H41.4551C41.1885 26.8125 40.9727 26.5967 40.9727 26.3301C40.9727 26.0635 41.1885 25.8477 41.4551 25.8477H46.3301C46.5967 25.8477 46.8125 26.0635 46.8125 26.3301C46.8125 26.5967 46.5967 26.8125 46.3301 26.8125Z" fill="white"/>
<path d="M26.8301 37.54H20.4951C20.2285 37.54 20.0127 37.3242 20.0127 37.0576V32.1826C20.0127 31.916 20.2285 31.7002 20.4951 31.7002H26.8301C27.0967 31.7002 27.3125 31.916 27.3125 32.1826V37.0576C27.3125 37.3242 27.0967 37.54 26.8301 37.54ZM20.9775 36.5625H26.335V32.665H20.9775V36.5625Z" fill="white"/>
<path d="M36.085 37.54H29.75C29.4834 37.54 29.2676 37.3242 29.2676 37.0576V32.1826C29.2676 31.916 29.4834 31.7002 29.75 31.7002H36.085C36.3516 31.7002 36.5674 31.916 36.5674 32.1826V37.0576C36.5801 37.3242 36.3516 37.54 36.085 37.54ZM30.2324 36.5625H35.5898V32.665H30.2324V36.5625Z" fill="white"/>
<path d="M45.3525 37.54H39.0176C38.751 37.54 38.5352 37.3242 38.5352 37.0576V32.1826C38.5352 31.916 38.751 31.7002 39.0176 31.7002H45.3525C45.6191 31.7002 45.835 31.916 45.835 32.1826V37.0576C45.835 37.3242 45.6191 37.54 45.3525 37.54ZM39.5 36.5625H44.8574V32.665H39.5V36.5625Z" fill="white"/>
<path d="M45.3525 40.46H20.4824C20.2158 40.46 20 40.2441 20 39.9775C20 39.7109 20.2158 39.4951 20.4824 39.4951H45.3398C45.6064 39.4951 45.8223 39.7109 45.8223 39.9775C45.835 40.2441 45.6191 40.46 45.3525 40.46Z" fill="white"/>
<path d="M45.3525 42.8975H20.4824C20.2158 42.8975 20 42.6816 20 42.415C20 42.1484 20.2158 41.9326 20.4824 41.9326H45.3398C45.6064 41.9326 45.8223 42.1484 45.8223 42.415C45.835 42.6816 45.6191 42.8975 45.3525 42.8975Z" fill="white"/>
</g>
</g>
<defs>
<clipPath id="clip0_4511_1521">
<rect width="65" height="65" fill="white" transform="translate(0.5)"/>
</clipPath>
<clipPath id="clip1_4511_1521">
<rect width="65" height="65" fill="white" transform="translate(0.5)"/>
</clipPath>
</defs>
</svg>
