<svg width="66" height="65" viewBox="0 0 66 65" fill="none" xmlns="http://www.w3.org/2000/svg">
<g clip-path="url(#clip0_4511_1633)">
<path d="M33 65C50.9493 65 65.5 50.4493 65.5 32.5C65.5 14.5507 50.9493 0 33 0C15.0507 0 0.5 14.5507 0.5 32.5C0.5 50.4493 15.0507 65 33 65Z" fill="#EE7C48"/>
<g clip-path="url(#clip1_4511_1633)">
<path d="M33 65C50.9493 65 65.5 50.4493 65.5 32.5C65.5 14.5507 50.9493 0 33 0C15.0507 0 0.5 14.5507 0.5 32.5C0.5 50.4493 15.0507 65 33 65Z" fill="#EE7C48"/>
<path d="M44.8955 51.6572H17.499C17.207 51.6572 16.9785 51.4287 16.9785 51.1367V17.4561C16.9785 17.1641 17.207 16.9355 17.499 16.9355H44.8955C45.1875 16.9355 45.416 17.1641 45.416 17.4561V51.124C45.416 51.416 45.1875 51.6572 44.8955 51.6572ZM18.0195 50.6162H44.375V17.9893H18.0195V50.6162Z" fill="#FFFFFE"/>
<path d="M48.501 48.0645H44.9082C44.6162 48.0645 44.3877 47.8359 44.3877 47.5439C44.3877 47.252 44.6162 47.0234 44.9082 47.0234H47.9805V14.3965H21.625V17.4688C21.625 17.7607 21.3965 17.9893 21.1045 17.9893C20.8125 17.9893 20.584 17.7607 20.584 17.4688V13.876C20.584 13.584 20.8125 13.3555 21.1045 13.3555H48.501C48.793 13.3555 49.0215 13.584 49.0215 13.876V47.5439C49.0088 47.8232 48.7803 48.0645 48.501 48.0645Z" fill="#FFFFFE"/>
<path d="M28.8232 33.1475H20.5713C20.2793 33.1475 20.0508 32.9189 20.0508 32.627V29.7832C20.0508 27.5488 21.8662 25.7461 24.0879 25.7461H25.2939C27.5283 25.7461 29.3311 27.5615 29.3311 29.7832V32.627C29.3438 32.9189 29.1152 33.1475 28.8232 33.1475ZM21.0918 32.1064H28.3027V29.7832C28.3027 28.1328 26.957 26.7744 25.2939 26.7744H24.0879C22.4375 26.7744 21.0791 28.1201 21.0791 29.7832C21.0918 29.7959 21.0918 32.1064 21.0918 32.1064Z" fill="#FFFFFE"/>
<path d="M24.6973 26.7871C23.0977 26.7871 21.79 25.4795 21.79 23.8799C21.79 22.2803 23.0977 20.9727 24.6973 20.9727C26.2969 20.9727 27.6045 22.2803 27.6045 23.8799C27.6045 25.4795 26.2969 26.7871 24.6973 26.7871ZM24.6973 22.0137C23.6689 22.0137 22.8311 22.8516 22.8311 23.8799C22.8311 24.9082 23.6689 25.7461 24.6973 25.7461C25.7256 25.7461 26.5635 24.9082 26.5635 23.8799C26.5635 22.8516 25.7256 22.0137 24.6973 22.0137Z" fill="#FFFFFE"/>
<path d="M24.6973 29.6689C24.5703 29.6689 24.4307 29.6182 24.3291 29.5166L22.0947 27.2949C21.8916 27.0918 21.8916 26.7617 22.0947 26.5586C22.2979 26.3555 22.6279 26.3555 22.8311 26.5586L25.0654 28.793C25.2686 28.9961 25.2686 29.3262 25.0654 29.5293C24.9639 29.6182 24.8242 29.6689 24.6973 29.6689Z" fill="#FFFFFE"/>
<path d="M24.6973 29.6689C24.5703 29.6689 24.4307 29.6182 24.3291 29.5166C24.126 29.3135 24.126 28.9834 24.3291 28.7803L26.5635 26.5459C26.7666 26.3428 27.0967 26.3428 27.2998 26.5459C27.5029 26.749 27.5029 27.0791 27.2998 27.2822L25.0654 29.5166C24.9639 29.6182 24.8242 29.6689 24.6973 29.6689Z" fill="#FFFFFE"/>
<path d="M41.8359 31.2051H32.8223C32.5303 31.2051 32.3018 30.9766 32.3018 30.6846C32.3018 30.3926 32.5303 30.1641 32.8223 30.1641H41.8359C42.1279 30.1641 42.3564 30.3926 42.3564 30.6846C42.3564 30.9766 42.1279 31.2051 41.8359 31.2051Z" fill="#FFFFFE"/>
<path d="M41.8359 27.5742H32.8223C32.5303 27.5742 32.3018 27.3457 32.3018 27.0537C32.3018 26.7617 32.5303 26.5332 32.8223 26.5332H41.8359C42.1279 26.5332 42.3564 26.7617 42.3564 27.0537C42.3564 27.3457 42.1279 27.5742 41.8359 27.5742Z" fill="#FFFFFE"/>
<path d="M41.8359 23.9561H32.8223C32.5303 23.9561 32.3018 23.7275 32.3018 23.4355C32.3018 23.1436 32.5303 22.915 32.8223 22.915H41.8359C42.1279 22.915 42.3564 23.1436 42.3564 23.4355C42.3564 23.7275 42.1279 23.9561 41.8359 23.9561Z" fill="#FFFFFE"/>
<path d="M41.8359 44.002H20.5713C20.2793 44.002 20.0508 43.7734 20.0508 43.4814C20.0508 43.1895 20.2793 42.9609 20.5713 42.9609H41.8359C42.1279 42.9609 42.3564 43.1895 42.3564 43.4814C42.3564 43.7734 42.1279 44.002 41.8359 44.002Z" fill="#FFFFFE"/>
<path d="M41.8359 47.6201H20.5713C20.2793 47.6201 20.0508 47.3916 20.0508 47.0996C20.0508 46.8076 20.2793 46.5791 20.5713 46.5791H41.8359C42.1279 46.5791 42.3564 46.8076 42.3564 47.0996C42.3564 47.3916 42.1279 47.6201 41.8359 47.6201Z" fill="#FFFFFE"/>
<path d="M41.8359 40.3711H20.5713C20.2793 40.3711 20.0508 40.1426 20.0508 39.8506C20.0508 39.5586 20.2793 39.3301 20.5713 39.3301H41.8359C42.1279 39.3301 42.3564 39.5586 42.3564 39.8506C42.3564 40.1426 42.1279 40.3711 41.8359 40.3711Z" fill="#FFFFFE"/>
<path d="M41.8359 36.7529H20.5713C20.2793 36.7529 20.0508 36.5244 20.0508 36.2324C20.0508 35.9404 20.2793 35.7119 20.5713 35.7119H41.8359C42.1279 35.7119 42.3564 35.9404 42.3564 36.2324C42.3564 36.5244 42.1279 36.7529 41.8359 36.7529Z" fill="#FFFFFE"/>
</g>
</g>
<defs>
<clipPath id="clip0_4511_1633">
<rect width="65" height="65" fill="white" transform="translate(0.5)"/>
</clipPath>
<clipPath id="clip1_4511_1633">
<rect width="65" height="65" fill="white" transform="translate(0.5)"/>
</clipPath>
</defs>
</svg>
