<svg width="66" height="65" viewBox="0 0 66 65" fill="none" xmlns="http://www.w3.org/2000/svg">
<g clip-path="url(#clip0_4511_948)">
<path d="M33 65C50.9493 65 65.5 50.4493 65.5 32.5C65.5 14.5507 50.9493 0 33 0C15.0507 0 0.5 14.5507 0.5 32.5C0.5 50.4493 15.0507 65 33 65Z" fill="#EE7C48"/>
<path d="M23.8721 31.9795H16.7373C16.4453 31.9795 16.2168 31.751 16.2168 31.459C16.2168 31.167 16.4453 30.9385 16.7373 30.9385H23.8721C24.1641 30.9385 24.3926 31.167 24.3926 31.459C24.3926 31.7383 24.1514 31.9795 23.8721 31.9795Z" fill="#FFFFFE"/>
<path d="M20.3047 31.9795C20.0127 31.9795 19.7842 31.751 19.7842 31.459V29.8721C19.7842 29.5801 20.0127 29.3516 20.3047 29.3516C20.5967 29.3516 20.8252 29.5801 20.8252 29.8721V31.459C20.8252 31.7383 20.584 31.9795 20.3047 31.9795Z" fill="#FFFFFE"/>
<path d="M23.3643 37.8956C23.3262 37.8956 23.2881 37.8956 23.25 37.883C18.959 36.9562 17.8164 31.7765 17.7657 31.5607C17.7022 31.2814 17.8926 31.0021 18.1719 30.9386C18.4512 30.8751 18.7305 31.0529 18.794 31.3449C18.8067 31.3956 19.835 36.0802 23.4786 36.8673C23.7579 36.9308 23.9356 37.2101 23.8721 37.4894C23.8213 37.7306 23.6055 37.8956 23.3643 37.8956Z" fill="#FFFFFE"/>
<path d="M17.2323 37.8954C16.9911 37.8954 16.7753 37.7303 16.7245 37.4891C16.6611 37.2098 16.8388 36.9305 17.1181 36.867C20.7489 36.0799 21.79 31.3954 21.8027 31.3446C21.8661 31.0653 22.1327 30.8876 22.4247 30.9383C22.704 31.0018 22.8818 31.2684 22.831 31.5477C22.7802 31.7635 21.6503 36.9432 17.3466 37.87C17.3085 37.8954 17.2704 37.8954 17.2323 37.8954Z" fill="#FFFFFE"/>
<path d="M24.5068 40.0791H24.1387C23.8467 40.0791 23.6182 39.8506 23.6182 39.5586C23.6182 39.2666 23.8467 39.0381 24.1387 39.0381H24.5068C25.167 39.0381 25.7129 38.4922 25.7129 37.832V29.415C25.7129 28.7549 25.167 28.209 24.5068 28.209H16.0898C15.4297 28.209 14.8838 28.7549 14.8838 29.415V37.832C14.8838 38.4922 15.4297 39.0381 16.0898 39.0381H21.3584C21.6504 39.0381 21.8789 39.2666 21.8789 39.5586C21.8789 39.8506 21.6504 40.0791 21.3584 40.0791H16.0898C14.8584 40.0791 13.8428 39.0762 13.8428 37.832V29.415C13.8428 28.1836 14.8457 27.168 16.0898 27.168H24.5068C25.7383 27.168 26.7539 28.1709 26.7539 29.415V37.832C26.7539 39.0762 25.751 40.0791 24.5068 40.0791Z" fill="#FFFFFE"/>
<path d="M24.1387 42.8594C23.8467 42.8594 23.6182 42.6309 23.6182 42.3389V39.5586C23.6182 39.2666 23.8467 39.0381 24.1387 39.0381C24.4307 39.0381 24.6592 39.2666 24.6592 39.5586V42.3389C24.6592 42.6309 24.4307 42.8594 24.1387 42.8594Z" fill="#FFFFFE"/>
<path d="M24.1387 42.8594C24.0117 42.8594 23.8721 42.8086 23.7705 42.707L20.9902 39.9268C20.7871 39.7236 20.7871 39.3936 20.9902 39.1904C21.1934 38.9873 21.5234 38.9873 21.7266 39.1904L24.5068 41.9707C24.71 42.1738 24.71 42.5039 24.5068 42.707C24.4053 42.8086 24.2783 42.8594 24.1387 42.8594Z" fill="#FFFFFE"/>
<path d="M48.0566 27.7139C47.7647 27.7139 47.5361 27.4854 47.5361 27.1934V22.7246C47.5361 21.709 46.7109 20.8838 45.6953 20.8838C44.6797 20.8838 43.8545 21.709 43.8545 22.7246V27.2061C43.8545 27.498 43.626 27.7266 43.334 27.7266C43.042 27.7266 42.8135 27.498 42.8135 27.2061V22.7246C42.8135 21.1377 44.1084 19.8428 45.6953 19.8428C47.2822 19.8428 48.5772 21.1377 48.5772 22.7246V27.2061C48.5772 27.4854 48.3486 27.7139 48.0566 27.7139Z" fill="#FFFFFE"/>
<path d="M48.0566 24.2988H43.3467C43.0547 24.2988 42.8262 24.0703 42.8262 23.7783C42.8262 23.4863 43.0547 23.2578 43.3467 23.2578H48.0566C48.3486 23.2578 48.5772 23.4863 48.5772 23.7783C48.5772 24.0703 48.3486 24.2988 48.0566 24.2988Z" fill="#FFFFFE"/>
<path d="M41.8613 33.0205C41.7978 33.0205 41.7217 33.0078 41.6582 32.9824C41.4678 32.9062 41.3408 32.7158 41.3408 32.5V30.2275C40.1729 30.1514 39.2461 29.1738 39.2461 27.9932V19.5762C39.2461 18.3447 40.249 17.3291 41.4932 17.3291H49.9102C51.1416 17.3291 52.1572 18.332 52.1572 19.5762V27.9932C52.1572 29.2246 51.1543 30.2402 49.9102 30.2402H44.8574L42.2295 32.8682C42.1279 32.9697 41.9883 33.0205 41.8613 33.0205ZM41.4932 18.3701C40.833 18.3701 40.2871 18.916 40.2871 19.5762V27.9932C40.2871 28.6533 40.833 29.1992 41.4932 29.1992H41.8613C42.1533 29.1992 42.3818 29.4277 42.3818 29.7197V31.2559L44.2734 29.3643C44.375 29.2627 44.502 29.2119 44.6416 29.2119H49.9102C50.5703 29.2119 51.1162 28.666 51.1162 28.0059V19.5889C51.1162 18.9287 50.5703 18.3828 49.9102 18.3828L41.4932 18.3701Z" fill="#FFFFFE"/>
<path d="M33.1014 49.7406C30.7782 49.7406 28.5184 49.2836 26.3983 48.3822C23.1737 47.0238 20.4696 44.7387 18.578 41.7933C18.578 41.7807 18.5653 41.7807 18.5653 41.768C18.159 41.1332 17.7909 40.473 17.4735 39.7875C17.3465 39.5336 17.4608 39.2162 17.7274 39.1019C17.9813 38.975 18.2987 39.0892 18.4129 39.3558C18.7176 40.0033 19.0731 40.6381 19.454 41.2474C19.454 41.2601 19.4667 41.2601 19.4667 41.2728C21.244 44.0404 23.7831 46.1732 26.8045 47.4555C28.7977 48.2933 30.9178 48.725 33.1014 48.725C34.7264 48.725 36.3387 48.4838 37.8749 48.014C39.5379 47.5062 41.0995 46.7318 42.5086 45.7162C42.5213 45.7035 42.5213 45.7035 42.534 45.7035C46.7616 42.6693 49.2879 37.7435 49.2879 32.5385C49.2879 31.6371 49.2118 30.723 49.0594 29.8344C49.0087 29.5551 49.1991 29.2885 49.4911 29.2377C49.7704 29.1869 50.037 29.3773 50.0878 29.6693C50.2401 30.6088 50.329 31.5736 50.329 32.5385C50.329 35.3187 49.6561 38.0863 48.3612 40.5365C47.1171 42.8978 45.327 44.9672 43.1561 46.5287C43.1434 46.5414 43.1434 46.5414 43.1307 46.5541C41.62 47.6459 39.9442 48.4711 38.1669 49.017C36.5419 49.474 34.828 49.7406 33.1014 49.7406Z" fill="#FFFFFE"/>
<path d="M17.0927 28.209C17.0419 28.209 16.9911 28.1963 16.9404 28.1836C16.6611 28.1074 16.5087 27.8154 16.5976 27.5361C17.6386 24.0576 19.8222 20.9346 22.7294 18.7383C25.7382 16.4658 29.331 15.2598 33.1142 15.2598C34.8534 15.2598 36.58 15.5137 38.2304 16.0342C39.3476 16.377 40.4267 16.8467 41.455 17.4053C41.7089 17.5449 41.7978 17.8623 41.6581 18.1162C41.5185 18.3701 41.2011 18.459 40.9472 18.3193C39.9824 17.7861 38.9667 17.3545 37.913 17.0244C36.3642 16.542 34.7392 16.3008 33.1015 16.3008C26.0048 16.3008 19.6191 21.0488 17.5878 27.8408C17.5243 28.0693 17.3085 28.209 17.0927 28.209Z" fill="#FFFFFE"/>
<path d="M19.0098 42.0215C18.7178 42.0215 18.4893 41.793 18.4893 41.501C18.4893 41.209 18.7178 40.9805 19.0098 40.9805C19.3018 40.9805 19.5303 41.209 19.5303 41.501C19.5303 41.793 19.3018 42.0215 19.0098 42.0215Z" fill="#FFFFFE"/>
<path d="M32.5048 44.0529C31.8447 44.0529 31.1464 43.7609 30.6259 43.3293C30.3086 43.0754 30.042 42.7834 29.7753 42.5041C29.4072 42.1105 29.0644 41.7424 28.6455 41.5139C28.2392 41.2853 27.7695 41.1711 27.2617 41.0568C26.7158 40.9299 26.1445 40.7902 25.6113 40.4982C25.2939 40.3205 25.0019 40.092 24.748 39.8127C24.5449 39.6096 24.5576 39.2795 24.7734 39.0764C24.9765 38.8732 25.3066 38.8859 25.5097 39.1017C25.7002 39.3049 25.9033 39.4699 26.1318 39.5969C26.5253 39.8254 27.0078 39.9269 27.5029 40.0539C28.0615 40.1809 28.6328 40.3205 29.166 40.6252C29.7119 40.9426 30.1308 41.3869 30.5371 41.8185C30.791 42.0851 31.0195 42.3391 31.2861 42.5549C31.8447 43.0119 32.708 43.2277 33.1015 42.8088C33.4951 42.4025 33.3427 41.5773 33.2158 40.9172C32.7968 38.6193 32.8476 36.1945 33.3935 33.9221C33.4824 33.5666 33.5966 33.1476 33.914 32.8303C34.1806 32.5637 34.4853 32.4494 34.7646 32.3478C34.8281 32.3225 34.9043 32.2971 34.9677 32.2717C35.8183 31.9162 36.4277 31.0148 36.4531 30.0881C36.4658 29.1613 35.8945 28.2473 35.0566 27.8537C34.1425 27.4221 33.0634 27.5998 31.9209 27.7775C30.7783 27.968 29.5849 28.1584 28.4423 27.7521C27.2363 27.3332 26.373 26.2668 26.2968 25.1242C26.2587 24.4641 26.5127 23.7785 26.9824 23.2707C27.414 22.8137 27.9726 22.5598 28.5566 22.5598C29.4072 22.5598 30.08 23.0676 30.6767 23.4992C31.1718 23.8674 31.6416 24.2101 32.1367 24.2482C32.2509 24.2609 32.3144 24.2355 32.3271 24.2228C32.3906 24.1721 32.3525 23.842 32.3398 23.6389C32.3271 23.4865 32.3017 23.3215 32.3017 23.1564C32.289 21.5568 34.0029 20.6935 35.6914 20.5412L35.7929 20.5285C36.4404 20.4777 37.1005 20.4143 37.4306 20.0334C37.7353 19.6779 37.7226 19.0812 37.6972 18.548C37.6591 17.926 37.6084 17.2658 37.5449 16.593C37.5195 16.301 37.7226 16.0471 38.0146 16.0217C38.3066 15.9963 38.5605 16.1994 38.5859 16.4914C38.6621 17.1769 38.7129 17.8498 38.7382 18.4973C38.7636 19.0305 38.8144 20.0207 38.2177 20.7189C37.6084 21.4299 36.6435 21.506 35.8691 21.5695L35.7675 21.5822C34.7773 21.6711 33.3173 22.1535 33.33 23.1437C33.33 23.258 33.3427 23.385 33.3554 23.5119C33.4062 23.9943 33.4824 24.6418 32.9238 25.0607C32.6953 25.2258 32.3906 25.3019 32.0478 25.2766C31.248 25.2258 30.6005 24.7434 30.042 24.3244C29.5341 23.9435 29.0517 23.5881 28.5312 23.5881C28.2392 23.5881 27.9472 23.7277 27.7187 23.9689C27.4394 24.2609 27.2871 24.6672 27.3125 25.048C27.3632 25.7844 27.9599 26.4826 28.7597 26.7619C29.6484 27.0793 30.664 26.9143 31.7304 26.7365C32.9746 26.5334 34.2695 26.3303 35.4755 26.8889C36.6816 27.4475 37.4941 28.7551 37.4687 30.0881C37.4433 31.4338 36.5927 32.6906 35.3486 33.2111C35.2724 33.2492 35.1836 33.2746 35.1074 33.3C34.917 33.3762 34.7265 33.4396 34.625 33.5412C34.498 33.6682 34.4345 33.9094 34.3837 34.1379C33.8759 36.2707 33.8252 38.5432 34.2187 40.7014C34.3711 41.5519 34.5869 42.7199 33.8252 43.507C33.4697 43.8879 33 44.0529 32.5048 44.0529Z" fill="#FFFFFE"/>
<path d="M42.8387 46.6044C42.5468 46.6044 42.3182 46.3759 42.3182 46.0839C42.3182 46.0585 42.3182 46.0331 42.3309 45.995C42.4071 45.4872 42.3309 44.9032 42.2675 44.3446C42.1278 43.2909 41.9755 42.0848 42.9022 41.2723L42.953 41.2342C43.0292 41.1708 43.1688 41.0438 43.1815 40.993C43.2069 40.8915 42.826 40.5741 42.6991 40.4725L42.6737 40.4598C41.8612 39.7997 41.4169 38.911 41.493 38.0731C41.5565 37.3622 42.1659 36.1815 42.8641 35.7245C43.2577 35.4579 43.537 35.0897 43.6259 34.6962C43.829 33.8202 43.6385 33.4266 43.3212 32.7792C43.118 32.3729 42.9022 31.9032 42.7372 31.243C42.6737 30.9637 42.8387 30.6844 43.118 30.621C43.3973 30.5575 43.6766 30.7225 43.7401 31.0018C43.8671 31.5477 44.0575 31.9413 44.2479 32.3221C44.5907 33.0331 44.9208 33.6932 44.6288 34.9247C44.4764 35.5848 44.0448 36.1688 43.4227 36.5878C43.0165 36.8544 42.5468 37.7303 42.5087 38.162C42.4706 38.6571 42.7626 39.2157 43.3085 39.6473L43.3339 39.66C43.7274 39.9774 44.3749 40.4979 44.1718 41.2469C44.0829 41.6151 43.8163 41.8436 43.6132 42.0087L43.5751 42.0468C43.08 42.4784 43.1434 43.1385 43.2831 44.1923C43.3719 44.827 43.4481 45.4872 43.3466 46.1473C43.3212 46.4139 43.1053 46.6044 42.8387 46.6044Z" fill="#FFFFFE"/>
<path d="M38.0273 48.9913C37.8496 48.9913 37.6719 48.9024 37.5703 48.7374C37.0117 47.7725 36.3896 47.1631 35.666 46.8965C34.8789 46.5919 33.9902 46.6934 33.0508 46.795C32.2763 46.8838 31.4765 46.9727 30.6767 46.8458C30.4736 46.8204 30.2959 46.7696 30.1054 46.7315C29.7754 46.6553 29.458 46.5792 29.1533 46.5919C28.2646 46.6299 27.5664 47.4297 27.0078 48.2169C26.8427 48.4454 26.5127 48.4962 26.2842 48.3311C26.0556 48.1661 26.0049 47.836 26.1699 47.6075C26.8808 46.6299 27.7822 45.627 29.1025 45.5635C29.5469 45.5381 29.9404 45.6397 30.334 45.7286C30.5117 45.7667 30.6767 45.8047 30.8418 45.8301C31.5019 45.9317 32.2002 45.8555 32.9365 45.7794C33.9648 45.6651 35.0185 45.5508 36.0469 45.9444C36.999 46.3126 37.7988 47.0616 38.4844 48.2422C38.624 48.4961 38.5478 48.8135 38.2939 48.9532C38.2051 48.9786 38.1162 48.9913 38.0273 48.9913Z" fill="#FFFFFE"/>
<g clip-path="url(#clip1_4511_948)">
<path d="M33 65C50.9493 65 65.5 50.4493 65.5 32.5C65.5 14.5507 50.9493 0 33 0C15.0507 0 0.5 14.5507 0.5 32.5C0.5 50.4493 15.0507 65 33 65Z" fill="#EE7C48"/>
<path d="M45.6064 51.7207H20.4316C19.2129 51.7207 18.2354 50.7305 18.2354 49.5244V15.6152C18.2354 14.3965 19.2256 13.4189 20.4316 13.4189H45.6064C46.8252 13.4189 47.8027 14.4092 47.8027 15.6152V49.5117C47.8154 50.7305 46.8252 51.7207 45.6064 51.7207ZM20.4316 14.2822C19.6953 14.2822 19.0986 14.8789 19.0986 15.6152V49.5117C19.0986 50.248 19.6953 50.8447 20.4316 50.8447H45.6064C46.3428 50.8447 46.9395 50.248 46.9395 49.5117V15.6152C46.9395 14.8789 46.3428 14.2822 45.6064 14.2822H20.4316Z" fill="#FFFFFE"/>
<path d="M27.7949 27.0537C26.8301 27.0537 25.9922 26.3682 25.7891 25.4287C25.7383 25.2002 25.8906 24.959 26.1191 24.9082C26.3477 24.8574 26.5889 25.0098 26.6396 25.2383C26.7539 25.7842 27.249 26.1777 27.8076 26.1777C28.4678 26.1777 29.001 25.6445 29.001 24.9844C29.001 24.3242 28.4678 23.791 27.8076 23.791C26.6777 23.791 25.751 22.8643 25.751 21.7344C25.751 20.6045 26.6777 19.6777 27.8076 19.6777C28.7725 19.6777 29.6104 20.3633 29.8135 21.3027C29.8643 21.5313 29.7119 21.7725 29.4834 21.8232C29.2549 21.874 29.0137 21.7217 28.9629 21.4932C28.8486 20.9473 28.3535 20.5537 27.7949 20.5537C27.1348 20.5537 26.6016 21.0869 26.6016 21.7471C26.6016 22.4072 27.1348 22.9404 27.7949 22.9404C28.9248 22.9404 29.8516 23.8672 29.8516 24.9971C29.8516 26.127 28.9375 27.0537 27.7949 27.0537Z" fill="#FFFFFE"/>
<path d="M27.7949 20.5537C27.5537 20.5537 27.3633 20.3633 27.3633 20.1221V19.3604C27.3633 19.1191 27.5537 18.9287 27.7949 18.9287C28.0361 18.9287 28.2266 19.1191 28.2266 19.3604V20.1221C28.2266 20.3633 28.0361 20.5537 27.7949 20.5537Z" fill="#FFFFFE"/>
<path d="M27.7949 27.8281C27.5537 27.8281 27.3633 27.6377 27.3633 27.3965V26.6348C27.3633 26.3936 27.5537 26.2031 27.7949 26.2031C28.0361 26.2031 28.2266 26.3936 28.2266 26.6348V27.3965C28.2266 27.6377 28.0361 27.8281 27.7949 27.8281Z" fill="#FFFFFE"/>
<path d="M42.9023 48.2168H23.1484C22.1455 48.2168 21.333 47.4043 21.333 46.4014V34.5693C21.333 33.5664 22.1455 32.7539 23.1484 32.7539H42.9023C43.9053 32.7539 44.7178 33.5664 44.7178 34.5693V46.4014C44.7051 47.4043 43.9053 48.2168 42.9023 48.2168ZM23.1484 33.6299C22.6279 33.6299 22.209 34.0488 22.209 34.5693V46.4014C22.209 46.9219 22.6279 47.3408 23.1484 47.3408H42.9023C43.4229 47.3408 43.8418 46.9219 43.8418 46.4014V34.5693C43.8418 34.0488 43.4229 33.6299 42.9023 33.6299H23.1484Z" fill="#FFFFFE"/>
<path d="M37.1641 48.2168C36.9229 48.2168 36.7324 48.0264 36.7324 47.7852V33.1982C36.7324 32.957 36.9229 32.7666 37.1641 32.7666C37.4053 32.7666 37.5957 32.957 37.5957 33.1982V47.7852C37.5957 48.0264 37.3926 48.2168 37.1641 48.2168Z" fill="#FFFFFE"/>
<path d="M44.2734 38.1113H21.7646C21.5234 38.1113 21.333 37.9209 21.333 37.6797C21.333 37.4385 21.5234 37.248 21.7646 37.248H44.2734C44.5146 37.248 44.7051 37.4385 44.7051 37.6797C44.7051 37.9209 44.5146 38.1113 44.2734 38.1113Z" fill="#FFFFFE"/>
<path d="M44.2734 43.7354H21.7646C21.5234 43.7354 21.333 43.5449 21.333 43.3037C21.333 43.0625 21.5234 42.8721 21.7646 42.8721H44.2734C44.5146 42.8721 44.7051 43.0625 44.7051 43.3037C44.7051 43.5449 44.5146 43.7354 44.2734 43.7354Z" fill="#FFFFFE"/>
<path d="M27.7949 29.834C24.2275 29.834 21.333 26.9395 21.333 23.3721C21.333 19.8047 24.2275 16.9102 27.7949 16.9102C31.3623 16.9102 34.2568 19.8047 34.2568 23.3721C34.2568 26.9395 31.3623 29.834 27.7949 29.834ZM27.7949 17.7861C24.71 17.7861 22.1963 20.2998 22.1963 23.3848C22.1963 26.4697 24.71 28.9834 27.7949 28.9834C30.8799 28.9834 33.3936 26.4697 33.3936 23.3848C33.3936 20.2871 30.8799 17.7861 27.7949 17.7861Z" fill="#FFFFFE"/>
<path d="M44.2734 17.7861H35.8945C35.6533 17.7861 35.4629 17.5957 35.4629 17.3545C35.4629 17.1133 35.6533 16.9229 35.8945 16.9229H44.2734C44.5146 16.9229 44.7051 17.1133 44.7051 17.3545C44.7051 17.5957 44.5146 17.7861 44.2734 17.7861Z" fill="#FFFFFE"/>
<path d="M44.2734 21.7852H38.4209C38.1797 21.7852 37.9893 21.5947 37.9893 21.3535C37.9893 21.1123 38.1797 20.9219 38.4209 20.9219H44.2734C44.5146 20.9219 44.7051 21.1123 44.7051 21.3535C44.7051 21.5947 44.5146 21.7852 44.2734 21.7852Z" fill="#FFFFFE"/>
<path d="M44.2734 25.7969H38.4209C38.1797 25.7969 37.9893 25.6064 37.9893 25.3652C37.9893 25.124 38.1797 24.9336 38.4209 24.9336H44.2734C44.5146 24.9336 44.7051 25.124 44.7051 25.3652C44.7051 25.6064 44.5146 25.7969 44.2734 25.7969Z" fill="#FFFFFE"/>
<path d="M44.2734 29.8086H35.8945C35.6533 29.8086 35.4629 29.6182 35.4629 29.377C35.4629 29.1357 35.6533 28.9453 35.8945 28.9453H44.2734C44.5146 28.9453 44.7051 29.1357 44.7051 29.377C44.7051 29.6182 44.5146 29.8086 44.2734 29.8086Z" fill="#FFFFFE"/>
</g>
</g>
<defs>
<clipPath id="clip0_4511_948">
<rect width="65" height="65" fill="white" transform="translate(0.5)"/>
</clipPath>
<clipPath id="clip1_4511_948">
<rect width="65" height="65" fill="white" transform="translate(0.5)"/>
</clipPath>
</defs>
</svg>
