<svg width="66" height="65" viewBox="0 0 66 65" fill="none" xmlns="http://www.w3.org/2000/svg">
<g clip-path="url(#clip0_4511_1423)">
<path d="M33 65C50.9493 65 65.5 50.4493 65.5 32.5C65.5 14.5507 50.9493 0 33 0C15.0507 0 0.5 14.5507 0.5 32.5C0.5 50.4493 15.0507 65 33 65Z" fill="#8A9EED"/>
<path d="M23.8721 31.9795H16.7373C16.4453 31.9795 16.2168 31.751 16.2168 31.459C16.2168 31.167 16.4453 30.9385 16.7373 30.9385H23.8721C24.1641 30.9385 24.3926 31.167 24.3926 31.459C24.3926 31.7383 24.1514 31.9795 23.8721 31.9795Z" fill="#FFFFFE"/>
<path d="M20.3047 31.9795C20.0127 31.9795 19.7842 31.751 19.7842 31.459V29.8721C19.7842 29.5801 20.0127 29.3516 20.3047 29.3516C20.5967 29.3516 20.8252 29.5801 20.8252 29.8721V31.459C20.8252 31.7383 20.584 31.9795 20.3047 31.9795Z" fill="#FFFFFE"/>
<path d="M23.3643 37.8956C23.3262 37.8956 23.2881 37.8956 23.25 37.883C18.959 36.9562 17.8164 31.7765 17.7657 31.5607C17.7022 31.2814 17.8926 31.0021 18.1719 30.9386C18.4512 30.8751 18.7305 31.0529 18.794 31.3449C18.8067 31.3956 19.835 36.0802 23.4786 36.8673C23.7579 36.9308 23.9356 37.2101 23.8721 37.4894C23.8213 37.7306 23.6055 37.8956 23.3643 37.8956Z" fill="#FFFFFE"/>
<path d="M17.2323 37.8954C16.9911 37.8954 16.7753 37.7303 16.7245 37.4891C16.6611 37.2098 16.8388 36.9305 17.1181 36.867C20.7489 36.0799 21.79 31.3954 21.8027 31.3446C21.8661 31.0653 22.1327 30.8876 22.4247 30.9383C22.704 31.0018 22.8818 31.2684 22.831 31.5477C22.7802 31.7635 21.6503 36.9432 17.3466 37.87C17.3085 37.8954 17.2704 37.8954 17.2323 37.8954Z" fill="#FFFFFE"/>
<path d="M24.5068 40.0791H24.1387C23.8467 40.0791 23.6182 39.8506 23.6182 39.5586C23.6182 39.2666 23.8467 39.0381 24.1387 39.0381H24.5068C25.167 39.0381 25.7129 38.4922 25.7129 37.832V29.415C25.7129 28.7549 25.167 28.209 24.5068 28.209H16.0898C15.4297 28.209 14.8838 28.7549 14.8838 29.415V37.832C14.8838 38.4922 15.4297 39.0381 16.0898 39.0381H21.3584C21.6504 39.0381 21.8789 39.2666 21.8789 39.5586C21.8789 39.8506 21.6504 40.0791 21.3584 40.0791H16.0898C14.8584 40.0791 13.8428 39.0762 13.8428 37.832V29.415C13.8428 28.1836 14.8457 27.168 16.0898 27.168H24.5068C25.7383 27.168 26.7539 28.1709 26.7539 29.415V37.832C26.7539 39.0762 25.751 40.0791 24.5068 40.0791Z" fill="#FFFFFE"/>
<path d="M24.1387 42.8594C23.8467 42.8594 23.6182 42.6309 23.6182 42.3389V39.5586C23.6182 39.2666 23.8467 39.0381 24.1387 39.0381C24.4307 39.0381 24.6592 39.2666 24.6592 39.5586V42.3389C24.6592 42.6309 24.4307 42.8594 24.1387 42.8594Z" fill="#FFFFFE"/>
<path d="M24.1387 42.8594C24.0117 42.8594 23.8721 42.8086 23.7705 42.707L20.9902 39.9268C20.7871 39.7236 20.7871 39.3936 20.9902 39.1904C21.1934 38.9873 21.5234 38.9873 21.7266 39.1904L24.5068 41.9707C24.71 42.1738 24.71 42.5039 24.5068 42.707C24.4053 42.8086 24.2783 42.8594 24.1387 42.8594Z" fill="#FFFFFE"/>
<path d="M48.0566 27.7139C47.7647 27.7139 47.5361 27.4854 47.5361 27.1934V22.7246C47.5361 21.709 46.7109 20.8838 45.6953 20.8838C44.6797 20.8838 43.8545 21.709 43.8545 22.7246V27.2061C43.8545 27.498 43.626 27.7266 43.334 27.7266C43.042 27.7266 42.8135 27.498 42.8135 27.2061V22.7246C42.8135 21.1377 44.1084 19.8428 45.6953 19.8428C47.2822 19.8428 48.5772 21.1377 48.5772 22.7246V27.2061C48.5772 27.4854 48.3486 27.7139 48.0566 27.7139Z" fill="#FFFFFE"/>
<path d="M48.0566 24.2988H43.3467C43.0547 24.2988 42.8262 24.0703 42.8262 23.7783C42.8262 23.4863 43.0547 23.2578 43.3467 23.2578H48.0566C48.3486 23.2578 48.5772 23.4863 48.5772 23.7783C48.5772 24.0703 48.3486 24.2988 48.0566 24.2988Z" fill="#FFFFFE"/>
<path d="M41.8613 33.0205C41.7978 33.0205 41.7217 33.0078 41.6582 32.9824C41.4678 32.9062 41.3408 32.7158 41.3408 32.5V30.2275C40.1729 30.1514 39.2461 29.1738 39.2461 27.9932V19.5762C39.2461 18.3447 40.249 17.3291 41.4932 17.3291H49.9102C51.1416 17.3291 52.1572 18.332 52.1572 19.5762V27.9932C52.1572 29.2246 51.1543 30.2402 49.9102 30.2402H44.8574L42.2295 32.8682C42.1279 32.9697 41.9883 33.0205 41.8613 33.0205ZM41.4932 18.3701C40.833 18.3701 40.2871 18.916 40.2871 19.5762V27.9932C40.2871 28.6533 40.833 29.1992 41.4932 29.1992H41.8613C42.1533 29.1992 42.3818 29.4277 42.3818 29.7197V31.2559L44.2734 29.3643C44.375 29.2627 44.502 29.2119 44.6416 29.2119H49.9102C50.5703 29.2119 51.1162 28.666 51.1162 28.0059V19.5889C51.1162 18.9287 50.5703 18.3828 49.9102 18.3828L41.4932 18.3701Z" fill="#FFFFFE"/>
<path d="M33.1014 49.7406C30.7782 49.7406 28.5184 49.2836 26.3983 48.3822C23.1737 47.0238 20.4696 44.7387 18.578 41.7933C18.578 41.7807 18.5653 41.7807 18.5653 41.768C18.159 41.1332 17.7909 40.473 17.4735 39.7875C17.3465 39.5336 17.4608 39.2162 17.7274 39.1019C17.9813 38.975 18.2987 39.0892 18.4129 39.3558C18.7176 40.0033 19.0731 40.6381 19.454 41.2474C19.454 41.2601 19.4667 41.2601 19.4667 41.2728C21.244 44.0404 23.7831 46.1732 26.8045 47.4555C28.7977 48.2933 30.9178 48.725 33.1014 48.725C34.7264 48.725 36.3387 48.4838 37.8749 48.014C39.5379 47.5062 41.0995 46.7318 42.5086 45.7162C42.5213 45.7035 42.5213 45.7035 42.534 45.7035C46.7616 42.6693 49.2879 37.7435 49.2879 32.5385C49.2879 31.6371 49.2118 30.723 49.0594 29.8344C49.0087 29.5551 49.1991 29.2885 49.4911 29.2377C49.7704 29.1869 50.037 29.3773 50.0878 29.6693C50.2401 30.6088 50.329 31.5736 50.329 32.5385C50.329 35.3187 49.6561 38.0863 48.3612 40.5365C47.1171 42.8978 45.327 44.9672 43.1561 46.5287C43.1434 46.5414 43.1434 46.5414 43.1307 46.5541C41.62 47.6459 39.9442 48.4711 38.1669 49.017C36.5419 49.474 34.828 49.7406 33.1014 49.7406Z" fill="#FFFFFE"/>
<path d="M17.0927 28.209C17.0419 28.209 16.9911 28.1963 16.9404 28.1836C16.6611 28.1074 16.5087 27.8154 16.5976 27.5361C17.6386 24.0576 19.8222 20.9346 22.7294 18.7383C25.7382 16.4658 29.331 15.2598 33.1142 15.2598C34.8534 15.2598 36.58 15.5137 38.2304 16.0342C39.3476 16.377 40.4267 16.8467 41.455 17.4053C41.7089 17.5449 41.7978 17.8623 41.6581 18.1162C41.5185 18.3701 41.2011 18.459 40.9472 18.3193C39.9824 17.7861 38.9667 17.3545 37.913 17.0244C36.3642 16.542 34.7392 16.3008 33.1015 16.3008C26.0048 16.3008 19.6191 21.0488 17.5878 27.8408C17.5243 28.0693 17.3085 28.209 17.0927 28.209Z" fill="#FFFFFE"/>
<path d="M19.0098 42.0215C18.7178 42.0215 18.4893 41.793 18.4893 41.501C18.4893 41.209 18.7178 40.9805 19.0098 40.9805C19.3018 40.9805 19.5303 41.209 19.5303 41.501C19.5303 41.793 19.3018 42.0215 19.0098 42.0215Z" fill="#FFFFFE"/>
<path d="M32.5048 44.0529C31.8447 44.0529 31.1464 43.7609 30.6259 43.3293C30.3086 43.0754 30.042 42.7834 29.7753 42.5041C29.4072 42.1105 29.0644 41.7424 28.6455 41.5139C28.2392 41.2853 27.7695 41.1711 27.2617 41.0568C26.7158 40.9299 26.1445 40.7902 25.6113 40.4982C25.2939 40.3205 25.0019 40.092 24.748 39.8127C24.5449 39.6096 24.5576 39.2795 24.7734 39.0764C24.9765 38.8732 25.3066 38.8859 25.5097 39.1017C25.7002 39.3049 25.9033 39.4699 26.1318 39.5969C26.5253 39.8254 27.0078 39.9269 27.5029 40.0539C28.0615 40.1809 28.6328 40.3205 29.166 40.6252C29.7119 40.9426 30.1308 41.3869 30.5371 41.8185C30.791 42.0851 31.0195 42.3391 31.2861 42.5549C31.8447 43.0119 32.708 43.2277 33.1015 42.8088C33.4951 42.4025 33.3427 41.5773 33.2158 40.9172C32.7968 38.6193 32.8476 36.1945 33.3935 33.9221C33.4824 33.5666 33.5966 33.1476 33.914 32.8303C34.1806 32.5637 34.4853 32.4494 34.7646 32.3478C34.8281 32.3225 34.9043 32.2971 34.9677 32.2717C35.8183 31.9162 36.4277 31.0148 36.4531 30.0881C36.4658 29.1613 35.8945 28.2473 35.0566 27.8537C34.1425 27.4221 33.0634 27.5998 31.9209 27.7775C30.7783 27.968 29.5849 28.1584 28.4423 27.7521C27.2363 27.3332 26.373 26.2668 26.2968 25.1242C26.2587 24.4641 26.5127 23.7785 26.9824 23.2707C27.414 22.8137 27.9726 22.5598 28.5566 22.5598C29.4072 22.5598 30.08 23.0676 30.6767 23.4992C31.1718 23.8674 31.6416 24.2101 32.1367 24.2482C32.2509 24.2609 32.3144 24.2355 32.3271 24.2228C32.3906 24.1721 32.3525 23.842 32.3398 23.6389C32.3271 23.4865 32.3017 23.3215 32.3017 23.1564C32.289 21.5568 34.0029 20.6935 35.6914 20.5412L35.7929 20.5285C36.4404 20.4777 37.1005 20.4143 37.4306 20.0334C37.7353 19.6779 37.7226 19.0812 37.6972 18.548C37.6591 17.926 37.6084 17.2658 37.5449 16.593C37.5195 16.301 37.7226 16.0471 38.0146 16.0217C38.3066 15.9963 38.5605 16.1994 38.5859 16.4914C38.6621 17.1769 38.7129 17.8498 38.7382 18.4973C38.7636 19.0305 38.8144 20.0207 38.2177 20.7189C37.6084 21.4299 36.6435 21.506 35.8691 21.5695L35.7675 21.5822C34.7773 21.6711 33.3173 22.1535 33.33 23.1437C33.33 23.258 33.3427 23.385 33.3554 23.5119C33.4062 23.9943 33.4824 24.6418 32.9238 25.0607C32.6953 25.2258 32.3906 25.3019 32.0478 25.2766C31.248 25.2258 30.6005 24.7434 30.042 24.3244C29.5341 23.9435 29.0517 23.5881 28.5312 23.5881C28.2392 23.5881 27.9472 23.7277 27.7187 23.9689C27.4394 24.2609 27.2871 24.6672 27.3125 25.048C27.3632 25.7844 27.9599 26.4826 28.7597 26.7619C29.6484 27.0793 30.664 26.9143 31.7304 26.7365C32.9746 26.5334 34.2695 26.3303 35.4755 26.8889C36.6816 27.4475 37.4941 28.7551 37.4687 30.0881C37.4433 31.4338 36.5927 32.6906 35.3486 33.2111C35.2724 33.2492 35.1836 33.2746 35.1074 33.3C34.917 33.3762 34.7265 33.4396 34.625 33.5412C34.498 33.6682 34.4345 33.9094 34.3837 34.1379C33.8759 36.2707 33.8252 38.5432 34.2187 40.7014C34.3711 41.5519 34.5869 42.7199 33.8252 43.507C33.4697 43.8879 33 44.0529 32.5048 44.0529Z" fill="#FFFFFE"/>
<path d="M42.8387 46.6044C42.5468 46.6044 42.3182 46.3759 42.3182 46.0839C42.3182 46.0585 42.3182 46.0331 42.3309 45.995C42.4071 45.4872 42.3309 44.9032 42.2675 44.3446C42.1278 43.2909 41.9755 42.0848 42.9022 41.2723L42.953 41.2342C43.0292 41.1708 43.1688 41.0438 43.1815 40.993C43.2069 40.8915 42.826 40.5741 42.6991 40.4725L42.6737 40.4598C41.8612 39.7997 41.4169 38.911 41.493 38.0731C41.5565 37.3622 42.1659 36.1815 42.8641 35.7245C43.2577 35.4579 43.537 35.0897 43.6259 34.6962C43.829 33.8202 43.6385 33.4266 43.3212 32.7792C43.118 32.3729 42.9022 31.9032 42.7372 31.243C42.6737 30.9637 42.8387 30.6844 43.118 30.621C43.3973 30.5575 43.6766 30.7225 43.7401 31.0018C43.8671 31.5477 44.0575 31.9413 44.2479 32.3221C44.5907 33.0331 44.9208 33.6932 44.6288 34.9247C44.4764 35.5848 44.0448 36.1688 43.4227 36.5878C43.0165 36.8544 42.5468 37.7303 42.5087 38.162C42.4706 38.6571 42.7626 39.2157 43.3085 39.6473L43.3339 39.66C43.7274 39.9774 44.3749 40.4979 44.1718 41.2469C44.0829 41.6151 43.8163 41.8436 43.6132 42.0087L43.5751 42.0468C43.08 42.4784 43.1434 43.1385 43.2831 44.1923C43.3719 44.827 43.4481 45.4872 43.3466 46.1473C43.3212 46.4139 43.1053 46.6044 42.8387 46.6044Z" fill="#FFFFFE"/>
<path d="M38.0273 48.9913C37.8496 48.9913 37.6719 48.9024 37.5703 48.7374C37.0117 47.7725 36.3896 47.1631 35.666 46.8965C34.8789 46.5919 33.9902 46.6934 33.0508 46.795C32.2763 46.8838 31.4765 46.9727 30.6767 46.8458C30.4736 46.8204 30.2959 46.7696 30.1054 46.7315C29.7754 46.6553 29.458 46.5792 29.1533 46.5919C28.2646 46.6299 27.5664 47.4297 27.0078 48.2169C26.8427 48.4454 26.5127 48.4962 26.2842 48.3311C26.0556 48.1661 26.0049 47.836 26.1699 47.6075C26.8808 46.6299 27.7822 45.627 29.1025 45.5635C29.5469 45.5381 29.9404 45.6397 30.334 45.7286C30.5117 45.7667 30.6767 45.8047 30.8418 45.8301C31.5019 45.9317 32.2002 45.8555 32.9365 45.7794C33.9648 45.6651 35.0185 45.5508 36.0469 45.9444C36.999 46.3126 37.7988 47.0616 38.4844 48.2422C38.624 48.4961 38.5478 48.8135 38.2939 48.9532C38.2051 48.9786 38.1162 48.9913 38.0273 48.9913Z" fill="#FFFFFE"/>
<g clip-path="url(#clip1_4511_1423)">
<path d="M33 65C50.9493 65 65.5 50.4493 65.5 32.5C65.5 14.5507 50.9493 0 33 0C15.0507 0 0.5 14.5507 0.5 32.5C0.5 50.4493 15.0507 65 33 65Z" fill="#8A9EED"/>
<path d="M15.0488 47.9756C14.7949 47.9756 14.5791 47.7725 14.5791 47.5059V24.2988C14.5791 24.0449 14.7822 23.8291 15.0488 23.8291H18.375C18.6289 23.8291 18.8447 24.0322 18.8447 24.2988C18.8447 24.5654 18.6416 24.7686 18.375 24.7686H15.5059V47.5186C15.5186 47.7725 15.3027 47.9756 15.0488 47.9756Z" fill="#FFFFFE"/>
<path d="M50.7988 47.9756C50.5449 47.9756 50.3291 47.7725 50.3291 47.5059V24.7559H47.5488C47.2949 24.7559 47.0791 24.5527 47.0791 24.2861C47.0791 24.0195 47.2822 23.8164 47.5488 23.8164H50.7988C51.0527 23.8164 51.2686 24.0195 51.2686 24.2861V47.5059C51.2686 47.7725 51.0527 47.9756 50.7988 47.9756Z" fill="#FFFFFE"/>
<path d="M35.6279 49.3726H30.5244C30.3975 49.3726 30.2832 49.3218 30.1943 49.2329L28.7979 47.8364C28.6201 47.6587 28.6201 47.3667 28.7979 47.1763C28.9756 46.9985 29.2676 46.9985 29.458 47.1763L30.7148 48.4331H35.4375L36.6943 47.1763C36.8721 46.9985 37.1641 46.9985 37.3545 47.1763C37.5322 47.354 37.5322 47.646 37.3545 47.8364L35.958 49.2329C35.8691 49.3218 35.7549 49.3726 35.6279 49.3726Z" fill="#FFFFFE"/>
<path d="M50.2529 52.1523H15.5947C14.2744 52.1523 13.1953 51.0732 13.1953 49.7529V47.5059C13.1953 47.252 13.3984 47.0361 13.665 47.0361H29.1406C29.3945 47.0361 29.6104 47.2393 29.6104 47.5059C29.6104 47.7725 29.4072 47.9756 29.1406 47.9756H14.1221V49.7529C14.1221 50.5654 14.7822 51.2256 15.5947 51.2256H50.2656C51.0781 51.2256 51.7383 50.5654 51.7383 49.7529V47.9756H37.0244C36.7705 47.9756 36.5547 47.7725 36.5547 47.5059C36.5547 47.2393 36.7578 47.0361 37.0244 47.0361H52.1953C52.4492 47.0361 52.665 47.2393 52.665 47.5059V49.7529C52.6523 51.0732 51.5732 52.1523 50.2529 52.1523Z" fill="#FFFFFE"/>
<path d="M47.5488 44.7256H18.375C18.1211 44.7256 17.9053 44.5225 17.9053 44.2559V13.1523C17.9053 12.8984 18.1084 12.6826 18.375 12.6826H47.5488C47.8027 12.6826 48.0186 12.8857 48.0186 13.1523V44.2559C48.0186 44.5225 47.8027 44.7256 47.5488 44.7256ZM18.8447 43.7988H47.0918V13.6221H18.8447V43.7988Z" fill="#FFFFFE"/>
<path d="M47.5488 20.1221H18.375C18.1211 20.1221 17.9053 19.9189 17.9053 19.6523C17.9053 19.3857 18.1084 19.1826 18.375 19.1826H47.5488C47.8027 19.1826 48.0186 19.3857 48.0186 19.6523C48.0186 19.9189 47.8027 20.1221 47.5488 20.1221Z" fill="#FFFFFE"/>
<path d="M22.0947 18.2686C21.0664 18.2686 20.2412 17.4307 20.2412 16.415C20.2412 15.3994 21.0791 14.5615 22.0947 14.5615C23.1104 14.5615 23.9482 15.3994 23.9482 16.415C23.9482 17.4307 23.1104 18.2686 22.0947 18.2686ZM22.0947 15.4756C21.5869 15.4756 21.168 15.8945 21.168 16.4023C21.168 16.9102 21.5869 17.3291 22.0947 17.3291C22.6025 17.3291 23.0215 16.9102 23.0215 16.4023C23.0215 15.8945 22.6025 15.4756 22.0947 15.4756Z" fill="#FFFFFE"/>
<path d="M26.7285 18.2686C25.7002 18.2686 24.875 17.4307 24.875 16.415C24.875 15.3994 25.7129 14.5615 26.7285 14.5615C27.7441 14.5615 28.582 15.3994 28.582 16.415C28.5947 17.4307 27.7568 18.2686 26.7285 18.2686ZM26.7285 15.4756C26.2207 15.4756 25.8018 15.8945 25.8018 16.4023C25.8018 16.9102 26.2207 17.3291 26.7285 17.3291C27.2363 17.3291 27.6553 16.9102 27.6553 16.4023C27.6553 15.8945 27.249 15.4756 26.7285 15.4756Z" fill="#FFFFFE"/>
<path d="M31.375 18.2686C30.3467 18.2686 29.5215 17.4307 29.5215 16.415C29.5215 15.3994 30.3594 14.5615 31.375 14.5615C32.3906 14.5615 33.2285 15.3994 33.2285 16.415C33.2285 17.4307 32.4033 18.2686 31.375 18.2686ZM31.375 15.4756C30.8672 15.4756 30.4482 15.8945 30.4482 16.4023C30.4482 16.9102 30.8672 17.3291 31.375 17.3291C31.8828 17.3291 32.3018 16.9102 32.3018 16.4023C32.3018 15.8945 31.8828 15.4756 31.375 15.4756Z" fill="#FFFFFE"/>
<path d="M45.2256 18.2686H35.9453C35.6914 18.2686 35.4756 18.0654 35.4756 17.7988V15.0186C35.4756 14.7646 35.6787 14.5488 35.9453 14.5488H45.2256C45.4795 14.5488 45.6953 14.752 45.6953 15.0186V17.7988C45.6953 18.0527 45.4795 18.2686 45.2256 18.2686ZM36.4023 17.3291H44.7559V15.4756H36.4023V17.3291Z" fill="#FFFFFE"/>
<path d="M33 24.7686C32.7461 24.7686 32.5303 24.5654 32.5303 24.2988V22.4453C32.5303 22.1914 32.7334 21.9756 33 21.9756C33.2666 21.9756 33.4697 22.1787 33.4697 22.4453V24.2988C33.4697 24.5527 33.2539 24.7686 33 24.7686Z" fill="#FFFFFE"/>
<path d="M30.9054 25.3272C30.7403 25.3272 30.588 25.2384 30.4991 25.0987L29.5723 23.4864C29.4454 23.2579 29.5216 22.9786 29.7374 22.8516C29.9532 22.7247 30.2452 22.8009 30.3722 23.0167L31.2989 24.629C31.4259 24.8575 31.3497 25.1368 31.1339 25.2638C31.0704 25.3018 30.9942 25.3272 30.9054 25.3272Z" fill="#FFFFFE"/>
<path d="M29.3819 26.8504C29.3057 26.8504 29.2168 26.825 29.1533 26.7869L27.541 25.8601C27.3125 25.7332 27.2363 25.4412 27.376 25.2254C27.503 24.9968 27.7949 24.9207 28.0108 25.0603L29.6231 25.9871C29.8516 26.114 29.9278 26.406 29.7881 26.6218C29.6992 26.7742 29.5469 26.8504 29.3819 26.8504Z" fill="#FFFFFE"/>
<path d="M28.8232 28.9453H26.9697C26.7158 28.9453 26.5 28.7422 26.5 28.4756C26.5 28.209 26.7031 28.0059 26.9697 28.0059H28.8232C29.0771 28.0059 29.293 28.209 29.293 28.4756C29.2803 28.7295 29.0771 28.9453 28.8232 28.9453Z" fill="#FFFFFE"/>
<path d="M27.7696 31.9542C27.6046 31.9542 27.4522 31.8653 27.3634 31.7257C27.2364 31.4971 27.3126 31.2179 27.5284 31.0909L29.1407 30.1641C29.3692 30.0372 29.6485 30.1134 29.7755 30.3292C29.9024 30.545 29.8263 30.837 29.6104 30.9639L27.9981 31.8907C27.9347 31.9415 27.8458 31.9542 27.7696 31.9542Z" fill="#FFFFFE"/>
<path d="M29.9785 34.1629C29.9024 34.1629 29.8135 34.1375 29.75 34.0994C29.5215 33.9724 29.4453 33.6804 29.585 33.4646L30.5117 31.8523C30.6387 31.6238 30.9307 31.5476 31.1465 31.6873C31.3623 31.8269 31.4512 32.1062 31.3115 32.322L30.3848 33.9343C30.2959 34.0867 30.1436 34.1629 29.9785 34.1629Z" fill="#FFFFFE"/>
<path d="M33 34.9756C32.7461 34.9756 32.5303 34.7725 32.5303 34.5059V32.6523C32.5303 32.3984 32.7334 32.1826 33 32.1826C33.2666 32.1826 33.4697 32.3857 33.4697 32.6523V34.5059C33.4697 34.7725 33.2539 34.9756 33 34.9756Z" fill="#FFFFFE"/>
<path d="M36.0216 34.1632C35.8565 34.1632 35.7042 34.0743 35.6153 33.9346L34.6886 32.3223C34.5616 32.0938 34.6378 31.8145 34.8536 31.6876C35.0694 31.5606 35.3614 31.6368 35.4884 31.8526L36.4151 33.4649C36.5421 33.6934 36.4659 33.9727 36.2501 34.0997C36.1739 34.1505 36.0977 34.1632 36.0216 34.1632Z" fill="#FFFFFE"/>
<path d="M38.2305 31.954C38.1543 31.954 38.0655 31.9286 38.002 31.8905L36.3897 30.9637C36.1612 30.8368 36.085 30.5448 36.2246 30.329C36.3643 30.1131 36.6436 30.0243 36.8594 30.1639L38.4717 31.0907C38.7002 31.2176 38.7764 31.5096 38.6367 31.7254C38.5479 31.8778 38.3828 31.954 38.2305 31.954Z" fill="#FFFFFE"/>
<path d="M39.0303 28.9453H37.1768C36.9228 28.9453 36.707 28.7422 36.707 28.4756C36.707 28.209 36.9102 28.0059 37.1768 28.0059H39.0303C39.2842 28.0059 39.5 28.209 39.5 28.4756C39.5 28.7422 39.2969 28.9453 39.0303 28.9453Z" fill="#FFFFFE"/>
<path d="M36.6182 26.8507C36.4532 26.8507 36.3009 26.7618 36.212 26.6222C36.085 26.3936 36.1612 26.1143 36.377 25.9874L37.9893 25.0606C38.2179 24.9337 38.4972 25.0098 38.6241 25.2257C38.7511 25.4415 38.6749 25.7335 38.4591 25.8604L36.8468 26.7872C36.7833 26.838 36.6944 26.8507 36.6182 26.8507Z" fill="#FFFFFE"/>
<path d="M35.0947 25.3269C35.0186 25.3269 34.9297 25.3015 34.8662 25.2634C34.6377 25.1365 34.5615 24.8445 34.7012 24.6287L35.628 23.0164C35.7549 22.7879 36.0469 22.7117 36.2627 22.8513C36.4912 22.9783 36.5674 23.2703 36.4278 23.4861L35.501 25.0984C35.4121 25.2381 35.2471 25.3269 35.0947 25.3269Z" fill="#FFFFFE"/>
<path d="M42.9023 40.5488H22.9453C21.917 40.5488 21.0918 39.7109 21.0918 38.6953C21.0918 37.6797 21.9297 36.8418 22.9453 36.8418H42.9023C43.9307 36.8418 44.7559 37.6797 44.7559 38.6953C44.7559 39.7109 43.9307 40.5488 42.9023 40.5488ZM22.9453 37.7686C22.4375 37.7686 22.0186 38.1875 22.0186 38.6953C22.0186 39.2031 22.4375 39.6221 22.9453 39.6221H42.9023C43.4102 39.6221 43.8291 39.2031 43.8291 38.6953C43.8291 38.1875 43.4102 37.7686 42.9023 37.7686H22.9453Z" fill="#FFFFFE"/>
<path d="M23.4023 40.5493C23.2881 40.5493 23.1611 40.4985 23.0723 40.4097C22.8945 40.2319 22.8945 39.9399 23.0723 39.7495L25.8525 36.9692C26.0303 36.7915 26.3223 36.7915 26.5127 36.9692C26.7031 37.147 26.6904 37.439 26.5127 37.6294L23.7324 40.4097C23.6436 40.4985 23.5293 40.5493 23.4023 40.5493Z" fill="#FFFFFE"/>
<path d="M26.6523 40.5493C26.5381 40.5493 26.4111 40.4985 26.3223 40.4097C26.1445 40.2319 26.1445 39.9399 26.3223 39.7495L29.1025 36.9692C29.2803 36.7915 29.5723 36.7915 29.7627 36.9692C29.9531 37.147 29.9404 37.439 29.7627 37.6294L26.9824 40.4097C26.8936 40.4985 26.7793 40.5493 26.6523 40.5493Z" fill="#FFFFFE"/>
<path d="M29.9023 40.5493C29.7881 40.5493 29.6611 40.4985 29.5723 40.4097C29.3945 40.2319 29.3945 39.9399 29.5723 39.7495L32.3525 36.9692C32.5303 36.7915 32.8223 36.7915 33.0127 36.9692C33.1904 37.147 33.1904 37.439 33.0127 37.6294L30.2324 40.4097C30.1436 40.4985 30.0293 40.5493 29.9023 40.5493Z" fill="#FFFFFE"/>
<path d="M33.1523 40.5493C33.0381 40.5493 32.9111 40.4985 32.8223 40.4097C32.6445 40.2319 32.6445 39.9399 32.8223 39.7495L35.6025 36.9692C35.7803 36.7915 36.0723 36.7915 36.2627 36.9692C36.4404 37.147 36.4404 37.439 36.2627 37.6294L33.4824 40.4097C33.3936 40.4985 33.2666 40.5493 33.1523 40.5493Z" fill="#FFFFFE"/>
<path d="M36.4023 40.5493C36.2881 40.5493 36.1611 40.4985 36.0723 40.4097C35.8945 40.2319 35.8945 39.9399 36.0723 39.7495L38.8525 36.9692C39.0303 36.7915 39.3223 36.7915 39.5127 36.9692C39.6904 37.147 39.6904 37.439 39.5127 37.6294L36.7324 40.4097C36.6436 40.4985 36.5293 40.5493 36.4023 40.5493Z" fill="#FFFFFE"/>
<path d="M39.6523 40.5493C39.5381 40.5493 39.4111 40.4985 39.3223 40.4097C39.1445 40.2319 39.1445 39.9399 39.3223 39.7495L42.1025 36.9692C42.2803 36.7915 42.5723 36.7915 42.7627 36.9692C42.9404 37.147 42.9404 37.439 42.7627 37.6294L39.9824 40.4097C39.8936 40.4985 39.7793 40.5493 39.6523 40.5493Z" fill="#FFFFFE"/>
</g>
</g>
<defs>
<clipPath id="clip0_4511_1423">
<rect width="65" height="65" fill="white" transform="translate(0.5)"/>
</clipPath>
<clipPath id="clip1_4511_1423">
<rect width="65" height="65" fill="white" transform="translate(0.5)"/>
</clipPath>
</defs>
</svg>
