<svg width="32" height="32" viewBox="0 0 32 32" fill="none" xmlns="http://www.w3.org/2000/svg">
<g id="Frame" clip-path="url(#clip0_1154_19165)">
<g id="Layer 2">
<g id="Circle">
<g id="03.Instagram">
<path id="Background" d="M32 16C32 7.16344 24.8366 0 16 0C7.16344 0 0 7.16344 0 16C0 24.8366 7.16344 32 16 32C24.8366 32 32 24.8366 32 16Z" fill="url(#paint0_linear_1154_19165)"/>
<g id="Group">
<path id="Shade" opacity="0.1" d="M28.0419 5.47368C25.7093 9.75579 22.4103 14.1726 18.2882 18.2947C14.1661 22.4168 9.74929 25.7095 5.47351 28.0421C5.20543 27.8091 4.94508 27.5663 4.69245 27.3137C3.16541 25.8376 1.94752 24.0723 1.10979 22.1207C0.272062 20.1691 -0.168741 18.0702 -0.186914 15.9465C-0.205087 13.8227 0.199734 11.7166 1.00394 9.75097C1.80815 7.7853 2.99566 5.99942 4.49721 4.49744C5.99877 2.99547 7.78432 1.80746 9.74976 1.00271C11.7152 0.197947 13.8212 -0.207462 15.9449 -0.189881C18.0687 -0.172301 20.1677 0.267916 22.1195 1.1051C24.0714 1.94229 25.837 3.15969 27.3135 4.68631C27.5661 4.93894 27.8089 5.2014 28.0419 5.47368Z" fill="white"/>
<g id="Icon">
<path id="Vector" d="M19.7887 7.57892H12.2097C10.9813 7.57892 9.80327 8.06689 8.93468 8.93548C8.06609 9.80407 7.57812 10.9821 7.57812 12.2105V19.7894C7.57812 21.0178 8.06609 22.1959 8.93468 23.0645C9.80327 23.9331 10.9813 24.421 12.2097 24.421H19.7887C21.017 24.421 22.1951 23.9331 23.0637 23.0645C23.9323 22.1959 24.4202 21.0178 24.4202 19.7894V12.2105C24.4202 10.9821 23.9323 9.80407 23.0637 8.93548C22.1951 8.06689 21.017 7.57892 19.7887 7.57892ZM22.9465 19.1242C22.9465 20.1381 22.5438 21.1106 21.8268 21.8276C21.1098 22.5445 20.1374 22.9473 19.1234 22.9473H12.875C11.861 22.9473 10.8886 22.5445 10.1716 21.8276C9.4546 21.1106 9.05181 20.1381 9.05181 19.1242V12.8758C9.05181 11.8618 9.4546 10.8894 10.1716 10.1724C10.8886 9.4554 11.861 9.0526 12.875 9.0526H19.1234C20.1374 9.0526 21.1098 9.4554 21.8268 10.1724C22.5438 10.8894 22.9465 11.8618 22.9465 12.8758V19.1242Z" fill="white"/>
<path id="Vector_2" d="M19.0693 12.96L19.0293 12.92L18.9956 12.8863C18.1996 12.093 17.1214 11.6478 15.9977 11.6484C15.4302 11.6522 14.869 11.7679 14.3462 11.9887C13.8234 12.2095 13.3493 12.5311 12.9508 12.9352C12.5524 13.3393 12.2375 13.818 12.0241 14.3439C11.8107 14.8697 11.703 15.4325 11.7071 16C11.7063 17.1516 12.1603 18.2571 12.9703 19.0757C13.3671 19.4773 13.8399 19.7959 14.3611 20.0128C14.8823 20.2296 15.4415 20.3405 16.0061 20.3389C16.8529 20.3211 17.6763 20.0574 18.3757 19.5797C19.0752 19.102 19.6206 18.4312 19.9453 17.6489C20.27 16.8666 20.3601 16.0067 20.2046 15.1741C20.049 14.3415 19.6545 13.5722 19.0693 12.96ZM15.9977 18.8547C15.4314 18.8626 14.8756 18.702 14.4009 18.3931C13.9262 18.0843 13.5541 17.6413 13.3319 17.1204C13.1097 16.5995 13.0474 16.0243 13.153 15.4679C13.2586 14.9116 13.5273 14.3992 13.9249 13.9959C14.3225 13.5927 14.831 13.3168 15.3859 13.2034C15.9407 13.0899 16.5167 13.1441 17.0407 13.3589C17.5647 13.5738 18.0129 13.9396 18.3284 14.4099C18.6439 14.8802 18.8124 15.4337 18.8124 16C18.8152 16.3723 18.7446 16.7415 18.6046 17.0865C18.4646 17.4315 18.258 17.7455 17.9966 18.0106C17.7352 18.2757 17.4241 18.4867 17.0811 18.6316C16.7381 18.7764 16.37 18.8522 15.9977 18.8547Z" fill="white"/>
<path id="Vector_3" d="M21.5632 11.4484C21.5643 11.5835 21.5387 11.7175 21.488 11.8427C21.4373 11.9679 21.3623 12.0819 21.2675 12.1781C21.1727 12.2743 21.0598 12.3508 20.9353 12.4034C20.8108 12.4559 20.6772 12.4834 20.5421 12.4842C20.4082 12.4841 20.2756 12.4575 20.152 12.4058C20.0284 12.3541 19.9163 12.2784 19.8221 12.1831C19.6795 12.0384 19.5825 11.855 19.5431 11.6557C19.5037 11.4564 19.5237 11.2499 19.6006 11.0618C19.6775 10.8737 19.8079 10.7124 19.9756 10.5977C20.1434 10.4831 20.3411 10.4202 20.5442 10.4168C20.782 10.4168 21.0122 10.5002 21.1948 10.6526L21.2158 10.6737C21.2498 10.7013 21.2808 10.7323 21.3084 10.7663L21.3316 10.7915C21.4823 10.9772 21.5641 11.2093 21.5632 11.4484Z" fill="white"/>
</g>
</g>
</g>
</g>
</g>
</g>
<defs>
<linearGradient id="paint0_linear_1154_19165" x1="4.68632" y1="4.68632" x2="27.3137" y2="27.3137" gradientUnits="userSpaceOnUse">
<stop stop-color="#FAE100"/>
<stop offset="0.15" stop-color="#FCB720"/>
<stop offset="0.3" stop-color="#FF7950"/>
<stop offset="0.5" stop-color="#FF1C74"/>
<stop offset="1" stop-color="#6C1CD1"/>
</linearGradient>
<clipPath id="clip0_1154_19165">
<rect width="32" height="32" fill="white"/>
</clipPath>
</defs>
</svg>
