<svg width="24" height="24" viewBox="0 0 24 24" fill="none" xmlns="http://www.w3.org/2000/svg">
<g clip-path="url(#clip0_193_16785)">
<path d="M17.0286 0H6.97137C3.12119 0 0 3.12119 0 6.97137V17.0286C0 20.8788 3.12119 24 6.97137 24H17.0286C20.8788 24 24 20.8788 24 17.0286V6.97137C24 3.12119 20.8788 0 17.0286 0Z" fill="url(#paint0_radial_193_16785)"/>
<path d="M14.6256 18.7684H9.37818C7.09364 18.7684 5.23438 16.9092 5.23438 14.6246V9.37721C5.23438 7.09266 7.09364 5.2334 9.37818 5.2334H14.6256C16.9101 5.2334 18.7694 7.09266 18.7694 9.37721V14.6246C18.7694 16.9092 16.9101 18.7684 14.6256 18.7684ZM9.37643 6.24563C7.65072 6.24563 6.24485 7.64974 6.24485 9.37721V14.6246C6.24485 16.3503 7.64896 17.7562 9.37643 17.7562H14.6238C16.3496 17.7562 17.7554 16.3521 17.7554 14.6246V9.37721C17.7554 7.6515 16.3513 6.24563 14.6238 6.24563H9.37643Z" fill="white"/>
<path d="M12.0014 15.4242C10.114 15.4242 8.57812 13.8883 8.57812 12.0009C8.57812 10.1136 10.114 8.57764 12.0014 8.57764C13.8888 8.57764 15.4247 10.1136 15.4247 12.0009C15.4247 13.8883 13.8888 15.4242 12.0014 15.4242ZM12.0014 9.61447C10.6852 9.61447 9.61496 10.6847 9.61496 12.0009C9.61496 13.3172 10.6852 14.3874 12.0014 14.3874C13.3177 14.3874 14.3879 13.3172 14.3879 12.0009C14.3879 10.6847 13.3177 9.61447 12.0014 9.61447Z" fill="white"/>
<path d="M16.6882 8.20323C16.6882 8.69528 16.2893 9.0942 15.7972 9.0942C15.3052 9.0942 14.9062 8.69528 14.9062 8.20323C14.9062 7.71117 15.3052 7.31226 15.7972 7.31226C16.2893 7.31226 16.6882 7.71117 16.6882 8.20323Z" fill="white"/>
</g>
<defs>
<radialGradient id="paint0_radial_193_16785" cx="0" cy="0" r="1" gradientUnits="userSpaceOnUse" gradientTransform="translate(-2.62195 32.4124) scale(50.035)">
<stop stop-color="#F9ED41"/>
<stop offset="0.24" stop-color="#FF833D"/>
<stop offset="0.4" stop-color="#EE5468"/>
<stop offset="0.49" stop-color="#E7407B"/>
<stop offset="1" stop-color="#0028FF"/>
</radialGradient>
<clipPath id="clip0_193_16785">
<rect width="24" height="24" fill="white"/>
</clipPath>
</defs>
</svg>
