<svg width="286" height="234" viewBox="0 0 286 234" fill="none" xmlns="http://www.w3.org/2000/svg">
<g clip-path="url(#clip0_3238_38097)">
<g opacity="0.47">
<path d="M231.845 18.1531C230.279 21.3977 225.233 25.9933 225.925 19.4437C225.992 17.7792 227.702 16.2051 227.051 14.6431C225.004 13.853 219.229 14.2571 220.65 10.536C221.535 8.91371 223.215 8.63629 225.149 8.67247C233.7 10.4154 227.828 1.77309 233.188 0C238.469 2.77423 231.971 8.81722 239.956 8.43727C241.167 8.75691 242.624 8.59407 242.811 10.331C242.486 12.8398 238.481 13.2439 237.349 14.8301C238.626 22.821 235.018 27.6217 231.839 18.1591L231.845 18.1531Z" fill="#FFBCBB"/>
<path d="M261.046 161.478C259.317 161.436 259.04 161.442 259.01 163.124C258.884 172.538 254.548 170.18 254.361 162.678C252.85 162.931 251.29 165.621 249.237 164.952C246.039 163.16 252.151 158.396 250.989 157.401C249.291 155.622 247.117 154.675 246.894 152.226C247.707 147.775 254.15 152.878 255.246 152.588C257.107 150.833 257.98 148.493 260.251 147.01C266.67 144.856 261.907 153.523 261.13 155.887C263.352 157.576 265.785 161.749 261.052 161.484L261.046 161.478Z" fill="#CBE8F4"/>
<path d="M43.7316 185.982C42.9307 186.446 42.3767 186.754 41.8347 187.085C40.829 187.694 39.7331 187.887 38.5829 187.755C36.8004 187.556 36.156 186.307 36.969 184.691C37.2159 184.202 37.5892 183.816 37.9746 183.449C39.3898 182.092 40.7146 180.62 42.5393 179.782C43.0632 179.541 43.1475 179.227 43.0391 178.654C42.738 177.038 43.1716 175.343 42.3767 173.757C42.0395 173.081 42.4008 172.303 43.1475 171.966C44.0086 171.574 44.665 172.116 45.1347 172.732C45.7791 173.576 46.297 174.517 46.8691 175.421C47.3147 176.125 47.8707 176.278 48.5371 175.88C49.3079 175.433 50.157 175.084 50.8375 174.529C51.7468 173.787 52.6742 173.884 53.6738 174.125C54.824 174.402 55.2877 175.301 54.812 176.417C54.1977 177.852 53.2463 179.076 52.3791 180.355C51.4879 181.682 51.4819 181.663 52.4032 182.852C52.8789 183.461 53.3426 184.076 53.7581 184.727C54.1917 185.409 54.4326 186.187 53.9087 186.898C53.4089 187.586 52.608 187.363 51.9154 187.272C50.9881 187.158 50.3497 186.452 49.603 185.982C48.3625 185.198 48.1397 185.276 48.1035 186.784C48.0674 188.406 47.6218 189.944 47.2725 191.506C47.1641 192 46.9172 192.38 46.568 192.712C45.6044 193.629 44.7313 193.424 44.3579 192.115C43.9243 190.571 43.7557 188.979 43.7979 187.369C43.8099 187.019 43.7617 186.669 43.7196 185.982H43.7316Z" fill="#FEC9B2"/>
<path d="M61.2615 31.1315C58.8888 29.8892 53.8364 29.865 53.1559 28.1704C52.0599 25.7821 62.0262 20.4266 62.3273 23.5808C63.0379 28.3875 65.9044 30.4561 61.2615 31.1315Z" fill="#CBE8F4"/>
<path d="M269.765 72.793C257.529 82.6536 259.636 77.8228 260.973 70.073C260.955 68.3965 270.711 71.7255 269.765 72.793Z" fill="#FEC9B2"/>
<path d="M25.8406 84.8129C26.1477 87.6595 19.8186 84.7043 17.9277 84.6561C17.2111 83.9022 17.3797 83.4318 18.0421 82.2919C23.3716 72.558 23.3776 78.7819 25.8466 84.8129H25.8406Z" fill="#FEC9B2"/>
<path d="M211.184 126.028C211.063 114.937 225.034 109.334 233.447 109.678C243.798 112.253 247.767 116.825 248.158 123.718C248.369 149.675 210.407 152.624 211.178 126.028H211.184Z" fill="#D58F60"/>
<path d="M219.765 127.174C224.276 127.234 229.394 139.079 222.957 138.988C218.121 138.807 212.232 127.373 219.765 127.174ZM222.872 136.618C225.275 136.769 222.74 133.289 222.252 132.143C215.929 124.128 218.302 136.112 222.872 136.618Z" fill="#A46E49"/>
<path d="M233.851 130.063C235.916 128.229 239.632 126.589 239.331 125.226C238.632 122.627 232.953 128.953 230.087 121.637C228.654 117.434 237.506 113.797 234.682 117.488C227.925 121.951 234.947 124.569 236.573 123.435C237.379 122.934 237.789 120.835 238.933 121.993C240.077 123.399 242.986 126.149 241.974 127.379C239.204 128.398 236.831 130.943 233.851 130.069V130.063Z" fill="#A46E49"/>
<path d="M232.652 131.275C231.755 137.764 223.98 129.489 223.944 125.708C224.438 117.422 233.64 126.197 232.652 131.275ZM231.104 131.624C231.056 129.315 227.28 122.759 225.944 125.382C226.498 128.205 228.455 131.697 231.104 131.624Z" fill="#A46E49"/>
<path d="M68.7527 84.2034C41.0156 79.5838 52.5356 46.2448 73.4618 49.1276C95.5443 57.1065 88.1975 86.5254 68.7527 84.2034Z" fill="#99ABAA"/>
<path d="M81.9471 68.342C81.4593 76.146 72.1373 81.1155 71.3726 72.6782C71.8483 65.8753 80.9836 57.4984 81.9471 68.342ZM79.7912 68.7641C79.7069 57.9205 69.2528 77.5572 76.2082 74.6202C78.2737 73.3115 79.4721 71.0197 79.7912 68.7641Z" fill="#707D7C"/>
<path d="M71.9325 63.2641C70.5415 74.1198 62.0927 76.2185 62.3577 69.3734C62.5624 64.3798 71.7639 54.5012 71.9325 63.2641ZM69.7466 61.8529C67.0427 64.0964 65.3084 66.7319 64.5316 69.88C65.5613 75.8507 71.0955 64.2894 69.7466 61.8529Z" fill="#707D7C"/>
<path d="M56.8174 69.3489C58.0398 67.0993 63.3452 52.3899 64.8446 57.0096C64.0859 59.0058 57.1486 75.8261 56.8174 69.3489Z" fill="#707D7C"/>
<path d="M60.4363 124.659C60.3339 125.322 59.9847 125.732 59.4186 126.058C53.4328 129.514 47.9107 133.609 42.5451 137.957C37.282 142.227 32.9582 147.347 28.8753 152.69C27.3939 154.626 26.045 156.659 24.6299 158.643C24.4552 158.884 24.2685 159.113 24.0578 159.331C22.8534 160.585 21.7995 160.47 20.9203 159.005C19.5293 156.683 17.7468 154.729 15.5548 153.119C13.2544 151.424 11.1226 149.524 9.1354 147.474C7.5155 145.803 5.79925 144.259 3.96255 142.83C3.15561 142.203 2.31254 141.726 1.28279 141.491C0.0904466 141.22 -0.421418 139.881 0.361434 138.982C1.86692 137.251 2.74612 135.153 3.96255 133.259C5.74505 130.491 7.93101 128.066 10.1772 125.696C16.8194 118.694 24.5034 113.031 32.8317 108.2C35.7644 106.5 38.6248 104.684 41.6117 103.08C42.2802 102.718 42.792 102.694 43.4304 103.026C44.1289 103.388 44.713 103.87 45.261 104.431C48.001 107.247 50.7049 110.076 52.8306 113.423C54.0771 115.383 55.6248 117.126 57.2748 118.76C58.8044 120.28 59.5932 122.192 60.3038 124.158C60.364 124.321 60.3881 124.502 60.4303 124.653L60.4363 124.659Z" fill="#FFBCBB"/>
<path d="M36.68 132.704C36.8727 135.538 34.6144 137.444 32.1515 138.174C30.0257 138.807 28.2252 138.204 26.6474 136.648C23.8051 133.849 22.9078 130.551 23.8653 126.703C24.2085 125.31 25.0275 124.218 26.0934 123.344C27.8578 121.896 30.5436 122.107 32.6272 123.911C35.2829 126.214 36.5294 129.218 36.68 132.698V132.704Z" fill="#FFE7AA"/>
<path d="M41.0334 112.235C47.0855 111.408 43.7794 116.969 46.4652 118.802C52.5413 123.729 56.7085 125.322 51.4634 128.94C50.1928 129.664 49.0426 131.166 47.495 130.225C44.5623 127.975 44.0323 124.164 42.2739 121.082C36.5591 120.666 37.5889 114.52 41.0394 112.228L41.0334 112.235Z" fill="#ED9F9E"/>
<path d="M39.1367 112.193C39.0765 112.549 38.7995 112.579 38.5225 112.609C37.7276 111.867 36.6497 112.35 35.7584 111.777C35.8849 114.376 35.5235 115.281 34.3131 115.636C32.6631 116.119 31.6334 115.492 30.4832 113.236C29.8629 113.465 29.5016 113.984 29.0921 114.46C28.7188 114.581 28.3996 114.762 28.3695 115.214C28.237 115.256 28.0383 115.269 28.237 115.48C28.2972 115.407 28.3574 115.335 28.4177 115.262C28.7127 115.244 28.9536 115.13 29.1222 114.883C29.3029 114.895 29.4835 114.883 29.6582 114.919C30.971 115.25 32.0308 116.426 31.8441 117.337C31.6334 118.393 29.8509 119.575 28.6947 119.412C28.6104 119.4 28.5441 119.249 28.3996 119.08C28.9837 118.622 29.5799 118.181 30.146 117.705C30.4892 117.41 30.6699 117.011 30.2905 116.625C29.9111 116.24 29.4534 116.125 29.068 116.613C28.5863 117.223 28.1226 117.765 27.3698 116.951C26.304 115.787 26.1895 114.858 27.0145 114.044C27.4421 113.628 27.8937 113.23 28.4538 113.007C29.6341 112.537 30.7722 112.096 31.6695 111.053C32.4283 110.178 33.6387 110.528 34.6082 110.769C35.0297 110.456 34.8852 110.058 34.9695 109.732C35.3308 108.291 36.6015 107.471 38.0588 107.826C38.8115 108.013 39.2752 108.158 39.3475 107.103C39.4499 105.595 40.7084 105.094 41.8887 104.714C42.9426 104.377 43.8579 104.877 44.5866 105.673C45.6043 106.777 45.4658 108.224 44.2192 109.045C43.3039 109.648 42.3043 110.01 41.1842 109.575C40.859 109.449 40.5398 109.256 40.052 109.473C40.0701 110.438 39.4258 111.246 39.1307 112.193H39.1367ZM34.4577 113.465C34.5119 112.597 33.8073 111.777 33.0064 111.783C32.3921 111.783 31.7899 111.891 31.7357 112.669C31.6936 113.327 32.639 114.237 33.3556 114.279C33.9578 114.316 34.3794 114.092 34.4577 113.465ZM42.2621 106.174C41.7803 106.198 41.1601 106.089 41.0698 106.849C40.9975 107.465 41.5756 108.013 42.3464 108.062C42.8824 108.092 43.4725 108.128 43.5749 107.374C43.6592 106.741 43.1353 106.258 42.2681 106.174H42.2621ZM38.4562 110.221C38.4081 109.636 37.7095 109.207 36.9628 109.322C36.5834 109.382 36.2582 109.563 36.3847 110.016C36.5774 110.715 37.1434 110.86 37.7697 110.83C38.1491 110.812 38.4743 110.697 38.4562 110.221Z" fill="#ED9F9E"/>
<path d="M23.4857 140.326C23.5459 140.616 23.6302 140.905 23.6603 141.201C23.7989 142.341 23.4074 142.847 22.2693 143.01C21.926 143.058 21.5527 142.902 21.1191 143.209C21.1191 144.035 21.6791 144.976 21.0227 145.839C20.3242 146.761 19.3306 146.52 18.1804 146.46C18.7705 147.316 19.5715 147.817 19.716 148.721C19.8665 149.686 19.5233 150.476 18.897 151.17C18.0419 152.117 17.4879 152.177 16.151 151.345C17.5119 151.146 18.084 150.356 18.1443 149.192C18.1744 148.607 17.9455 148.148 17.3433 147.949C16.8014 147.775 16.4641 147.919 16.2293 148.48C15.9462 149.162 15.3982 149.113 14.9225 148.727C14.1818 148.13 13.4532 147.509 12.8028 146.822C12.303 146.291 12.1464 145.742 13.0316 145.266C14.0252 144.729 14.9225 143.891 15.5608 143.064C16.3618 142.033 16.7773 140.827 18.3912 141.044C18.4694 141.056 18.6742 140.779 18.6621 140.652C18.5297 138.837 19.8184 138.698 21.1251 138.608C21.1552 138.372 21.2154 138.191 21.1914 138.029C20.8963 136.195 21.7574 135.429 23.4676 136.056C23.9675 136.237 24.4492 136.503 24.8888 136.798C25.9005 137.48 26.2919 138.366 25.9547 139.211C25.5272 140.284 24.6359 140.26 23.7085 140.103C23.5881 139.977 23.4616 139.85 23.3231 140.061C23.299 140.097 23.4255 140.236 23.4797 140.326H23.4857ZM17.5963 146.436C17.7528 145.947 17.4939 145.845 17.3433 145.676C16.428 144.643 15.5408 144.675 14.6816 145.772C14.507 145.995 14.2179 146.188 14.4648 146.514C14.6937 146.81 15.0369 147.057 15.3742 146.858C16.0787 146.448 16.8556 146.55 17.5902 146.43L17.5963 146.436ZM19.9448 144.765C19.4871 143.462 18.8006 142.799 17.4156 142.721C17.8974 143.891 18.3309 144.819 19.9448 144.765ZM22.6848 137.383C23.0461 138.137 23.4978 138.565 24.1361 138.776C24.2927 138.831 24.5215 138.831 24.5938 138.638C24.6419 138.499 24.6479 138.264 24.5636 138.167C24.124 137.685 23.5881 137.365 22.6908 137.383H22.6848ZM20.2459 140.266C20.4386 140.911 20.9204 141.201 21.3901 141.49C21.5768 141.605 21.8538 141.665 22.0164 141.436C22.179 141.213 22.0465 140.996 21.8658 140.851C21.4202 140.501 20.9685 140.145 20.2459 140.266Z" fill="#ED9F9E"/>
<path d="M10.8397 136.021C10.2797 135.966 9.99666 135.616 9.89429 135.11C9.70761 134.181 9.44866 133.258 9.50888 132.293C9.53899 131.781 9.38844 131.123 10.1532 131.039C10.8036 130.967 10.8277 131.558 11.0023 131.986C11.1709 132.402 11.0987 132.945 11.6467 133.18C12.4295 133.512 13.1762 133.886 13.8929 133.029C14.1157 132.764 14.4469 132.589 14.7419 132.36C14.6456 132.185 14.5854 132.016 14.477 131.883C13.8627 131.117 12.6403 130.297 13.11 129.411C13.923 127.885 15.0009 126.353 16.94 125.931C17.4578 125.816 17.8974 126.021 18.2708 126.305C19.71 127.396 20.788 128.814 21.7997 130.285C21.9442 130.49 21.9863 130.737 21.8177 130.942C21.5708 131.244 21.2697 131.123 21.0289 130.942C20.6073 130.623 20.2159 130.261 19.8245 129.929C19.2102 129.972 19.0898 130.52 18.8007 130.858C17.7529 132.064 17.765 132.07 18.8429 133.264C18.9633 133.397 19.0958 133.518 19.2102 133.65C19.415 133.892 19.5173 134.175 19.3307 134.465C19.144 134.748 18.8308 134.784 18.5358 134.7C17.783 134.483 17.1206 134.073 16.5124 133.602C15.8801 133.114 15.4586 133.047 14.9407 133.813C14.471 134.513 14.6637 134.802 15.2538 135.212C15.7837 135.58 16.2294 136.075 16.675 136.551C16.8858 136.774 16.958 137.088 16.7834 137.377C16.5666 137.733 16.2173 137.812 15.856 137.637C15.3201 137.384 14.7781 137.124 14.2963 136.786C13.6339 136.322 13.0377 136.195 12.3573 136.738C12.1405 136.913 11.8334 137.022 11.5503 137.07C10.5928 137.227 10.6169 136.672 10.8217 136.008C11.0324 135.996 11.1529 135.876 11.2071 135.683C11.3877 135.629 11.5082 135.514 11.4961 135.321C11.4961 135.267 11.3636 135.224 11.2974 135.182C11.2552 135.339 11.2191 135.496 11.177 135.653C10.9662 135.689 10.8819 135.846 10.8397 136.033V136.021ZM15.2598 129.646C15.2056 129.405 15.0671 129.236 14.8202 129.188C14.7841 129.181 14.6637 129.344 14.6817 129.393C14.766 129.652 14.9949 129.682 15.2297 129.676C15.308 130.225 15.5549 130.569 16.1993 130.611C16.127 129.923 15.7235 129.748 15.2598 129.64V129.646ZM16.7171 127.233C16.5365 127.366 16.139 127.408 16.1029 127.843C16.0668 128.265 17.1146 129.314 17.506 129.23C17.8734 129.151 18.1263 128.874 18.1443 128.488C18.1684 128.018 17.3314 127.24 16.7171 127.227V127.233Z" fill="#ED9F9E"/>
<path d="M8.37685 135.568C8.81043 136.244 8.44912 136.557 8.20222 136.865C7.81079 137.354 7.99747 137.721 8.35879 138.113C8.76226 138.554 9.13562 138.56 9.5692 138.15C10.2437 137.516 10.9 137.721 11.4179 138.349C12.0502 139.121 12.6404 139.657 13.5617 138.704C13.7544 138.505 14.1278 138.536 14.3747 138.777C14.6336 139.024 14.5734 139.332 14.4108 139.591C14.1579 139.995 13.905 140.411 13.5798 140.749C12.5019 141.859 11.3999 142.944 10.2918 144.018C9.99073 144.313 9.61737 144.573 9.20186 144.193C8.78634 143.819 8.99711 143.451 9.27412 143.101C9.49091 142.824 9.8161 142.625 9.9004 142.214C9.40058 141.461 8.84656 140.942 7.91316 141.714C7.62411 141.955 7.24473 142.046 6.97374 141.678C6.72684 141.346 6.84126 140.966 7.08816 140.701C7.63013 140.122 7.67831 139.567 7.07009 138.964C6.4679 138.964 6.31133 139.597 5.88377 139.868C5.57063 140.067 5.25147 140.26 4.92026 139.947C4.61916 139.663 4.60712 139.247 4.83595 138.97C5.87173 137.703 7.03998 136.576 8.36481 135.574L8.37685 135.568ZM10.2376 139.35C9.91847 139.639 9.94256 139.935 10.1593 140.17C10.4544 140.496 10.7856 141.183 11.2192 140.839C11.7431 140.423 11.0325 140.079 10.7736 139.754C10.6351 139.579 10.4123 139.476 10.2376 139.35Z" fill="#ED9F9E"/>
<path d="M202.843 217.571C201.091 217.131 199.549 216.299 198.471 214.779C197.068 212.789 195.756 210.732 194.744 208.501C193.539 205.841 192.148 203.284 190.535 200.848C190.113 200.214 189.782 199.515 189.017 199.141C188.595 198.936 188.246 198.52 188.349 197.977C188.457 197.398 188.878 197 189.42 196.897C193.78 196.071 197.098 193.243 200.663 190.957C203.903 188.882 207.005 186.548 209.973 184.088C212.852 181.699 215.556 179.082 217.916 176.151C219.145 174.625 220.458 173.172 221.493 171.489C221.873 170.874 222.475 170.494 223.113 170.126C224.251 169.469 225.197 169.619 226.227 170.397C228.449 172.068 230.135 174.221 231.719 176.44C233.754 179.287 235.627 182.26 237.831 184.986C238.728 186.096 239.794 187.067 240.758 188.116C241.896 189.359 241.552 191.687 240.071 192.447C239.613 192.682 239.276 192.923 239.059 193.369C237.771 196.041 235.675 198.097 233.73 200.251C230.087 204.279 225.992 207.771 221.301 210.563C218.121 212.457 214.833 214.092 211.28 215.159C208.889 215.877 206.553 216.751 204.108 217.282C203.705 217.366 203.301 217.463 202.831 217.565L202.843 217.571Z" fill="#FEC9B2"/>
<path d="M217.164 189.437C221.891 199.292 214.767 204.563 209.793 200.257C204.668 194.877 209.997 185.028 217.164 189.437Z" fill="#FFE7AA"/>
<path d="M220.229 190.305C220.072 190.215 219.922 190.124 219.771 190.034C219.609 189.672 219.416 189.31 219.271 188.936C218.603 187.145 219.031 186.554 221.012 186.524C221.102 186.572 221.235 186.693 221.283 186.669C221.494 186.548 221.385 186.403 221.265 186.277C221.12 184.148 221.162 184.088 223.198 183.84C223.306 183.291 222.86 182.586 223.433 182.073C223.999 181.561 224.691 181.934 225.257 181.808C225.679 181.464 225.39 181.12 225.372 180.789C225.305 179.619 225.625 179.239 226.835 179.009C227.562 178.873 227.766 178.447 227.449 177.731C227.401 177.622 227.323 177.526 227.269 177.423C227.076 177.062 227.13 176.736 227.443 176.47C227.762 176.193 228.13 176.205 228.425 176.452C230.015 177.803 231.46 179.299 232.526 181.114C232.718 181.44 232.742 181.814 232.405 182.079C232.128 182.296 231.857 182.14 231.592 181.983C231.201 181.748 230.966 181.247 230.249 181.283C230.105 182.743 230.28 184.636 227.69 183.852C227.859 185.348 227.461 186.277 226.022 186.379C225.588 186.409 225.444 186.651 225.348 187.049C224.944 188.689 224.932 188.689 223.36 188.713C223.119 188.973 223.204 189.274 223.294 189.546C223.517 190.185 223.427 190.722 222.854 191.12C222.234 191.554 221.62 191.445 221.042 191.017C220.759 190.806 220.5 190.553 220.235 190.317L220.229 190.305ZM225.149 183.587C225.083 183.539 225.016 183.484 224.95 183.436C224.914 183.551 224.968 183.611 225.119 183.623C225.107 183.834 225.221 183.967 225.384 184.069C225.498 184.19 225.619 184.317 225.733 184.437C225.853 184.552 225.98 184.667 226.106 184.781C226.191 184.902 226.275 185.065 226.425 184.853C226.438 184.835 226.311 184.715 226.245 184.642C226.13 184.516 226.016 184.389 225.896 184.268C225.781 184.148 225.661 184.021 225.546 183.901C225.414 183.792 225.281 183.689 225.149 183.581V183.587ZM221.783 189.636C221.849 189.684 221.921 189.726 221.987 189.775L221.855 189.57C221.825 188.695 221.186 188.412 220.56 188.11C220.735 188.834 220.946 189.509 221.783 189.636ZM227.058 180.692C227.451 181.621 228.025 182.168 228.78 182.333C228.371 181.645 228.039 181.066 227.058 180.692ZM222.83 185.68C222.981 186.94 222.999 186.958 224.282 187.362C224.089 186.512 223.547 186.066 222.83 185.68ZM228.262 179.064L228.136 179.154C228.172 179.19 228.202 179.257 228.238 179.263C228.274 179.263 228.322 179.209 228.365 179.184C228.328 179.148 228.298 179.106 228.262 179.07V179.064Z" fill="#E6A87F"/>
<path d="M237.349 188.635C237.771 188.55 238.373 188.49 238.126 189.117C237.813 189.913 237.801 190.559 238.229 191.295C238.548 191.843 238.186 192.422 237.681 192.247C236.813 191.94 236.368 192.247 235.898 192.863C235.753 193.056 235.476 193.122 235.254 192.977C235.037 192.832 235.019 192.585 235.109 192.344C235.151 192.235 235.199 192.121 235.26 192.018C235.585 191.457 235.814 190.969 234.862 190.776C234.7 190.746 234.621 190.299 234.483 190.004C234.182 190.336 233.923 190.655 233.628 190.939C233.297 191.258 232.887 191.403 232.538 191.011C232.213 190.643 231.936 189.992 232.447 189.781C233.634 189.292 232.971 188.828 232.616 188.249C232.478 188.026 232.514 187.688 232.466 187.399C231.478 187.314 231.267 188.37 230.526 188.563C230.147 187.513 230.304 186.922 231.117 186.15C231.791 185.511 232.55 185.336 233.399 185.722C233.61 185.818 233.778 185.999 233.959 186.156C234.344 186.494 234.7 186.422 235.073 186.126C235.489 185.8 235.218 185.517 235.061 185.203C234.989 185.053 234.965 184.878 234.892 184.612C236.073 184.468 236.392 185.432 236.916 186.06C237.163 186.355 236.916 186.621 236.585 186.699C236.247 186.777 236.073 186.964 236.055 187.302C235.916 187.393 235.772 187.483 235.976 187.646C235.982 187.646 236.109 187.507 236.175 187.435C237.102 187.272 237.133 187.308 237.066 188.376C236.904 188.55 236.717 188.816 236.922 188.967C237.193 189.166 237.235 188.792 237.355 188.641L237.349 188.635Z" fill="#E6A87F"/>
<path d="M225.083 198.35C225.558 197.723 225.823 197.235 226.209 196.897C226.931 196.258 226.986 195.679 226.281 195.015C226.161 194.901 226.088 194.714 226.034 194.551C225.962 194.322 225.938 194.044 226.185 193.924C226.311 193.863 226.564 193.894 226.672 193.99C227.244 194.503 227.835 195.009 228.328 195.594C230.526 198.224 230.749 198.139 228.19 200.751C226.745 202.228 225.944 202.138 224.806 200.449C224.179 199.52 223.698 198.489 223.168 197.494C222.975 197.132 222.734 196.668 223.186 196.378C223.704 196.041 223.878 196.559 224.101 196.897C224.39 197.337 224.685 197.771 225.077 198.356L225.083 198.35ZM227.317 199.834C227.154 199.46 227.136 198.875 226.564 198.821C226.191 198.785 225.896 199.128 225.92 199.514C225.95 200.033 226.287 200.401 226.805 200.455C227.118 200.485 227.335 200.244 227.317 199.84V199.834ZM227.841 197.416C227.624 197.868 227.786 198.121 227.937 198.375C228.082 198.622 228.232 199.02 228.545 198.851C228.925 198.646 228.81 198.248 228.563 197.94C228.383 197.711 228.202 197.47 227.841 197.416Z" fill="#E6A87F"/>
<path d="M230.141 193.315C230.117 192.205 229.484 191.385 229.533 190.42C229.533 190.372 229.599 190.324 229.629 190.275C230.223 190.472 230.992 191.598 231.935 193.653C232.086 193.574 232.243 193.514 232.381 193.417C232.742 193.17 233.025 192.585 233.561 193.08C233.953 193.442 233.676 193.846 233.513 194.22C233.11 195.16 232.471 195.944 231.809 196.704C231.58 196.97 231.255 197.241 230.888 197.078C230.466 196.891 230.623 196.487 230.719 196.15C230.749 196.035 230.821 195.932 230.864 195.824C231.171 195.07 230.894 194.774 230.105 194.66C228.84 194.479 228.16 193.617 227.913 192.404C227.841 192.042 227.907 191.644 228.262 191.47C228.75 191.234 228.816 191.723 228.985 192C229.268 192.465 229.159 193.237 230.129 193.309L230.141 193.315Z" fill="#E6A87F"/>
<path d="M204.644 207.879C200.055 207.131 202.494 205.002 201.356 202.982C198.122 201.51 192.606 196.469 198.188 194.858C199.712 194.177 201.079 191.354 202.38 193.212C204.162 195.727 204.036 198.139 204.21 201.016C207.637 202.608 208.865 203.597 206.974 207.252C206.318 207.632 205.764 207.903 204.65 207.879H204.644Z" fill="#E6A87F"/>
<path d="M205.679 209.291C205.902 209.279 206.131 209.291 206.354 209.303C206.45 209.309 207.781 209.436 207.757 209.472C207.962 209.116 207.835 208.766 207.902 208.398C208.112 207.246 209.503 207.433 210.346 207.608C210.666 207.675 212.219 208.235 212.135 207.409C211.545 201.77 219.59 206.094 216.91 209.623C215.628 210.913 214.586 209.49 213.032 209.399C213.195 212.584 211.057 213.066 208.642 211.124C207.938 215.467 205.318 212.686 204.517 213.953C202.476 217.348 198.333 212.566 200.994 211.076C201.85 210.274 202.903 211.836 203.512 210.919C203.722 210.262 204.18 209.864 204.764 209.538C205.047 209.381 205.36 209.315 205.679 209.291ZM214.309 206.161C212.942 206.396 214.664 208.471 215.766 208.308C216.844 207.789 215.104 206.203 214.309 206.161ZM211.653 210.232C211.677 209.418 209.112 207.608 209.503 209.677C209.985 210.129 210.997 211.221 211.653 210.232ZM207.077 211.546C207.149 210.841 205.631 210.039 205.336 211.179C205.312 211.824 206.601 212.554 207.077 211.546ZM203.072 212.988C203.042 212.825 202.879 212.548 202.41 212.216C200.464 211.197 202.313 214.411 203.072 212.988Z" fill="#E6A87F"/>
<path d="M220.969 207.861C220.361 210.792 215.441 203.405 216.591 202.608C217.97 202.108 220.626 207.101 220.969 207.861Z" fill="#E6A87F"/>
<path d="M243.943 87.0861C243.901 89.7458 243.907 89.7578 241.528 90.2644C239.15 90.771 236.801 91.4103 234.477 92.134C229.093 93.8106 223.631 95.2098 218.199 96.7115C217.916 96.7899 217.633 96.8984 217.338 96.9346C215.158 97.2 214.64 96.7658 214.46 94.5283C214.153 90.7348 213.213 87.068 212.436 83.359C211.449 78.6127 209.72 74.1498 207.872 69.711C206.752 67.0212 205.668 64.3194 204.427 61.6839C203.054 58.7649 201.386 56.0389 199.489 53.4396C198.664 52.3118 198.694 51.6665 199.628 50.6171C200.272 49.8934 201.121 49.4411 201.952 48.9888C205.403 47.1071 209.034 45.6416 212.707 44.2786C216.218 42.9819 219.831 41.9808 223.396 40.847C223.848 40.7023 224.3 40.5816 224.781 40.5515C225.793 40.4851 226.377 40.853 226.877 41.7999C228.84 45.533 230.978 49.1697 232.923 52.9089C234.627 56.1776 236.193 59.5188 237.65 62.9142C239.101 66.3035 240.438 69.7351 241.45 73.2813C242.474 76.8758 243.287 80.5124 243.672 84.2395C243.774 85.2407 244.027 86.2237 243.937 87.0801L243.943 87.0861Z" fill="#CBE8F4"/>
<path d="M220.644 61.9979C234.561 61.4249 230.592 72.5882 222.938 74.0115C215.688 75.3021 213.141 66.509 219.422 62.6914V62.6974C220.192 62.7397 219.608 62.3356 220.65 61.9979H220.644Z" fill="#FFE7AA"/>
<path d="M234.645 79.3672C233.561 77.57 232.164 76.5568 230.147 76.8584C228.503 77.1056 227.816 78.3299 227.503 79.9583C224.956 79.331 222.595 79.12 220.21 79.1742C218.904 79.2044 217.603 79.3612 216.386 79.8919C214.833 80.5734 214.375 81.46 214.875 83.022C215.333 84.4332 215.857 85.8324 216.453 87.1954C217.067 88.5885 218.566 89.1072 219.885 88.3714C222.378 86.9903 224.932 85.7118 227.244 84.0231C228.466 83.1305 228.485 83.1245 229.761 84.0593C231.514 85.3439 234.476 84.9881 234.753 81.9002C234.771 81.665 234.723 81.4117 234.916 81.1644L234.747 79.1622C234.711 79.2285 234.675 79.3009 234.633 79.3733L234.645 79.3672Z" fill="#99ABAA"/>
<path d="M240.366 78.5403C239.752 77.4668 238.656 76.9904 237.53 77.1592C236.349 77.3341 235.741 78.1483 235.187 79.1675L235.356 81.1698C235.392 81.1215 235.44 81.0673 235.5 81.019C236 81.3568 236.506 81.7608 237.066 82.0624C238.035 82.581 239.547 82.376 240.245 81.6824C240.998 80.9406 241.046 79.7163 240.372 78.5403H240.366ZM237.969 80.5546C237.439 80.5004 237.036 80.2048 237.078 79.65C237.126 78.9866 237.638 78.7876 238.228 78.8358C238.764 78.878 239.101 79.1555 239.119 79.7465C239.005 80.3918 238.571 80.615 237.969 80.5546Z" fill="#99ABAA"/>
<path d="M236.819 71.2316C237.319 71.2075 237.957 71.316 238.541 71.6538C239.51 72.2207 239.932 73.6078 239.456 74.6089C238.649 76.3036 235.548 76.8404 234.199 75.5196C232.742 74.0903 233.169 72.1483 235.084 71.4186C235.602 71.2196 236.126 71.2316 236.819 71.2256V71.2316ZM236.861 72.468C235.921 72.468 235.133 72.8962 235.072 73.4812C235.018 74.036 235.542 74.4521 236.307 74.4521C237.192 74.4521 237.866 73.9757 237.848 73.3244C237.83 72.7695 237.559 72.4318 236.861 72.468Z" fill="#99ABAA"/>
<path d="M241.902 85.6576C241.883 87.1895 240.721 88.3715 239.222 88.3896C237.716 88.4077 236.53 87.087 236.554 85.4224C236.572 83.9509 237.867 82.7145 239.324 82.7809C240.667 82.8412 241.926 84.2404 241.908 85.6576H241.902ZM240.131 85.4224C240.161 84.8012 239.92 84.5238 239.336 84.5057C238.65 84.4816 238.048 85.0184 238.054 85.6818C238.054 86.2366 238.367 86.5683 238.909 86.6346C239.583 86.7191 240.095 86.2004 240.131 85.4224Z" fill="#99ABAA"/>
<path d="M232.176 70.3869C231.658 70.3809 231.297 70.3266 231.206 69.8924C231.122 69.5064 231.285 69.1868 231.634 69.0059C233.284 68.1615 235.097 67.866 236.879 67.4921C237.192 67.4258 237.439 67.6791 237.53 67.9806C237.626 68.2882 237.499 68.5716 237.234 68.7526C237.042 68.8852 236.819 68.9697 236.602 69.0601C235.127 69.6753 233.561 69.9889 232.164 70.3869H232.176Z" fill="#99ABAA"/>
<path d="M212.563 49.1936C211.997 49.3565 211.425 49.5133 210.865 49.6882C210.485 49.8088 210.142 49.7545 209.931 49.4108C209.684 49.0127 209.726 48.5664 210.046 48.2588C210.425 47.897 210.877 47.5954 211.334 47.3241C212.719 46.5038 214.225 45.9611 215.778 45.5751C216.435 45.4122 217.302 45.0986 217.621 46.0033C217.976 47.0225 217.031 47.2517 216.35 47.5894C215.796 47.8729 215.086 47.8668 214.616 48.4337C215.17 48.7956 215.712 48.5664 216.212 48.6569C217.374 48.874 218.151 49.6641 218.278 50.7858C218.392 51.8292 217.868 52.7398 216.814 53.1741C216.043 53.4877 215.236 53.6384 214.387 53.5962C212.647 53.5118 211.942 52.6433 212.28 50.9185C212.382 50.3938 212.761 49.9596 212.731 49.3927C212.972 49.272 213.508 49.5012 213.4 49.0067C213.346 48.7474 212.93 48.9222 212.695 49.067C212.647 49.0971 212.611 49.1394 212.575 49.1755L212.563 49.1936ZM214.58 52.4564C215.616 52.4202 216.585 51.5759 216.537 50.7918C216.513 50.3938 216.363 50.1224 215.911 50.1284C215.164 50.1405 213.809 51.1537 213.797 51.7568C213.785 52.2815 214.165 52.4322 214.58 52.4564Z" fill="#99ABAA"/>
<path d="M220.385 60.8634C220.222 60.9237 220.06 60.9901 219.897 61.0504C219.626 61.1831 219.271 61.1951 219.163 61.563C219.163 61.563 219.163 61.563 219.163 61.557C219.048 61.5389 218.928 61.5087 218.813 61.5027C216.308 61.4062 215.881 60.7428 216.868 58.3847C216.627 58.3425 216.404 58.2822 216.176 58.2641C215.333 58.1917 214.7 57.8238 214.435 56.9855C214.146 56.0628 214.61 55.3632 215.218 54.7661C216.272 53.7349 217.94 53.4514 219.175 54.0304C220.186 54.5128 220.566 55.122 220.216 56.1593C219.957 56.9192 219.729 57.4318 220.722 57.8178C221.451 58.1012 221.427 58.8551 221.234 59.5185C221.084 60.0372 220.758 60.4714 220.385 60.8574V60.8634ZM216.404 57.0579C217.085 57.07 218.633 56.1291 218.753 55.6165C218.777 55.52 218.741 55.3331 218.675 55.3089C217.771 54.8988 217.103 55.5502 216.362 55.8517C216.206 55.9181 216.055 56.0507 215.965 56.1955C215.881 56.3282 215.826 56.5332 215.863 56.678C215.923 56.9252 216.152 57.0338 216.398 57.0579H216.404ZM218.217 60.0673C218.988 60.0975 219.5 60.0191 219.759 59.3919C219.777 59.3436 219.656 59.1687 219.584 59.1567C218.988 59.03 218.627 59.3436 218.223 60.0734L218.217 60.0673Z" fill="#99ABAA"/>
<path d="M225.877 56.956C225.817 56.4193 226.01 56.2504 226.208 56.1479C227.196 55.6473 226.696 55.002 226.425 54.3567C226.136 53.6873 225.793 53.2108 224.956 53.6209C224.637 53.7777 224.233 53.8682 224.077 53.4038C223.938 52.9998 224.239 52.7404 224.54 52.5414C225.48 51.9202 226.431 51.3171 227.533 51.0156C227.587 50.9975 227.648 50.9854 227.708 50.9734C229.033 50.6597 229.828 51.4076 230.562 53.6752C231.008 55.0442 230.737 55.7619 229.466 56.2022C228.316 56.6002 227.154 57.0284 225.877 56.956ZM229.611 54.0793C229.508 53.7295 229.292 53.6028 228.948 53.6511C228.208 53.7596 227.762 54.2361 227.901 54.7909C227.967 55.0623 228.154 55.2191 228.4 55.1347C228.942 54.9538 229.581 54.8452 229.605 54.0793H229.611ZM226.829 52.9455C227.949 53.2651 228.352 52.5836 228.804 51.9926C228.021 51.9262 227.413 52.2157 226.829 52.9455Z" fill="#99ABAA"/>
<path d="M228.069 48.7654C226.6 48.5845 226.54 48.6147 225.841 49.9354C225.763 50.0862 225.721 50.3817 225.558 50.2792C224.576 49.6459 223.908 50.5265 223.107 50.7315C222.704 50.834 222.246 51.027 222.017 50.5325C221.788 50.044 222.21 49.7666 222.565 49.5555C223.426 49.0368 224.414 48.6328 224.155 47.312C224.131 47.1914 224.312 47.0346 224.402 46.8898C225.209 47.4085 225.805 46.3048 226.51 46.5702C227.274 46.8597 227.979 47.3301 228.683 47.7703C228.948 47.9332 229.045 48.2649 228.87 48.5604C228.695 48.8499 228.382 48.8499 228.075 48.7715L228.069 48.7654Z" fill="#99ABAA"/>
<path d="M223.782 46.0761C223.083 45.9856 221.939 44.1703 222.138 43.5311C222.3 43.0003 222.722 42.9943 223.137 43.1571C223.673 43.3622 224.504 45.0267 224.354 45.5695C224.275 45.865 224.065 46.0761 223.782 46.0761Z" fill="#99ABAA"/>
</g>
<path d="M141.407 234C176.9 234 205.673 228.389 205.673 221.468C205.673 214.546 176.9 208.936 141.407 208.936C105.914 208.936 77.1411 214.546 77.1411 221.468C77.1411 228.389 105.914 234 141.407 234Z" fill="#2E4387"/>
<path d="M133.501 202.404C133.501 210.908 130.67 222.994 127.178 222.994C123.685 222.994 120.854 210.908 120.854 202.404C120.854 193.901 124.594 192.206 127.178 192.206C129.761 192.206 133.501 193.907 133.501 202.404Z" fill="#101011"/>
<path d="M127.177 190.433C125.497 190.433 123.323 191.054 121.697 192.972C120.077 194.889 119.09 197.893 119.09 202.404C119.09 206.915 119.812 212.09 121.005 216.366C121.601 218.501 122.312 220.388 123.197 221.878C124.088 223.368 125.28 224.761 127.171 224.761C129.062 224.761 130.255 223.368 131.146 221.878C132.037 220.388 132.742 218.501 133.338 216.366C134.536 212.09 135.253 206.855 135.253 202.404C135.253 197.953 134.265 194.889 132.645 192.972C131.025 191.054 128.845 190.433 127.165 190.433H127.177ZM127.177 193.973C128.087 193.973 129.068 194.202 129.959 195.257C130.851 196.313 131.736 198.412 131.736 202.404C131.736 206.396 131.043 211.511 129.947 215.407C129.399 217.355 128.743 219.019 128.123 220.063C127.653 220.847 127.274 221.106 127.177 221.19C127.075 221.106 126.696 220.847 126.232 220.063C125.612 219.019 124.955 217.355 124.407 215.407C123.317 211.511 122.619 206.457 122.619 202.404C122.619 198.351 123.498 196.313 124.395 195.257C125.286 194.202 126.274 193.973 127.177 193.973Z" fill="#1A1A1A"/>
<path d="M165.465 202.404C165.465 210.908 162.635 222.994 159.142 222.994C155.649 222.994 152.819 210.908 152.819 202.404C152.819 193.901 156.558 192.206 159.142 192.206C161.725 192.206 165.465 193.907 165.465 202.404Z" fill="#101011"/>
<path d="M159.142 190.433C157.462 190.433 155.288 191.054 153.662 192.972C152.042 194.889 151.054 197.893 151.054 202.404C151.054 206.915 151.777 212.09 152.969 216.366C153.565 218.501 154.276 220.388 155.161 221.878C156.052 223.368 157.245 224.761 159.136 224.761C161.027 224.761 162.219 223.368 163.11 221.878C164.001 220.388 164.706 218.501 165.302 216.366C166.5 212.09 167.217 206.855 167.217 202.404C167.217 197.953 166.229 194.889 164.61 192.972C162.99 191.054 160.81 190.433 159.13 190.433H159.142ZM159.142 193.973C160.051 193.973 161.033 194.202 161.924 195.257C162.815 196.313 163.7 198.412 163.7 202.404C163.7 206.396 163.008 211.511 161.912 215.407C161.364 217.355 160.707 219.019 160.087 220.063C159.617 220.847 159.238 221.106 159.142 221.19C159.039 221.106 158.66 220.847 158.196 220.063C157.576 219.019 156.92 217.355 156.372 215.407C155.282 211.511 154.583 206.457 154.583 202.404C154.583 198.351 155.462 196.313 156.36 195.257C157.251 194.202 158.238 193.973 159.142 193.973Z" fill="#1A1A1A"/>
<path d="M143.051 49.4473L134.783 57.7338L126.509 66.0142V66.2313L109.967 82.8043H109.744L76.6593 116.155H76.4365V199.436H209.443V116.155H209.66L143.051 49.4473ZM207.817 197.808H78.0685V116.831L143.051 51.7511L208.034 116.831L207.817 197.808Z" fill="#3D5BCF"/>
<path d="M94.6651 36.0889H72.2876V80.9348H94.6651V36.0889Z" fill="#EE7C48"/>
<path d="M96.9109 36.0889H70.041V45.0569H96.9109V36.0889Z" fill="#3D5BCF"/>
<path d="M210.81 115.003L144.201 48.2952C143.569 47.662 142.539 47.662 141.901 48.2952L75.2923 115.003C74.9852 115.311 74.8105 115.721 74.8105 116.155V199.436C74.8105 200.335 75.5392 201.065 76.4365 201.065H209.443C210.34 201.065 211.063 200.335 211.069 199.436L211.286 116.161C211.286 115.727 211.117 115.311 210.81 115.003ZM207.817 197.808H78.0684V116.831L143.051 51.751L208.034 116.831L207.817 197.808Z" fill="#101011"/>
<path d="M208.034 116.831L207.817 197.808H78.0684V116.831L143.051 51.751L208.034 116.831Z" fill="#3D5BCF"/>
<path d="M163.947 28.7369L159.816 32.8801L143.057 49.4471L134.783 57.7336L126.509 66.0141V66.2312L109.967 82.8042H109.75L76.6595 116.155H35.084L38.3479 112.886L39.2211 112.012L39.8775 111.361L40.0942 111.143L76.6595 74.5177L84.9336 66.2312L93.2017 57.7336L101.476 49.4471L109.967 41.1606L134.783 16.3071L138.047 12.8213L139.787 11.2954L143.057 7.80957L163.947 28.7369Z" fill="#EE7C48"/>
<path d="M251.235 116.156H209.66L143.057 49.4476L151.325 41.1611H176.352L242.967 107.875L246.231 111.144L246.448 111.361L246.881 111.795L247.104 112.012L247.755 112.67L247.971 112.887L251.235 116.156Z" fill="#EE7C48"/>
<path d="M78.0684 125.775L141.654 62.9807L208.034 125.57L208.251 114.617L143.057 49.4473L78.0684 114.823V125.775Z" fill="#3350AA"/>
<path d="M76.4427 116.155H35.084L143.057 7.80957L147.14 11.8985L40.1003 113.93L76.4427 116.155Z" fill="#FFA480"/>
<path d="M251.235 117.784H209.66C209.226 117.784 208.817 117.615 208.509 117.308L143.051 51.7513L77.5865 117.308C77.2793 117.615 76.8698 117.784 76.4363 117.784H35.0836C34.4272 117.784 33.831 117.386 33.5841 116.777C33.3372 116.168 33.4697 115.468 33.9334 115.004L141.901 6.65808C142.208 6.35051 142.617 6.18164 143.051 6.18164C143.485 6.18164 143.894 6.35051 144.201 6.65808L165.097 27.5914C165.404 27.899 165.573 28.3151 165.573 28.7494C165.573 29.1836 165.398 29.5997 165.085 29.9013L155.294 39.5387H176.346C176.78 39.5387 177.189 39.7076 177.496 40.0151L252.379 115.004C252.843 115.468 252.981 116.168 252.735 116.777C252.482 117.386 251.892 117.784 251.229 117.784H251.235ZM210.334 114.527H247.309L175.678 42.7954H151.319C150.657 42.7954 150.067 42.3974 149.814 41.7822C149.561 41.1731 149.705 40.4675 150.181 40.0031L161.635 28.7313L143.051 10.1138L39.0039 114.527H75.7678L141.907 48.2956C142.539 47.6624 143.575 47.6624 144.207 48.2956L210.34 114.527H210.334Z" fill="#101011"/>
<path d="M96.9109 46.6856H70.041C69.1437 46.6856 68.415 45.9559 68.415 45.0573V36.0893C68.415 35.1907 69.1437 34.4609 70.041 34.4609H96.9109C97.8081 34.4609 98.5368 35.1907 98.5368 36.0893V45.0573C98.5368 45.9559 97.8081 46.6856 96.9109 46.6856ZM71.6669 43.4289H95.2849V37.7176H71.6669V43.4289Z" fill="#101011"/>
<path d="M72.2876 70.0794L94.6651 48.6455V55.1046L72.2876 77.1235V70.0794Z" fill="#C15F38"/>
<path d="M72.2875 80.2897C71.3903 80.2897 70.6616 79.56 70.6616 78.6614V45.0571C70.6616 44.1585 71.3903 43.4287 72.2875 43.4287C73.1848 43.4287 73.9135 44.1585 73.9135 45.0571V78.6614C73.9135 79.56 73.1848 80.2897 72.2875 80.2897Z" fill="#101011"/>
<path d="M94.665 57.9934C93.7677 57.9934 93.0391 57.2637 93.0391 56.365V45.0571C93.0391 44.1585 93.7677 43.4287 94.665 43.4287C95.5623 43.4287 96.2909 44.1585 96.2909 45.0571V56.365C96.2909 57.2637 95.5623 57.9934 94.665 57.9934Z" fill="#101011"/>
<path d="M110.726 121.137C110.726 117.886 113.357 115.251 116.603 115.251C119.849 115.251 122.48 117.886 122.48 121.137C122.48 124.388 119.849 127.023 116.603 127.023C113.357 127.023 110.726 124.388 110.726 121.137Z" fill="black"/>
<path d="M115.471 126.155C116.841 126.155 117.952 125.043 117.952 123.67C117.952 122.298 116.841 121.186 115.471 121.186C114.101 121.186 112.99 122.298 112.99 123.67C112.99 125.043 114.101 126.155 115.471 126.155Z" fill="#272727"/>
<path d="M114.459 124.786C114.031 125.244 113.315 125.268 112.857 124.846C112.399 124.424 112.375 123.7 112.797 123.242C113.218 122.784 113.941 122.759 114.399 123.182C114.856 123.604 114.881 124.328 114.459 124.786Z" fill="white"/>
<path d="M163.195 127.023C166.441 127.023 169.072 124.388 169.072 121.137C169.072 117.886 166.441 115.251 163.195 115.251C159.949 115.251 157.317 117.886 157.317 121.137C157.317 124.388 159.949 127.023 163.195 127.023Z" fill="black"/>
<path d="M159.582 123.67C159.582 122.301 160.69 121.186 162.063 121.186C163.436 121.186 164.544 122.295 164.544 123.67C164.544 125.045 163.436 126.155 162.063 126.155C160.69 126.155 159.582 125.045 159.582 123.67Z" fill="#272727"/>
<path d="M161.045 124.786C160.617 125.244 159.901 125.268 159.443 124.846C158.985 124.424 158.961 123.7 159.383 123.242C159.804 122.784 160.527 122.759 160.985 123.182C161.442 123.604 161.466 124.328 161.045 124.786Z" fill="white"/>
<path opacity="0.2" d="M167.5 99.0938C155.83 99.0938 146.333 108.605 146.333 120.292C146.333 131.98 155.83 141.491 167.5 141.491C179.171 141.491 188.667 131.98 188.667 120.292C188.667 108.605 179.171 99.0938 167.5 99.0938Z" fill="url(#paint0_linear_3238_38097)"/>
<path opacity="0.2" d="M114.772 99.2266C103.156 99.2266 93.7075 108.689 93.7075 120.323C93.7075 131.956 103.156 141.419 114.772 141.419C126.389 141.419 135.837 131.956 135.837 120.323C135.837 108.689 126.389 99.2266 114.772 99.2266Z" fill="url(#paint1_linear_3238_38097)"/>
<path d="M167.5 143.512C155.83 143.512 145.948 134.761 144.509 123.157L144.322 121.643H137.8L137.607 123.151C136.126 134.7 126.25 143.409 114.634 143.409C101.849 143.409 91.4492 132.994 91.4492 120.19C91.4492 107.386 101.849 96.9648 114.634 96.9648C126.25 96.9648 136.132 105.674 137.607 117.223L137.8 118.73H144.34L144.539 117.229C146.062 105.734 155.932 97.0674 167.5 97.0674C180.285 97.0674 190.691 107.483 190.691 120.286C190.691 133.09 180.291 143.506 167.5 143.506V143.512ZM167.5 99.9863C156.324 99.9863 147.224 109.093 147.224 120.292C147.224 131.492 156.318 140.599 167.5 140.599C178.683 140.599 187.776 131.492 187.776 120.292C187.776 109.093 178.683 99.9863 167.5 99.9863ZM114.64 99.8838C103.457 99.8838 94.3638 108.991 94.3638 120.19C94.3638 131.389 103.457 140.496 114.64 140.496C125.822 140.496 134.916 131.389 134.916 120.19C134.916 108.991 125.822 99.8838 114.64 99.8838Z" fill="#101011"/>
<path d="M76.4365 165.748H131.736L143.123 177.153L154.553 165.712H208.034V197.809H78.0685L76.4365 165.748Z" fill="#101011"/>
<path d="M131.736 165.748L120.854 165.712L126.292 174.656L133.501 175.916V181.76L143.16 190.433L143.124 177.153L131.736 165.748Z" fill="#444449"/>
<path d="M154.475 165.748L165.357 165.712L159.919 174.656L152.71 175.916V181.76L143.051 190.433L143.087 177.153L154.475 165.748Z" fill="#444449"/>
<path d="M154.475 165.748H131.736L143.087 177.153L154.475 165.748Z" fill="white"/>
<path d="M155.679 147.625C154.348 153.837 148.838 158.487 142.238 158.487C135.638 158.487 130.128 153.837 128.797 147.625H155.679Z" fill="white"/>
<path d="M142.238 159.693C135.235 159.693 129.086 154.724 127.617 147.878C127.539 147.523 127.629 147.149 127.858 146.865C128.087 146.582 128.43 146.419 128.797 146.419H155.679C156.041 146.419 156.39 146.582 156.619 146.865C156.847 147.149 156.938 147.523 156.86 147.878C155.39 154.724 149.242 159.693 142.238 159.693ZM130.381 148.831C132.103 153.807 136.873 157.281 142.238 157.281C147.604 157.281 152.367 153.807 154.095 148.831H130.381Z" fill="#101011"/>
<path d="M132.338 215.563C132.338 215.563 125.04 218.09 123.221 216.275C117.591 215.189 110.708 221.19 112.135 224.76C113.941 225.894 131.134 224.815 130.989 224.76C130.989 224.76 134.639 220.714 133.952 216.365C133.212 215.069 132.338 215.563 132.338 215.563Z" fill="#1A1A1A"/>
<path d="M153.842 215.563C153.842 215.563 161.141 218.09 162.96 216.275C168.59 215.189 175.473 221.19 174.046 224.76C172.239 225.894 155.047 224.815 155.191 224.76C155.191 224.76 151.542 220.714 152.229 216.365C152.969 215.069 153.842 215.563 153.842 215.563Z" fill="#1A1A1A"/>
<path d="M285.741 124.87C285.392 124.792 285.037 124.714 284.687 124.635C286.584 129.973 286.416 136.01 284.23 141.232C284.699 138.488 282.399 136.088 280.123 134.484C276.359 131.818 271.969 129.822 267.356 129.671C262.749 129.52 257.92 131.468 255.373 135.316C257.661 131.86 249.616 129.973 249.664 128.061C249.718 125.926 256.613 124.496 258.095 124.074C267.145 121.517 276.865 121.644 285.735 124.864L285.741 124.87Z" fill="#5B9E4D"/>
<path d="M28.3873 129.303C28.1946 129.538 28.0019 129.773 27.8032 130.014C32.5725 130.617 37.089 133.054 40.2084 136.721C38.3054 135.316 35.6076 136.148 33.524 137.258C30.0614 139.103 26.8698 141.672 24.9909 145.116C23.1121 148.566 22.7387 152.974 24.6778 156.388C22.9314 153.324 18.427 158.722 16.9938 157.95C15.398 157.093 16.9516 151.304 17.1985 150.013C18.7221 142.155 22.546 134.815 28.3813 129.303H28.3873Z" fill="#5B9E4D"/>
<path d="M225.401 202.181C227.262 201.548 228.798 200.227 230.237 198.894C232.284 197 234.392 194.654 234.223 191.868C235.988 194.082 238.234 195.903 240.763 197.163C237.379 200.866 232.326 202.688 228.888 206.342C225.859 209.557 224.305 214.11 224.745 218.507C223.703 216.541 223.215 214.309 222.053 212.416C220.222 209.43 215.447 210.54 215.646 208.025C215.995 203.598 222.553 203.146 225.401 202.181Z" fill="#5B9E4D"/>
<path d="M43.2313 202.181C45.0921 201.548 46.6277 200.227 48.0669 198.894C50.1144 197 52.222 194.654 52.0534 191.868C53.8179 194.082 56.064 195.903 58.5933 197.163C55.2089 200.866 50.1565 202.688 46.718 206.342C43.689 209.557 42.1353 214.11 42.5749 218.507C41.5331 216.541 41.0453 214.309 39.8831 212.416C38.0524 209.43 33.277 210.54 33.4757 208.025C33.825 203.598 40.3829 203.146 43.2313 202.181Z" fill="#5B9E4D"/>
<path d="M268.398 199.515C270.198 200.878 271.806 202.488 273.348 204.147C273.769 204.605 274.203 205.075 274.426 205.66C274.588 206.083 274.63 206.535 274.667 206.987C274.956 210.781 274.558 214.622 273.51 218.271C271.704 213.217 268.331 208.736 263.972 205.606C261.942 204.153 259.642 202.965 257.155 202.699C254.674 202.434 251.988 203.224 250.392 205.148C251.747 203.513 251.283 199.623 250.826 197.76C250.115 194.871 250.41 194.431 253.56 194.515C258.895 194.66 264.11 196.276 268.398 199.521V199.515Z" fill="#5B9E4D"/>
<path d="M251.013 167.534C249.905 167.064 248.803 166.593 247.695 166.117C250.284 168.197 252.554 170.682 254.391 173.45C250.868 177.286 247.345 181.116 243.822 184.951C243.184 179.988 242.353 174.626 238.77 171.14C239.149 173.402 239.529 175.664 239.902 177.919C238.15 178.703 236.397 179.487 234.645 180.271C234.603 179.131 234.561 177.986 234.518 176.846C234.549 178.335 233.23 179.578 231.797 179.976C230.363 180.374 228.84 180.12 227.376 179.861C229.605 180.247 232.296 169.174 232.489 167.673C232.953 164.024 230.213 157.366 234.193 155.961C237.638 154.742 239.167 156.648 241.462 158.771C244.786 161.847 248.658 162.474 253.048 161.805C252.53 163.734 251.699 165.646 251.007 167.534H251.013Z" fill="#5B9E4D"/>
<path d="M226.22 180.573C227.587 180.711 228.972 180.73 230.345 180.633C232.182 175.965 233.525 171.11 234.356 166.165C234.753 171.074 234.675 176.019 234.127 180.91C234.681 180.35 235.331 179.891 236.042 179.553C236.307 174.144 236.572 168.686 235.639 163.348C236.933 164.669 238.234 165.996 239.529 167.317C241.468 169.289 243.425 171.291 244.816 173.679C245.87 175.483 246.574 177.461 247.231 179.439C248.056 178.589 248.953 177.811 249.917 177.123C246.96 171.798 241.998 167.938 237.162 164.235C240.197 165.719 243.196 167.268 246.165 168.885C246.285 168.324 245.816 167.823 245.376 167.461C243.009 165.495 240.155 163.976 238.499 161.388C242.588 163.728 247.062 166.002 251.753 165.586C252.217 164.223 252.687 162.866 253.15 161.503C248.513 160.87 244.015 159.265 240.016 156.835C239.432 158.457 237.734 159.332 236.313 160.309C235.109 161.141 234.025 162.142 233.103 163.282C232.134 164.482 232.206 165.218 232.351 166.581C232.501 168.01 231.658 169.934 231.194 171.285C230.044 174.62 228.364 177.768 226.226 180.567L226.22 180.573Z" fill="#B7D39F"/>
<path d="M213.839 137.114C215.17 135.739 216.693 134.55 218.349 133.592C218.819 133.809 219.283 134.026 219.752 134.243C218.181 131.258 216.603 128.278 215.031 125.293C214.899 125.04 214.76 124.756 214.826 124.479C214.899 124.165 215.206 123.966 215.483 123.803C218.145 122.253 220.909 120.89 223.751 119.714C224.046 122.434 224.54 125.13 225.22 127.778C225.136 124.979 225.389 122.175 225.973 119.437C227.37 119.425 228.767 119.25 230.122 118.906C229.032 121.542 228.225 124.298 227.725 127.108C229.357 125.402 230.989 123.701 232.615 121.994C235.602 123.037 238.282 124.925 240.269 127.386C237.264 128.465 235.102 131.059 233.127 133.567C230.748 136.589 228.285 140.298 229.339 144.001C230.58 148.355 225.305 149.483 223.396 146.027C221.005 141.703 219.373 138.133 213.851 137.108L213.839 137.114Z" fill="#5B9E4D"/>
<path d="M233.928 132.337C234.886 131.215 235.927 130.13 237.18 129.358C238.439 128.58 239.938 128.127 241.395 128.345C240.071 126.945 238.571 125.703 236.945 124.666C232.146 129.116 229.056 135.322 228.153 141.812C227.81 137.029 227.708 132.228 227.852 127.44C227.539 128.176 227.491 128.996 227.449 129.798C227.238 133.694 227.027 137.59 226.816 141.486C226.792 138.983 226.359 136.492 225.534 134.128C224.654 131.607 223.336 129.249 222.601 126.68C222.228 125.383 222.005 124.038 221.939 122.688C221.258 123.116 220.457 123.339 219.662 123.333C222.27 129.786 224.185 136.522 225.365 143.386C222.89 140.129 219.807 136.951 215.802 136.124C215.628 136.088 215.447 136.058 215.272 136.1C215.025 136.161 214.839 136.36 214.67 136.553C214.116 137.18 213.556 137.807 213.002 138.434C218.042 139.791 222.3 143.76 224.022 148.693C223.914 148.373 227.135 145.147 227.497 144.694C228.045 144.007 228.599 143.313 229.105 142.59C229.635 141.836 229.442 141.854 229.448 141.1C229.478 137.928 231.953 134.635 233.916 132.337H233.928Z" fill="#B7D39F"/>
<path d="M223.896 152.481C224.275 148.711 226.112 145.105 228.936 142.578C229.43 142.138 230.002 141.709 230.665 141.685C231.327 141.661 232.038 142.24 231.905 142.885C231.821 143.29 231.453 143.742 231.73 144.055C233.682 143.091 236.102 143.139 238.017 144.176C239.932 145.219 241.287 147.228 241.546 149.393C241.799 151.558 241.016 153.699 240.131 155.689C239.589 156.907 238.987 158.126 238.102 159.127C236.675 160.731 234.639 161.636 232.64 162.408C231.58 162.818 230.484 163.216 229.346 163.27C227.286 163.366 225.359 162.359 223.547 161.376C223.282 161.232 222.999 161.069 222.884 160.791C222.758 160.478 222.884 160.122 223.017 159.808C223.499 158.638 224.281 157.354 224.324 156.081C224.366 154.905 223.769 153.759 223.89 152.487L223.896 152.481Z" fill="#F2D6B1" stroke="#181819" stroke-width="3" stroke-miterlimit="10"/>
<path d="M224.275 150.961C224.275 150.961 218.265 162.317 211.4 164.904C204.535 167.492 200.151 183.094 200.151 183.094C200.151 183.094 222.962 179.041 233.019 160.894C226.461 158.228 224.275 150.967 224.275 150.967V150.961Z" fill="#101011"/>
<path d="M33.0785 167.534C34.1865 167.064 35.2886 166.593 36.3966 166.117C33.8072 168.197 31.5369 170.682 29.7002 173.45C33.223 177.286 36.7459 181.116 40.2687 184.951C40.907 179.988 41.7381 174.626 45.3211 171.14C44.9417 173.402 44.5623 175.664 44.189 177.919C45.9414 178.703 47.6938 179.487 49.4461 180.271C49.4883 179.131 49.5304 177.986 49.5726 176.846C49.5425 178.335 50.8613 179.578 52.2945 179.976C53.7277 180.374 55.2513 180.12 56.7146 179.861C54.4865 180.247 51.7947 169.174 51.602 167.673C51.1383 164.024 53.8783 157.366 49.8978 155.961C46.4532 154.742 44.9237 156.648 42.6293 158.771C39.3052 161.847 35.4331 162.474 31.0431 161.805C31.561 163.734 32.392 165.646 33.0845 167.534H33.0785Z" fill="#5B9E4D"/>
<path d="M57.8647 180.573C56.4977 180.711 55.1127 180.73 53.7397 180.633C51.903 175.965 50.5601 171.11 49.729 166.165C49.3316 171.074 49.4099 176.019 49.9579 180.91C49.4039 180.35 48.7535 179.891 48.0429 179.553C47.7779 174.144 47.513 168.686 48.4464 163.348C47.1517 164.669 45.8509 165.996 44.5562 167.317C42.6171 169.289 40.66 171.291 39.2689 173.679C38.2151 175.483 37.5105 177.461 36.8541 179.439C36.0291 178.589 35.1319 177.811 34.1684 177.123C37.1251 171.798 42.0872 167.938 46.9228 164.235C43.8878 165.719 40.8888 167.268 37.92 168.885C37.7996 168.324 38.2693 167.823 38.7089 167.461C41.0755 165.495 43.9299 163.976 45.5859 161.388C41.4971 163.728 37.0228 166.002 32.3317 165.586C31.868 164.223 31.3983 162.866 30.9346 161.503C35.5715 160.87 40.0699 159.265 44.0684 156.835C44.6526 158.457 46.3507 159.332 47.7719 160.309C48.9763 161.141 50.0603 162.142 50.9816 163.282C51.9511 164.482 51.8789 165.218 51.7344 166.581C51.5838 168.01 52.4269 169.934 52.8906 171.285C54.0408 174.62 55.7209 177.768 57.8587 180.567L57.8647 180.573Z" fill="#B7D39F"/>
<path d="M70.2521 137.114C68.9212 135.739 67.3977 134.55 65.7416 133.592C65.2719 133.809 64.8082 134.026 64.3385 134.243C65.9103 131.258 67.488 128.278 69.0597 125.293C69.1922 125.04 69.3307 124.756 69.2645 124.479C69.1922 124.165 68.8851 123.966 68.6081 123.803C65.9464 122.253 63.1823 120.89 60.34 119.714C60.0449 122.434 59.5511 125.13 58.8706 127.778C58.9549 124.979 58.702 122.175 58.1179 119.437C56.7208 119.425 55.3237 119.25 53.9688 118.906C55.0587 121.542 55.8657 124.298 56.3655 127.108C54.7335 125.402 53.1016 123.701 51.4757 121.994C48.4888 123.037 45.809 124.925 43.8218 127.386C46.8267 128.465 48.9886 131.059 50.9638 133.567C53.3425 136.589 55.8054 140.298 54.7516 144.001C53.5111 148.355 58.7863 149.483 60.6953 146.027C63.086 141.703 64.7179 138.133 70.24 137.108L70.2521 137.114Z" fill="#5B9E4D"/>
<path d="M50.1567 132.337C49.1992 131.215 48.1574 130.13 46.9048 129.358C45.6462 128.58 44.1468 128.127 42.6895 128.345C44.0143 126.945 45.5137 125.703 47.1397 124.666C51.9392 129.116 55.0284 135.322 55.9317 141.812C56.2749 137.029 56.3773 132.228 56.2328 127.44C56.5459 128.176 56.5941 128.996 56.6363 129.798C56.847 133.694 57.0578 137.59 57.2686 141.486C57.2927 138.983 57.7262 136.492 58.5512 134.128C59.4304 131.607 60.7493 129.249 61.4839 126.68C61.8573 125.383 62.0801 124.038 62.1463 122.688C62.8268 123.116 63.6277 123.339 64.4226 123.333C61.8151 129.786 59.9002 136.522 58.7199 143.386C61.1949 140.129 64.2781 136.951 68.2827 136.124C68.4573 136.088 68.638 136.058 68.8126 136.1C69.0595 136.161 69.2462 136.36 69.4148 136.553C69.9688 137.18 70.5289 137.807 71.0829 138.434C66.0425 139.791 61.785 143.76 60.0627 148.693C60.1711 148.373 56.9494 145.147 56.5881 144.694C56.0401 144.007 55.4861 143.313 54.9802 142.59C54.4503 141.836 54.643 141.854 54.637 141.1C54.6069 137.928 52.1319 134.635 50.1687 132.337H50.1567Z" fill="#B7D39F"/>
<path d="M60.1892 152.481C59.8098 148.711 57.9731 145.105 55.1488 142.578C54.655 142.138 54.083 141.709 53.4205 141.685C52.7581 141.661 52.0475 142.24 52.18 142.885C52.2643 143.29 52.6317 143.742 52.3547 144.055C50.4036 143.091 47.9827 143.139 46.0678 144.176C44.1528 145.219 42.7978 147.228 42.5389 149.393C42.286 151.558 43.0688 153.699 43.9541 155.689C44.496 156.907 45.0982 158.126 45.9834 159.127C47.4106 160.731 49.4461 161.636 51.4453 162.408C52.5052 162.818 53.6012 163.216 54.7394 163.27C56.7989 163.366 58.7259 162.359 60.5385 161.376C60.8034 161.232 61.0865 161.069 61.2009 160.791C61.3274 160.478 61.2009 160.122 61.0684 159.808C60.5867 158.638 59.8038 157.354 59.7616 156.081C59.7195 154.905 60.3157 153.759 60.1952 152.487L60.1892 152.481Z" fill="#F2D6B1" stroke="#181819" stroke-width="3" stroke-miterlimit="10"/>
<path d="M59.8098 150.961C59.8098 150.961 65.8197 162.317 72.6847 164.904C79.5497 167.492 83.9337 183.094 83.9337 183.094C83.9337 183.094 61.1226 179.041 51.0659 160.894C57.6238 158.228 59.8098 150.967 59.8098 150.967V150.961Z" fill="#101011"/>
</g>
<defs>
<linearGradient id="paint0_linear_3238_38097" x1="167.5" y1="99.0938" x2="167.5" y2="141.491" gradientUnits="userSpaceOnUse">
<stop stop-color="white"/>
<stop offset="0.43" stop-color="white"/>
<stop offset="1" stop-color="white" stop-opacity="0"/>
</linearGradient>
<linearGradient id="paint1_linear_3238_38097" x1="114.772" y1="99.2266" x2="114.772" y2="141.419" gradientUnits="userSpaceOnUse">
<stop stop-color="white"/>
<stop offset="0.43" stop-color="white"/>
<stop offset="1" stop-color="white" stop-opacity="0"/>
</linearGradient>
<clipPath id="clip0_3238_38097">
<rect width="286" height="234" fill="white"/>
</clipPath>
</defs>
</svg>
