<svg width="92" height="94" viewBox="0 0 92 94" fill="none" xmlns="http://www.w3.org/2000/svg">
<g clip-path="url(#clip0_3483_3561)">
<path d="M45.088 93.9999C59.8088 93.9999 71.7423 91.6848 71.7423 88.829C71.7423 85.9732 59.8088 83.6581 45.088 83.6581C30.3672 83.6581 18.4336 85.9732 18.4336 88.829C18.4336 91.6848 30.3672 93.9999 45.088 93.9999Z" fill="#C0C0C0"/>
<path d="M41.8084 80.9632C41.8084 84.4718 40.6346 89.4586 39.186 89.4586C37.7373 89.4586 36.5635 84.4718 36.5635 80.9632C36.5635 77.4545 38.1145 76.7552 39.186 76.7552C40.2574 76.7552 41.8084 77.457 41.8084 80.9632Z" fill="#101011"/>
<path d="M39.1853 76.0261C38.4885 76.0261 37.5869 76.2824 36.9125 77.0738C36.2407 77.8651 35.8311 79.1043 35.8311 80.9656C35.8311 82.827 36.1308 84.962 36.6253 86.7263C36.8726 87.6072 37.1673 88.3861 37.5344 89.0007C37.9041 89.6154 38.3986 90.1902 39.1828 90.1902C39.9671 90.1902 40.4616 89.6154 40.8312 89.0007C41.2009 88.3861 41.4931 87.6072 41.7404 86.7263C42.2374 84.962 42.5346 82.8021 42.5346 80.9656C42.5346 79.1292 42.125 77.8651 41.4532 77.0738C40.7813 76.2824 39.8772 76.0261 39.1803 76.0261H39.1853ZM39.1853 77.4843C39.5625 77.4843 39.9696 77.5789 40.3392 78.0144C40.7089 78.4498 41.076 79.3158 41.076 80.9631C41.076 82.6105 40.7888 84.7207 40.3342 86.3282C40.1069 87.1319 39.8347 87.8187 39.5775 88.2492C39.3826 88.5727 39.2253 88.6797 39.1853 88.7146C39.1429 88.6797 38.9855 88.5727 38.7932 88.2492C38.536 87.8187 38.2637 87.1319 38.0364 86.3282C37.5844 84.7207 37.2946 82.6354 37.2946 80.9631C37.2946 79.2909 37.6593 78.4498 38.0314 78.0144C38.4011 77.5789 38.8107 77.4843 39.1853 77.4843Z" fill="#1A1A1A"/>
<path d="M55.0682 80.9632C55.0682 84.4718 53.8943 89.4586 52.4457 89.4586C50.9971 89.4586 49.8232 84.4718 49.8232 80.9632C49.8232 77.4545 51.3743 76.7552 52.4457 76.7552C53.5172 76.7552 55.0682 77.457 55.0682 80.9632Z" fill="#101011"/>
<path d="M52.4451 76.0261C51.7483 76.0261 50.8466 76.2824 50.1723 77.0738C49.5004 77.8651 49.0908 79.1043 49.0908 80.9656C49.0908 82.827 49.3905 84.962 49.8851 86.7263C50.1323 87.6072 50.427 88.3861 50.7942 89.0007C51.1638 89.6154 51.6584 90.1902 52.4426 90.1902C53.2268 90.1902 53.7214 89.6154 54.091 89.0007C54.4607 88.3861 54.7529 87.6072 55.0001 86.7263C55.4972 84.962 55.7944 82.8021 55.7944 80.9656C55.7944 79.1292 55.3848 77.8651 54.7129 77.0738C54.0411 76.2824 53.1369 76.0261 52.4401 76.0261H52.4451ZM52.4451 77.4843C52.8222 77.4843 53.2293 77.5789 53.599 78.0144C53.9686 78.4498 54.3358 79.3158 54.3358 80.9631C54.3358 82.6105 54.0486 84.7207 53.594 86.3282C53.3667 87.1319 53.0945 87.8187 52.8372 88.2492C52.6424 88.5727 52.4851 88.6797 52.4451 88.7146C52.4026 88.6797 52.2453 88.5727 52.053 88.2492C51.7957 87.8187 51.5235 87.1319 51.2962 86.3282C50.8441 84.7207 50.5544 82.6354 50.5544 80.9631C50.5544 79.2909 50.9191 78.4498 51.2912 78.0144C51.6609 77.5789 52.0705 77.4843 52.4451 77.4843Z" fill="#1A1A1A"/>
<path d="M45.7691 17.8519L42.3399 21.271L38.9082 24.6876V24.7772L32.0473 31.6154H31.9548L18.233 45.3763H18.1406V79.7389H73.3051V45.3763H73.395L45.7691 17.8519ZM72.6307 79.067H18.8175V45.655L45.7691 18.8025L72.7206 45.655L72.6307 79.067Z" fill="#3D5BCF"/>
<path d="M25.701 12.3425H16.4199V30.8464H25.701V12.3425Z" fill="#EE7C48"/>
<path d="M26.6326 12.3425H15.4883V16.0428H26.6326V12.3425Z" fill="#3D5BCF"/>
<path d="M73.8726 44.901L46.2466 17.3766C45.9844 17.1153 45.5573 17.1153 45.2925 17.3766L17.6666 44.901C17.5392 45.0279 17.4668 45.1971 17.4668 45.3763V79.7389C17.4668 80.1097 17.769 80.4108 18.1411 80.4108H73.3056C73.6777 80.4108 73.9775 80.1097 73.98 79.7389L74.0699 45.3788C74.0699 45.1996 73.9999 45.0279 73.8726 44.901ZM72.6313 79.067H18.818V45.655L45.7696 18.8025L72.7212 45.655L72.6313 79.067Z" fill="#101011"/>
<path d="M72.7206 45.655L72.6306 79.067H18.8174V45.655L45.769 18.8025L72.7206 45.655Z" fill="#3D5BCF"/>
<path d="M54.4363 9.30917L52.723 11.0162L45.7722 17.8544L42.3405 21.271L38.9088 24.6876V24.7797L32.0479 31.6154H31.958L18.2362 45.3763H0.990234L2.34393 44.0301L2.70608 43.6693L2.97832 43.398L3.06824 43.3084L18.2362 28.1963L21.6654 24.7797L25.0946 21.271L28.5263 17.8544L32.0479 14.4353L42.3405 4.18054L43.6942 2.74224L44.416 2.11267L45.7722 0.671875L54.4363 9.30917Z" fill="#EE7C48"/>
<path d="M90.6383 45.3763H73.3949L45.7715 17.8544L49.2007 14.4353H59.5807L87.2091 41.9597L88.5628 43.3084L88.6527 43.398L88.8351 43.5797L88.925 43.6692L89.1947 43.938L89.2846 44.0301L90.6383 45.3763Z" fill="#EE7C48"/>
<path d="M18.8174 49.3453L45.1895 23.4384L72.7206 49.2607L72.813 44.7442L45.7715 17.8544L18.8174 44.8288V49.3453Z" fill="#3350AA"/>
<path d="M18.1437 45.3763H0.990234L45.7722 0.671875L47.4655 2.35902L3.07323 44.4606L18.1437 45.3763Z" fill="#FFA480"/>
<path d="M90.6388 46.0482H73.3954C73.2155 46.0482 73.0457 45.9785 72.9183 45.8516L45.7694 18.8025L18.618 45.8516C18.4906 45.9785 18.3208 46.0482 18.141 46.0482H0.989977C0.717739 46.0482 0.470477 45.8839 0.368075 45.6326C0.265674 45.3813 0.320621 45.0926 0.512936 44.901L45.2949 0.196585C45.4223 0.0696757 45.5921 0 45.7719 0C45.9517 0 46.1216 0.0696757 46.249 0.196585L54.9156 8.83389C55.043 8.96079 55.1129 9.13249 55.1129 9.31166C55.1129 9.49083 55.0405 9.66253 54.9106 9.78695L50.8495 13.7634H59.5811C59.761 13.7634 59.9308 13.8331 60.0582 13.96L91.1158 44.901C91.3081 45.0926 91.3656 45.3813 91.2632 45.6326C91.1583 45.8839 90.9135 46.0482 90.6388 46.0482ZM73.6751 44.7044H89.0103L59.3014 15.1072H49.1986C48.9239 15.1072 48.6791 14.943 48.5742 14.6891C48.4693 14.4378 48.5293 14.1467 48.7266 13.9551L53.477 9.3042L45.7694 1.62245L2.61591 44.7044H17.8638L45.2949 17.3766C45.5571 17.1153 45.9867 17.1153 46.249 17.3766L73.6776 44.7044H73.6751Z" fill="#101011"/>
<path d="M26.6331 16.7147H15.4888C15.1167 16.7147 14.8145 16.4136 14.8145 16.0428V12.3425C14.8145 11.9718 15.1167 11.6707 15.4888 11.6707H26.6331C27.0052 11.6707 27.3074 11.9718 27.3074 12.3425V16.0428C27.3074 16.4136 27.0052 16.7147 26.6331 16.7147ZM16.1632 15.3709H25.9587V13.0144H16.1632V15.3709Z" fill="#101011"/>
<path d="M16.4199 26.3648L25.701 17.521V20.1861L16.4199 29.2713V26.3648Z" fill="#C15F38"/>
<path d="M16.4195 30.5776C16.0473 30.5776 15.7451 30.2765 15.7451 29.9057V16.0403C15.7451 15.6695 16.0473 15.3684 16.4195 15.3684C16.7916 15.3684 17.0938 15.6695 17.0938 16.0403V29.9057C17.0938 30.2765 16.7916 30.5776 16.4195 30.5776Z" fill="#101011"/>
<path d="M25.7007 21.3805C25.3286 21.3805 25.0264 21.0794 25.0264 20.7086V16.0428C25.0264 15.6721 25.3286 15.371 25.7007 15.371C26.0729 15.371 26.3751 15.6721 26.3751 16.0428V20.7086C26.3751 21.0794 26.0729 21.3805 25.7007 21.3805Z" fill="#101011"/>
<path d="M32.3623 47.4342C32.3623 46.0929 33.4538 45.0055 34.8 45.0055C36.1462 45.0055 37.2376 46.0929 37.2376 47.4342C37.2376 48.7754 36.1462 49.8629 34.8 49.8629C33.4538 49.8629 32.3623 48.7754 32.3623 47.4342Z" fill="black"/>
<path d="M34.3308 49.5021C34.8991 49.5021 35.3598 49.0431 35.3598 48.4769C35.3598 47.9107 34.8991 47.4517 34.3308 47.4517C33.7625 47.4517 33.3018 47.9107 33.3018 48.4769C33.3018 49.0431 33.7625 49.5021 34.3308 49.5021Z" fill="#272727"/>
<path d="M33.9106 48.9397C33.7333 49.1288 33.436 49.1388 33.2462 48.9646C33.0564 48.7904 33.0464 48.4918 33.2212 48.3027C33.3961 48.1136 33.6958 48.1036 33.8856 48.2778C34.0754 48.452 34.0854 48.7506 33.9106 48.9397Z" fill="white"/>
<path d="M54.1242 49.8629C55.4705 49.8629 56.5618 48.7755 56.5618 47.4342C56.5618 46.0929 55.4705 45.0055 54.1242 45.0055C52.7779 45.0055 51.6865 46.0929 51.6865 47.4342C51.6865 48.7755 52.7779 49.8629 54.1242 49.8629Z" fill="black"/>
<path d="M52.626 48.4769C52.626 47.912 53.0855 47.4517 53.655 47.4517C54.2244 47.4517 54.684 47.9095 54.684 48.4769C54.684 49.0442 54.2244 49.5021 53.655 49.5021C53.0855 49.5021 52.626 49.0442 52.626 48.4769Z" fill="#272727"/>
<path d="M53.2348 48.9397C53.0575 49.1288 52.7603 49.1388 52.5704 48.9646C52.3806 48.7904 52.3706 48.4918 52.5455 48.3027C52.7203 48.1136 53.02 48.1036 53.2098 48.2778C53.3996 48.452 53.4096 48.7506 53.2348 48.9397Z" fill="white"/>
<path opacity="0.2" d="M55.9089 38.3367C51.0686 38.3367 47.1299 42.2609 47.1299 47.0835C47.1299 51.906 51.0686 55.8303 55.9089 55.8303C60.7493 55.8303 64.688 51.906 64.688 47.0835C64.688 42.2609 60.7493 38.3367 55.9089 38.3367Z" fill="url(#paint0_linear_3483_3561)"/>
<path opacity="0.2" d="M34.0403 38.3938C29.2224 38.3938 25.3037 42.2981 25.3037 47.0983C25.3037 51.8984 29.2224 55.8028 34.0403 55.8028C38.8582 55.8028 42.7769 51.8984 42.7769 47.0983C42.7769 42.2981 38.8582 38.3938 34.0403 38.3938Z" fill="url(#paint1_linear_3483_3561)"/>
<path d="M55.9094 56.6663C51.069 56.6663 46.9705 53.0556 46.3735 48.2679L46.2961 47.6433H43.5912L43.5113 48.2654C42.8969 53.0307 38.8008 56.624 33.9829 56.624C28.6805 56.624 24.3672 52.3265 24.3672 47.0436C24.3672 41.7607 28.6805 37.4607 33.9829 37.4607C38.8008 37.4607 42.8994 41.054 43.5113 45.8193L43.5912 46.4414H46.3036L46.386 45.8218C47.0179 41.0789 51.1115 37.503 55.9094 37.503C61.2118 37.503 65.5276 41.8005 65.5276 47.0834C65.5276 52.3663 61.2143 56.6638 55.9094 56.6638V56.6663ZM55.9094 38.7074C51.2738 38.7074 47.4999 42.4649 47.4999 47.0859C47.4999 51.7069 51.2713 55.4644 55.9094 55.4644C60.5474 55.4644 64.3188 51.7069 64.3188 47.0859C64.3188 42.4649 60.5474 38.7074 55.9094 38.7074ZM33.9854 38.6626C29.3474 38.6626 25.576 42.4201 25.576 47.0411C25.576 51.6621 29.3474 55.4196 33.9854 55.4196C38.6235 55.4196 42.3949 51.6621 42.3949 47.0411C42.3949 42.4201 38.6235 38.6626 33.9854 38.6626Z" fill="#101011"/>
<path d="M18.1406 65.8385H41.0761L45.799 70.5466L50.5395 65.8236H72.7206V79.067H18.8175L18.1406 65.8385Z" fill="#101011"/>
<path d="M41.0766 65.8385L36.5635 65.8236L38.8188 69.5139L41.8084 70.0365V72.4453L45.8146 76.0261L45.7996 70.5466L41.0766 65.8385Z" fill="#444449"/>
<path d="M50.5075 65.8385L55.0206 65.8236L52.7653 69.5139L49.7757 70.0365V72.4453L45.7695 76.0261L45.7845 70.5466L50.5075 65.8385Z" fill="#444449"/>
<path d="M50.5071 65.8386H41.0762L45.7841 70.5467L50.5071 65.8386Z" fill="white"/>
<path d="M51.0067 58.3608C50.4547 60.9239 48.1694 62.8425 45.4321 62.8425C42.6947 62.8425 40.4094 60.9239 39.8574 58.3608H51.0067Z" fill="white"/>
<path d="M45.4321 63.3402C42.5274 63.3402 39.9773 61.2897 39.3679 58.4654C39.3354 58.3185 39.3729 58.1643 39.4678 58.0473C39.5627 57.9303 39.7051 57.8632 39.8574 57.8632H51.0067C51.1566 57.8632 51.3014 57.9303 51.3963 58.0473C51.4913 58.1643 51.5287 58.3185 51.4963 58.4654C50.8868 61.2897 48.3368 63.3402 45.4321 63.3402ZM40.5143 58.8585C41.2286 60.9115 43.2067 62.3448 45.4321 62.3448C47.6574 62.3448 49.633 60.9115 50.3499 58.8585H40.5143Z" fill="#101011"/>
<path d="M41.3256 86.3929C41.3256 86.3929 38.2985 87.4356 37.5442 86.6866C35.209 86.2387 32.3542 88.7146 32.9461 90.1878C33.6954 90.6556 40.8261 90.2102 40.7661 90.1878C40.7661 90.1878 42.2797 88.5181 41.995 86.7239C41.6877 86.1889 41.3256 86.3929 41.3256 86.3929Z" fill="#1A1A1A"/>
<path d="M50.2451 86.3929C50.2451 86.3929 53.2722 87.4356 54.0264 86.6866C56.3617 86.2387 59.2164 88.7146 58.6245 90.1878C57.8752 90.6556 50.7446 90.2102 50.8045 90.1878C50.8045 90.1878 49.291 88.5181 49.5757 86.7239C49.8829 86.1889 50.2451 86.3929 50.2451 86.3929Z" fill="#1A1A1A"/>
<path d="M27.0219 85.9226L62.825 85.8231C63.5618 85.8231 64.1637 85.2184 64.1612 84.4843L64.0963 61.5261C64.0963 60.7921 63.4894 60.1923 62.7526 60.1948L26.9495 60.2944C26.2127 60.2944 25.6108 60.8991 25.6133 61.6331L25.6782 84.5913C25.6782 85.3254 26.2851 85.9251 27.0219 85.9226Z" fill="#6D92F0"/>
<path d="M35.3367 75.9359L28.8905 75.9538C28.6905 75.9544 28.5288 76.1164 28.5293 76.3157L28.5328 77.5524C28.5334 77.7517 28.6959 77.9128 28.896 77.9122L35.3422 77.8943C35.5422 77.8937 35.7039 77.7317 35.7034 77.5324L35.6999 76.2957C35.6993 76.0964 35.5368 75.9353 35.3367 75.9359Z" fill="white"/>
<path d="M43.8563 75.9122L37.41 75.9301C37.21 75.9307 37.0483 76.0927 37.0489 76.292L37.0523 77.5287C37.0529 77.728 37.2155 77.8891 37.4155 77.8885L43.8618 77.8706C44.0618 77.87 44.2235 77.708 44.2229 77.5088L44.2194 76.272C44.2189 76.0727 44.0563 75.9117 43.8563 75.9122Z" fill="white"/>
<path d="M52.3748 75.8885L45.9286 75.9065C45.7285 75.907 45.5669 76.069 45.5674 76.2683L45.5709 77.505C45.5714 77.7043 45.734 77.8654 45.934 77.8648L52.3803 77.8469C52.5803 77.8463 52.742 77.6844 52.7415 77.4851L52.738 76.2483C52.7374 76.0491 52.5748 75.888 52.3748 75.8885Z" fill="white"/>
<path d="M60.8944 75.8647L54.4481 75.8827C54.2481 75.8832 54.0864 76.0452 54.0869 76.2445L54.0904 77.4812C54.091 77.6805 54.2536 77.8416 54.4536 77.841L60.8999 77.8231C61.0999 77.8225 61.2616 77.6606 61.261 77.4613L61.2575 76.2245C61.257 76.0253 61.0944 75.8642 60.8944 75.8647Z" fill="white"/>
<path d="M60.8228 79.6947L52.3434 79.7183C52.0993 79.7189 51.9019 79.9167 51.9026 80.1599L51.9056 81.2374C51.9063 81.4807 52.1048 81.6773 52.3489 81.6766L60.8282 81.653C61.0724 81.6524 61.2698 81.4546 61.2691 81.2114L61.2661 80.1339C61.2654 79.8906 61.0669 79.694 60.8228 79.6947Z" fill="white"/>
<path d="M30.1413 67.8492L30.1338 65.2786C30.1338 64.7163 30.5909 64.2584 31.1528 64.2559L36.1655 64.241C36.7299 64.241 37.1895 64.6963 37.192 65.2562L37.1995 67.8268C37.1995 68.3892 36.7424 68.847 36.1805 68.8495L31.1678 68.8644C30.6033 68.8644 30.1438 68.4091 30.1413 67.8492ZM31.1553 64.5296C30.7432 64.5296 30.4085 64.8656 30.4085 65.2761L30.416 67.8467C30.416 68.2573 30.7532 68.5907 31.1653 68.5907L36.178 68.5758C36.5901 68.5758 36.9248 68.2399 36.9248 67.8293L36.9173 65.2587C36.9173 64.8481 36.5801 64.5147 36.168 64.5147L31.1553 64.5296Z" fill="white"/>
<path d="M42.5234 86.0022V85.7534L62.8214 85.6962C63.1436 85.6962 63.4483 85.5693 63.6781 85.3378C63.9079 85.1089 64.0328 84.8028 64.0328 84.4818L64.0003 61.5237H64.25L64.2825 84.4793C64.2825 84.8675 64.1327 85.2333 63.8554 85.512C63.5782 85.7883 63.211 85.9425 62.8214 85.9425L42.5234 85.9998V86.0022Z" fill="#2E4882"/>
<path d="M39.0304 85.7631L31.5127 85.7853L31.5134 86.0341L39.0312 86.0119L39.0304 85.7631Z" fill="#2E4882"/>
<path d="M65.7753 17.058C61.6143 16.2319 57.5707 18.9219 56.7415 23.0676C55.9123 27.2133 58.6122 31.242 62.7732 32.0682C66.9342 32.8943 70.9778 30.2044 71.807 26.0587C72.6362 21.913 69.9363 17.8842 65.7753 17.058ZM70.3409 25.7675C70.0187 27.38 69.0846 28.7735 67.7084 29.6868C66.3347 30.6 64.6888 30.9285 63.0679 30.605C59.7261 29.9406 57.5457 26.6907 58.215 23.3587C58.5372 21.7462 59.4713 20.3527 60.845 19.4395C62.1687 18.5586 63.7522 18.2226 65.3157 18.4889C65.3732 18.4988 65.4281 18.5088 65.4855 18.5212C68.7749 19.1732 70.9328 22.3285 70.3709 25.6008C70.3609 25.6555 70.3509 25.7103 70.3409 25.7675Z" fill="#FCC659"/>
<path d="M70.3711 25.6007C70.3611 25.6555 70.3511 25.7102 70.3411 25.7674C70.0189 27.3799 69.0848 28.7735 67.7086 29.6867C66.335 30.6 64.689 30.9284 63.0681 30.6049C59.7263 29.9405 57.5459 26.6907 58.2128 23.3587C58.535 21.7462 59.4691 20.3527 60.8427 19.4394C62.1665 18.5585 63.7499 18.2226 65.3134 18.4888C65.3709 18.4988 65.4258 18.5087 65.4833 18.5212C68.7726 19.1731 70.9305 22.3285 70.3686 25.6007H70.3711Z" fill="#F49B51"/>
<path d="M63.0933 29.1418L63.2906 27.9996C62.6337 27.8752 61.9868 27.5566 61.6396 27.2058L62.0418 26.4941C62.4039 26.835 62.9584 27.151 63.5928 27.258C64.3995 27.3949 65.0239 27.0241 65.1338 26.3796C65.2412 25.7575 64.864 25.2972 64.0823 24.8144C63.0008 24.1649 62.3764 23.5229 62.5463 22.5375C62.7086 21.5994 63.5004 20.9997 64.5743 21.0096L64.7716 19.8674L65.476 19.9869L65.2886 21.0843C65.9655 21.2236 66.4001 21.4824 66.6973 21.7313L66.2852 22.4305C66.0704 22.2538 65.6483 21.9254 64.9215 21.8009C64.0473 21.6516 63.6277 22.117 63.5503 22.5674C63.4504 23.1546 63.8201 23.5204 64.7367 24.0977C65.8231 24.7721 66.3127 25.4614 66.1403 26.4667C65.988 27.3601 65.2187 28.0917 64.0174 28.0842L63.8151 29.2612L63.1007 29.1393L63.0933 29.1418Z" fill="#FCC659"/>
<path d="M70.3808 24.0406C70.3758 23.9883 70.3708 23.9386 70.3658 23.8863C70.1685 22.1395 69.2269 20.5693 67.7783 19.5664L67.8732 19.4296C69.3593 20.4598 70.3284 22.0723 70.5307 23.8589C70.5382 23.9236 70.5432 23.9759 70.5482 24.0282L70.3808 24.0431V24.0406Z" fill="#2E4882"/>
<path d="M67.7786 19.5664C66.6147 18.7602 65.1986 18.3819 63.7874 18.5014L63.7725 18.3347C65.2211 18.2102 66.6797 18.5984 67.8735 19.4271L67.7786 19.5639V19.5664Z" fill="#2E4882"/>
<path d="M69.0922 28.5794L68.9648 28.4724C69.4868 27.8553 69.8765 27.1561 70.1187 26.3971L70.2786 26.4469C70.0288 27.2282 69.6317 27.9449 69.0922 28.5794Z" fill="#2E4882"/>
<path d="M70.1656 19.7928C69.6686 19.1831 69.0817 18.6556 68.4248 18.2276L68.5222 18.0782C69.1966 18.5162 69.796 19.0562 70.3055 19.6808L70.1656 19.7928Z" fill="#2E4882"/>
<path d="M67.4616 31.6277L67.3867 31.4635C69.6221 30.4607 71.243 28.4351 71.7201 26.0412C72.0173 24.5556 71.8649 23.0327 71.278 21.6417L71.4428 21.572C72.0422 22.9979 72.1996 24.5531 71.8949 26.0761C71.4054 28.5247 69.7469 30.6 67.4591 31.6252L67.4616 31.6277Z" fill="#2E4882"/>
<path d="M18.4556 76.7528C19.9784 76.7528 21.2129 74.8365 21.2129 72.4727C21.2129 70.1089 19.9784 68.1926 18.4556 68.1926C16.9327 68.1926 15.6982 70.1089 15.6982 72.4727C15.6982 74.8365 16.9327 76.7528 18.4556 76.7528Z" fill="#101011"/>
<path d="M73.395 76.7528C74.9179 76.7528 76.1524 74.8365 76.1524 72.4727C76.1524 70.1089 74.9179 68.1926 73.395 68.1926C71.8722 68.1926 70.6377 70.1089 70.6377 72.4727C70.6377 74.8365 71.8722 76.7528 73.395 76.7528Z" fill="#101011"/>
<path d="M20.446 70.1535C21.1553 68.7575 22.4041 67.6427 23.8727 67.0903C24.1299 66.9932 24.4147 66.9136 24.6744 67.0032C24.9342 67.0927 25.124 67.4212 24.9741 67.6501C24.8817 67.7945 24.6719 67.9139 24.7319 68.0732C25.631 67.9911 26.5626 68.3693 27.147 69.0561C27.734 69.7429 27.9588 70.7159 27.734 71.5893C27.5092 72.4603 26.8873 73.1695 26.2479 73.8015C25.8558 74.1897 25.4412 74.5704 24.9491 74.8218C24.1574 75.2274 23.2358 75.2722 22.3466 75.2747C21.8746 75.2747 21.3926 75.2647 20.943 75.1154C20.1313 74.8467 19.5368 74.1723 18.9824 73.5228C18.9025 73.4283 18.815 73.3237 18.8125 73.1993C18.81 73.06 18.9124 72.9405 19.0099 72.8385C19.3695 72.4603 19.864 72.0795 20.0713 71.5968C20.2636 71.1489 20.2037 70.6213 20.4385 70.1485L20.446 70.1535Z" fill="#F2D6B1" stroke="#181819" stroke-width="3" stroke-miterlimit="10"/>
<path d="M69.2018 70.1535C68.4925 68.7575 67.2437 67.6427 65.7751 67.0903C65.5179 66.9932 65.2331 66.9136 64.9734 67.0032C64.7136 67.0927 64.5238 67.4212 64.6737 67.6501C64.7661 67.7945 64.9759 67.9139 64.9159 68.0732C64.0168 67.9911 63.0852 68.3693 62.5008 69.0561C61.9138 69.7429 61.6891 70.7159 61.9138 71.5893C62.1386 72.4603 62.7605 73.1695 63.3999 73.8015C63.792 74.1897 64.2066 74.5704 64.6987 74.8218C65.4904 75.2274 66.412 75.2722 67.3012 75.2747C67.7732 75.2747 68.2552 75.2647 68.7048 75.1154C69.5165 74.8467 70.111 74.1723 70.6654 73.5228C70.7453 73.4283 70.8328 73.3237 70.8353 73.1993C70.8378 73.06 70.7354 72.9405 70.6379 72.8385C70.2783 72.4603 69.7838 72.0795 69.5765 71.5968C69.3842 71.1489 69.4441 70.6213 69.2093 70.1485L69.2018 70.1535Z" fill="#F2D6B1" stroke="#181819" stroke-width="3" stroke-miterlimit="10"/>
<path d="M57.1134 18.3745L70.0459 31.2595L65.2356 36.2961L51.6836 22.7964L57.1134 18.3745Z" fill="#EE7C48"/>
<path d="M56.5615 17.8544L70.0311 31.2744" stroke="#101011" stroke-width="4" stroke-linecap="round" stroke-linejoin="round"/>
</g>
<defs>
<linearGradient id="paint0_linear_3483_3561" x1="55.9089" y1="38.3367" x2="55.9089" y2="55.8327" gradientUnits="userSpaceOnUse">
<stop stop-color="white"/>
<stop offset="0.43" stop-color="white"/>
<stop offset="1" stop-color="white" stop-opacity="0"/>
</linearGradient>
<linearGradient id="paint1_linear_3483_3561" x1="34.0403" y1="38.3938" x2="34.0403" y2="55.8028" gradientUnits="userSpaceOnUse">
<stop stop-color="white"/>
<stop offset="0.43" stop-color="white"/>
<stop offset="1" stop-color="white" stop-opacity="0"/>
</linearGradient>
<clipPath id="clip0_3483_3561">
<rect width="91" height="94" fill="white" transform="translate(0.31543)"/>
</clipPath>
</defs>
</svg>
