<svg width="131" height="133" viewBox="0 0 131 133" fill="none" xmlns="http://www.w3.org/2000/svg">
<g clip-path="url(#clip0_2994_4304)">
<path d="M106.174 130.515C106.174 131.888 88.0381 132.996 65.6637 132.996C54.9205 132.996 44.6159 132.736 37.0188 132.27C29.4216 131.805 25.1538 131.173 25.1538 130.515C25.1538 129.858 29.4216 129.226 37.0188 128.76C44.6159 128.294 54.9205 128.034 65.6637 128.034C88.0381 128.034 106.174 129.146 106.174 130.515Z" fill="#BFCAEF"/>
<path d="M59.7311 117.506C59.7311 122.599 58.0412 129.836 55.9559 129.836C53.8705 129.836 52.1807 122.599 52.1807 117.506C52.1807 112.414 54.4134 111.399 55.9559 111.399C57.4983 111.399 59.7311 112.418 59.7311 117.506Z" fill="#EE7C48"/>
<path d="M55.9561 110.341C54.953 110.341 53.655 110.713 52.6843 111.861C51.7171 113.01 51.1274 114.808 51.1274 117.51C51.1274 120.211 51.5589 123.31 52.2708 125.871C52.6267 127.149 53.051 128.28 53.5795 129.172C54.1117 130.064 54.8236 130.898 55.9525 130.898C57.0815 130.898 57.7934 130.064 58.3255 129.172C58.8576 128.28 59.2783 127.149 59.6343 125.871C60.3498 123.31 60.7776 120.175 60.7776 117.51C60.7776 114.845 60.188 113.01 59.2208 111.861C58.2536 110.713 56.9521 110.341 55.9489 110.341H55.9561ZM55.9561 112.457C56.499 112.457 57.0851 112.595 57.6172 113.227C58.1493 113.859 58.6779 115.115 58.6779 117.506C58.6779 119.897 58.2644 122.96 57.61 125.293C57.2828 126.459 56.8909 127.456 56.5206 128.081C56.2402 128.551 56.0137 128.706 55.9561 128.756C55.895 128.706 55.6685 128.551 55.3916 128.081C55.0213 127.456 54.6294 126.459 54.3022 125.293C53.6514 122.96 53.2344 119.933 53.2344 117.506C53.2344 115.079 53.7593 113.859 54.295 113.227C54.8272 112.595 55.4168 112.457 55.9561 112.457Z" fill="#1A1A1A"/>
<path d="M78.8195 117.506C78.8195 122.599 77.1296 129.836 75.0443 129.836C72.9589 129.836 71.269 122.599 71.269 117.506C71.269 112.414 73.5018 111.399 75.0443 111.399C76.5867 111.399 78.8195 112.418 78.8195 117.506Z" fill="#EE7C48"/>
<path d="M75.044 110.341C74.0409 110.341 72.7429 110.713 71.7722 111.861C70.805 113.01 70.2153 114.808 70.2153 117.51C70.2153 120.211 70.6468 123.31 71.3587 125.871C71.7146 127.149 72.1389 128.28 72.6674 129.172C73.1996 130.064 73.9115 130.898 75.0404 130.898C76.1694 130.898 76.8813 130.064 77.4134 129.172C77.9455 128.28 78.3662 127.149 78.7222 125.871C79.4376 123.31 79.8655 120.175 79.8655 117.51C79.8655 114.845 79.2759 113.01 78.3087 111.861C77.3415 110.713 76.04 110.341 75.0368 110.341H75.044ZM75.044 112.457C75.5869 112.457 76.173 112.595 76.7051 113.227C77.2372 113.859 77.7658 115.115 77.7658 117.506C77.7658 119.897 77.3523 122.96 76.6979 125.293C76.3707 126.459 75.9788 127.456 75.6085 128.081C75.3281 128.551 75.1015 128.706 75.044 128.756C74.9829 128.706 74.7564 128.551 74.4795 128.081C74.1092 127.456 73.7173 126.459 73.3901 125.293C72.7393 122.96 72.3223 119.933 72.3223 117.506C72.3223 115.079 72.8472 113.859 73.3829 113.227C73.915 112.595 74.5047 112.457 75.044 112.457Z" fill="#1A1A1A"/>
<path d="M19.4837 83.7633C21.4217 79.0611 23.8738 78.978 25.2976 79.5703C26.725 80.1626 28.3969 81.9612 26.4589 86.6634C24.521 91.3657 20.1992 97.4043 18.2757 96.6025C16.3485 95.8007 17.5458 88.4656 19.4837 83.7597V83.7633Z" fill="#EE7C48"/>
<path d="M25.7036 78.5952C24.7796 78.2087 23.4349 78.0534 22.1046 78.7432C20.7707 79.4331 19.541 80.8669 18.5127 83.3625C17.4988 85.8219 16.7006 88.8882 16.3842 91.5246C16.226 92.8428 16.1865 94.0491 16.3375 95.0784C16.4885 96.1077 16.8301 97.1515 17.8727 97.5849C18.9154 98.0182 19.8934 97.5235 20.7239 96.9023C21.5545 96.2811 22.3742 95.3998 23.194 94.3561C24.8299 92.265 26.4227 89.5346 27.4366 87.0752C28.4649 84.5796 28.6051 82.6907 28.1485 81.2605C27.6919 79.8267 26.6312 78.9852 25.7072 78.5988L25.7036 78.5952ZM24.8982 80.549C25.398 80.7585 25.8906 81.1124 26.1423 81.8998C26.3939 82.6907 26.4011 84.0523 25.4915 86.2589C24.5675 88.5017 23.0286 91.1382 21.5401 93.0451C20.7958 93.9986 20.0516 94.7678 19.4727 95.2012C19.0377 95.5263 18.768 95.584 18.6925 95.6057C18.6566 95.5371 18.5055 95.306 18.4264 94.7642C18.3222 94.0455 18.3366 92.9729 18.4804 91.7702C18.768 89.3649 19.5374 86.407 20.4615 84.1642C21.3711 81.9575 22.3347 80.9969 23.0718 80.6177C23.8052 80.2384 24.4021 80.336 24.9018 80.5454L24.8982 80.549Z" fill="#1A1A1A"/>
<path d="M65.4334 25.9095L60.4969 30.8718L55.5568 35.8305V35.9605L45.6801 45.8851H45.547L25.7937 65.8571H25.6606V115.729H105.073V65.8571H105.203L65.4334 25.9095ZM104.102 114.754H26.635V66.2616L65.4334 27.2891L104.232 66.2616L104.102 114.754Z" fill="#3D5BCF"/>
<path d="M36.5443 17.9134H23.1836V44.7691H36.5443V17.9134Z" fill="#EE7C48"/>
<path d="M37.8852 17.9134H21.8423V23.2838H37.8852V17.9134Z" fill="#3D5BCF"/>
<path d="M105.889 65.1673L66.1202 25.2197C65.7427 24.8404 65.1279 24.8404 64.7468 25.2197L24.9776 65.1673C24.7942 65.3515 24.6899 65.5971 24.6899 65.8571V115.729C24.6899 116.268 25.125 116.705 25.6607 116.705H105.073C105.609 116.705 106.04 116.268 106.044 115.729L106.173 65.8607C106.173 65.6007 106.073 65.3515 105.889 65.1673ZM104.103 114.754H26.6351V66.2616L65.4335 27.2891L104.232 66.2616L104.103 114.754Z" fill="#101011"/>
<path d="M104.232 66.2616L104.103 114.754H26.6353V66.2616L65.4337 27.2891L104.232 66.2616Z" fill="#3D5BCF"/>
<path d="M77.9096 13.5109L75.4431 15.9885L65.437 25.9131L60.4969 30.8718L55.5567 35.8305V35.9641L45.6801 45.8851H45.5506L25.7972 65.8571H0.970703L2.91943 63.9033L3.44077 63.3796L3.83268 62.9859L3.96211 62.8559L25.7972 40.9228L30.7338 35.9641L35.6703 30.8718L40.6105 25.9131L45.6801 20.9508L60.4969 6.06745L62.4456 3.97996L63.4847 3.06623L65.437 0.975128L77.9096 13.5109Z" fill="#EE7C48"/>
<path d="M130.026 65.8571H105.203L65.437 25.9131L70.3736 20.9508H85.3162L125.089 60.8984L127.038 62.8559L127.167 62.9859L127.43 63.2496L127.559 63.3796L127.947 63.7697L128.077 63.9033L130.026 65.8571Z" fill="#EE7C48"/>
<path d="M25.6641 72.4158L64.5991 34.0175L105.073 72.4158L105.202 65.8571L65.4369 25.9131L25.6641 65.8571V72.4158Z" fill="#3350AA"/>
<path d="M25.6642 65.8571H0.970703L65.437 0.975128L67.8747 3.42378L3.9693 64.5281L25.6642 65.8571Z" fill="#FFA480"/>
<path d="M130.026 66.8323H105.203C104.944 66.8323 104.7 66.7311 104.516 66.547L65.4339 27.2891L26.3478 66.547C26.1644 66.7311 25.92 66.8323 25.6611 66.8323H0.97117C0.579267 66.8323 0.223318 66.5939 0.0759044 66.2291C-0.0715088 65.8644 0.00759102 65.4454 0.28444 65.1673L64.7507 0.285315C64.9341 0.101124 65.1786 0 65.4375 0C65.6964 0 65.9408 0.101124 66.1242 0.285315L78.6004 12.8211C78.7838 13.0053 78.8844 13.2545 78.8844 13.5145C78.8844 13.7746 78.7802 14.0238 78.5932 14.2043L72.747 19.9756H85.3167C85.5756 19.9756 85.8201 20.0768 86.0034 20.261L130.713 65.1673C130.99 65.4454 131.072 65.8644 130.925 66.2291C130.774 66.5939 130.422 66.8323 130.026 66.8323ZM105.606 64.882H127.682L84.914 21.9259H70.3704C69.9749 21.9259 69.6226 21.6875 69.4716 21.3192C69.3206 20.9544 69.4069 20.5318 69.6909 20.2537L76.5294 13.5037L65.4339 2.35475L3.3118 64.882H25.262L64.7507 25.2197C65.1283 24.8404 65.7467 24.8404 66.1242 25.2197L105.609 64.882H105.606Z" fill="#101011"/>
<path d="M37.8852 24.259H21.8424C21.3066 24.259 20.8716 23.822 20.8716 23.2839V17.9134C20.8716 17.3753 21.3066 16.9383 21.8424 16.9383H37.8852C38.4209 16.9383 38.856 17.3753 38.856 17.9134V23.2839C38.856 23.822 38.4209 24.259 37.8852 24.259ZM22.8131 22.3087H36.9145V18.8886H22.8131V22.3087Z" fill="#101011"/>
<path d="M23.1836 38.2647L36.5443 25.4291V29.2971L23.1836 42.483V38.2647Z" fill="#C15F38"/>
<path d="M23.1837 44.3791C22.6479 44.3791 22.2129 43.9421 22.2129 43.404V23.2802C22.2129 22.7421 22.6479 22.3051 23.1837 22.3051C23.7194 22.3051 24.1544 22.7421 24.1544 23.2802V43.404C24.1544 43.9421 23.7194 44.3791 23.1837 44.3791Z" fill="#101011"/>
<path d="M36.544 31.0307C36.0083 31.0307 35.5732 30.5937 35.5732 30.0556V23.2838C35.5732 22.7457 36.0083 22.3087 36.544 22.3087C37.0797 22.3087 37.5148 22.7457 37.5148 23.2838V30.0556C37.5148 30.5937 37.0797 31.0307 36.544 31.0307Z" fill="#101011"/>
<path d="M72.671 94.7245C72.671 90.7452 69.4596 87.5194 65.4981 87.5194C61.5366 87.5194 58.3252 90.7452 58.3252 94.7245V102.381C58.3252 106.36 61.5366 109.586 65.4981 109.586C69.4596 109.586 72.671 106.36 72.671 102.381V94.7245Z" fill="#162554"/>
<path d="M65.4983 109.586C68.5364 109.586 71.1467 107.661 72.1894 104.967C70.726 102.832 68.2775 101.431 65.4983 101.431C62.719 101.431 60.2741 102.832 58.8071 104.967C59.8462 107.661 62.4601 109.586 65.4983 109.586Z" fill="#E54C45"/>
<path d="M98.6444 46.4268H32.3552C21.6721 46.4268 13.0117 55.1261 13.0117 65.8571C13.0117 76.5882 21.6721 85.2874 32.3552 85.2874H98.6444C109.328 85.2874 117.988 76.5882 117.988 65.8571C117.988 55.1261 109.328 46.4268 98.6444 46.4268Z" fill="#101011"/>
<path d="M98.4573 48.4891H32.5384C22.9566 48.4891 15.1904 56.2901 15.1904 65.9149C15.1904 75.5398 22.9566 83.3408 32.5384 83.3408H98.4573C108.039 83.3408 115.805 75.5398 115.805 65.9149C115.805 56.2901 108.039 48.4891 98.4573 48.4891Z" fill="#2A2A30"/>
<path opacity="0.84" d="M32.5383 83.3408H98.4571C108.039 83.3408 115.805 75.5398 115.805 65.9149H15.1938C15.1938 75.5398 22.96 83.3408 32.5419 83.3408H32.5383Z" fill="url(#paint0_linear_2994_4304)"/>
<path d="M55.2041 47.5789H76.0217V48.4493C76.0217 54.2206 71.3584 58.9049 65.6129 58.9049C59.8674 58.9049 55.2041 54.2206 55.2041 48.4493V47.5789Z" fill="#101011"/>
<path d="M71.8186 50.1901H59.1771C58.6985 50.1901 58.3105 50.5798 58.3105 51.0605C58.3105 51.5412 58.6985 51.9309 59.1771 51.9309H71.8186C72.2972 51.9309 72.6851 51.5412 72.6851 51.0605C72.6851 50.5798 72.2972 50.1901 71.8186 50.1901Z" fill="#FF9A45"/>
<path d="M111.955 81.5242C112.627 76.6269 106.634 69.2809 108.629 67.3234C110.625 65.366 114.468 68.3347 116.622 70.3427C118.776 72.3508 120.282 74.9475 121.706 77.5298C123.112 80.0759 124.51 82.9363 123.881 85.7786C123.317 88.3212 121.256 90.2209 119.232 91.8497C115.184 95.1037 110.661 98.0219 106.091 100.481C106.008 98.1952 106.127 87.5772 106.127 87.5772C107.831 86.826 108.568 86.3456 109.575 85.5439C110.693 84.659 111.959 83.041 111.959 81.5242H111.955Z" fill="#EE7C48"/>
<path d="M105.771 102.395L104.922 100.803C109.553 98.3108 114.853 94.8184 118.758 91.6799C120.717 90.1053 122.601 88.3392 123.094 86.1181C123.655 83.5936 122.371 80.9716 121.012 78.5049C119.585 75.919 118.136 73.4414 116.104 71.5418C113.663 69.2665 110.61 67.2729 109.352 68.508C108.795 69.057 109.913 71.6429 110.733 73.5353C111.933 76.309 113.293 79.4511 112.951 82.1273C112.919 83.9981 111.47 85.8075 110.226 86.7898C109.24 87.5736 107.756 88.4006 105.821 89.2565L105.099 87.6024C106.896 86.8115 108.245 86.0603 109.111 85.3741C110.125 84.5687 111.153 83.1747 111.153 82.0623L111.16 81.9395C111.462 79.7509 110.197 76.8327 109.082 74.2541C107.777 71.2384 106.652 68.6308 108.097 67.2151C109.435 65.9041 112.12 65.3623 117.327 70.2199C119.556 72.3002 121.087 74.9114 122.587 77.6309C124.047 80.2818 125.549 83.3697 124.852 86.5117C124.237 89.2782 122.101 91.3115 119.887 93.092C115.903 96.2919 110.499 99.8565 105.778 102.395H105.771Z" fill="#101011"/>
</g>
<defs>
<linearGradient id="paint0_linear_2994_4304" x1="15.1938" y1="74.6261" x2="115.805" y2="74.6261" gradientUnits="userSpaceOnUse">
<stop offset="0.14" stop-color="#02F2FB"/>
<stop offset="0.18" stop-color="#04E6F2"/>
<stop offset="0.24" stop-color="#0AC7DD"/>
<stop offset="0.32" stop-color="#1395BB"/>
<stop offset="0.39" stop-color="#1E6096"/>
<stop offset="0.44" stop-color="#215A8A"/>
<stop offset="0.52" stop-color="#284C6B"/>
<stop offset="0.62" stop-color="#363639"/>
</linearGradient>
<clipPath id="clip0_2994_4304">
<rect width="131" height="133" fill="white"/>
</clipPath>
</defs>
</svg>
