<svg width="99" height="102" viewBox="0 0 99 102" fill="none" xmlns="http://www.w3.org/2000/svg">
<g clip-path="url(#clip0_3033_9055)">
<path d="M49.0861 102C64.9392 102 77.7908 99.488 77.7908 96.3891C77.7908 93.2902 64.9392 90.7781 49.0861 90.7781C33.2329 90.7781 20.3813 93.2902 20.3813 96.3891C20.3813 99.488 33.2329 102 49.0861 102Z" fill="#CECED0"/>
<path d="M45.5547 87.8536C45.5547 91.6609 44.2905 97.0721 42.7305 97.0721C41.1704 97.0721 39.9062 91.6609 39.9062 87.8536C39.9062 84.0463 41.5766 83.2876 42.7305 83.2876C43.8843 83.2876 45.5547 84.049 45.5547 87.8536Z" fill="#EE7C48"/>
<path d="M42.7305 82.4966C41.98 82.4966 41.009 82.7747 40.2828 83.6334C39.5593 84.492 39.1182 85.8367 39.1182 87.8565C39.1182 89.8762 39.4409 92.193 39.9735 94.1074C40.2398 95.0633 40.5572 95.9085 40.9526 96.5754C41.3506 97.2424 41.8832 97.8661 42.7278 97.8661C43.5723 97.8661 44.1049 97.2424 44.503 96.5754C44.9011 95.9085 45.2158 95.0633 45.482 94.1074C46.0173 92.193 46.3374 89.8492 46.3374 87.8565C46.3374 85.8637 45.8963 84.492 45.1727 83.6334C44.4492 82.7747 43.4755 82.4966 42.7251 82.4966H42.7305ZM42.7305 84.0789C43.1366 84.0789 43.575 84.1815 43.9731 84.654C44.3712 85.1266 44.7666 86.0662 44.7666 87.8538C44.7666 89.6413 44.4573 91.9311 43.9677 93.6754C43.723 94.5476 43.4298 95.2928 43.1527 95.76C42.9429 96.111 42.7735 96.2271 42.7305 96.2649C42.6847 96.2271 42.5153 96.111 42.3082 95.76C42.0311 95.2928 41.738 94.5476 41.4932 93.6754C41.0063 91.9311 40.6943 89.6683 40.6943 87.8538C40.6943 86.0392 41.087 85.1266 41.4878 84.654C41.8859 84.1815 42.327 84.0789 42.7305 84.0789Z" fill="#1A1A1A"/>
<path d="M59.834 87.8536C59.834 91.6609 58.5698 97.0721 57.0098 97.0721C55.4497 97.0721 54.1855 91.6609 54.1855 87.8536C54.1855 84.0463 55.8559 83.2876 57.0098 83.2876C58.1636 83.2876 59.834 84.049 59.834 87.8536Z" fill="#EE7C48"/>
<path d="M57.0098 82.4966C56.2593 82.4966 55.2883 82.7747 54.5621 83.6334C53.8386 84.492 53.3975 85.8367 53.3975 87.8565C53.3975 89.8762 53.7202 92.193 54.2528 94.1074C54.5191 95.0633 54.8365 95.9085 55.2319 96.5754C55.6299 97.2424 56.1625 97.8661 57.0071 97.8661C57.8516 97.8661 58.3842 97.2424 58.7823 96.5754C59.1804 95.9085 59.4951 95.0633 59.7613 94.1074C60.2966 92.193 60.6167 89.8492 60.6167 87.8565C60.6167 85.8637 60.1756 84.492 59.452 83.6334C58.7285 82.7747 57.7548 82.4966 57.0044 82.4966H57.0098ZM57.0098 84.0789C57.4159 84.0789 57.8543 84.1815 58.2524 84.654C58.6505 85.1266 59.0459 86.0662 59.0459 87.8538C59.0459 89.6413 58.7366 91.9311 58.247 93.6754C58.0023 94.5476 57.7091 95.2928 57.432 95.76C57.2222 96.111 57.0528 96.2271 57.0098 96.2649C56.964 96.2271 56.7946 96.111 56.5875 95.76C56.3104 95.2928 56.0173 94.5476 55.7725 93.6754C55.2856 91.9311 54.9736 89.6683 54.9736 87.8538C54.9736 86.0392 55.3663 85.1266 55.7671 84.654C56.1652 84.1815 56.6063 84.0789 57.0098 84.0789Z" fill="#1A1A1A"/>
<path d="M49.8206 19.3713L46.1276 23.0814L42.4319 26.7888V26.886L35.0433 34.3061H34.9437L20.1664 49.2382H20.0669V86.5253H79.4748V49.2382H79.5716L49.8206 19.3713ZM78.7485 85.7962H20.7958V49.5407L49.8206 20.4028L78.8454 49.5407L78.7485 85.7962Z" fill="#3D5BCF"/>
<path d="M28.2084 13.3931H18.2134V33.4717H28.2084V13.3931Z" fill="#EE7C48"/>
<path d="M29.2115 13.3931H17.21V17.4083H29.2115V13.3931Z" fill="#3D5BCF"/>
<path d="M80.085 48.7224L50.334 18.8555C50.0516 18.5719 49.5916 18.5719 49.3065 18.8555L19.5555 48.7224C19.4183 48.8601 19.3403 49.0437 19.3403 49.2381V86.5251C19.3403 86.9275 19.6658 87.2542 20.0666 87.2542H79.4744C79.8752 87.2542 80.198 86.9275 80.2007 86.5251L80.2975 49.2408C80.2975 49.0464 80.2222 48.8601 80.085 48.7224ZM78.7482 85.7961H20.7955V49.5405L49.8203 20.4027L78.845 49.5405L78.7482 85.7961Z" fill="#101011"/>
<path d="M78.845 49.5404L78.7481 85.796H20.7954V49.5404L49.8202 20.4026L78.845 49.5404Z" fill="#3D5BCF"/>
<path d="M59.1535 10.1014L57.3084 11.9537L49.8229 19.3739L46.1272 23.0812L42.4315 26.7886V26.8885L35.0429 34.306H34.946L20.1687 49.2381H1.59619L3.05402 47.7773L3.44403 47.3857L3.73721 47.0914L3.83404 46.9942L20.1687 30.5959L23.8617 26.8885L27.5547 23.0812L31.2504 19.3739L35.0429 15.6638L46.1272 4.53628L47.585 2.97557L48.3624 2.29242L49.8229 0.729004L59.1535 10.1014Z" fill="#EE7C48"/>
<path d="M98.1414 49.2381H79.5716L49.8232 19.3739L53.5162 15.6638H64.6947L94.4484 45.5307L95.9062 46.9942L96.0031 47.0914L96.1994 47.2885L96.2962 47.3858L96.5867 47.6774L96.6836 47.7773L98.1414 49.2381Z" fill="#EE7C48"/>
<path d="M20.7954 53.545L49.1962 25.4333L78.845 53.4532L78.9445 48.5524L49.8229 19.374L20.7954 48.6442V53.545Z" fill="#3350AA"/>
<path d="M20.0692 49.2381H1.59619L49.8229 0.729004L51.6465 2.55974L3.83942 48.2444L20.0692 49.2381Z" fill="#FFA480"/>
<path d="M98.1413 49.9672H79.5714C79.3778 49.9672 79.1949 49.8916 79.0577 49.7539L49.8204 20.4027L20.5805 49.7539C20.4433 49.8916 20.2604 49.9672 20.0667 49.9672H1.5964C1.30322 49.9672 1.03694 49.789 0.926662 49.5162C0.816384 49.2435 0.875557 48.9303 1.08267 48.7224L49.3094 0.213316C49.4465 0.0756056 49.6295 0 49.8231 0C50.0168 0 50.1997 0.0756056 50.3368 0.213316L59.6702 9.5857C59.8074 9.72342 59.8827 9.90973 59.8827 10.1041C59.8827 10.2986 59.8047 10.4849 59.6648 10.6199L55.2913 14.9348H64.6946C64.8882 14.9348 65.0711 15.0104 65.2083 15.1481L98.655 48.7224C98.8621 48.9303 98.924 49.2435 98.8137 49.5162C98.7007 49.789 98.4371 49.9672 98.1413 49.9672ZM79.8727 48.5091H96.3876L64.3933 16.3929H53.5134C53.2175 16.3929 52.9539 16.2147 52.841 15.9393C52.728 15.6666 52.7926 15.3506 53.0051 15.1427L58.1209 10.096L49.8204 1.76053L3.34741 48.5091H19.7682L49.3094 18.8555C49.5918 18.572 50.0544 18.572 50.3368 18.8555L79.8754 48.5091H79.8727Z" fill="#101011"/>
<path d="M29.2116 18.1371H17.2101C16.8093 18.1371 16.4839 17.8104 16.4839 17.4081V13.3929C16.4839 12.9905 16.8093 12.6638 17.2101 12.6638H29.2116C29.6124 12.6638 29.9379 12.9905 29.9379 13.3929V17.4081C29.9379 17.8104 29.6124 18.1371 29.2116 18.1371ZM17.9363 16.679H28.4854V14.1219H17.9363V16.679Z" fill="#101011"/>
<path d="M18.2134 28.6087L28.2084 19.0122V21.9041L18.2134 31.7625V28.6087Z" fill="#C15F38"/>
<path d="M18.2135 33.1801C17.8128 33.1801 17.4873 32.8534 17.4873 32.4511V17.4056C17.4873 17.0032 17.8128 16.6765 18.2135 16.6765C18.6143 16.6765 18.9398 17.0032 18.9398 17.4056V32.4511C18.9398 32.8534 18.6143 33.1801 18.2135 33.1801Z" fill="#101011"/>
<path d="M28.2086 23.2002C27.8079 23.2002 27.4824 22.8735 27.4824 22.4711V17.4083C27.4824 17.0059 27.8079 16.6792 28.2086 16.6792C28.6094 16.6792 28.9349 17.0059 28.9349 17.4083V22.4711C28.9349 22.8735 28.6094 23.2002 28.2086 23.2002Z" fill="#101011"/>
<path d="M35.3818 51.4711C35.3818 50.0157 36.5572 48.8357 38.007 48.8357C39.4568 48.8357 40.6322 50.0157 40.6322 51.4711C40.6322 52.9265 39.4568 54.1065 38.007 54.1065C36.5572 54.1065 35.3818 52.9265 35.3818 51.4711Z" fill="black"/>
<path d="M37.5012 53.715C38.1133 53.715 38.6094 53.2169 38.6094 52.6025C38.6094 51.9881 38.1133 51.49 37.5012 51.49C36.8892 51.49 36.3931 51.9881 36.3931 52.6025C36.3931 53.2169 36.8892 53.715 37.5012 53.715Z" fill="#272727"/>
<path d="M37.0494 53.1046C36.8584 53.3099 36.5383 53.3207 36.3339 53.1316C36.1295 52.9426 36.1187 52.6186 36.307 52.4134C36.4953 52.2082 36.8181 52.1974 37.0225 52.3864C37.2269 52.5754 37.2376 52.8994 37.0494 53.1046Z" fill="white"/>
<path d="M58.8176 54.1065C60.2674 54.1065 61.4427 52.9266 61.4427 51.4711C61.4427 50.0156 60.2674 48.8357 58.8176 48.8357C57.3677 48.8357 56.1924 50.0156 56.1924 51.4711C56.1924 52.9266 57.3677 54.1065 58.8176 54.1065Z" fill="black"/>
<path d="M57.2036 52.6025C57.2036 51.9895 57.6985 51.49 58.3118 51.49C58.925 51.49 59.4199 51.9868 59.4199 52.6025C59.4199 53.2181 58.925 53.715 58.3118 53.715C57.6985 53.715 57.2036 53.2181 57.2036 52.6025Z" fill="#272727"/>
<path d="M57.8599 53.1046C57.6689 53.3099 57.3489 53.3207 57.1444 53.1316C56.94 52.9426 56.9293 52.6186 57.1175 52.4134C57.3058 52.2082 57.6286 52.1974 57.833 52.3864C58.0374 52.5754 58.0482 52.8994 57.8599 53.1046Z" fill="white"/>
<path opacity="0.2" d="M60.7405 39.0422C55.5278 39.0422 51.2861 43.3005 51.2861 48.5334C51.2861 53.7664 55.5278 58.0246 60.7405 58.0246C65.9532 58.0246 70.1949 53.7664 70.1949 48.5334C70.1949 43.3005 65.9532 39.0422 60.7405 39.0422Z" fill="url(#paint0_linear_3033_9055)"/>
<path opacity="0.2" d="M37.1894 39.1018C32.0009 39.1018 27.7808 43.3384 27.7808 48.5471C27.7808 53.7558 32.0009 57.9924 37.1894 57.9924C42.3779 57.9924 46.5981 53.7558 46.5981 48.5471C46.5981 43.3384 42.3779 39.1018 37.1894 39.1018Z" fill="url(#paint1_linear_3033_9055)"/>
<path d="M60.7405 58.9292C55.5278 58.9292 51.114 55.0113 50.4711 49.8161L50.3877 49.1383H47.4748L47.3887 49.8134C46.727 54.9843 42.3159 58.8833 37.1274 58.8833C31.4171 58.8833 26.772 54.2201 26.772 48.4876C26.772 42.7551 31.4171 38.0891 37.1274 38.0891C42.3159 38.0891 46.7297 41.9882 47.3887 47.1591L47.4748 47.8341H50.3958L50.4846 47.1618C51.1651 42.0152 55.5735 38.135 60.7405 38.135C66.4507 38.135 71.0986 42.7983 71.0986 48.5308C71.0986 54.2633 66.4534 58.9265 60.7405 58.9265V58.9292ZM60.7405 39.4419C55.7483 39.4419 51.6842 43.5192 51.6842 48.5335C51.6842 53.5477 55.7457 57.625 60.7405 57.625C65.7353 57.625 69.7968 53.5477 69.7968 48.5335C69.7968 43.5192 65.7353 39.4419 60.7405 39.4419ZM37.1301 39.396C32.1353 39.396 28.0738 43.4733 28.0738 48.4876C28.0738 53.5018 32.1353 57.5791 37.1301 57.5791C42.1249 57.5791 46.1864 53.5018 46.1864 48.4876C46.1864 43.4733 42.1249 39.396 37.1301 39.396Z" fill="#101011"/>
<path d="M23.916 58.5376L29.5752 85.1076C36.3587 84.0275 43.0964 84.8619 49.0891 87.2893V61.6402C38.4701 57.8005 35.4737 56.2884 23.9187 58.5376H23.916Z" fill="#F1F1F1"/>
<path d="M49.4897 87.8888L48.9356 87.6647C42.8729 85.2075 36.1997 84.4622 29.6368 85.5072L29.2603 85.5666L23.437 58.2163L23.8405 58.138C34.7984 56.0048 38.217 57.2496 47.3567 60.579C47.9538 60.795 48.5751 61.0218 49.2234 61.2567L49.4897 61.3539V87.8888ZM35.4278 84.2381C39.9707 84.2381 44.4626 85.0644 48.6827 86.6953V61.9264C48.1287 61.7266 47.5961 61.5321 47.0797 61.3431C37.9588 58.0219 34.8092 56.8743 24.3946 58.859L29.887 84.6512C31.7321 84.3758 33.5853 84.2408 35.4278 84.2408V84.2381Z" fill="black"/>
<path d="M74.24 58.5376L68.5808 85.1076C61.7973 84.0275 55.0596 84.8619 49.0669 87.2893V61.6402C59.6859 57.8005 62.6823 56.2884 74.2373 58.5376H74.24Z" fill="#F1F1F1"/>
<path d="M48.6663 87.8888V61.3539L48.9325 61.2567C49.5835 61.0218 50.2048 60.795 50.7992 60.579C59.9389 57.2496 63.3602 56.0048 74.3154 58.138L74.7189 58.2163L68.8957 85.5666L68.5164 85.5072C61.9535 84.4622 55.2803 85.2075 49.2177 87.6647L48.6636 87.8888H48.6663ZM49.4732 61.9237V86.6926C55.404 84.4028 61.8809 83.6954 68.269 84.6459L73.7614 58.8536C63.3468 56.8689 60.1971 58.0165 51.0763 61.3377C50.5625 61.5267 50.0273 61.7185 49.4732 61.921V61.9237Z" fill="black"/>
<path d="M73.0971 54.9733L68.5838 84.1219C61.8003 83.0418 55.0625 83.8762 49.0698 86.3037V61.64C59.6888 57.8004 61.5421 52.724 73.0971 54.9733Z" fill="white"/>
<path d="M48.6665 86.9032V61.3539L48.9328 61.2567C52.3326 60.0281 54.834 58.6672 57.0396 57.4656C61.7789 54.8869 65.2029 53.0238 73.1726 54.5737L73.5545 54.6493L68.9201 84.5837L68.5193 84.5189C61.9564 83.4739 55.2832 84.2192 49.2206 86.6764L48.6665 86.9005V86.9032ZM49.4734 61.9236V85.7097C55.3989 83.4226 61.8677 82.7152 68.2477 83.6602L72.64 55.3001C65.2271 53.9365 61.943 55.724 57.4269 58.1812C55.2536 59.3639 52.7952 60.7005 49.4761 61.9263L49.4734 61.9236Z" fill="black"/>
<path d="M23.916 57.5521L29.5752 84.122C36.3587 83.0419 43.0964 83.8763 49.0891 86.3038V61.6402C38.4701 57.8005 35.4737 55.3028 23.9187 57.5521H23.916Z" fill="white"/>
<path d="M49.4897 86.9032L48.9356 86.6791C42.8729 84.2219 36.1997 83.4766 29.6368 84.5216L29.2603 84.581L23.437 57.2307L23.8405 57.1524C33.5907 55.2542 37.4639 56.7528 44.4975 59.4719C45.8881 60.0092 47.4643 60.6195 49.2261 61.2567L49.4923 61.3539V86.9032H49.4897ZM35.4278 83.2525C39.9707 83.2525 44.4626 84.0788 48.6827 85.7097V61.9264C47.0205 61.3215 45.5304 60.7437 44.2043 60.2333C37.1869 57.5196 33.6149 56.1371 24.3946 57.8734L29.887 83.6657C31.7321 83.3902 33.5853 83.2552 35.4278 83.2552V83.2525Z" fill="black"/>
<path d="M74.2405 57.5521L68.5813 84.122C61.7978 83.0419 55.0601 83.8763 49.0674 86.3038V61.6402C59.6864 57.8005 62.6827 55.3028 74.2378 57.5521H74.2405Z" fill="#FFF9EB"/>
<path d="M48.6665 86.9032V61.354L48.9328 61.2568C50.6946 60.6195 52.2707 60.0093 53.6613 59.4719C60.6949 56.7501 64.5708 55.2542 74.3184 57.1525L74.7218 57.2308L68.8986 84.5811L68.5193 84.5217C61.9564 83.4767 55.2832 84.2219 49.2206 86.6791L48.6665 86.9032ZM49.4734 61.9237V85.7071C55.4043 83.4173 61.8811 82.7098 68.2692 83.6603L73.7616 57.868C64.5412 56.1318 60.9693 57.5143 53.9518 60.228C52.6285 60.741 51.1357 61.3189 49.4734 61.921V61.9237Z" fill="black"/>
<path d="M23.2109 58.6833L29.5721 85.1048C36.3556 84.0247 43.0934 84.8591 49.0861 87.2866V61.6374C38.467 57.7977 34.766 56.4314 23.2109 58.6806V58.6833Z" fill="#FFF9EB"/>
<path d="M49.4893 87.8887L48.9352 87.6646C42.8726 85.2075 36.1994 84.4622 29.6365 85.5072L29.268 85.5666L22.7212 58.3702L23.1354 58.2892C34.7523 56.0264 38.6578 57.4386 49.0912 61.2135L49.4893 61.3566V87.8914V87.8887ZM35.4274 84.2381C39.9704 84.2381 44.4622 85.0643 48.6824 86.6953V61.9263C38.3458 58.1893 34.7281 56.9067 23.7029 59.0047L29.8785 84.6512C31.7264 84.3758 33.5823 84.2381 35.4301 84.2381H35.4274Z" fill="black"/>
<path d="M74.8804 58.6833L68.5838 85.1048C61.8003 84.0247 55.0625 84.8591 49.0698 87.2866V61.6374C59.6888 57.7977 63.3227 56.4314 74.8804 58.6806V58.6833Z" fill="#FAEFD4"/>
<path d="M48.6665 87.8887V61.3538L49.1776 61.1675C59.5142 57.4304 63.382 56.0317 74.9558 58.2837L75.3701 58.3647L68.8878 85.5638L68.5193 85.5044C61.9564 84.4594 55.2832 85.2047 49.2206 87.6618L48.6665 87.886V87.8887ZM49.4734 61.9236V86.6925C55.4069 84.4 61.8892 83.6953 68.2773 84.6484L74.3883 59.0019C63.3658 56.9039 59.7966 58.1892 49.4734 61.9236Z" fill="black"/>
<path d="M75.2893 60.0094C63.8822 57.7899 60.9262 57.8358 50.4444 61.6269H47.6175C37.1356 57.8358 34.1769 57.7899 22.7725 60.0094C22.7725 60.0094 22.5923 60.7223 22.4282 60.752L28.0874 87.322C34.8709 86.2419 41.6086 87.0762 47.6013 89.5037H50.4659C56.4559 87.0762 63.1963 86.2419 69.9798 87.322L75.639 60.752C75.4749 60.7196 75.2947 60.0094 75.2947 60.0094H75.2893Z" fill="#4A47C7"/>
<path d="M47.518 89.9113L47.4453 89.8816C41.3827 87.4244 34.7095 86.6792 28.1466 87.7242L27.77 87.7836L21.9468 60.4333L22.2211 60.3793C22.2695 60.2739 22.3368 60.0795 22.3798 59.9094L22.4417 59.661L22.6945 59.6124C33.838 57.4441 36.9742 57.3523 47.6874 61.2217H50.3717C61.0849 57.3523 64.2238 57.4441 75.3646 59.6124L75.6148 59.661L75.6766 59.9094C75.7197 60.0795 75.7869 60.2739 75.8353 60.3793L76.1097 60.4333L70.2864 87.7836L69.9072 87.7242C63.3443 86.6792 56.6711 87.4244 50.6084 89.8816L50.5358 89.9113H47.5153H47.518ZM47.6767 89.1013H50.3852C56.4478 86.6603 63.0995 85.888 69.6624 86.8655L75.1952 60.8815C75.1226 60.7681 75.0446 60.6007 74.9692 60.3603C64.0221 58.2353 61.1495 58.1867 50.5816 62.0075L50.5143 62.0318H47.5475L47.4803 62.0075C36.9124 58.1867 34.0425 58.2353 23.0926 60.3603C23.0173 60.6007 22.942 60.7654 22.8667 60.8815L28.3994 86.8655C34.9596 85.888 41.614 86.6603 47.6767 89.1013Z" fill="black"/>
<path d="M50.4632 62.3906H47.5986V89.5033H50.4632V62.3906Z" fill="#444444"/>
<path d="M50.8639 89.9111H47.1924V61.9856H50.8639V89.9111ZM47.9993 89.101H50.0569V62.7957H47.9993V89.101Z" fill="black"/>
<path d="M22.4258 60.7519L28.085 87.3218C34.8684 86.2417 41.6062 87.0761 47.5989 89.5036V62.3909C36.9799 58.5512 33.9835 58.5026 22.4285 60.7519H22.4258Z" fill="#353535"/>
<path d="M47.9994 90.1056L47.4453 89.8815C41.3827 87.4243 34.7095 86.6791 28.1466 87.724L27.77 87.7834L21.9468 60.4331L22.3502 60.3548C34.7956 57.9327 37.8215 58.4242 47.7358 62.01L48.0021 62.1073V90.1056H47.9994ZM33.9402 86.4522C38.4832 86.4522 42.975 87.2785 47.1952 88.9094V62.6743C36.7564 58.9183 33.7816 58.9669 22.907 61.0704L28.3994 86.8627C30.2446 86.5873 32.0951 86.4522 33.9402 86.4522Z" fill="black"/>
<path d="M75.6311 60.7516L69.9719 87.3216C63.1885 86.2415 56.4507 87.0758 50.458 89.5033V62.3906C61.077 58.551 64.0734 58.5023 75.6284 60.7516H75.6311Z" fill="#353535"/>
<path d="M50.0571 90.1056V62.1072L50.3234 62.01C61.2302 58.065 64.396 58.1541 75.709 60.3548L76.1125 60.4331L70.2892 87.7834L69.91 87.724C63.347 86.679 56.6738 87.4243 50.6112 89.8815L50.0571 90.1056ZM50.864 62.6769V88.9121C56.7949 86.6196 63.2717 85.9149 69.6598 86.8653L75.1522 61.073C64.2804 58.9696 61.3055 58.921 50.864 62.6769Z" fill="black"/>
<path d="M53.376 64.4619C58.352 62.7446 61.1439 62.1694 64.194 62.1694C66.4184 62.1694 68.9145 62.4935 72.1556 63.0767L68.7692 74.2933C67.5831 74.188 66.3915 74.134 65.2081 74.134C61.5366 74.134 57.2895 74.8955 53.8171 75.881L53.376 64.4646V64.4619Z" fill="#EE7C48"/>
<path d="M53.4353 76.4103L52.9619 64.1784L53.2443 64.0812C58.1934 62.3719 61.058 61.7671 64.1942 61.7671C66.2545 61.7671 68.6564 62.0398 72.2257 62.6798L72.6722 62.7608L69.0599 74.728L68.7344 74.6983C67.5644 74.593 66.3782 74.5417 65.2082 74.5417C61.9133 74.5417 57.8007 75.1736 53.9275 76.2726L53.4353 76.413V76.4103ZM53.7903 64.7481L54.2019 75.3545C57.9998 74.3203 61.9832 73.729 65.2109 73.729C66.2949 73.729 67.395 73.7749 68.4816 73.8613L71.6393 63.3953C68.3659 62.8202 66.12 62.5745 64.1969 62.5745C61.2194 62.5745 58.4732 63.1442 53.793 64.7454L53.7903 64.7481Z" fill="black"/>
<path d="M64.6274 68.1555V70.3616H60.2271V68.1555H60.9613V69.6298H63.8931V68.1555H64.6274Z" fill="white"/>
<path d="M63.5247 67.972V69.2573H61.3271V67.972L62.4246 66.8704L63.522 67.972H63.5247Z" fill="white"/>
<path d="M62.8923 65.8577L62.8009 65.9496L62.4324 66.3168L62.2495 66.5004L62.0666 66.684V66.6894L61.8837 66.873L61.7008 67.0566H61.6954L60.9665 67.7938H60.0493L60.1219 67.7209L60.1408 67.702L60.1542 67.6885L60.1596 67.6831L60.9665 66.873L61.1494 66.6894L61.3323 66.5004L61.5152 66.3168L61.7035 66.1332L62.0693 65.7659L62.2522 65.5823L62.3248 65.504L62.3625 65.4716L62.4351 65.3933L62.895 65.855L62.8923 65.8577Z" fill="white"/>
<path d="M64.8155 67.7883H63.8983L62.4297 66.314L62.6126 66.1304H63.164L64.4443 67.4157L64.6326 67.6047L64.7052 67.6776L64.7106 67.683L64.7213 67.6938L64.7267 67.6992L64.7402 67.7127L64.7455 67.7181L64.8182 67.791L64.8155 67.7883Z" fill="white"/>
<path d="M82.6965 75.4247C82.0348 77.9764 80.1251 80.0663 77.8765 81.4299C75.6279 82.7935 73.0538 83.5091 70.4878 84.068C69.5545 84.2705 68.3468 84.3434 67.8788 83.5064C67.5695 82.9528 67.7739 82.2265 68.1881 81.7431C68.6024 81.2598 69.1806 80.9655 69.7347 80.655C73.3201 78.6541 76.3407 75.6542 78.4118 72.1034C79.3505 70.4941 79.6975 67.5509 81.6045 69.522C82.9789 70.9451 83.1672 73.6182 82.6992 75.422L82.6965 75.4247Z" fill="#EE7C48"/>
<path d="M69.396 84.8753C68.1722 84.8753 67.5805 84.3488 67.2954 83.8384C66.8058 82.9663 67.1367 81.9375 67.68 81.3057C68.1372 80.7737 68.737 80.4416 69.2669 80.1473L69.4095 80.069C72.8819 78.1329 75.7949 75.2599 77.831 71.7659C78.0354 71.4175 78.2183 70.9693 78.3958 70.5373C78.8289 69.4869 79.2754 68.4014 80.2248 68.2178C80.8166 68.1044 81.4271 68.3771 82.0834 69.0549C83.6139 70.6399 83.8775 73.5453 83.3449 75.5974C82.6886 78.1275 80.8704 80.4038 78.221 82.0104C75.8083 83.4739 73.0272 84.2057 70.6279 84.7295C70.1572 84.8321 69.7484 84.8753 69.3906 84.8753H69.396ZM80.4804 69.5409C80.2437 69.5868 79.8375 70.5751 79.6412 71.0476C79.4448 71.5228 79.2431 72.0143 78.993 72.4436C76.8331 76.1456 73.7453 79.1887 70.0631 81.2436L69.9151 81.3246C69.4418 81.5865 68.9953 81.8322 68.6967 82.1805C68.4654 82.4505 68.3067 82.888 68.4654 83.1715C68.7559 83.6872 69.8775 83.5063 70.3455 83.4037C72.6371 82.9042 75.2838 82.2102 77.5297 80.8493C79.8402 79.4479 81.489 77.4066 82.0458 75.2518C82.4708 73.6074 82.2932 71.2042 81.1205 69.9918C80.6982 69.5544 80.5046 69.5409 80.4804 69.5409Z" fill="#0A0A0A"/>
<path d="M16.5455 75.4247C17.2072 77.9764 19.1169 80.0663 21.3655 81.4299C23.6141 82.7935 26.1882 83.5091 28.7542 84.068C29.6875 84.2705 30.8952 84.3434 31.3632 83.5064C31.6725 82.9528 31.4681 82.2265 31.0539 81.7431C30.6397 81.2598 30.0614 80.9655 29.5073 80.655C25.9219 78.6541 22.9014 75.6542 20.8303 72.1034C19.8916 70.4941 19.5446 67.5509 17.6376 69.522C16.2631 70.9451 16.0748 73.6182 16.5429 75.422L16.5455 75.4247Z" fill="#EE7C48"/>
<path d="M29.8491 84.8755C29.4941 84.8755 29.0825 84.8296 28.6118 84.7296C26.2126 84.2058 23.4314 83.4741 21.0187 82.0105C18.3721 80.4039 16.5511 78.1277 15.8948 75.5976C15.3623 73.5454 15.6259 70.64 17.1563 69.055C17.8126 68.3772 18.4205 68.1018 19.0149 68.2179C19.9644 68.4015 20.4109 69.487 20.8439 70.5374C21.0214 70.9694 21.207 71.4177 21.4088 71.766C23.4476 75.26 26.3578 78.1304 29.8303 80.0691L29.9755 80.1501C30.5054 80.4444 31.1052 80.7766 31.5625 81.3085C32.1058 81.943 32.4366 82.9718 31.9471 83.844C31.662 84.3516 31.0702 84.8809 29.8464 84.8809L29.8491 84.8755ZM18.7621 69.541C18.7406 69.541 18.5469 69.5572 18.1246 69.992C16.9519 71.2043 16.7717 73.6075 17.1993 75.2519C17.7588 77.4067 19.4049 79.4481 21.7154 80.8495C23.9613 82.2104 26.6053 82.9043 28.8969 83.4038C29.365 83.5065 30.4866 83.6874 30.7771 83.1716C30.9358 82.8881 30.7771 82.4507 30.5457 82.1807C30.2472 81.8323 29.8007 81.5866 29.33 81.3247L29.1821 81.2437C25.4998 79.1888 22.412 76.1457 20.2522 72.4437C20.002 72.0144 19.8003 71.523 19.604 71.0477C19.4076 70.5725 19.0015 69.5842 18.7648 69.5383L18.7621 69.541Z" fill="#0A0A0A"/>
</g>
<defs>
<linearGradient id="paint0_linear_3033_9055" x1="60.7405" y1="39.0422" x2="60.7405" y2="58.0246" gradientUnits="userSpaceOnUse">
<stop stop-color="white"/>
<stop offset="0.43" stop-color="white"/>
<stop offset="1" stop-color="white" stop-opacity="0"/>
</linearGradient>
<linearGradient id="paint1_linear_3033_9055" x1="37.1894" y1="39.1018" x2="37.1894" y2="57.9924" gradientUnits="userSpaceOnUse">
<stop stop-color="white"/>
<stop offset="0.43" stop-color="white"/>
<stop offset="1" stop-color="white" stop-opacity="0"/>
</linearGradient>
<clipPath id="clip0_3033_9055">
<rect width="98" height="102" fill="white" transform="translate(0.870117)"/>
</clipPath>
</defs>
</svg>
