<svg width="128" height="105" viewBox="0 0 128 105" fill="none" xmlns="http://www.w3.org/2000/svg">
<rect x="0.333984" width="127.333" height="105" rx="10" fill="#F3F4F5"/>
<g opacity="0.3" clip-path="url(#clip0_68_14093)">
<path d="M75.334 59.5C75.334 60.0304 75.1233 60.5391 74.7482 60.9142C74.3731 61.2893 73.8644 61.5 73.334 61.5H55.334C54.8036 61.5 54.2948 61.2893 53.9198 60.9142C53.5447 60.5391 53.334 60.0304 53.334 59.5V48.5C53.334 47.9696 53.5447 47.4609 53.9198 47.0858C54.2948 46.7107 54.8036 46.5 55.334 46.5H59.334L61.334 43.5H67.334L69.334 46.5H73.334C73.8644 46.5 74.3731 46.7107 74.7482 47.0858C75.1233 47.4609 75.334 47.9696 75.334 48.5V59.5Z" stroke="#101828" stroke-width="2" stroke-linecap="round" stroke-linejoin="round"/>
<path d="M64.334 57.5C66.5431 57.5 68.334 55.7091 68.334 53.5C68.334 51.2909 66.5431 49.5 64.334 49.5C62.1248 49.5 60.334 51.2909 60.334 53.5C60.334 55.7091 62.1248 57.5 64.334 57.5Z" stroke="#101828" stroke-width="2" stroke-linecap="round" stroke-linejoin="round"/>
</g>
<defs>
<clipPath id="clip0_68_14093">
<rect width="24" height="24" fill="white" transform="translate(52.334 40.5)"/>
</clipPath>
</defs>
</svg>
