<svg xmlns="http://www.w3.org/2000/svg" width="710" height="910" version="1.0"><defs><linearGradient id="a"><stop style="stop-color:#403800;stop-opacity:1" offset="0"/><stop offset=".5" style="stop-color:#c8af00;stop-opacity:1"/><stop style="stop-color:#403900;stop-opacity:1" offset="1"/></linearGradient><linearGradient id="b"><stop style="stop-color:#5d070b;stop-opacity:1" offset="0"/><stop offset=".5" style="stop-color:#ed1c24;stop-opacity:1"/><stop style="stop-color:#5d070a;stop-opacity:1" offset="1"/></linearGradient></defs><g style="display:inline"><g style="stroke:#000;stroke-width:2.03333497;stroke-opacity:1"><g style="stroke:#000;stroke-width:2.03333497;stroke-opacity:1"><path d="M2417.103 230.144c20.676 40.491 45.406 92.369 64.518 86.024 4.122-1.736 5.463-11.816-.705-44.423l-37.37-73.684c-5.172-8.376-19.862-2.033-20.802 6.699l-5.64 25.384z" style="fill:#eac102;fill-rule:evenodd;stroke:#000;stroke-width:2.03333497;stroke-linecap:butt;stroke-linejoin:miter;stroke-opacity:1" transform="matrix(.50701 0 0 .47656 -1144.205 86.371)"/><path style="fill:#eac102;fill-rule:evenodd;stroke:#000;stroke-width:2.03333497;stroke-linecap:butt;stroke-linejoin:miter;stroke-opacity:1" d="m2448.75 274.906 6.813-19.969c-13.815-17.774-35.164-50.18-58.032-90.468-4.728-8.337-20.926-3.418-17.062 5.844 30.869 58.46 52.805 89.216 68.281 104.593z" transform="matrix(.50701 0 0 .47656 -1144.205 86.371)"/></g><g style="stroke:#000;stroke-width:2.03333497;stroke-opacity:1"><path style="fill:#eac102;fill-rule:evenodd;stroke:#000;stroke-width:2.03333497;stroke-linecap:butt;stroke-linejoin:miter;stroke-opacity:1" d="M3496.761 230.144c-20.675 40.491-45.405 92.369-64.518 86.024-4.122-1.736-5.463-11.816.706-44.423l37.37-73.684c5.171-8.376 19.861-2.033 20.801 6.699l5.641 25.384z" transform="matrix(.50701 0 0 .47656 -1144.205 86.371)"/><path style="fill:#eac102;fill-rule:evenodd;stroke:#000;stroke-width:2.03333497;stroke-linecap:butt;stroke-linejoin:miter;stroke-opacity:1" d="m3458.094 255.188 6.812 19.968c15.488-15.3 37.482-46.1 68.5-104.844 3.864-9.26-12.335-14.18-17.062-5.843-22.975 40.476-44.443 73-58.25 90.719z" transform="matrix(.50701 0 0 .47656 -1144.205 86.371)"/></g></g><g style="stroke:#000;stroke-width:.79835069;stroke-opacity:1"><g style="stroke:#000;stroke-width:2.10129023;stroke-opacity:1"><path style="fill:#eac102;fill-rule:evenodd;stroke:#000;stroke-width:2.10129023;stroke-linecap:round;stroke-linejoin:round;stroke-miterlimit:4;stroke-dasharray:none;stroke-opacity:1" d="m2259.22-21.284 13.513-10.7c38.725-10.031 73.254 26.828 73.025 42.667 9.68-8.806 19.36-5.788 29.039-5.28-5.725 18.92-.138 33.015-6.864 53.325 8.969 2.784 15.989 6.738 17.95 13.727l8.976-5.808 11.088-.528c2.121 52.754-15.08 41.16-11.616 60.717l18.48-22.703 20.062 2.112c9.82 1.864 12.627 13.462 23.23 14.783-7.483 10.116-12.038 27.91-19.006 40.126-8.556 6.212-16.076 5.173-23.23 1.583 23.333 8.588 29.448 28.738 38.54 39.598-9.559.528-18.141 1.584-22.174 2.112 14.738 21.028 23.153 37.859 37.486 49.629l-8.448 1.584-43.821-21.647-36.958-38.014-45.405-70.22-1.584-110.872c-23.15-11.794-19.606-39.16-72.283-36.19z" transform="matrix(.50701 0 0 .44624 -1144.219 93.026)"/><path style="fill:#eac102;fill-rule:evenodd;stroke:#000;stroke-width:2.10129023;stroke-linecap:butt;stroke-linejoin:round;stroke-opacity:1" d="M2257.836-20.617c63.056 6.588 63.012 95.73 75.586 148.407l40.318 68.267c25.497 24.638 41.98 55.29 57.75 58.903 15.277 3.5 14.219-3.019 29.759.658-30.425-13.526-16.494-44.747-79.72-63.685 20.445-11.326 20.444 19.878 61.393 10.996-11.231-28.088-35.37-29.443-46.274-39.86 16.707-5.397 18.54 5.342 30.697.458 13.499-5.423 10.385-26.335 21.075-40.318-13.993-6.174-25.367-24.565-42.609-15.578-5.991 4.969-14.814 21.736-24.74 25.657-4.177-22.38 9.867-24.388 12.828-35.736 2.934-11.245-1.755-14.662.916-30.697-45.422 16.762-28.28 47.084-49.031 60.368-.213-32.214 8.898-18.514 25.665-53.954-6.33-9.421-10.793-7.643-16.036-10.538 8.33-18.001.796-28.962 9.622-54.063-16.68-5.572-22.356 3.466-27.032 9.163-1.695-15.592-38.161-65.956-80.167-38.448z" transform="matrix(.50701 0 0 .44624 -1144.219 93.026)"/><path style="fill:none;fill-rule:evenodd;stroke:#000;stroke-width:2.10129023;stroke-linecap:butt;stroke-linejoin:miter;stroke-miterlimit:4;stroke-dasharray:none;stroke-opacity:1" d="M2348.03 39.813c-13.443 30.095-12.093 60.189-11.112 90.283m32.64-15.973c-2.704 15.12-12.25 23.4-22.223 31.251m69.448-9.028c-23.958 1.777-25.712 17.052-61.114 22.223m6.945 9.723c17.158 3.444 34.118 7.087 45.835 15.973m-36.807 5.556c23.369 28.197 42.978 30.734 50.002 45.14" transform="matrix(.50701 0 0 .44624 -1144.219 93.026)"/><g style="stroke:#000;stroke-width:1.89199293;stroke-opacity:1"><path style="display:inline;overflow:visible;visibility:visible;opacity:1;fill:#e3e4e5;fill-opacity:1;fill-rule:nonzero;stroke:#000;stroke-width:1.89199293;stroke-linecap:butt;stroke-linejoin:miter;stroke-miterlimit:4;stroke-dasharray:none;stroke-dashoffset:0;stroke-opacity:1;marker:none;marker-start:none;marker-mid:none;marker-end:none;enable-background:accumulate" d="M2069.063 730.688c.223.008.43.093.656.093 12.758 0 23.094-12.766 23.094-28.5s-10.336-28.5-23.094-28.5c-.226 0-.433.086-.656.094v56.812z" transform="matrix(-.47042 .2724 .3095 .41403 804.875 -689.182)"/><path style="display:inline;overflow:visible;visibility:visible;fill:#eac102;fill-opacity:1;fill-rule:nonzero;stroke:#000;stroke-width:1.89199293;stroke-linecap:butt;stroke-linejoin:miter;stroke-miterlimit:4;stroke-dashoffset:0;stroke-opacity:1;marker:none;marker-start:none;marker-mid:none;marker-end:none;enable-background:accumulate" d="M2066.286 668.732h6.95v66.529h-6.95c-2.458-25.69-2.862-50.125 0-66.53z" transform="matrix(-.47042 .2724 .3095 .41403 804.875 -689.182)"/></g></g><g style="stroke:#000;stroke-width:2.10129023;stroke-opacity:1"><path d="m2259.22-21.284 13.513-10.7c38.725-10.031 73.254 26.828 73.025 42.667 9.68-8.806 19.36-5.788 29.039-5.28-5.725 18.92-.138 33.015-6.864 53.325 8.969 2.784 15.989 6.738 17.95 13.727l8.976-5.808 11.088-.528c2.121 52.754-15.08 41.16-11.616 60.717l18.48-22.703 20.062 2.112c9.82 1.864 12.627 13.462 23.23 14.783-7.483 10.116-12.038 27.91-19.006 40.126-8.556 6.212-16.076 5.173-23.23 1.583 23.333 8.588 29.448 28.738 38.54 39.598-9.559.528-18.141 1.584-22.174 2.112 14.738 21.028 23.153 37.859 37.486 49.629l-8.448 1.584-43.821-21.647-36.958-38.014-45.405-70.22-1.584-110.872c-23.15-11.794-19.606-39.16-72.283-36.19z" style="fill:#eac102;fill-rule:evenodd;stroke:#000;stroke-width:2.10129023;stroke-linecap:round;stroke-linejoin:round;stroke-miterlimit:4;stroke-dasharray:none;stroke-opacity:1" transform="matrix(-.50701 0 0 .44624 1854.219 93.026)"/><path d="M2257.836-20.617c63.056 6.588 63.012 95.73 75.586 148.407l40.318 68.267c25.497 24.638 41.98 55.29 57.75 58.903 15.277 3.5 14.219-3.019 29.759.658-30.425-13.526-16.494-44.747-79.72-63.685 20.445-11.326 20.444 19.878 61.393 10.996-11.231-28.088-35.37-29.443-46.274-39.86 16.707-5.397 18.54 5.342 30.697.458 13.499-5.423 10.385-26.335 21.075-40.318-13.993-6.174-25.367-24.565-42.609-15.578-5.991 4.969-14.814 21.736-24.74 25.657-4.177-22.38 9.867-24.388 12.828-35.736 2.934-11.245-1.755-14.662.916-30.697-45.422 16.762-28.28 47.084-49.031 60.368-.213-32.214 8.898-18.514 25.665-53.954-6.33-9.421-10.793-7.643-16.036-10.538 8.33-18.001.796-28.962 9.622-54.063-16.68-5.572-22.356 3.466-27.032 9.163-1.695-15.592-38.161-65.956-80.167-38.448z" style="fill:#eac102;fill-rule:evenodd;stroke:#000;stroke-width:2.10129023;stroke-linecap:butt;stroke-linejoin:round;stroke-opacity:1" transform="matrix(-.50701 0 0 .44624 1854.219 93.026)"/><path d="M2348.03 39.813c-13.443 30.095-12.093 60.189-11.112 90.283m32.64-15.973c-2.704 15.12-12.25 23.4-22.223 31.251m69.448-9.028c-23.958 1.777-25.712 17.052-61.114 22.223m6.945 9.723c17.158 3.444 34.118 7.087 45.835 15.973m-36.807 5.556c23.369 28.197 42.978 30.734 50.002 45.14" style="fill:none;fill-rule:evenodd;stroke:#000;stroke-width:2.10129023;stroke-linecap:butt;stroke-linejoin:miter;stroke-miterlimit:4;stroke-dasharray:none;stroke-opacity:1" transform="matrix(-.50701 0 0 .44624 1854.219 93.026)"/><g style="stroke:#000;stroke-width:1.89199293;stroke-opacity:1"><path d="M2069.063 730.688c.223.008.43.093.656.093 12.758 0 23.094-12.766 23.094-28.5s-10.336-28.5-23.094-28.5c-.226 0-.433.086-.656.094v56.812z" style="display:inline;overflow:visible;visibility:visible;opacity:1;fill:#e3e4e5;fill-opacity:1;fill-rule:nonzero;stroke:#000;stroke-width:1.89199293;stroke-linecap:butt;stroke-linejoin:miter;stroke-miterlimit:4;stroke-dasharray:none;stroke-dashoffset:0;stroke-opacity:1;marker:none;marker-start:none;marker-mid:none;marker-end:none;enable-background:accumulate" transform="matrix(.47042 .2724 -.3095 .41403 -94.875 -689.182)"/><path d="M2066.286 668.732h6.95v66.529h-6.95c-2.458-25.69-2.862-50.125 0-66.53z" style="display:inline;overflow:visible;visibility:visible;fill:#eac102;fill-opacity:1;fill-rule:nonzero;stroke:#000;stroke-width:1.89199293;stroke-linecap:butt;stroke-linejoin:miter;stroke-miterlimit:4;stroke-dashoffset:0;stroke-opacity:1;marker:none;marker-start:none;marker-mid:none;marker-end:none;enable-background:accumulate" transform="matrix(.47042 .2724 -.3095 .41403 -94.875 -689.182)"/></g></g></g><path style="fill:#eac102;fill-rule:evenodd;stroke:#000;stroke-width:.99958098;stroke-linecap:butt;stroke-linejoin:miter;stroke-opacity:1" d="M332.004 77.483c-1.767.022-3.553 1.125-3.612 3.232-1.628 20.86-10.245 53.375-42.229 59.263-31.723 5.84-59.694-38.556-60.879-56.21.018-2.635-2.135-3.658-4.31-3.544-2.465.129-4.967 1.714-4.357 4.05 4.731 24.104-.222 54.805-22.184 60.292-21.87 5.463-45.764-20.18-62.796-52.144-1.578-6.044-10.66-3.676-8.922.76 13.88 33.233 9.19 56.624-.808 61.556-12.142 3.665-37.469-25.592-51.688-51.384-2.418-3.49-11.322-1.678-9.206 2.8 10.348 19.814 20.625 39.624 21.106 59.77-1.187-1.169-2.724-2.912-4.405-4.945l-3.454 9.517c8.343 7.792 12.98 7.29 15.307 5.228 4.652-4.125 4.745-12.655-1.49-31.665 11.477 11.476 29.52 25.554 41.135 17.798 11.616-7.756 12.687-21.738 11.63-38.664 14.21 17.482 35.817 35.517 55.207 31.039 19.645-4.537 28.22-21.69 30.851-43.505 10.825 19.774 33.133 42.38 60.626 38.917 26.412-3.327 41.584-32.517 44.415-42.12 2.831 9.603 18.019 38.793 44.431 42.12 27.493 3.464 49.785-19.143 60.61-38.917 2.632 21.816 11.206 38.968 30.851 43.505 19.39 4.478 40.996-13.557 55.206-31.04-1.056 16.927.015 30.91 11.63 38.665 11.617 7.756 29.659-6.322 41.136-17.798-6.235 19.01-6.143 27.54-1.49 31.665 2.316 2.052 6.925 2.572 15.197-5.109l-3.455-9.517c-1.64 1.978-3.13 3.68-4.294 4.825.48-20.145 10.758-39.955 21.106-59.769 2.117-4.478-6.772-6.29-9.19-2.8-14.22 25.792-39.546 55.05-51.688 51.384-9.998-4.932-14.703-28.323-.825-61.556 1.738-4.436-7.343-6.804-8.92-.76-17.033 31.965-40.911 57.607-62.78 52.144-21.963-5.487-26.932-36.188-22.2-60.291 1.147-4.4-8.69-6.129-8.652-.506-1.185 17.653-29.171 62.05-60.895 56.21-31.984-5.89-40.585-38.404-42.213-59.264.015-2.193-1.734-3.253-3.502-3.232z" transform="matrix(.9999 0 0 .9999 23.09 46.9)"/><g style="stroke:#000;stroke-width:2.03333497;stroke-opacity:1"><g transform="matrix(.50701 0 0 .47932 -1143.79 -555.118)" style="stroke:#000;stroke-width:2.0274775;stroke-opacity:1"><circle r="29.463" cy="1390.381" cx="3168.588" style="display:inline;overflow:visible;visibility:visible;opacity:1;fill:#e3e4e5;fill-opacity:1;fill-rule:evenodd;stroke:#000;stroke-width:2.0274775;stroke-linecap:round;stroke-linejoin:round;stroke-miterlimit:4;stroke-dasharray:none;stroke-dashoffset:0;stroke-opacity:1;marker:none;marker-start:none;marker-mid:none;marker-end:none;enable-background:accumulate" transform="translate(5.774 34.306)"/><path style="fill:#eac102;fill-rule:evenodd;stroke:#000;stroke-width:2.0274775;stroke-linecap:butt;stroke-linejoin:miter;stroke-miterlimit:4;stroke-dasharray:none;stroke-opacity:1" d="M3153.871 1446.208c10.772 4.059 21.975 5.422 35.221 4.384-.746 7.615-7.852 4.525-6.792 11.03 1.06 6.506-27.318 4.333-24.724-2.545 2.594-6.877-5.077-5.295-3.705-12.869z"/></g><g transform="matrix(-.50701 0 0 .47932 1853.79 -555.118)" style="stroke:#000;stroke-width:2.0274775;stroke-opacity:1"><circle r="29.463" cy="1390.381" cx="3168.588" transform="translate(5.774 34.306)" style="display:inline;overflow:visible;visibility:visible;opacity:1;fill:#e3e4e5;fill-opacity:1;fill-rule:evenodd;stroke:#000;stroke-width:2.0274775;stroke-linecap:round;stroke-linejoin:round;stroke-miterlimit:4;stroke-dasharray:none;stroke-dashoffset:0;stroke-opacity:1;marker:none;marker-start:none;marker-mid:none;marker-end:none;enable-background:accumulate"/><path d="M3153.871 1446.208c10.772 4.059 21.975 5.422 35.221 4.384-.746 7.615-7.852 4.525-6.792 11.03 1.06 6.506-27.318 4.333-24.724-2.545 2.594-6.877-5.077-5.295-3.705-12.869z" style="fill:#eac102;fill-rule:evenodd;stroke:#000;stroke-width:2.0274775;stroke-linecap:butt;stroke-linejoin:miter;stroke-miterlimit:4;stroke-dasharray:none;stroke-opacity:1"/></g></g><g style="stroke:#000;stroke-width:2.03333497;stroke-opacity:1"><g style="opacity:1;stroke:#000;stroke-width:2.0419538;stroke-opacity:1" transform="matrix(-.47755 .15983 .16718 .44574 1365.203 -993.732)"><circle r="29.463" cy="1390.381" cx="3168.588" style="display:inline;overflow:visible;visibility:visible;opacity:1;fill:#e3e4e5;fill-opacity:1;fill-rule:evenodd;stroke:#000;stroke-width:2.0419538;stroke-linecap:round;stroke-linejoin:round;stroke-miterlimit:4;stroke-dasharray:none;stroke-dashoffset:0;stroke-opacity:1;marker:none;marker-start:none;marker-mid:none;marker-end:none;enable-background:accumulate" transform="translate(5.774 34.306)"/><path style="fill:#eac102;fill-rule:evenodd;stroke:#000;stroke-width:2.0419538;stroke-linecap:butt;stroke-linejoin:miter;stroke-miterlimit:4;stroke-dasharray:none;stroke-opacity:1" d="M3153.871 1446.208c10.772 4.059 21.975 5.422 35.221 4.384-.746 7.615-7.852 4.525-6.792 11.03 1.06 6.506-27.318 4.333-24.724-2.545 2.594-6.877-5.077-5.295-3.705-12.869z"/></g><g transform="matrix(.47755 .15983 -.16718 .44574 -655.203 -993.732)" style="opacity:1;stroke:#000;stroke-width:2.0419538;stroke-opacity:1"><circle r="29.463" cy="1390.381" cx="3168.588" transform="translate(5.774 34.306)" style="display:inline;overflow:visible;visibility:visible;opacity:1;fill:#e3e4e5;fill-opacity:1;fill-rule:evenodd;stroke:#000;stroke-width:2.0419538;stroke-linecap:round;stroke-linejoin:round;stroke-miterlimit:4;stroke-dasharray:none;stroke-dashoffset:0;stroke-opacity:1;marker:none;marker-start:none;marker-mid:none;marker-end:none;enable-background:accumulate"/><path d="M3153.871 1446.208c10.772 4.059 21.975 5.422 35.221 4.384-.746 7.615-7.852 4.525-6.792 11.03 1.06 6.506-27.318 4.333-24.724-2.545 2.594-6.877-5.077-5.295-3.705-12.869z" style="fill:#eac102;fill-rule:evenodd;stroke:#000;stroke-width:2.0419538;stroke-linecap:butt;stroke-linejoin:miter;stroke-miterlimit:4;stroke-dasharray:none;stroke-opacity:1"/></g></g><g style="display:inline;stroke:#000;stroke-width:1.95320296;stroke-opacity:1"><path d="M2841.494 4.13s28.878-5.15 44.492 18.175c15.341 22.918 52.763 20.519 52.763 20.519l-15.829 51.59-102.009-38.693c-.71 0 6.26-9.734 19.346-8.793 13.088.94 20.5 17.833 40.452 9.966l-39.215-52.763ZM3076.514 4.13s-28.88-5.15-44.492 18.175c-15.342 22.918-52.764 20.519-52.764 20.519l15.83 51.59 102.008-38.693c.71 0-6.259-9.734-19.346-8.793-13.087.94-20.5 17.833-40.452 9.966l39.216-52.763z" style="fill:#eac102;fill-rule:evenodd;stroke:#000;stroke-width:1.95320296;stroke-linecap:butt;stroke-linejoin:miter;stroke-opacity:1" transform="matrix(.50777 0 0 .5157 -1147.5 68.68)"/><path d="M2958.754-131.547c-17.55 18.957-35.44 40.264-36.406 68.266-14.07-14.666-28.149-4.41-42.219-1.782 7.069 9.515-.2 35.592 9.375 53.376-10.242.805-14.866 9.842-21.094 15.218 4.193 15.598 52.046 17.806 60.375 46.313-52.1-5.196-35.6-42.887-87.937-45.719-8.366 43.102 24.965 34.57 27.562 58.031-15.913 2.984-19.887-13.09-33.75-12.437-19.43.914-27.838 22.164-40.125 29.437 18.94 5.16 26.056 23.196 45.063 27.563 10.272 2.36 15.109-15.806 31.156-7.625-15.738 21.825-31.438 15.412-23.469 46.312 59.57 5.258 35.224-35.333 75.063-29.312-60.173 37.023-27.113 51.093-42.219 79.75 30.998-12.638 42.149-3.991 78.875-30.313 36.726 26.322 47.877 17.674 78.875 30.313-15.106-28.657 17.954-42.727-42.219-79.75 39.838-6.021 15.493 34.57 75.063 29.312 7.969-30.9-7.73-24.487-23.469-46.312 16.047-8.18 20.884 9.984 31.156 7.625 19.007-4.367 26.122-22.403 45.063-27.563-12.287-7.273-20.695-28.523-40.125-29.437-13.863-.653-17.837 15.421-33.75 12.437 2.597-23.462 35.928-14.93 27.562-58.031-52.337 2.832-35.836 40.523-87.937 45.719 8.329-28.507 56.182-30.715 60.375-46.313-6.228-5.376-10.852-14.413-21.094-15.219 9.576-17.783 2.306-43.86 9.375-53.374-14.07-2.629-28.148-12.885-42.219 1.78-.967-28-18.856-49.308-36.406-68.265l-.25-.25-.25.25z" style="fill:#eac102;fill-rule:evenodd;stroke:#000;stroke-width:1.95320296;stroke-linecap:butt;stroke-linejoin:miter;stroke-opacity:1" transform="matrix(.50777 0 0 .5157 -1147.5 68.68)"/><path d="M2959.407 53.36c-1.814-3.266 0-157.772 0-157.772m-9.51 213.064c-4.702 18.528-21.422 48.188-41.035 58.707m20.596-75.341c-15.562.789-44.36 16.442-55.877 23.786m53.156-30.846c-55.011 4.998-77.46-17.22-94.48-10.296m96.758-5.716s-13.507-3.94-29.346-8.27c-10.178-2.784-16.34-15.242-22.838-22.088m75.034 11.418s-.815-10.302-13.14-39.172c-11.945-27.98-27.474-42.901-27.474-42.901m56.86 140.72c4.702 18.527 21.421 48.187 41.035 58.706m-20.596-75.341c15.562.789 44.36 16.442 55.877 23.786m-53.156-30.846c55.011 4.998 77.46-17.22 94.48-10.296m-96.758-5.716s13.507-3.94 29.346-8.27c10.178-2.784 16.34-15.242 22.838-22.088m-75.034 11.418s.815-10.302 13.14-39.172c11.945-27.98 27.474-42.901 27.474-42.901" style="fill:none;fill-rule:evenodd;stroke:#000;stroke-width:1.95320296;stroke-linecap:round;stroke-linejoin:miter;stroke-miterlimit:4;stroke-dasharray:none;stroke-opacity:1" transform="matrix(.50777 0 0 .5157 -1147.5 68.68)"/><g style="stroke:#000;stroke-width:1.95320296;stroke-opacity:1" transform="matrix(.50777 0 0 .5157 -1147.5 68.68)"><circle r="27.554" cy="81.517" cx="2962.368" transform="matrix(1.31145 0 0 1.2234 -925.15 -19.09)" style="display:inline;overflow:visible;visibility:visible;fill:#eac102;fill-opacity:1;fill-rule:evenodd;stroke:#000;stroke-width:1.54200613;stroke-linecap:round;stroke-linejoin:round;stroke-miterlimit:4;stroke-dasharray:none;stroke-dashoffset:0;stroke-opacity:1;marker:none;marker-start:none;marker-mid:none;marker-end:none;enable-background:accumulate"/><circle r="27.554" cy="81.517" cx="2962.368" style="display:inline;overflow:visible;visibility:visible;fill:#e3e4e5;fill-opacity:1;fill-rule:evenodd;stroke:#000;stroke-width:1.9399718;stroke-linecap:round;stroke-linejoin:round;stroke-miterlimit:4;stroke-dasharray:none;stroke-dashoffset:0;stroke-opacity:1;marker:none;marker-start:none;marker-mid:none;marker-end:none;enable-background:accumulate" transform="matrix(1.04255 0 0 .97231 -128.572 1.378)"/></g></g><path d="M331.716 147.858c-73.112.722-147.064.79-218.867 15.278-16.023 4.783-38.932 7.455-44.947 24.4-1.973 14.152 16.144 20.15 27.46 24.04 53.911 15.307 110.875 16.603 166.733 18.996 86.901 1.649 174.363 2.318 260.62-9.112 23.565-4.306 49.513-6.964 68.891-21.47 11.571-10.72-1.237-25.711-14.028-28.794-43.88-15.926-91.738-17.635-138.147-20.877-35.868-1.852-71.798-2.438-107.715-2.461z" style="fill:#eac102;fill-rule:evenodd;stroke:#000;stroke-width:.99958098;stroke-linecap:butt;stroke-linejoin:miter;stroke-opacity:1" transform="matrix(.9999 0 0 .9999 23.09 46.9)"/><path d="M331.941 165.255c-39.85 0-73.457.735-101.781 2.01-5.665.256-11.134.54-16.385.835-62.986 3.54-96.758 9.799-114.858 15.515-1.508.477-2.939.937-4.237 1.404-6.472 2.33-10.453 4.56-12.874 6.373a18.62 18.62 0 0 0-1.251 1.024c-.379.337-.694.648-.969.948-1.618 1.77-1.574 2.845-1.574 2.845l13.762 47H572.109l13.762-47s.044-1.075-1.574-2.845c-.275-.3-.59-.61-.969-.948-2.214-1.982-6.356-4.6-14.125-7.397-.01-.004-.03.004-.04 0-16.881-6.07-50.82-13.084-119.055-16.919h-.04c-5.251-.295-10.68-.579-16.345-.834-28.325-1.277-61.93-2.01-101.782-2.01z" style="fill:#eac102;fill-opacity:1;fill-rule:evenodd;stroke:#000;stroke-width:.99958098;stroke-linecap:butt;stroke-linejoin:miter;stroke-opacity:1" transform="matrix(.9999 0 0 .9999 23.09 46.9)"/><g transform="matrix(.53472 0 0 .5026 -497.86 -118.208)" style="stroke:#000;stroke-width:1.9279623;stroke-opacity:1"><circle r="23.066" cy="707.071" cx="1773.282" style="display:inline;overflow:visible;visibility:visible;opacity:1;fill:#eac102;fill-opacity:1;fill-rule:evenodd;stroke:#000;stroke-width:1.38720655;stroke-linecap:round;stroke-linejoin:round;stroke-miterlimit:4;stroke-dasharray:none;stroke-dashoffset:0;stroke-opacity:1;marker:none;marker-start:none;marker-mid:none;marker-end:none;enable-background:accumulate" transform="matrix(1.33459 0 0 1.44733 -589.588 -320.197)"/><circle r="23.066" cy="707.071" cx="1773.282" transform="matrix(1.30451 0 0 1.44733 -532.96 -320.197)" style="display:inline;overflow:visible;visibility:visible;opacity:1;fill:#eac102;fill-opacity:1;fill-rule:evenodd;stroke:#000;stroke-width:1.40310633;stroke-linecap:round;stroke-linejoin:round;stroke-miterlimit:4;stroke-dasharray:none;stroke-dashoffset:0;stroke-opacity:1;marker:none;marker-start:none;marker-mid:none;marker-end:none;enable-background:accumulate"/><circle r="23.066" cy="707.071" cx="1773.282" style="display:inline;overflow:visible;visibility:visible;opacity:1;fill:#e3e4e5;fill-opacity:1;fill-rule:evenodd;stroke:#000;stroke-width:1.60394275;stroke-linecap:round;stroke-linejoin:round;stroke-miterlimit:4;stroke-dasharray:none;stroke-dashoffset:0;stroke-opacity:1;marker:none;marker-start:none;marker-mid:none;marker-end:none;enable-background:accumulate" transform="matrix(1.15414 0 0 1.25188 -265.608 -181.999)"/></g><g transform="matrix(-.53472 0 0 .5026 1207.86 -118.208)" style="stroke:#000;stroke-width:1.9279623;stroke-opacity:1"><circle r="23.066" cy="707.071" cx="1773.282" transform="matrix(1.33459 0 0 1.44733 -589.588 -320.197)" style="display:inline;overflow:visible;visibility:visible;opacity:1;fill:#eac102;fill-opacity:1;fill-rule:evenodd;stroke:#000;stroke-width:1.38720655;stroke-linecap:round;stroke-linejoin:round;stroke-miterlimit:4;stroke-dasharray:none;stroke-dashoffset:0;stroke-opacity:1;marker:none;marker-start:none;marker-mid:none;marker-end:none;enable-background:accumulate"/><circle r="23.066" cy="707.071" cx="1773.282" style="display:inline;overflow:visible;visibility:visible;opacity:1;fill:#eac102;fill-opacity:1;fill-rule:evenodd;stroke:#000;stroke-width:1.40310633;stroke-linecap:round;stroke-linejoin:round;stroke-miterlimit:4;stroke-dasharray:none;stroke-dashoffset:0;stroke-opacity:1;marker:none;marker-start:none;marker-mid:none;marker-end:none;enable-background:accumulate" transform="matrix(1.30451 0 0 1.44733 -532.96 -320.197)"/><circle r="23.066" cy="707.071" cx="1773.282" transform="matrix(1.15414 0 0 1.25188 -265.608 -181.999)" style="display:inline;overflow:visible;visibility:visible;opacity:1;fill:#e3e4e5;fill-opacity:1;fill-rule:evenodd;stroke:#000;stroke-width:1.60394275;stroke-linecap:round;stroke-linejoin:round;stroke-miterlimit:4;stroke-dasharray:none;stroke-dashoffset:0;stroke-opacity:1;marker:none;marker-start:none;marker-mid:none;marker-end:none;enable-background:accumulate"/></g><g style="stroke:#000;stroke-width:1.94645655;stroke-opacity:1"><path d="m1880.996 701.453 50.396-34.397h3.228l-48.065 34.397h-5.56zM1880.996 701.453l50.396 34.398h3.228l-48.065-34.398h-5.56z" style="fill:none;fill-rule:evenodd;stroke:#000;stroke-width:1.94645655;stroke-linecap:round;stroke-linejoin:round;stroke-opacity:1" transform="matrix(-.52311 .09418 0 .50405 1189.79 -293.643)"/><path d="m1934.694 735.732 45.26-33.397-45.157-35.103" style="display:inline;overflow:visible;visibility:visible;fill:none;fill-opacity:1;fill-rule:evenodd;stroke:#000;stroke-width:1.94645655;stroke-linecap:round;stroke-linejoin:round;stroke-miterlimit:4;stroke-dasharray:none;stroke-dashoffset:0;stroke-opacity:1;marker:none;marker-start:none;marker-mid:none;marker-end:none;enable-background:accumulate" transform="matrix(-.52311 .09418 0 .50405 1189.79 -293.643)"/><g style="stroke:#000;stroke-width:1.94645655;stroke-opacity:1"><path style="fill:#008f4c;fill-rule:evenodd;stroke:#000;stroke-width:1.94645655;stroke-linecap:round;stroke-linejoin:round;stroke-opacity:1" d="m1897.048 701.806 36.161 26.636 35.632-26.812-35.808-26.107-35.985 26.283z" transform="matrix(-.52311 .09418 0 .50405 1188.744 -293.455)"/><path d="m1921.365 701.89 19.128 14.028 18.849-14.121-18.942-13.75-19.035 13.843zM1933.033 728.266l7.497-12.348M1968.312 701.63l-9.04.132M1921.39 701.806h-23.637M1940.485 688.18l-7.452-12.657" style="fill:none;fill-rule:evenodd;stroke:#000;stroke-width:1.94645655;stroke-linecap:round;stroke-linejoin:round;stroke-miterlimit:4;stroke-dasharray:none;stroke-opacity:1" transform="matrix(-.52311 .09418 0 .50405 1188.744 -293.455)"/></g></g><g style="stroke:#000;stroke-width:1.94645655;stroke-opacity:1"><path style="fill:none;fill-rule:evenodd;stroke:#000;stroke-width:1.94645655;stroke-linecap:round;stroke-linejoin:round;stroke-opacity:1" d="m1880.996 701.453 50.396-34.397h3.228l-48.065 34.397h-5.56zM1880.996 701.453l50.396 34.398h3.228l-48.065-34.398h-5.56z" transform="matrix(.52311 .09418 0 .50405 -479.79 -293.643)"/><path style="display:inline;overflow:visible;visibility:visible;fill:none;fill-opacity:1;fill-rule:evenodd;stroke:#000;stroke-width:1.94645655;stroke-linecap:round;stroke-linejoin:round;stroke-miterlimit:4;stroke-dasharray:none;stroke-dashoffset:0;stroke-opacity:1;marker:none;marker-start:none;marker-mid:none;marker-end:none;enable-background:accumulate" d="m1934.694 735.732 45.26-33.397-45.157-35.103" transform="matrix(.52311 .09418 0 .50405 -479.79 -293.643)"/><g style="stroke:#000;stroke-width:1.94645655;stroke-opacity:1"><path d="m1897.048 701.806 36.161 26.636 35.632-26.812-35.808-26.107-35.985 26.283z" style="fill:#008f4c;fill-rule:evenodd;stroke:#000;stroke-width:1.94645655;stroke-linecap:round;stroke-linejoin:round;stroke-opacity:1" transform="matrix(.52311 .09418 0 .50405 -478.744 -293.455)"/><path style="fill:none;fill-rule:evenodd;stroke:#000;stroke-width:1.94645655;stroke-linecap:round;stroke-linejoin:round;stroke-miterlimit:4;stroke-dasharray:none;stroke-opacity:1" d="m1921.365 701.89 19.128 14.028 18.849-14.121-18.942-13.75-19.035 13.843zM1933.033 728.266l7.497-12.348M1968.312 701.63l-9.04.132M1921.39 701.806h-23.637M1940.485 688.18l-7.452-12.657" transform="matrix(.52311 .09418 0 .50405 -478.744 -293.455)"/></g></g><g transform="matrix(.53472 0 0 .5026 -498.11 -120.1)" style="stroke:#000;stroke-width:1.9279623;stroke-opacity:1"><rect style="display:inline;overflow:visible;visibility:visible;opacity:1;fill:#eac102;fill-opacity:1;fill-rule:nonzero;stroke:#000;stroke-width:1.9279623;stroke-linecap:butt;stroke-linejoin:miter;stroke-miterlimit:4;stroke-dasharray:none;stroke-dashoffset:0;stroke-opacity:1;marker:none;marker-start:none;marker-mid:none;marker-end:none;enable-background:accumulate" width="127.299" height="67.836" x="1531.773" y="669.169" ry="33.918" rx="32.551"/><rect rx="29.29" ry="29.29" y="673.797" x="1538.15" height="58.579" width="114.544" style="display:inline;overflow:visible;visibility:visible;opacity:1;fill:#ed1c24;fill-opacity:1;fill-rule:nonzero;stroke:#000;stroke-width:1.9279623;stroke-linecap:butt;stroke-linejoin:miter;stroke-miterlimit:4;stroke-dasharray:none;stroke-dashoffset:0;stroke-opacity:1;marker:none;marker-start:none;marker-mid:none;marker-end:none;enable-background:accumulate"/></g><path style="fill:#eac102;fill-opacity:1;fill-rule:evenodd;stroke:#000;stroke-width:.99958098;stroke-linecap:butt;stroke-linejoin:miter;stroke-opacity:1" d="m76.684 161.37-3.486 7.245a56.474 56.474 0 0 0 2.652 2.472l2.308-8.597c-.384-.51-.966-1.201-1.474-1.12zm510.584-.022c-.63.01-.663.029-1.741 1.353l2.699 8.237a34.51 34.51 0 0 0 2.088-1.96l-3.046-7.63z" transform="matrix(.9999 0 0 .9999 23.09 46.9)"/><g style="stroke:#000;stroke-width:.79835069;stroke-opacity:1"><g style="stroke:#000;stroke-width:2.03333497;stroke-opacity:1"><path style="fill:#eac102;fill-rule:evenodd;stroke:#000;stroke-width:2.03333497;stroke-linecap:butt;stroke-linejoin:miter;stroke-opacity:1" d="m2485.233-95.278 11.52-4.942c34.563-5.265 51.21 33.927 54.428 56.04 13.283-4.463 30.967-9.576 50.873-4.77-4.993 21.105-1.248 24.198-9.142 52.065 19.665 3.835 20.27 10.421 25.834 14.308-24 19.994-59.525 25.641-61.206 50.872l38.552-6.756c18.415-15.235 18.265-45.167 55.244-45.706 3.84 43.714-20.93 30.607-30.205 62.001 29.278 2.385 90.045-2.076 87.835 7.154-27.16 17.734-25.226 23.34-39.347 32.988l-9.141.795c-9.232-4.17-14.687-18.918-28.616-9.936 0 0 7.697 5.73 29.41 14.705 21.037 8.696 17.09 31.795 17.09 31.795-30.985 4.79-43.31-3.592-56.834-11.128 36.392 26.298 26.453 43.16 46.899 64.386l-5.167-.398c-41.173 2.097-62.115-15.727-89.027-25.039 3.505 11.09-14.967 30.073-20.27 41.334h-3.974l-23.052-54.052c-2.888 7.312-7.28 5.602-11.128 7.154l-24.642-66.373c-16.182-5.513-13.597-17.282-14.705-27.82 3.78.466 3.842-1.299 12.32 1.986l-11.128-27.82-1.987-19.475c4.462 3.016 12.749.93 11.526 11.526 3.02 12.11 7.547 21.206 11.526 31.398l13.115-43.719-24.641-75.514 13.91-5.564c-5.251-17.168 21.44-36.617-15.87-51.495z" transform="matrix(.50701 0 0 .47656 -1145.848 80.368)"/><path style="fill:#eac102;fill-rule:evenodd;stroke:#000;stroke-width:2.03333497;stroke-linecap:round;stroke-linejoin:round;stroke-opacity:1" d="M2483.464-94.74c35.63-12.751 57.505 21.597 59.308 50.034 17.087-4.869 34.218-9.218 52.216-3.165-10.992 24.11-.948 37.544-13.186 55.381 21.613 1.835 16.767 6.632 28.482 11.076-33.123 28.566-62.148 22.564-64.347 53.799 53.509-16.48 32.025-29.108 56.963-43.777 11.482-6.978 25.28-11.64 43.25-12.131 3.893 46.68-25.426 32.156-33.229 61.71 26.957-3.66 30.53-19.008 46.752-21.425 16.223-2.417 31.334 15.412 48.714 26.172-31.156 12.186-34.468 37.355-49.906 35.169-14.215-1.735-15.949-12.717-32.902-5.105 15.024 13.4 40.8 11.435 47.997 40.612-37.247 12.563-63.258-16.926-100.213-17.933 90.783 25.053 57.734 52.674 90.192 72.787-24.847-2.768-45.19 4.394-91.247-22.153 1.294 12.655-15.446 22.542-23.207 38.503-4.803-25.18-29.578-37.667-24.79-77.006-9.42 1.128 5.443 28.681-10.02 29.537-13.066-11.267-14.008-26.456-14.241-36.92-7.56-9.143 2.847 16.595-29.01-24.263-2.817-4.24 1.736-30.704 5.275-32.7 2.6 6.578 5.058 13.442 11.076 13.185-2.102-9.734-4.318-19.391-10.549-26.372-3.305-2.083-2.755-20.071-1.055-31.646 11.325 13.9 3.374 35.375 22.153 39.03-1.119-35.233-31.164-24.405-14.241-58.018-2.285-18.108-2.798-75.551 9.494-53.27-1.063-30.3 12.947-51.708-9.729-61.11z" transform="matrix(.50701 0 0 .47656 -1145.848 80.368)"/><path style="fill:none;fill-rule:evenodd;stroke:#000;stroke-width:2.03333497;stroke-linecap:round;stroke-linejoin:round;stroke-miterlimit:4;stroke-dasharray:none;stroke-opacity:1" d="M2515.242 74.655c-15.628-89.021 10.802-115.664-7.005-158.61m58.444 70.377c-33.827 29.411-41.893 58.822-44.513 88.233m32.59 27.82c43.182 2.934 63.327-17.898 108.104-19.077m-111.283 7.95c34.863-4.958 43.855-24.441 54.847-39.745m-50.078 59.616c28.658.681 53.223 8.826 65.975 18.283m-78.693 5.564c28.69 32.747 46.906 30.587 69.95 44.513m-75.515-45.308c-4.251 25.578 5.818 42.191 8.744 54.847m-31.795-59.616c-3.143 4.54-5.335 10.032-6.36 16.692m-3.974-32.59c-13.095 5.147-11.494-1.485-26.23 1.59m26.23-21.462c-5.299-.841-10.598-3.465-15.897-12.718m21.462-3.18c-3.918-22.834-8.42-46.546-20.667-81.873" transform="matrix(.50701 0 0 .47656 -1145.848 80.368)"/><g transform="matrix(-.37925 .2419 .24406 .4209 639.074 -596.024)" style="stroke:#000;stroke-width:2.13741565;stroke-opacity:1"><circle r="23.066" cy="707.071" cx="1773.282" style="display:inline;overflow:visible;visibility:visible;opacity:1;fill:#eac102;fill-opacity:1;fill-rule:evenodd;stroke:#000;stroke-width:1.53791237;stroke-linecap:round;stroke-linejoin:round;stroke-miterlimit:4;stroke-dasharray:none;stroke-dashoffset:0;stroke-opacity:1;marker:none;marker-start:none;marker-mid:none;marker-end:none;enable-background:accumulate" transform="matrix(1.33459 0 0 1.44733 -589.588 -320.197)"/><circle r="23.066" cy="707.071" cx="1773.282" transform="matrix(1.30451 0 0 1.44733 -532.96 -320.197)" style="display:inline;overflow:visible;visibility:visible;opacity:1;fill:#eac102;fill-opacity:1;fill-rule:evenodd;stroke:#000;stroke-width:1.55553949;stroke-linecap:round;stroke-linejoin:round;stroke-miterlimit:4;stroke-dasharray:none;stroke-dashoffset:0;stroke-opacity:1;marker:none;marker-start:none;marker-mid:none;marker-end:none;enable-background:accumulate"/><circle r="23.066" cy="707.071" cx="1773.282" style="display:inline;overflow:visible;visibility:visible;opacity:1;fill:#e3e4e5;fill-opacity:1;fill-rule:evenodd;stroke:#000;stroke-width:1.77819467;stroke-linecap:round;stroke-linejoin:round;stroke-miterlimit:4;stroke-dasharray:none;stroke-dashoffset:0;stroke-opacity:1;marker:none;marker-start:none;marker-mid:none;marker-end:none;enable-background:accumulate" transform="matrix(1.15414 0 0 1.25188 -265.608 -181.999)"/></g></g><g style="stroke:#000;stroke-width:2.03333497;stroke-opacity:1"><path d="m2485.233-95.278 11.52-4.942c34.563-5.265 51.21 33.927 54.428 56.04 13.283-4.463 30.967-9.576 50.873-4.77-4.993 21.105-1.248 24.198-9.142 52.065 19.665 3.835 20.27 10.421 25.834 14.308-24 19.994-59.525 25.641-61.206 50.872l38.552-6.756c18.415-15.235 18.265-45.167 55.244-45.706 3.84 43.714-20.93 30.607-30.205 62.001 29.278 2.385 90.045-2.076 87.835 7.154-27.16 17.734-25.226 23.34-39.347 32.988l-9.141.795c-9.232-4.17-14.687-18.918-28.616-9.936 0 0 7.697 5.73 29.41 14.705 21.037 8.696 17.09 31.795 17.09 31.795-30.985 4.79-43.31-3.592-56.834-11.128 36.392 26.298 26.453 43.16 46.899 64.386l-5.167-.398c-41.173 2.097-62.115-15.727-89.027-25.039 3.505 11.09-14.967 30.073-20.27 41.334h-3.974l-23.052-54.052c-2.888 7.312-7.28 5.602-11.128 7.154l-24.642-66.373c-16.182-5.513-13.597-17.282-14.705-27.82 3.78.466 3.842-1.299 12.32 1.986l-11.128-27.82-1.987-19.475c4.462 3.016 12.749.93 11.526 11.526 3.02 12.11 7.547 21.206 11.526 31.398l13.115-43.719-24.641-75.514 13.91-5.564c-5.251-17.168 21.44-36.617-15.87-51.495z" style="fill:#eac102;fill-rule:evenodd;stroke:#000;stroke-width:2.03333497;stroke-linecap:butt;stroke-linejoin:miter;stroke-opacity:1" transform="matrix(-.50701 0 0 .47656 1855.848 80.368)"/><path d="M2483.464-94.74c35.63-12.751 57.505 21.597 59.308 50.034 17.087-4.869 34.218-9.218 52.216-3.165-10.992 24.11-.948 37.544-13.186 55.381 21.613 1.835 16.767 6.632 28.482 11.076-33.123 28.566-62.148 22.564-64.347 53.799 53.509-16.48 32.025-29.108 56.963-43.777 11.482-6.978 25.28-11.64 43.25-12.131 3.893 46.68-25.426 32.156-33.229 61.71 26.957-3.66 30.53-19.008 46.752-21.425 16.223-2.417 31.334 15.412 48.714 26.172-31.156 12.186-34.468 37.355-49.906 35.169-14.215-1.735-15.949-12.717-32.902-5.105 15.024 13.4 40.8 11.435 47.997 40.612-37.247 12.563-63.258-16.926-100.213-17.933 90.783 25.053 57.734 52.674 90.192 72.787-24.847-2.768-45.19 4.394-91.247-22.153 1.294 12.655-15.446 22.542-23.207 38.503-4.803-25.18-29.578-37.667-24.79-77.006-9.42 1.128 5.443 28.681-10.02 29.537-13.066-11.267-14.008-26.456-14.241-36.92-7.56-9.143 2.847 16.595-29.01-24.263-2.817-4.24 1.736-30.704 5.275-32.7 2.6 6.578 5.058 13.442 11.076 13.185-2.102-9.734-4.318-19.391-10.549-26.372-3.305-2.083-2.755-20.071-1.055-31.646 11.325 13.9 3.374 35.375 22.153 39.03-1.119-35.233-31.164-24.405-14.241-58.018-2.285-18.108-2.798-75.551 9.494-53.27-1.063-30.3 12.947-51.708-9.729-61.11z" style="fill:#eac102;fill-rule:evenodd;stroke:#000;stroke-width:2.03333497;stroke-linecap:round;stroke-linejoin:round;stroke-opacity:1" transform="matrix(-.50701 0 0 .47656 1855.848 80.368)"/><path d="M2515.242 74.655c-15.628-89.021 10.802-115.664-7.005-158.61m58.444 70.377c-33.827 29.411-41.893 58.822-44.513 88.233m32.59 27.82c43.182 2.934 63.327-17.898 108.104-19.077m-111.283 7.95c34.863-4.958 43.855-24.441 54.847-39.745m-50.078 59.616c28.658.681 53.223 8.826 65.975 18.283m-78.693 5.564c28.69 32.747 46.906 30.587 69.95 44.513m-75.515-45.308c-4.251 25.578 5.818 42.191 8.744 54.847m-31.795-59.616c-3.143 4.54-5.335 10.032-6.36 16.692m-3.974-32.59c-13.095 5.147-11.494-1.485-26.23 1.59m26.23-21.462c-5.299-.841-10.598-3.465-15.897-12.718m21.462-3.18c-3.918-22.834-8.42-46.546-20.667-81.873" style="fill:none;fill-rule:evenodd;stroke:#000;stroke-width:2.03333497;stroke-linecap:round;stroke-linejoin:round;stroke-miterlimit:4;stroke-dasharray:none;stroke-opacity:1" transform="matrix(-.50701 0 0 .47656 1855.848 80.368)"/><g transform="matrix(.37925 .2419 -.24406 .4209 70.926 -596.024)" style="stroke:#000;stroke-width:2.13741565;stroke-opacity:1"><circle r="23.066" cy="707.071" cx="1773.282" transform="matrix(1.33459 0 0 1.44733 -589.588 -320.197)" style="display:inline;overflow:visible;visibility:visible;opacity:1;fill:#eac102;fill-opacity:1;fill-rule:evenodd;stroke:#000;stroke-width:1.53791237;stroke-linecap:round;stroke-linejoin:round;stroke-miterlimit:4;stroke-dasharray:none;stroke-dashoffset:0;stroke-opacity:1;marker:none;marker-start:none;marker-mid:none;marker-end:none;enable-background:accumulate"/><circle r="23.066" cy="707.071" cx="1773.282" style="display:inline;overflow:visible;visibility:visible;opacity:1;fill:#eac102;fill-opacity:1;fill-rule:evenodd;stroke:#000;stroke-width:1.55553949;stroke-linecap:round;stroke-linejoin:round;stroke-miterlimit:4;stroke-dasharray:none;stroke-dashoffset:0;stroke-opacity:1;marker:none;marker-start:none;marker-mid:none;marker-end:none;enable-background:accumulate" transform="matrix(1.30451 0 0 1.44733 -532.96 -320.197)"/><circle r="23.066" cy="707.071" cx="1773.282" transform="matrix(1.15414 0 0 1.25188 -265.608 -181.999)" style="display:inline;overflow:visible;visibility:visible;opacity:1;fill:#e3e4e5;fill-opacity:1;fill-rule:evenodd;stroke:#000;stroke-width:1.77819467;stroke-linecap:round;stroke-linejoin:round;stroke-miterlimit:4;stroke-dasharray:none;stroke-dashoffset:0;stroke-opacity:1;marker:none;marker-start:none;marker-mid:none;marker-end:none;enable-background:accumulate"/></g></g></g><path style="fill:none;fill-rule:evenodd;stroke:#000;stroke-width:.99958098;stroke-linecap:butt;stroke-linejoin:miter;stroke-miterlimit:4;stroke-dasharray:none;stroke-opacity:1" d="M217.393 96.85c3.839.414 8.388.065 12.04-1.25M446.647 96.85c-3.839.414-8.388.065-12.04-1.25M597.498 117.965c-3.745-.891-7.868-2.733-10.787-5.179M66.251 117.965c3.746-.891 7.869-2.733 10.788-5.179" transform="matrix(.9999 0 0 .9999 23.09 46.9)"/><g style="stroke:#000;stroke-width:.79835069;stroke-opacity:1"><g style="stroke:#000;stroke-width:.79835069;stroke-opacity:1"><g style="stroke:#000;stroke-width:1.69625068;stroke-opacity:1"><path d="M2069.063 730.688c.223.008.43.093.656.093 12.758 0 23.094-12.766 23.094-28.5s-10.336-28.5-23.094-28.5c-.226 0-.433.086-.656.094v56.812z" style="display:inline;overflow:visible;visibility:visible;opacity:1;fill:#ed1c24;fill-opacity:1;fill-rule:nonzero;stroke:#000;stroke-width:1.69625068;stroke-linecap:butt;stroke-linejoin:miter;stroke-miterlimit:4;stroke-dasharray:none;stroke-dashoffset:0;stroke-opacity:1;marker:none;marker-start:none;marker-mid:none;marker-end:none;enable-background:accumulate" transform="matrix(-.57901 .17363 .18473 .54424 1177.061 -475.34)"/><path d="M2066.286 668.732h6.95v66.529h-6.95c-2.458-25.69-2.862-50.125 0-66.53z" style="display:inline;overflow:visible;visibility:visible;fill:#eac102;fill-opacity:1;fill-rule:nonzero;stroke:#000;stroke-width:1.69625068;stroke-linecap:butt;stroke-linejoin:miter;stroke-miterlimit:4;stroke-dashoffset:0;stroke-opacity:1;marker:none;marker-start:none;marker-mid:none;marker-end:none;enable-background:accumulate" transform="matrix(-.57901 .17363 .18473 .54424 1177.061 -475.34)"/></g><g transform="matrix(-.58706 .14785 .1573 .5518 1212.304 -436.075)" style="stroke:#000;stroke-width:1.69625092;stroke-opacity:1"><path d="M2030.156 670.594c-6.01 1.755-10.687 15.383-10.687 31.906 0 16.522 4.678 30.119 10.687 31.875l.25.063c.352.083.703.125 1.063.125l10.843-.024v-18.352c.739-4.16 1.157-8.779 1.157-13.687 0-4.908-.418-9.558-1.157-13.719v-18.178l-12.156-.01z" style="display:inline;overflow:visible;visibility:visible;opacity:1;fill:#eac102;fill-opacity:1;fill-rule:evenodd;stroke:#000;stroke-width:1.69625092;stroke-linecap:round;stroke-linejoin:round;stroke-miterlimit:4;stroke-dasharray:none;stroke-dashoffset:0;stroke-opacity:1;marker:none;marker-start:none;marker-mid:none;marker-end:none;enable-background:accumulate"/><ellipse ry="32.089" rx="6.069" cy="702.486" cx="2042.31" transform="matrix(1.97872 0 0 .9941 -1999.373 4.335)" style="display:inline;overflow:visible;visibility:visible;opacity:1;fill:#eac102;fill-opacity:1;fill-rule:evenodd;stroke:#000;stroke-width:1.20943546;stroke-linecap:round;stroke-linejoin:round;stroke-miterlimit:4;stroke-dasharray:none;stroke-dashoffset:0;stroke-opacity:1;marker:none;marker-start:none;marker-mid:none;marker-end:none;enable-background:accumulate"/><path d="M2042.955 674.4c25.153 7.781 23.558 49.664 0 57.98-16.346-3.472-14.067-57.719 0-57.98z" style="display:inline;overflow:visible;visibility:visible;fill:#e3e4e5;fill-opacity:1;fill-rule:evenodd;stroke:#000;stroke-width:1.69625092;stroke-linecap:round;stroke-linejoin:round;stroke-miterlimit:4;stroke-dashoffset:0;stroke-opacity:1;marker:none;marker-start:none;marker-mid:none;marker-end:none;enable-background:accumulate"/></g></g><g style="stroke:#000;stroke-width:.79835069;stroke-opacity:1"><g style="stroke:#000;stroke-width:1.69625068;stroke-opacity:1"><path style="display:inline;overflow:visible;visibility:visible;opacity:1;fill:#ed1c24;fill-opacity:1;fill-rule:nonzero;stroke:#000;stroke-width:1.69625068;stroke-linecap:butt;stroke-linejoin:miter;stroke-miterlimit:4;stroke-dasharray:none;stroke-dashoffset:0;stroke-opacity:1;marker:none;marker-start:none;marker-mid:none;marker-end:none;enable-background:accumulate" d="M2069.063 730.688c.223.008.43.093.656.093 12.758 0 23.094-12.766 23.094-28.5s-10.336-28.5-23.094-28.5c-.226 0-.433.086-.656.094v56.812z" transform="matrix(.57901 .17363 -.18473 .54424 -467.061 -475.34)"/><path style="display:inline;overflow:visible;visibility:visible;fill:#eac102;fill-opacity:1;fill-rule:nonzero;stroke:#000;stroke-width:1.69625068;stroke-linecap:butt;stroke-linejoin:miter;stroke-miterlimit:4;stroke-dashoffset:0;stroke-opacity:1;marker:none;marker-start:none;marker-mid:none;marker-end:none;enable-background:accumulate" d="M2066.286 668.732h6.95v66.529h-6.95c-2.458-25.69-2.862-50.125 0-66.53z" transform="matrix(.57901 .17363 -.18473 .54424 -467.061 -475.34)"/></g><g transform="matrix(.58706 .14785 -.1573 .5518 -502.304 -436.075)" style="stroke:#000;stroke-width:1.69625092;stroke-opacity:1"><path style="display:inline;overflow:visible;visibility:visible;opacity:1;fill:#eac102;fill-opacity:1;fill-rule:evenodd;stroke:#000;stroke-width:1.69625092;stroke-linecap:round;stroke-linejoin:round;stroke-miterlimit:4;stroke-dasharray:none;stroke-dashoffset:0;stroke-opacity:1;marker:none;marker-start:none;marker-mid:none;marker-end:none;enable-background:accumulate" d="M2030.156 670.594c-6.01 1.755-10.687 15.383-10.687 31.906 0 16.522 4.678 30.119 10.687 31.875l.25.063c.352.083.703.125 1.063.125l10.843-.024v-18.352c.739-4.16 1.157-8.779 1.157-13.687 0-4.908-.418-9.558-1.157-13.719v-18.178l-12.156-.01z"/><ellipse ry="32.089" rx="6.069" cy="702.486" cx="2042.31" style="display:inline;overflow:visible;visibility:visible;opacity:1;fill:#eac102;fill-opacity:1;fill-rule:evenodd;stroke:#000;stroke-width:1.20943546;stroke-linecap:round;stroke-linejoin:round;stroke-miterlimit:4;stroke-dasharray:none;stroke-dashoffset:0;stroke-opacity:1;marker:none;marker-start:none;marker-mid:none;marker-end:none;enable-background:accumulate" transform="matrix(1.97872 0 0 .9941 -1999.373 4.335)"/><path style="display:inline;overflow:visible;visibility:visible;fill:#e3e4e5;fill-opacity:1;fill-rule:evenodd;stroke:#000;stroke-width:1.69625092;stroke-linecap:round;stroke-linejoin:round;stroke-miterlimit:4;stroke-dashoffset:0;stroke-opacity:1;marker:none;marker-start:none;marker-mid:none;marker-end:none;enable-background:accumulate" d="M2042.955 674.4c25.153 7.781 23.558 49.664 0 57.98-16.346-3.472-14.067-57.719 0-57.98z"/></g></g></g><path d="M-518.584 630.117s37.062-17.868 171.525-17.868c134.018 0 171.525 17.868 171.525 17.868s-31.348 17.868-171.525 17.868c-140.623 0-171.525-17.868-171.525-17.868z" style="display:inline;fill:#eac102;fill-rule:evenodd;stroke:#000;stroke-width:1.00009286px;stroke-linecap:butt;stroke-linejoin:miter;stroke-opacity:1" transform="matrix(1.29085 0 0 1.2935 803 -521.056)"/><path d="M-390.717 650.838v-41.34" style="font-size:12px;display:inline;fill:none;stroke:#000;stroke-width:.52012992" transform="matrix(1.29085 0 0 1.2935 803 -521.056)"/><path d="M-398.598 650.838v-41.34" style="font-size:12px;display:inline;fill:none;stroke:#000;stroke-width:.76574874" transform="matrix(1.29085 0 0 1.2935 803 -521.056)"/><path d="M-406.039 650.838v-41.34" style="font-size:12px;display:inline;fill:none;stroke:#000;stroke-width:1.02581608" transform="matrix(1.29085 0 0 1.2935 803 -521.056)"/><path d="M-413.415 650.838v-41.34" style="font-size:12px;display:inline;fill:none;stroke:#000;stroke-width:1.28588295" transform="matrix(1.29085 0 0 1.2935 803 -521.056)"/><path d="M-419.987 650.838v-41.34" style="font-size:12px;display:inline;fill:none;stroke:#000;stroke-width:1.54594588" transform="matrix(1.29085 0 0 1.2935 803 -521.056)"/><path d="m-432.522 648.609-.173-37.627m6.116 38.122v-39.358" style="font-size:12px;display:inline;fill:none;stroke:#000;stroke-width:1.80601287" transform="matrix(1.29085 0 0 1.2935 803 -521.056)"/><path d="M-444.094 646.917V612.25m5.863 35.657-.174-36.893" style="font-size:12px;display:inline;fill:none;stroke:#000;stroke-width:2.05163217" transform="matrix(1.29085 0 0 1.2935 803 -521.056)"/><path d="M-459.62 644.937V614.48m5.094 30.953V613.49m5.248 32.933V613.24" style="font-size:12px;display:inline;fill:none;stroke:#000;stroke-width:2.31169891" transform="matrix(1.29085 0 0 1.2935 803 -521.056)"/><path d="M-465.061 644.688v-29.465" style="font-size:12px;display:inline;fill:none;stroke:#000;stroke-width:2.5717659" transform="matrix(1.29085 0 0 1.2935 803 -521.056)"/><path d="M-470.136 643.203v-27.485" style="font-size:12px;display:inline;fill:none;stroke:#000;stroke-width:2.83182883" transform="matrix(1.29085 0 0 1.2935 803 -521.056)"/><path d="M-475.577 642.459v-25.505" style="font-size:12px;display:inline;fill:none;stroke:#000;stroke-width:3.09189606" transform="matrix(1.29085 0 0 1.2935 803 -521.056)"/><path d="m-486.718 640.233-.173-20.306m5.882 21.296v-22.78" style="font-size:12px;display:inline;fill:none;stroke:#000;stroke-width:3.33751535" transform="matrix(1.29085 0 0 1.2935 803 -521.056)"/><path d="M-492.427 638.5v-17.832" style="font-size:12px;display:inline;fill:none;stroke:#000;stroke-width:3.52534127" transform="matrix(1.29085 0 0 1.2935 803 -521.056)"/><path d="M-497.655 637.053v-14.849" style="font-size:12px;display:inline;fill:none;stroke:#000;stroke-width:3.78540492" transform="matrix(1.29085 0 0 1.2935 803 -521.056)"/><path d="M-503.364 635.073v-11.63" style="font-size:12px;display:inline;fill:none;stroke:#000;stroke-width:4.03102303" transform="matrix(1.29085 0 0 1.2935 803 -521.056)"/><path d="M-509.232 634.084v-8.66" style="font-size:12px;display:inline;fill:none;stroke:#000;stroke-width:4.27665854" transform="matrix(1.29085 0 0 1.2935 803 -521.056)"/><path d="M-515.443 632.106v-4.209" style="font-size:12px;display:inline;fill:none;stroke:#000;stroke-width:5.04239035" transform="matrix(1.29085 0 0 1.2935 803 -521.056)"/><path d="M-359.358 648.609v-37.873m-13.353 39.112.174-40.102m-9.906 40.597v-40.846" style="font-size:12px;display:inline;fill:none;stroke:#000;stroke-width:.26006579" transform="matrix(1.29085 0 0 1.2935 803 -521.056)"/><path style="font-size:12px;display:inline;fill:none;stroke:#000;stroke-width:.52012992" d="M-303.401 650.838v-41.34" transform="matrix(1.29085 0 0 1.2935 803 -521.056)"/><path style="font-size:12px;display:inline;fill:none;stroke:#000;stroke-width:.76574874" d="M-295.52 650.838v-41.34" transform="matrix(1.29085 0 0 1.2935 803 -521.056)"/><path style="font-size:12px;display:inline;fill:none;stroke:#000;stroke-width:1.02581608" d="M-288.08 650.838v-41.34" transform="matrix(1.29085 0 0 1.2935 803 -521.056)"/><path style="font-size:12px;display:inline;fill:none;stroke:#000;stroke-width:1.28588295" d="M-280.703 650.838v-41.34" transform="matrix(1.29085 0 0 1.2935 803 -521.056)"/><path style="font-size:12px;display:inline;fill:none;stroke:#000;stroke-width:1.54594588" d="M-274.13 650.838v-41.34" transform="matrix(1.29085 0 0 1.2935 803 -521.056)"/><path style="font-size:12px;display:inline;fill:none;stroke:#000;stroke-width:1.80601287" d="m-261.596 648.609.173-37.627m-6.116 38.122v-39.358" transform="matrix(1.29085 0 0 1.2935 803 -521.056)"/><path style="font-size:12px;display:inline;fill:none;stroke:#000;stroke-width:2.05163217" d="M-250.024 646.917V612.25m-5.863 35.657.174-36.893" transform="matrix(1.29085 0 0 1.2935 803 -521.056)"/><path style="font-size:12px;display:inline;fill:none;stroke:#000;stroke-width:2.31169891" d="M-234.498 644.937V614.48m-5.094 30.953V613.49m-5.248 32.933V613.24" transform="matrix(1.29085 0 0 1.2935 803 -521.056)"/><path style="font-size:12px;display:inline;fill:none;stroke:#000;stroke-width:2.5717659" d="M-229.057 644.688v-29.465" transform="matrix(1.29085 0 0 1.2935 803 -521.056)"/><path style="font-size:12px;display:inline;fill:none;stroke:#000;stroke-width:2.83182883" d="M-223.982 643.203v-27.485" transform="matrix(1.29085 0 0 1.2935 803 -521.056)"/><path style="font-size:12px;display:inline;fill:none;stroke:#000;stroke-width:3.09189606" d="M-218.541 642.459v-25.505" transform="matrix(1.29085 0 0 1.2935 803 -521.056)"/><path style="font-size:12px;display:inline;fill:none;stroke:#000;stroke-width:3.33751535" d="m-207.4 640.233.173-20.306m-5.882 21.296v-22.78" transform="matrix(1.29085 0 0 1.2935 803 -521.056)"/><path style="font-size:12px;display:inline;fill:none;stroke:#000;stroke-width:3.52534127" d="M-201.691 638.5v-17.832" transform="matrix(1.29085 0 0 1.2935 803 -521.056)"/><path style="font-size:12px;display:inline;fill:none;stroke:#000;stroke-width:3.78540492" d="M-196.463 637.053v-14.849" transform="matrix(1.29085 0 0 1.2935 803 -521.056)"/><path style="font-size:12px;display:inline;fill:none;stroke:#000;stroke-width:4.03102303" d="M-190.754 635.073v-11.63" transform="matrix(1.29085 0 0 1.2935 803 -521.056)"/><path style="font-size:12px;display:inline;fill:none;stroke:#000;stroke-width:4.27665854" d="M-184.886 634.084v-8.66" transform="matrix(1.29085 0 0 1.2935 803 -521.056)"/><path style="font-size:12px;display:inline;fill:none;stroke:#000;stroke-width:5.04239035" d="M-178.675 632.106v-4.209" transform="matrix(1.29085 0 0 1.2935 803 -521.056)"/><path style="font-size:12px;display:inline;fill:none;stroke:#000;stroke-width:.26006579" d="M-334.76 648.609v-37.873m13.353 39.112-.174-40.102m9.906 40.597v-40.846" transform="matrix(1.29085 0 0 1.2935 803 -521.056)"/><path d="M-347.212 599.983c-52.175.52-104.944.576-156.185 11.012-11.435 3.445-27.791 5.364-32.084 17.569-1.408 10.194 11.509 14.521 19.585 17.323 38.472 11.026 79.14 11.965 119.003 13.689 62.016 1.188 124.408 1.648 185.964-6.585 16.817-3.101 35.333-5.016 49.162-15.465 8.258-7.722-.865-18.518-9.993-20.739-31.314-11.47-65.465-12.692-98.584-15.028-25.596-1.333-51.237-1.759-76.868-1.776zm.144 12.269c134.017 0 171.535 17.87 171.535 17.87s-31.358 17.869-171.535 17.869c-140.623 0-171.507-17.87-171.507-17.87s37.043-17.87 171.507-17.87z" style="display:inline;fill:#eac102;fill-rule:evenodd;stroke:#000;stroke-width:1.00009286px;stroke-linecap:butt;stroke-linejoin:miter;stroke-opacity:1" transform="matrix(1.29085 0 0 1.2935 803 -521.056)"/></g><g style="display:inline"><path transform="translate(81.595 -164.398)" d="M521.905 920.128c0 64.414-55.629 116.162-124.25 116.162h-61.876c-27.18 0-50.965 15.258-62.374 36.608-11.41-21.35-35.196-36.608-62.376-36.608h-62.375c-68.62 0-123.75-51.748-123.75-116.162v-444.23h497z" style="display:inline;opacity:1;fill:#e7e7e7;stroke:#000;stroke-width:1;stroke-linecap:round;stroke-linejoin:round;stroke-miterlimit:4;stroke-dasharray:none;stroke-dashoffset:0;stroke-opacity:1"/><path style="opacity:1;fill:#0071bc;fill-opacity:1;stroke:#000;stroke-width:1;stroke-linecap:round;stroke-linejoin:round;stroke-miterlimit:4;stroke-dasharray:none;stroke-opacity:1" d="M106.5 311.5v280.195h497V311.5h-497z"/><path style="display:inline;opacity:1;fill:#eac102;stroke:#000;stroke-width:1;stroke-linecap:round;stroke-linejoin:round;stroke-miterlimit:4;stroke-dasharray:none;stroke-dashoffset:0;stroke-opacity:1" d="M106.5 591.695V755.73c0 64.414 55.129 116.163 123.75 116.163h62.375c27.18 0 50.966 15.256 62.375 36.607 11.41-21.35 35.195-36.607 62.375-36.607h61.875c68.621 0 124.25-51.749 124.25-116.163V591.695h-497z"/></g><g style="display:inline"><path style="display:inline;opacity:1;fill:#ed1c24;stroke:#000;stroke-width:.99999994;stroke-miterlimit:4;stroke-dasharray:none" d="M164.81 591.695v262.77c15.928 9.286 34.295 15.264 54.04 16.937V591.695h-54.04zm108.79 0v280.198h19.025a71.869 71.869 0 0 1 35.016 9.09V591.694H273.6zm108.757 0v289.29a71.868 71.868 0 0 1 35.018-9.092h19.053V591.695h-54.07zm108.795 0v279.666c19.72-1.744 38.094-7.778 54.037-17.105v-262.56h-54.037z"/></g><g style="display:inline"><path style="display:inline;opacity:1;fill:#b27246;fill-opacity:1;stroke:#000;stroke-width:1;stroke-linecap:round;stroke-linejoin:round;stroke-miterlimit:4;stroke-dasharray:none;stroke-opacity:1" d="M267.148 541.145v.003c-6.06-.003-12.126.345-16.515 4.547-5.539-1.975-11.532-.665-17.373 0-5.858.668-11.478 4.662-17.266 5.79-4.568.89-9.311 5.232-13.861 4.251-2.126-.458-4.183-1.197-6.295-1.716-2.112-.52-4.331 5.184-6.46 5.632-2.387.503-4.51-2.094-6.89-1.558-1.9.428-3.884.285-5.808-.014-1.925-.299-3.825 3.249-5.764 3.066-3.861-.362-7.728 4.35-11.574 4.846-3.847.497-7.84.77-11.531-.424-2.17-.7-4.15 6.12-6.213 5.149-2.064-.97-4.31-1.747-6.58-1.547-2.167.19-4.161 1.251-5.973 2.457-1.812 1.206-3.521-1.417-5.475-.459-3.409 1.673-7.372 1.958-11.129 1.41-2.023-.295-4 .325-5.941.744v18.373h497V572.94c-.93-.024-1.86-.12-2.78-.263-1.924-.3-3.83-.752-5.769-.934-3.86-.363-7.726-1.655-11.572-1.158-3.846.497-7.84-1.23-11.531-2.422-2.17-.701-4.147 2.12-6.211 1.149-1.806-.85-3.751-1.55-5.73-1.579a8.244 8.244 0 0 0-.85.03c-2.167.19-4.16-2.747-5.971-1.541-1.812 1.205-3.525-1.418-5.479-.46-3.409 1.674-7.372-.045-11.128-.593-3.757-.548-7.35-1.881-10.864-3.322-2.415-.991-4.817-2.041-7.336-2.725-2.519-.683-5.187-.993-7.746-.476-2.645.533-5.031-2.087-7.396-.786-2.365 1.302-4.834-3.43-7.518-3.15-2.15.225-4.316-.199-6.414-.725s-4.184-1.159-6.338-1.359c-3.455-.321-2.94-3.52-6.398-3.813-1.748-.147-3.455-.571-5.184-.869-1.73-.297-3.519-.467-5.234-.1-1.804.387-3.421 1.342-5.067 2.177-1.645.834-3.425-2.425-5.267-2.514-1.647-.08-3.197-.821-4.559-1.752-1.361-.931-4.58-.056-5.908-1.035-1.328-.98-2.805-1.827-4.434-2.082-.814-.128-1.658-.103-2.45.123-.793.226-1.532.659-2.083 1.273-.76.848-3.117-2.028-3.517-.96-.2.533-.416 1.065-.71 1.554-.293.488-.667.937-1.136 1.26-.793.546-1.812.692-2.764.549-.951-.144-1.843-.555-2.67-1.05-.826-.493-1.597-1.073-2.41-1.59-.812-.516-1.678-.974-2.615-1.194-1.278-.302-2.628-.142-3.883.244-1.255.385-2.433.99-3.6 1.593-1.166.604-2.338 1.214-3.59 1.612-1.25.397-2.599.574-3.882.297-1.105-.239-2.114-.8-3.05-1.434-.938-.634-1.823-1.347-2.79-1.934-2.215-1.342-4.813 2.016-7.4 1.942-2.588-.074-5.17-3.597-7.641-2.826-4.21 1.313-8.239 3.497-12.643 3.705-3.75.176-7.396-1.099-10.976-2.23-3.58-1.132-7.365-2.146-11.049-1.425-1.773.348-3.441 1.085-5.121 1.75-1.68.665-3.42 1.27-5.225 1.334-2.452.09-4.824-.818-7.062-1.828-2.238-1.009-4.462-.142-6.883-.545-2.488-.414-5.036-.034-7.514.44-2.477.473-4.965 1.04-7.486.988-3.496-.072-6.94-1.328-10.418-.967-3.165.329-6.062 1.97-9.203 2.483-3.35.546-6.771-.227-10-1.274s-6.385-2.376-9.72-3a22.794 22.794 0 0 0-4.177-.382z"/><g style="display:inline;opacity:1"><g style="display:inline"><path transform="translate(-806.744 1.592)" d="M1157.186 348.877v10.465h-9.118v-7.649h-9.117v16.705l5.838 2.416v60.723h33.91v-60.723l5.838-2.416v-16.705h-9.117v7.649h-9.117v-10.465h-9.117z" style="fill:#e7e7e7;fill-rule:evenodd;stroke:#000;stroke-width:1.20000005;stroke-linecap:round;stroke-linejoin:round;stroke-miterlimit:4;stroke-dasharray:none;stroke-opacity:1"/><g style="stroke:#000"><path style="fill:none;fill-rule:evenodd;stroke:#000;stroke-width:1px;stroke-linecap:round;stroke-linejoin:round;stroke-opacity:1" d="M1063.193 535.213s7.22-2.416 16.955-2.416c9.734 0 16.956 2.416 16.956 2.416" transform="translate(-725.149 -162.807)"/><path d="M1057.356 532.797s9.706-3.388 22.791-3.388 22.793 3.388 22.793 3.388" style="fill:none;fill-rule:evenodd;stroke:#000;stroke-width:1px;stroke-linecap:round;stroke-linejoin:round;stroke-opacity:1" transform="translate(-725.149 -162.807)"/><path d="M1063.194 542.056s7.22-2.416 16.954-2.416c9.734 0 16.956 2.416 16.956 2.416M1063.194 550.962s7.22-2.416 16.954-2.416c9.734 0 16.956 2.416 16.956 2.416M1063.194 559.867s7.22-2.415 16.954-2.415c9.734 0 16.956 2.415 16.956 2.415M1063.193 568.773s7.22-2.415 16.954-2.415c9.734 0 16.956 2.415 16.956 2.415M1063.193 577.68s7.22-2.416 16.954-2.416c9.734 0 16.956 2.415 16.956 2.415" style="fill:none;fill-rule:evenodd;stroke:#000;stroke-width:.75;stroke-linecap:round;stroke-linejoin:round;stroke-miterlimit:4;stroke-dasharray:none;stroke-opacity:1" transform="translate(-725.149 -162.807)"/><path style="fill:none;fill-rule:evenodd;stroke:#000;stroke-width:.75;stroke-linecap:butt;stroke-linejoin:miter;stroke-miterlimit:4;stroke-dasharray:none;stroke-opacity:1" d="M1067.821 540.888v-6.843M1092.476 540.888v-6.843M1067.821 558.7v-8.906M1092.476 558.7v-8.906M1080.148 566.358v-8.906M1067.821 576.512v-8.906M1092.476 576.512v-8.906" transform="translate(-725.149 -162.807)"/></g><g style="fill:#000;stroke:#000"><path style="opacity:1;fill:#000;fill-opacity:1;fill-rule:evenodd;stroke:#000;stroke-width:1;stroke-linecap:round;stroke-linejoin:round;stroke-miterlimit:4;stroke-dasharray:none;stroke-opacity:1" d="M1084.728 537.816h4.83v13.283h-4.83zM1071.445 537.816h4.83v13.283h-4.83z" transform="translate(-725.502 -162.807)"/></g><path transform="matrix(.83664 0 0 .83852 -680.766 71.275)" d="M1157.186 348.877v10.465h-9.118v-7.649h-9.117v16.705l5.838 2.416v60.723h33.91v-60.723l5.838-2.416v-16.705h-9.117v7.649h-9.117v-10.465h-9.117z" style="fill:#e7e7e7;fill-rule:evenodd;stroke:#000;stroke-width:1.43269491;stroke-linecap:round;stroke-linejoin:round;stroke-miterlimit:4;stroke-dasharray:none;stroke-opacity:1"/><g style="stroke:#000;stroke-width:1.19391239"><path style="fill:none;fill-rule:evenodd;stroke:#000;stroke-width:1.19391239px;stroke-linecap:round;stroke-linejoin:round;stroke-opacity:1" d="M1063.193 535.213s7.22-2.416 16.955-2.416c9.734 0 16.956 2.416 16.956 2.416" transform="matrix(.83664 0 0 .83852 -612.5 -66.577)"/><path d="M1057.356 532.797s9.706-3.388 22.791-3.388 22.793 3.388 22.793 3.388" style="fill:none;fill-rule:evenodd;stroke:#000;stroke-width:1.19391239px;stroke-linecap:round;stroke-linejoin:round;stroke-opacity:1" transform="matrix(.83664 0 0 .83852 -612.5 -66.577)"/><path d="M1063.194 542.056s7.22-2.416 16.954-2.416c9.734 0 16.956 2.416 16.956 2.416M1063.194 550.962s7.22-2.416 16.954-2.416c9.734 0 16.956 2.416 16.956 2.416M1063.194 559.867s7.22-2.415 16.954-2.415c9.734 0 16.956 2.415 16.956 2.415M1063.193 568.773s7.22-2.415 16.954-2.415c9.734 0 16.956 2.415 16.956 2.415M1063.193 577.68s7.22-2.416 16.954-2.416c9.734 0 16.956 2.415 16.956 2.415" style="fill:none;fill-rule:evenodd;stroke:#000;stroke-width:.89543426;stroke-linecap:round;stroke-linejoin:round;stroke-miterlimit:4;stroke-dasharray:none;stroke-opacity:1" transform="matrix(.83664 0 0 .83852 -612.5 -66.577)"/><path style="fill:none;fill-rule:evenodd;stroke:#000;stroke-width:.89543426;stroke-linecap:butt;stroke-linejoin:miter;stroke-miterlimit:4;stroke-dasharray:none;stroke-opacity:1" d="M1067.821 540.888v-6.843M1092.476 540.888v-6.843M1067.821 558.7v-8.906M1092.476 558.7v-8.906M1080.148 566.358v-8.906M1067.821 576.512v-8.906M1092.476 576.512v-8.906" transform="matrix(.83664 0 0 .83852 -612.5 -66.577)"/></g><g style="fill:#000;stroke:#000;stroke-width:1.19391239"><path style="opacity:1;fill:#000;fill-opacity:1;fill-rule:evenodd;stroke:#000;stroke-width:1.19391239;stroke-linecap:round;stroke-linejoin:round;stroke-miterlimit:4;stroke-dasharray:none;stroke-opacity:1" d="M1084.728 537.816h4.83v13.283h-4.83zM1071.445 537.816h4.83v13.283h-4.83z" transform="matrix(.83664 0 0 .83852 -612.795 -66.577)"/></g><path style="fill:#e7e7e7;fill-rule:evenodd;stroke:#000;stroke-width:1.43269491;stroke-linecap:round;stroke-linejoin:round;stroke-miterlimit:4;stroke-dasharray:none;stroke-opacity:1" d="M1157.186 348.877v10.465h-9.118v-7.649h-9.117v16.705l5.838 2.416v60.723h33.91v-60.723l5.838-2.416v-16.705h-9.117v7.649h-9.117v-10.465h-9.117z" transform="matrix(.83664 0 0 .83852 -553.165 71.275)"/><g style="stroke:#000;stroke-width:1.19391239"><path d="M1063.193 535.213s7.22-2.416 16.955-2.416c9.734 0 16.956 2.416 16.956 2.416" style="fill:none;fill-rule:evenodd;stroke:#000;stroke-width:1.19391239px;stroke-linecap:round;stroke-linejoin:round;stroke-opacity:1" transform="matrix(.83664 0 0 .83852 -484.899 -66.577)"/><path style="fill:none;fill-rule:evenodd;stroke:#000;stroke-width:1.19391239px;stroke-linecap:round;stroke-linejoin:round;stroke-opacity:1" d="M1057.356 532.797s9.706-3.388 22.791-3.388 22.793 3.388 22.793 3.388" transform="matrix(.83664 0 0 .83852 -484.899 -66.577)"/><path style="fill:none;fill-rule:evenodd;stroke:#000;stroke-width:.89543426;stroke-linecap:round;stroke-linejoin:round;stroke-miterlimit:4;stroke-dasharray:none;stroke-opacity:1" d="M1063.194 542.056s7.22-2.416 16.954-2.416c9.734 0 16.956 2.416 16.956 2.416M1063.194 550.962s7.22-2.416 16.954-2.416c9.734 0 16.956 2.416 16.956 2.416M1063.194 559.867s7.22-2.415 16.954-2.415c9.734 0 16.956 2.415 16.956 2.415M1063.193 568.773s7.22-2.415 16.954-2.415c9.734 0 16.956 2.415 16.956 2.415M1063.193 577.68s7.22-2.416 16.954-2.416c9.734 0 16.956 2.415 16.956 2.415" transform="matrix(.83664 0 0 .83852 -484.899 -66.577)"/><path d="M1067.821 540.888v-6.843M1092.476 540.888v-6.843M1067.821 558.7v-8.906M1092.476 558.7v-8.906M1080.148 566.358v-8.906M1067.821 576.512v-8.906M1092.476 576.512v-8.906" style="fill:none;fill-rule:evenodd;stroke:#000;stroke-width:.89543426;stroke-linecap:butt;stroke-linejoin:miter;stroke-miterlimit:4;stroke-dasharray:none;stroke-opacity:1" transform="matrix(.83664 0 0 .83852 -484.899 -66.577)"/></g><g style="fill:#000;stroke:#000;stroke-width:1.19391239"><path style="opacity:1;fill:#000;fill-opacity:1;fill-rule:evenodd;stroke:#000;stroke-width:1.19391239;stroke-linecap:round;stroke-linejoin:round;stroke-miterlimit:4;stroke-dasharray:none;stroke-opacity:1" d="M1084.728 537.816h4.83v13.283h-4.83zM1071.445 537.816h4.83v13.283h-4.83z" transform="matrix(.83664 0 0 .83852 -485.194 -66.577)"/></g></g><path d="m1021.06 569.75-7.456 4.224v10.981l-7.457 3.809V578.2l-7.457 4.225v10.148l-7.46 3.81v-9.73l-7.456 4.225v77.285l-15.37 43.922 41.655 7.283 14.09-55.434v-68l-3.088-26.185z" style="fill:#e7e7e7;fill-rule:evenodd;stroke:#000;stroke-width:1.20000005;stroke-linecap:round;stroke-linejoin:round;stroke-miterlimit:4;stroke-dasharray:none;stroke-opacity:1" transform="translate(-725.148 -162.807)"/><path transform="translate(-806.744 1.592)" d="m1102.656 405.352 3.088 26.185v68l-14.09 55.432s26.281-7.28 70.09-7.282c43.809 0 70.09 7.283 70.09 7.283l-14.09-55.433v-68l3.088-26.185h-13.13V416.1h-13.132v-10.748h-13.129V416.1h-13.13v-10.748h-13.133V416.1h-13.131v-10.748h-13.129V416.1h-13.13v-10.748z" style="fill:#e7e7e7;fill-rule:evenodd;stroke:#000;stroke-width:1.20000005;stroke-linecap:round;stroke-linejoin:round;stroke-miterlimit:4;stroke-dasharray:none;stroke-opacity:1"/><path style="fill:#e7e7e7;fill-rule:evenodd;stroke:#000;stroke-width:1.20000005;stroke-linecap:round;stroke-linejoin:round;stroke-miterlimit:4;stroke-dasharray:none;stroke-opacity:1" d="m1139.236 569.75 7.457 4.224v10.98l7.457 3.809v-10.562l7.457 4.224v10.149l7.459 3.81v-9.73l7.457 4.224v77.285l15.369 43.922-41.654 7.284-14.09-55.434v-68l3.088-26.186z" transform="translate(-725.148 -162.807)"/><g style="display:inline"><path style="display:inline;fill:none;fill-rule:evenodd;stroke:#000;stroke-width:1;stroke-linecap:butt;stroke-linejoin:miter;stroke-miterlimit:4;stroke-dasharray:none;stroke-opacity:1" d="m983.774 613.377 40.375-17.442" transform="translate(-725.148 -162.807)"/><path style="display:inline;fill:none;fill-rule:evenodd;stroke:#000;stroke-width:.75;stroke-linecap:butt;stroke-linejoin:miter;stroke-miterlimit:4;stroke-dasharray:none;stroke-opacity:1" d="m983.775 625.458 40.374-14.523M997.232 620.617v-13.054M1010.69 615.776V601.75" transform="translate(-725.148 -162.807)"/><path style="fill:none;fill-rule:evenodd;stroke:#000;stroke-width:.75;stroke-linecap:butt;stroke-linejoin:miter;stroke-miterlimit:4;stroke-dasharray:none;stroke-opacity:1" d="m983.775 637.539 40.373-11.604M983.774 649.62l40.374-8.685M990.504 648.172v-12.567M1003.961 645.277v-13.54M1017.419 642.383v-14.514M997.232 659.779v-13.054M1010.69 657.857V643.83" transform="translate(-725.148 -162.807)"/><path transform="translate(-781.577 -86.166)" style="display:inline;fill:none;fill-rule:evenodd;stroke:#000;stroke-width:.75;stroke-linecap:butt;stroke-linejoin:miter;stroke-miterlimit:4;stroke-dasharray:none;stroke-opacity:1" d="m1047.69 619.572-2.708 10.655M1060.703 620.366l-2.91 11.45M1037.163 629.258l-2.03 7.988M1049.865 630.833l-2.188 8.606M1062.387 632.385l-2.343 9.217M1038.223 597.18l40.575-2.885M1030.75 618.538l41.246 2.517M1027.421 628.05l41.49 5.145M1046.932 584.099v6.725l-1.485 5.842M1060.39 582.177v7.246l-1.6 6.294M1073.848 580.256l-.19 7.786-1.713 6.74"/><path style="display:inline;fill:none;fill-rule:evenodd;stroke:#000;stroke-width:.75;stroke-linecap:butt;stroke-linejoin:miter;stroke-miterlimit:4;stroke-dasharray:none;stroke-opacity:1" d="m983.775 661.7 40.374-5.765" transform="translate(-725.148 -162.807)"/><path transform="translate(-781.577 -86.166)" style="display:inline;fill:none;fill-rule:evenodd;stroke:#000;stroke-width:.75;stroke-linecap:butt;stroke-linejoin:miter;stroke-miterlimit:4;stroke-dasharray:none;stroke-opacity:1" d="m1053.661 596.082-3.262 12.834M1067.119 595.125l-3.505 13.791M1042.334 608.916l-2.586 10.171M1068.352 608.916l-2.983 11.735M1034.116 608.916h40.966M1055.435 608.916l-2.785 10.959"/></g><g style="display:inline"><path d="m983.774 613.377 40.375-17.442" style="display:inline;fill:none;fill-rule:evenodd;stroke:#000;stroke-width:1.20000005;stroke-linecap:butt;stroke-linejoin:miter;stroke-miterlimit:4;stroke-dasharray:none;stroke-opacity:1" transform="matrix(-1 0 0 1 1435.148 -162.807)"/><path d="m983.775 625.458 40.374-14.523M997.232 620.617v-13.054M1010.69 615.776V601.75" style="display:inline;fill:none;fill-rule:evenodd;stroke:#000;stroke-width:.75;stroke-linecap:butt;stroke-linejoin:miter;stroke-miterlimit:4;stroke-dasharray:none;stroke-opacity:1" transform="matrix(-1 0 0 1 1435.148 -162.807)"/><path d="m983.775 637.539 40.373-11.604M983.774 649.62l40.374-8.685M990.504 648.172v-12.567M1003.961 645.277v-13.54M1017.419 642.383v-14.514M997.232 659.779v-13.054M1010.69 657.857V643.83" style="fill:none;fill-rule:evenodd;stroke:#000;stroke-width:.75;stroke-linecap:butt;stroke-linejoin:miter;stroke-miterlimit:4;stroke-dasharray:none;stroke-opacity:1" transform="matrix(-1 0 0 1 1435.148 -162.807)"/><path d="m1047.69 619.572-2.708 10.655M1060.703 620.366l-2.91 11.45M1037.163 629.258l-2.03 7.988M1049.865 630.833l-2.188 8.606M1062.387 632.385l-2.343 9.217M1038.223 597.18l40.575-2.885M1030.75 618.538l41.246 2.517M1027.421 628.05l41.49 5.145M1046.932 584.099v6.725l-1.485 5.842M1060.39 582.177v7.246l-1.6 6.294M1073.848 580.256l-.19 7.786-1.713 6.74" style="display:inline;fill:none;fill-rule:evenodd;stroke:#000;stroke-width:.75;stroke-linecap:butt;stroke-linejoin:miter;stroke-miterlimit:4;stroke-dasharray:none;stroke-opacity:1" transform="matrix(-1 0 0 1 1491.577 -86.167)"/><path d="m983.775 661.7 40.374-5.765" style="display:inline;fill:none;fill-rule:evenodd;stroke:#000;stroke-width:.75;stroke-linecap:butt;stroke-linejoin:miter;stroke-miterlimit:4;stroke-dasharray:none;stroke-opacity:1" transform="matrix(-1 0 0 1 1435.148 -162.807)"/><path d="m1053.661 596.082-3.262 12.834M1067.119 595.125l-3.505 13.791M1042.334 608.916l-2.586 10.171M1068.352 608.916l-2.983 11.735M1034.116 608.916h40.966M1055.435 608.916l-2.785 10.959" style="display:inline;fill:none;fill-rule:evenodd;stroke:#000;stroke-width:.75;stroke-linecap:butt;stroke-linejoin:miter;stroke-miterlimit:4;stroke-dasharray:none;stroke-opacity:1" transform="matrix(-1 0 0 1 1491.577 -86.167)"/></g><g style="display:inline"><path style="fill:none;fill-rule:evenodd;stroke:#000;stroke-width:1px;stroke-linecap:butt;stroke-linejoin:miter;stroke-opacity:1" d="M1024.148 595.936h112" transform="translate(-725.148 -162.807)"/><path d="M1024.148 655.935h112M1024.149 640.935h112M1038.148 655.935v-15M1052.148 640.935v-15M1066.148 655.935v-15M1080.148 640.935v-15M1094.149 655.935v-15M1108.149 640.935v-15M1122.149 655.935v-15" style="fill:none;fill-rule:evenodd;stroke:#000;stroke-width:.75;stroke-linecap:butt;stroke-linejoin:miter;stroke-miterlimit:4;stroke-dasharray:none;stroke-opacity:1" transform="translate(-725.148 -162.807)"/><path style="fill:none;fill-rule:evenodd;stroke:#000;stroke-width:.75;stroke-linecap:butt;stroke-linejoin:miter;stroke-miterlimit:4;stroke-dasharray:none;stroke-opacity:1" d="M1024.148 655.935h112M1024.149 640.935h112M1038.148 655.935v-15M1052.148 640.935v-15M1066.148 655.935v-15M1080.148 640.935v-15M1094.149 655.935v-15M1108.149 640.935v-15M1122.149 655.935v-15" transform="translate(-725.148 -192.807)"/><path d="M1075.061 608.916h123.031M1078.798 594.295h115.559" style="display:inline;fill:none;fill-rule:evenodd;stroke:#000;stroke-width:.75;stroke-linecap:butt;stroke-linejoin:miter;stroke-miterlimit:4;stroke-dasharray:none;stroke-opacity:1" transform="translate(-781.577 -86.166)"/><path d="M1052.148 655.935v7.648l-.933 7.352M1080.148 655.935v15M1108.149 655.935v7.655l.932 7.345M1036.895 670.935l-2.774 14.622M1065.821 670.935l-.918 14.622M1094.474 670.935l.92 14.622M1123.401 670.935l2.774 14.622" style="fill:none;fill-rule:evenodd;stroke:#000;stroke-width:.75;stroke-linecap:butt;stroke-linejoin:miter;stroke-miterlimit:4;stroke-dasharray:none;stroke-opacity:1" transform="translate(-725.148 -162.807)"/><path d="m1068.91 633.195 135.338-.001M1071.996 621.055h129.162" style="display:inline;fill:none;fill-rule:evenodd;stroke:#000;stroke-width:.75;stroke-linecap:butt;stroke-linejoin:miter;stroke-miterlimit:4;stroke-dasharray:none;stroke-opacity:1" transform="translate(-781.577 -86.166)"/><path d="m1049.36 685.557-1.541 12.139M1080.148 685.557v12.139M1110.936 685.557l1.54 12.138M1031.818 697.696l-2.303 12.139M1064.14 697.696l-.763 12.138M1096.156 697.695l.763 12.14M1128.478 697.695l2.303 12.139M1046.278 709.835l-.484 3.814M1080.148 709.834v2.252M1114.017 709.834l.485 3.82" style="fill:none;fill-rule:evenodd;stroke:#000;stroke-width:.75;stroke-linecap:butt;stroke-linejoin:miter;stroke-miterlimit:4;stroke-dasharray:none;stroke-opacity:1" transform="translate(-725.148 -162.807)"/></g><g style="display:inline"><path transform="translate(-781.577 -86.166)" style="display:inline;fill:#000;fill-rule:evenodd;stroke:#000;stroke-width:1px;stroke-linecap:round;stroke-linejoin:round;stroke-opacity:1" d="M1072.224 534.899v19.48l-7.542 2.066v-18.742z"/><path style="fill:#000;fill-rule:evenodd;stroke:#000;stroke-width:1px;stroke-linecap:round;stroke-linejoin:round;stroke-opacity:1" d="m992.339 620.26 7.33-2.726v17.903l-7.33 2.008z" transform="translate(-725.148 -162.807)"/></g><g style="display:inline"><path d="M1072.224 534.899v19.48l-7.542 2.066v-18.742z" style="display:inline;fill:#000;fill-rule:evenodd;stroke:#000;stroke-width:1px;stroke-linecap:round;stroke-linejoin:round;stroke-opacity:1" transform="matrix(-1 0 0 1 1491.577 -86.167)"/><path d="m992.339 620.26 7.33-2.726v17.903l-7.33 2.008z" style="fill:#000;fill-rule:evenodd;stroke:#000;stroke-width:1px;stroke-linecap:round;stroke-linejoin:round;stroke-opacity:1" transform="matrix(-1 0 0 1 1435.148 -162.807)"/></g><path d="M1080.148 637.418a24.5 18.516 0 0 0-24.5 18.517v57.051c7.796-.541 16.459-.9 26.012-.9 8.317 0 15.995.264 22.988.69v-56.84a24.5 18.516 0 0 0-24.5-18.518z" style="display:inline;opacity:1;fill:#000;fill-opacity:1;fill-rule:evenodd;stroke:#000;stroke-width:1;stroke-linecap:round;stroke-linejoin:round;stroke-miterlimit:4;stroke-dasharray:none;stroke-opacity:1" transform="translate(-725.148 -162.807)"/><path style="opacity:1;fill:#000;fill-opacity:1;fill-rule:evenodd;stroke:#000;stroke-width:1;stroke-linecap:round;stroke-linejoin:round;stroke-miterlimit:4;stroke-dasharray:none;stroke-opacity:1" d="M1045.539 605.043h15.37v20.892h-15.37zM1099.619 605.043h15.37v20.892h-15.37z" transform="translate(-725.264 -162.807)"/></g></g><g style="display:inline"><path style="display:inline;opacity:1;fill:none;stroke:#000;stroke-width:3;stroke-linecap:round;stroke-linejoin:round;stroke-miterlimit:4;stroke-dasharray:none;stroke-dashoffset:0;stroke-opacity:1" d="M521.905 920.128c0 64.414-55.629 116.162-124.25 116.162h-61.876c-27.18 0-50.965 15.258-62.374 36.608-11.41-21.35-35.196-36.608-62.376-36.608h-62.375c-68.62 0-123.75-51.748-123.75-116.162v-444.23h497z" transform="translate(81.595 -164.398)"/></g></svg>