<svg width="14" height="15" viewBox="0 0 14 15" fill="none" xmlns="http://www.w3.org/2000/svg">
<path d="M7.0723 9.44469L11.7672 4.75609C11.8128 4.71028 11.8671 4.67407 11.9269 4.64963C11.9867 4.62518 12.0509 4.61299 12.1155 4.61377C12.1801 4.61455 12.2439 4.6283 12.3031 4.65419C12.3623 4.68008 12.4157 4.71759 12.4602 4.76449C12.5513 4.86044 12.6013 4.98812 12.5998 5.1204C12.5982 5.25268 12.5451 5.37914 12.4518 5.47289L7.4097 10.508C7.36445 10.5535 7.31059 10.5896 7.25124 10.6141C7.19189 10.6386 7.12826 10.651 7.06406 10.6506C6.99987 10.6502 6.93639 10.637 6.87735 10.6118C6.8183 10.5866 6.76488 10.5499 6.7202 10.5038L1.5437 5.20409C1.45208 5.10922 1.40088 4.98248 1.40088 4.85059C1.40088 4.71871 1.45208 4.59197 1.5437 4.49709C1.58871 4.45074 1.64258 4.41388 1.7021 4.38872C1.76161 4.36355 1.82558 4.35059 1.8902 4.35059C1.95482 4.35059 2.01878 4.36355 2.0783 4.38872C2.13781 4.41388 2.19168 4.45074 2.2367 4.49709L7.0723 9.44469Z" fill="black"/>
</svg>
