<svg width="16" height="16" viewBox="0 0 16 16" fill="none" xmlns="http://www.w3.org/2000/svg">
<g clip-path="url(#clip0_384_2545)">
<path d="M14.1334 14.8062C14.1228 14.9083 14.0896 15.0067 14.0362 15.0943C13.9828 15.1819 13.9105 15.2564 13.8246 15.3125C13.7165 15.3844 13.5894 15.4223 13.4596 15.4212C13.364 15.4208 13.2693 15.4015 13.1811 15.3644C13.093 15.3273 13.013 15.2731 12.9459 15.205L12.0371 14.2962C12.4722 14.1099 12.8777 13.861 13.2409 13.5575L13.9359 14.2525C14.008 14.3242 14.0631 14.4112 14.0973 14.507C14.1315 14.6028 14.1438 14.7051 14.1334 14.8062Z" fill="#FF6B2A"/>
<path d="M3.96203 14.2962L3.05328 15.205C2.98612 15.2731 2.90616 15.3273 2.81799 15.3644C2.72982 15.4015 2.63519 15.4208 2.53953 15.4212C2.40974 15.4223 2.28261 15.3844 2.17453 15.3125C2.08885 15.2569 2.01669 15.1828 1.96332 15.0957C1.90995 15.0086 1.87671 14.9106 1.86605 14.809C1.85539 14.7074 1.86756 14.6047 1.90169 14.5084C1.93581 14.4122 1.99102 14.3247 2.06328 14.2525L2.75828 13.5575C3.12144 13.861 3.52697 14.1099 3.96203 14.2962Z" fill="#FF6B2A"/>
<path d="M14.7449 8.69122V9.81997C14.7433 11.0443 14.2561 12.2181 13.3902 13.0837C12.5243 13.9493 11.3505 14.4362 10.1261 14.4375H5.87363C4.64928 14.4362 3.47542 13.9493 2.60955 13.0837C1.74368 12.2181 1.2565 11.0443 1.25488 9.81997V8.69122H14.7449Z" fill="#FF6B2A"/>
<path d="M3.69477 0.907471C3.67977 0.921221 3.66477 0.934971 3.64977 0.949971C3.35339 1.24483 3.15149 1.62122 3.06977 2.03122H2.38227V6.81622H1.25977V1.91622C1.25977 1.6489 1.36587 1.39251 1.55478 1.20337C1.74369 1.01423 1.99995 0.907802 2.26727 0.907471H3.69477Z" fill="#FF6B2A"/>
<path d="M8.0834 4.63497C8.18001 4.73461 8.23357 4.86825 8.2325 5.00703C8.23143 5.14582 8.17582 5.27862 8.07769 5.37676C7.97955 5.4749 7.84675 5.5305 7.70796 5.53157C7.56918 5.53264 7.43554 5.47909 7.3359 5.38247C7.14965 5.19622 7.1534 4.67872 7.1559 4.57622C7.15685 4.54415 7.1701 4.51368 7.19291 4.4911C7.21571 4.46853 7.24632 4.4556 7.2784 4.45497C7.37965 4.45247 7.89715 4.44872 8.0834 4.63497Z" fill="#FF6B2A"/>
<path d="M9.21707 4.02877C9.21691 4.13326 9.18584 4.23536 9.12777 4.32222C9.0697 4.40908 8.98723 4.47683 8.89074 4.51692C8.79426 4.55701 8.68806 4.56766 8.58554 4.54753C8.48301 4.52739 8.38873 4.47737 8.31457 4.40377C8.12832 4.21752 8.13207 3.69877 8.13582 3.59752C8.13649 3.56557 8.14948 3.53512 8.17208 3.51252C8.19467 3.48993 8.22512 3.47694 8.25707 3.47627C8.35832 3.47252 8.87582 3.47002 9.06207 3.65627C9.11113 3.70512 9.15007 3.76317 9.17667 3.82708C9.20326 3.891 9.21699 3.95954 9.21707 4.02877Z" fill="#FF6B2A"/>
<path d="M6.48286 4.31002C6.34287 4.31013 6.20851 4.25486 6.10911 4.15627C5.92286 3.97002 5.92786 3.45127 5.93036 3.35002C5.93103 3.31807 5.94402 3.28762 5.96662 3.26503C5.98921 3.24243 6.01967 3.22944 6.05161 3.22877C6.15411 3.22502 6.67036 3.22252 6.85661 3.40877C6.93038 3.48267 6.98059 3.57677 7.0009 3.67919C7.02121 3.78161 7.0107 3.88776 6.9707 3.98421C6.9307 4.08066 6.86301 4.16308 6.77618 4.22108C6.68935 4.27907 6.58728 4.31002 6.48286 4.31002Z" fill="#FF6B2A"/>
<path d="M5.87734 4.38747C5.92642 4.43655 5.96536 4.49482 5.99192 4.55895C6.01848 4.62308 6.03215 4.69181 6.03215 4.76122C6.03215 4.83063 6.01848 4.89937 5.99192 4.96349C5.96536 5.02762 5.92642 5.08589 5.87734 5.13497C5.82826 5.18405 5.76999 5.22299 5.70586 5.24955C5.64174 5.27611 5.573 5.28978 5.50359 5.28978C5.43418 5.28978 5.36545 5.27611 5.30132 5.24955C5.23719 5.22299 5.17892 5.18405 5.12984 5.13497C4.94359 4.94872 4.94734 4.43122 4.94984 4.32872C4.95101 4.29672 4.96433 4.26637 4.98708 4.24384C5.00984 4.22132 5.04033 4.20831 5.07234 4.20747C5.17484 4.20497 5.69109 4.20122 5.87734 4.38747Z" fill="#FF6B2A"/>
<path d="M7.08883 3.17623C6.90258 2.98998 6.90633 2.47248 6.90883 2.36998C6.90999 2.33798 6.92331 2.30763 6.94607 2.2851C6.96883 2.26257 6.99932 2.24957 7.03133 2.24873C7.13258 2.24623 7.65008 2.24248 7.83633 2.42873C7.88541 2.47781 7.92434 2.53608 7.9509 2.60021C7.97747 2.66434 7.99114 2.73307 7.99114 2.80248C7.99114 2.87189 7.97747 2.94063 7.9509 3.00475C7.92434 3.06888 7.88541 3.12715 7.83633 3.17623C7.78724 3.22531 7.72898 3.26425 7.66485 3.29081C7.60072 3.31737 7.53199 3.33104 7.46258 3.33104C7.39316 3.33104 7.32443 3.31737 7.2603 3.29081C7.19618 3.26425 7.13791 3.22531 7.08883 3.17623Z" fill="#FF6B2A"/>
<path d="M7.10368 5.61501C7.17745 5.68891 7.22766 5.78301 7.24797 5.88543C7.26828 5.98785 7.25777 6.09399 7.21777 6.19044C7.17777 6.28689 7.11008 6.36932 7.02325 6.42732C6.93642 6.48531 6.83435 6.51626 6.72993 6.51626C6.58994 6.51637 6.45558 6.4611 6.35618 6.36251C6.16993 6.17501 6.17493 5.65751 6.17743 5.55626C6.1781 5.52431 6.19109 5.49386 6.21369 5.47127C6.23628 5.44867 6.26674 5.43568 6.29868 5.43501C6.40118 5.43251 6.91743 5.42876 7.10368 5.61501Z" fill="#FF6B2A"/>
<path d="M15.75 7.75372C15.7497 7.93596 15.6771 8.11063 15.5483 8.23949C15.4194 8.36835 15.2447 8.44089 15.0625 8.44122H0.9375C0.755164 8.44122 0.580295 8.36879 0.451364 8.23986C0.322433 8.11093 0.25 7.93606 0.25 7.75372C0.25 7.57139 0.322433 7.39652 0.451364 7.26759C0.580295 7.13866 0.755164 7.06622 0.9375 7.06622H15.0625C15.2447 7.06655 15.4194 7.13909 15.5483 7.26795C15.6771 7.39681 15.7497 7.57149 15.75 7.75372Z" fill="#FF6B2A"/>
<path d="M6.59148 1.41503C6.59156 1.52318 6.54887 1.62697 6.47273 1.70378L4.40273 3.77253C4.36501 3.81055 4.32012 3.84074 4.27067 3.86134C4.22122 3.88193 4.16818 3.89254 4.11461 3.89254C4.06104 3.89254 4.008 3.88193 3.95855 3.86134C3.9091 3.84074 3.86421 3.81055 3.82648 3.77253C3.65185 3.59898 3.51319 3.39267 3.41846 3.16543C3.32372 2.93819 3.27477 2.69448 3.27442 2.44828C3.27406 2.20208 3.3223 1.95823 3.41638 1.73072C3.51046 1.5032 3.64853 1.29649 3.82266 1.12245C3.99679 0.948398 4.20356 0.810433 4.43112 0.716462C4.65868 0.62249 4.90255 0.574361 5.14875 0.574833C5.39495 0.575305 5.63863 0.624369 5.86583 0.719212C6.09303 0.814055 6.29927 0.952812 6.47273 1.12753C6.51052 1.16525 6.54046 1.21007 6.56084 1.25941C6.58122 1.30875 6.59164 1.36164 6.59148 1.41503Z" fill="#FF6B2A"/>
</g>
<defs>
<clipPath id="clip0_384_2545">
<rect width="16" height="16" fill="white"/>
</clipPath>
</defs>
</svg>
