<svg width="30" height="30" viewBox="0 0 30 30" fill="none" xmlns="http://www.w3.org/2000/svg">
<rect x="0.5" y="0.5" width="29" height="29" rx="14.5" stroke="#FF6B2A"/>
<g clip-path="url(#clip0_381_1621)">
<path d="M11.4058 16.7329L10.2472 22.0625H9.6875C9.42862 22.0625 9.21875 22.2724 9.21875 22.5313C9.21875 22.7901 9.42862 23 9.6875 23H11.5625C11.8214 23 12.0312 22.7901 12.0312 22.5313C12.0312 22.2724 11.8214 22.0625 11.5625 22.0625H11.2066L12.2791 17.1292C11.9801 17.0157 11.6885 16.8836 11.4058 16.7329Z" fill="#FF6B2A"/>
<path d="M12.9812 18.3125L12.7773 19.25H17.2225L17.0187 18.3125H12.9812Z" fill="#FF6B2A"/>
<path d="M19.3517 20.2175L18.5942 16.7329C18.3115 16.8836 18.0199 17.0157 17.721 17.1292L18.4198 20.3436C17.9668 20.5775 17.6562 21.0498 17.6562 21.5938C17.6562 22.3692 18.2871 23 19.0625 23C19.8379 23 20.4688 22.3692 20.4688 21.5938C20.4688 20.9174 19.9888 20.3513 19.3517 20.2175ZM19.0625 22.0625C18.804 22.0625 18.5938 21.8522 18.5938 21.5938C18.5938 21.3353 18.804 21.125 19.0625 21.125C19.321 21.125 19.5312 21.3353 19.5312 21.5938C19.5312 21.8522 19.321 22.0625 19.0625 22.0625Z" fill="#FF6B2A"/>
<path d="M15 12.9375C13.1586 12.9375 11.4158 12.6951 10.0927 12.2551C9.37967 12.0179 8.84355 11.741 8.44336 11.4467C8.71817 12.677 9.33602 13.8066 10.2491 14.7196C11.5181 15.9886 13.2053 16.6875 15 16.6875C16.7946 16.6875 18.4818 15.9886 19.7508 14.7196C20.6639 13.8066 21.2817 12.677 21.5565 11.4467C21.1564 11.741 20.6202 12.0179 19.9072 12.2551C18.5841 12.6951 16.8413 12.9375 15 12.9375Z" fill="#FF6B2A"/>
<path d="M9.97155 10.9741L9.85742 11.1655C10.2717 11.3417 10.7503 11.4905 11.2727 11.6114V10.0105C10.6232 10.2926 10.1742 10.6342 9.97155 10.9741Z" fill="#FF6B2A"/>
<path d="M13.445 11.9374V9.44287C12.9978 9.50193 12.5846 9.58521 12.21 9.68675V11.7917C12.6085 11.8542 13.0226 11.9029 13.445 11.9374Z" fill="#FF6B2A"/>
<path d="M15.6179 9.35878C15.4171 9.34894 15.2112 9.34375 15.0003 9.34375C14.7895 9.34375 14.5836 9.34894 14.3828 9.35878V11.9902C14.5883 11.9967 14.7944 12 15.0003 12C15.2063 12 15.4124 11.9967 15.6179 11.9902V9.35878Z" fill="#FF6B2A"/>
<path d="M22.5 9.03125H21.6202C21.0426 7.69569 18.0049 7 15 7C11.9951 7 8.95747 7.69569 8.37978 9.03125H7.5C7.24112 9.03125 7.03125 9.24113 7.03125 9.5C7.03125 9.75887 7.24112 9.96875 7.5 9.96875H8.38013C8.49997 10.2454 8.72478 10.4948 9.03359 10.7161L9.16603 10.4939C9.91056 9.24525 12.2551 8.40625 15 8.40625C17.7449 8.40625 20.0894 9.24525 20.834 10.494L20.9665 10.7161C21.2753 10.4948 21.5001 10.2455 21.6199 9.96878H22.5C22.7589 9.96878 22.9688 9.75891 22.9688 9.50003C22.9688 9.24116 22.7589 9.03125 22.5 9.03125Z" fill="#FF6B2A"/>
<path d="M16.5547 11.9374C16.9771 11.903 17.3912 11.8542 17.7897 11.7917V9.68672C17.4151 9.58518 17.0019 9.5019 16.5547 9.44284V11.9374Z" fill="#FF6B2A"/>
<path d="M20.1429 11.1655L20.0287 10.9741C19.8261 10.6342 19.3771 10.2926 18.7275 10.0105V11.6115C19.25 11.4906 19.7286 11.3417 20.1429 11.1655Z" fill="#FF6B2A"/>
</g>
<defs>
<clipPath id="clip0_381_1621">
<rect width="16" height="16" fill="white" transform="translate(7 7)"/>
</clipPath>
</defs>
</svg>
