<svg width="16" height="16" viewBox="0 0 16 16" fill="none" xmlns="http://www.w3.org/2000/svg">
<g clip-path="url(#clip0_384_2546)">
<path d="M9.875 4.71875C9.61633 4.71875 9.40625 4.92883 9.40625 5.1875V6.125C9.40625 6.38367 9.61633 6.59375 9.875 6.59375H11.7812C12.0399 6.59375 12.25 6.38367 12.25 6.125V5.1875C12.25 4.92883 12.0399 4.71875 11.7812 4.71875H9.875Z" fill="#FF6B2A"/>
<path d="M4.21875 4.71875C3.96008 4.71875 3.75 4.92883 3.75 5.1875V6.125C3.75 6.38367 3.96008 6.59375 4.21875 6.59375H6.125C6.38367 6.59375 6.59375 6.38367 6.59375 6.125V5.1875C6.59375 4.92883 6.38367 4.71875 6.125 4.71875H4.21875Z" fill="#FF6B2A"/>
<path d="M13.1012 6.59375H14.5938C14.7543 6.59375 14.911 6.61023 15.0625 6.64124V2.375C15.0625 1.59961 14.4316 0.96875 13.6562 0.96875H2.34375C1.56836 0.96875 0.9375 1.59961 0.9375 2.375V6.64124C1.08899 6.61023 1.24573 6.59375 1.40625 6.59375H2.8988C2.84631 6.44641 2.8125 6.29016 2.8125 6.125V5.1875C2.8125 4.41211 3.44336 3.78125 4.21875 3.78125H6.125C6.90039 3.78125 7.53125 4.41211 7.53125 5.1875V6.125C7.53125 6.29016 7.49744 6.44641 7.44495 6.59375H8.55505C8.50256 6.44641 8.46875 6.29016 8.46875 6.125V5.1875C8.46875 4.41211 9.09961 3.78125 9.875 3.78125H11.7812C12.5566 3.78125 13.1875 4.41211 13.1875 5.1875V6.125C13.1875 6.29016 13.1537 6.44641 13.1012 6.59375Z" fill="#FF6B2A"/>
<path d="M14.5938 7.53125H1.40625C0.630859 7.53125 0 8.16211 0 8.9375V10.3438H16V8.9375C16 8.16211 15.3691 7.53125 14.5938 7.53125Z" fill="#FF6B2A"/>
<path d="M0 14.5625C0 14.8215 0.209717 15.0312 0.46875 15.0312H1.40625C1.66528 15.0312 1.875 14.8215 1.875 14.5625V13.1562H14.125V14.5625C14.125 14.8215 14.3347 15.0312 14.5938 15.0312H15.5312C15.7903 15.0312 16 14.8215 16 14.5625V11.2812H0V14.5625Z" fill="#FF6B2A"/>
</g>
<defs>
<clipPath id="clip0_384_2546">
<rect width="16" height="16" fill="white"/>
</clipPath>
</defs>
</svg>
