<svg width="24" height="24" viewBox="0 0 24 24" fill="none" xmlns="http://www.w3.org/2000/svg">
<g clip-path="url(#clip0_413_1678)">
<path d="M16.4004 11.6H18.0004V13.2H16.4004V11.6Z" fill="#BDBDBD"/>
<path d="M16.4004 15.6H18.0004V17.2H16.4004V15.6Z" fill="#BDBDBD"/>
<path d="M6.40039 14H8.00039V15.6H6.40039V14Z" fill="#BDBDBD"/>
<path d="M10.4004 6H12.0004V7.6H10.4004V6Z" fill="#BDBDBD"/>
<path d="M6.40039 2H8.00039V3.6H6.40039V2Z" fill="#BDBDBD"/>
<path d="M6.40039 10H8.00039V11.6H6.40039V10Z" fill="#BDBDBD"/>
<path d="M10.4004 2H12.0004V3.6H10.4004V2Z" fill="#BDBDBD"/>
<path d="M6.40039 6H8.00039V7.6H6.40039V6Z" fill="#BDBDBD"/>
<path d="M16.4004 19.6H18.0004V21.2H16.4004V19.6Z" fill="#BDBDBD"/>
<path d="M12.4004 19.6H14.0004V21.2H12.4004V19.6Z" fill="#BDBDBD"/>
<path d="M12.4004 11.6H14.0004V13.2H12.4004V11.6Z" fill="#BDBDBD"/>
<path d="M12.4004 15.6H14.0004V17.2H12.4004V15.6Z" fill="#BDBDBD"/>
<path d="M20 22.8V10H10.4V22.8H9.6V9.60002C9.6 9.37913 9.7791 9.20002 10 9.20002H14V0.400024H4.4V22.8H0V23.6H24V22.8H20ZM15.6 11.2C15.6 10.9791 15.7791 10.8 16 10.8H18.4C18.6209 10.8 18.8 10.9791 18.8 11.2V13.6C18.8 13.8209 18.6209 14 18.4 14H16C15.7791 14 15.6 13.8209 15.6 13.6V11.2ZM15.6 15.2C15.6 14.9791 15.7791 14.8 16 14.8H18.4C18.6209 14.8 18.8 14.9791 18.8 15.2V17.6C18.8 17.8209 18.6209 18 18.4 18H16C15.7791 18 15.6 17.8209 15.6 17.6V15.2ZM15.6 19.2C15.6 18.9791 15.7791 18.8 16 18.8H18.4C18.6209 18.8 18.8 18.9791 18.8 19.2V21.6C18.8 21.8209 18.6209 22 18.4 22H16C15.7791 22 15.6 21.8209 15.6 21.6V19.2ZM11.6 11.2C11.6 10.9791 11.7791 10.8 12 10.8H14.4C14.6209 10.8 14.8 10.9791 14.8 11.2V13.6C14.8 13.8209 14.6209 14 14.4 14H12C11.7791 14 11.6 13.8209 11.6 13.6V11.2ZM11.6 15.2C11.6 14.9791 11.7791 14.8 12 14.8H14.4C14.6209 14.8 14.8 14.9791 14.8 15.2V17.6C14.8 17.8209 14.6209 18 14.4 18H12C11.7791 18 11.6 17.8209 11.6 17.6V15.2ZM11.6 19.2C11.6 18.9791 11.7791 18.8 12 18.8H14.4C14.6209 18.8 14.8 18.9791 14.8 19.2V21.6C14.8 21.8209 14.6209 22 14.4 22H12C11.7791 22 11.6 21.8209 11.6 21.6V19.2ZM9.6 1.60002C9.6 1.37913 9.7791 1.20002 10 1.20002H12.4C12.6209 1.20002 12.8 1.37913 12.8 1.60002V4.00002C12.8 4.22092 12.6209 4.40002 12.4 4.40002H10C9.7791 4.40002 9.6 4.22092 9.6 4.00002V1.60002ZM9.6 5.60002C9.6 5.37913 9.7791 5.20002 10 5.20002H12.4C12.6209 5.20002 12.8 5.37913 12.8 5.60002V8.00002C12.8 8.22092 12.6209 8.40002 12.4 8.40002H10C9.7791 8.40002 9.6 8.22092 9.6 8.00002V5.60002ZM5.6 1.60002C5.6 1.37913 5.7791 1.20002 6 1.20002H8.4C8.6209 1.20002 8.8 1.37913 8.8 1.60002V4.00002C8.8 4.22092 8.6209 4.40002 8.4 4.40002H6C5.7791 4.40002 5.6 4.22092 5.6 4.00002V1.60002ZM5.6 5.60002C5.6 5.37913 5.7791 5.20002 6 5.20002H8.4C8.6209 5.20002 8.8 5.37913 8.8 5.60002V8.00002C8.8 8.22092 8.6209 8.40002 8.4 8.40002H6C5.7791 8.40002 5.6 8.22092 5.6 8.00002V5.60002ZM5.6 9.60002C5.6 9.37913 5.7791 9.20002 6 9.20002H8.4C8.6209 9.20002 8.8 9.37913 8.8 9.60002V12C8.8 12.2209 8.6209 12.4 8.4 12.4H6C5.7791 12.4 5.6 12.2209 5.6 12V9.60002ZM5.6 13.6C5.6 13.3791 5.7791 13.2 6 13.2H8.4C8.6209 13.2 8.8 13.3791 8.8 13.6V16C8.8 16.2209 8.6209 16.4 8.4 16.4H6C5.7791 16.4 5.6 16.2209 5.6 16V13.6ZM8 22.8V19.2C8 18.9791 7.8209 18.8 7.6 18.8H6.8C6.5791 18.8 6.4 18.9791 6.4 19.2V22.8H5.6V19.2C5.6 18.5373 6.1373 18 6.8 18H7.6C8.2627 18 8.8 18.5373 8.8 19.2V22.8H8Z" fill="#BDBDBD"/>
</g>
<defs>
<clipPath id="clip0_413_1678">
<rect width="24" height="24" fill="white"/>
</clipPath>
</defs>
</svg>
