<svg width="16" height="16" viewBox="0 0 16 16" fill="none" xmlns="http://www.w3.org/2000/svg">
<g clip-path="url(#clip0_384_2543)">
<path d="M13.9295 0.941162H12.5178V2.35293C12.5178 2.63528 12.2825 2.82352 12.0472 2.82352C11.8119 2.82352 11.5766 2.63528 11.5766 2.35293V0.941162H4.04717V2.35293C4.04717 2.63528 3.81188 2.82352 3.57659 2.82352C3.34129 2.82352 3.106 2.63528 3.106 2.35293V0.941162H1.69423C0.98835 0.941162 0.470703 1.55293 0.470703 2.35293V4.04704H15.5295V2.35293C15.5295 1.55293 14.6825 0.941162 13.9295 0.941162ZM0.470703 5.03528V13.647C0.470703 14.4941 0.98835 15.0588 1.74129 15.0588H13.9766C14.7295 15.0588 15.5766 14.447 15.5766 13.647V5.03528H0.470703ZM4.65894 12.9412H3.52953C3.34129 12.9412 3.15306 12.8 3.15306 12.5647V11.3882C3.15306 11.2 3.29423 11.0118 3.52953 11.0118H4.706C4.89423 11.0118 5.08247 11.1529 5.08247 11.3882V12.5647C5.03541 12.8 4.89423 12.9412 4.65894 12.9412ZM4.65894 8.70587H3.52953C3.34129 8.70587 3.15306 8.56469 3.15306 8.3294V7.15293C3.15306 6.96469 3.29423 6.77646 3.52953 6.77646H4.706C4.89423 6.77646 5.08247 6.91763 5.08247 7.15293V8.3294C5.03541 8.56469 4.89423 8.70587 4.65894 8.70587ZM8.42364 12.9412H7.24717C7.05894 12.9412 6.8707 12.8 6.8707 12.5647V11.3882C6.8707 11.2 7.01188 11.0118 7.24717 11.0118H8.42364C8.61188 11.0118 8.80012 11.1529 8.80012 11.3882V12.5647C8.80012 12.8 8.65894 12.9412 8.42364 12.9412ZM8.42364 8.70587H7.24717C7.05894 8.70587 6.8707 8.56469 6.8707 8.3294V7.15293C6.8707 6.96469 7.01188 6.77646 7.24717 6.77646H8.42364C8.61188 6.77646 8.80012 6.91763 8.80012 7.15293V8.3294C8.80012 8.56469 8.65894 8.70587 8.42364 8.70587ZM12.1883 12.9412H11.0119C10.8236 12.9412 10.6354 12.8 10.6354 12.5647V11.3882C10.6354 11.2 10.7766 11.0118 11.0119 11.0118H12.1883C12.3766 11.0118 12.5648 11.1529 12.5648 11.3882V12.5647C12.5648 12.8 12.4236 12.9412 12.1883 12.9412ZM12.1883 8.70587H11.0119C10.8236 8.70587 10.6354 8.56469 10.6354 8.3294V7.15293C10.6354 6.96469 10.7766 6.77646 11.0119 6.77646H12.1883C12.3766 6.77646 12.5648 6.91763 12.5648 7.15293V8.3294C12.5648 8.56469 12.4236 8.70587 12.1883 8.70587Z" fill="#FF6B2A"/>
</g>
<defs>
<clipPath id="clip0_384_2543">
<rect width="16" height="16" fill="white"/>
</clipPath>
</defs>
</svg>
