<svg width="16" height="16" viewBox="0 0 16 16" fill="none" xmlns="http://www.w3.org/2000/svg">
<g clip-path="url(#clip0_566_6170)">
<path d="M4.5625 1.46875H2.34375C1.91228 1.46875 1.5625 1.11897 1.5625 0.6875V0.46875C1.5625 0.209875 1.77237 0 2.03125 0H4.875C5.13387 0 5.34375 0.209875 5.34375 0.46875V0.6875C5.34375 1.11897 4.99397 1.46875 4.5625 1.46875Z" fill="#A3A3A3"/>
<path d="M2.34375 2.40625H4.5625V3.34375H2.34375V2.40625Z" fill="#A3A3A3"/>
<path d="M5.1875 16H0.46875C0.209875 16 0 15.7901 0 15.5312V14.125H5.65625V15.5312C5.65625 15.7901 5.44637 16 5.1875 16Z" fill="#A3A3A3"/>
<path d="M5.65588 6.625H1.16504L0.0712891 13.1875H5.65588V6.625Z" fill="#A3A3A3"/>
<path d="M5.65625 5.6875V5.0625C5.65625 4.63103 5.30647 4.28125 4.875 4.28125H2.03125C1.59978 4.28125 1.25 4.63103 1.25 5.0625V5.6875H5.65625Z" fill="#A3A3A3"/>
<path d="M10.6562 0.6875V0.46875C10.6562 0.209875 10.8661 0 11.125 0H13.9688C14.2276 0 14.4375 0.209875 14.4375 0.46875V0.6875C14.4375 1.11897 14.0877 1.46875 13.6562 1.46875H11.4375C11.006 1.46875 10.6562 1.11897 10.6562 0.6875Z" fill="#A3A3A3"/>
<path d="M11.4375 2.40625H13.6562V3.34375H11.4375V2.40625Z" fill="#A3A3A3"/>
<path d="M10.3438 15.5312V14.125H16V15.5312C16 15.7901 15.7901 16 15.5312 16H10.8125C10.5536 16 10.3438 15.7901 10.3438 15.5312Z" fill="#A3A3A3"/>
<path d="M10.3438 6.625H14.8346L15.9283 13.1875H10.3438V6.625Z" fill="#A3A3A3"/>
<path d="M6.59375 7.875H7.53125V10.6875H6.59375V7.875Z" fill="#A3A3A3"/>
<path d="M6.59375 5.375H9.40625V6.9375H6.59375V5.375Z" fill="#A3A3A3"/>
<path d="M6.59375 11.625H9.40625V13.1875H6.59375V11.625Z" fill="#A3A3A3"/>
<path d="M8.46875 7.875H9.40625V10.6875H8.46875V7.875Z" fill="#A3A3A3"/>
<path d="M10.3438 5.6875V5.0625C10.3438 4.63103 10.6935 4.28125 11.125 4.28125H13.9688C14.4002 4.28125 14.75 4.63103 14.75 5.0625V5.6875H10.3438Z" fill="#A3A3A3"/>
</g>
<defs>
<clipPath id="clip0_566_6170">
<rect width="16" height="16" fill="white"/>
</clipPath>
</defs>
</svg>
