<svg width="16" height="16" viewBox="0 0 16 16" fill="none" xmlns="http://www.w3.org/2000/svg">
<g clip-path="url(#clip0_566_6124)">
<path d="M7.73365 6.39998C8.32193 6.39998 8.8003 5.92157 8.8003 5.33332C8.8003 4.74507 8.3219 4.26666 7.73365 4.26666C7.1454 4.26666 6.66699 4.74507 6.66699 5.33332C6.66699 5.92157 7.14537 6.39998 7.73365 6.39998Z" fill="#A3A3A3"/>
<path d="M9.86646 4.53337C10.4547 4.53337 10.9331 4.05496 10.9331 3.46671C10.9331 2.87846 10.4547 2.40002 9.86646 2.40002C9.27818 2.40002 8.7998 2.87843 8.7998 3.46668C8.7998 4.05493 9.27821 4.53337 9.86646 4.53337Z" fill="#A3A3A3"/>
<path d="M8.00025 2.13334C8.58853 2.13334 9.06691 1.65494 9.06691 1.06669C9.06691 0.478406 8.58853 0 8.00025 0C7.41197 0 6.93359 0.478406 6.93359 1.06666C6.93359 1.65494 7.41197 2.13334 8.00025 2.13334Z" fill="#A3A3A3"/>
<path d="M12.0002 2.39999C12.4413 2.39999 12.8002 2.04105 12.8002 1.59999C12.8002 1.15893 12.4413 0.799988 12.0002 0.799988C11.5591 0.799988 11.2002 1.15893 11.2002 1.59999C11.2002 2.04105 11.5591 2.39999 12.0002 2.39999Z" fill="#A3A3A3"/>
<path d="M1.01992 10.9333H14.9802L15.1586 9.86664H0.841797L1.01992 10.9333Z" fill="#A3A3A3"/>
<path d="M15.2 6.66667H3.2V4.75438C3.2 4.68398 3.22853 4.61545 3.27813 4.56585L3.54478 4.2992C3.64531 4.19838 3.82106 4.19838 3.92184 4.2992C4.19812 4.5752 4.64772 4.5752 4.92372 4.29892L5.05306 4.16985C5.18694 4.03598 5.26081 3.85813 5.26081 3.66879C5.26081 3.47945 5.18722 3.3016 5.05334 3.16773L4.67628 2.79067C4.15628 2.27067 3.31041 2.27067 2.796 2.78507L1.99041 3.54479C1.73869 3.79651 1.6 4.13145 1.6 4.48745V6.66663H0.8C0.358938 6.66663 0 7.02557 0 7.46663C0 7.82663 0.240281 8.12798 0.567719 8.22823L0.752531 9.33329H15.2475L15.4323 8.22823C15.7597 8.12801 16 7.82667 16 7.46667C16 7.0256 15.6411 6.66667 15.2 6.66667ZM15.2 7.73335H0.8C0.653063 7.73335 0.533344 7.61363 0.533344 7.4667C0.533344 7.31976 0.653063 7.20004 0.8 7.20004H1.86666H2.93331H15.2C15.3469 7.20004 15.4667 7.31976 15.4667 7.4667C15.4667 7.6136 15.3469 7.73335 15.2 7.73335Z" fill="#A3A3A3"/>
<path d="M1.52368 12.5334H3.73327C3.88046 12.5334 3.99993 12.6528 3.99993 12.8C3.99993 12.9472 3.88046 13.0667 3.73327 13.0667H1.89515C2.28687 13.535 2.79221 13.8976 3.36262 14.1272L1.94474 15.5448C1.84049 15.6491 1.84049 15.8176 1.94474 15.9219C1.99674 15.9739 2.06502 16 2.13327 16C2.20155 16 2.2698 15.9739 2.3218 15.9219L3.9218 14.3219C3.92552 14.3181 3.92687 14.313 3.93034 14.309C4.1938 14.3682 4.46715 14.4 4.74687 14.4H11.253C11.3714 14.4 11.4876 14.3912 11.6031 14.3802L13.1447 15.9218C13.1967 15.9738 13.265 16 13.3332 16C13.4015 16 13.4698 15.9738 13.5218 15.9218C13.6261 15.8176 13.6261 15.649 13.5218 15.5448L12.2388 14.2616C12.9732 14.0595 13.6234 13.6416 14.1042 13.0666H12.5332C12.3861 13.0666 12.2666 12.9472 12.2666 12.8C12.2666 12.6528 12.3861 12.5333 12.5332 12.5333H14.4756C14.6626 12.2077 14.8007 11.849 14.8836 11.4667H1.11621C1.19887 11.8491 1.33674 12.2077 1.52368 12.5334Z" fill="#A3A3A3"/>
</g>
<defs>
<clipPath id="clip0_566_6124">
<rect width="16" height="16" fill="white"/>
</clipPath>
</defs>
</svg>
