<svg width="16" height="16" viewBox="0 0 16 16" fill="none" xmlns="http://www.w3.org/2000/svg">
<g clip-path="url(#clip0_566_6158)">
<path d="M15.4382 6.70806C15.7484 6.70806 16 6.45653 16 6.14634V4.29261C16 4.07934 15.8791 3.88448 15.6881 3.78956L8.22648 0.0821649C8.06863 0.00361996 7.88304 0.00388931 7.72542 0.0828113L0.310624 3.79021C0.120242 3.8854 0 4.07982 0 4.29261V6.14634C0 6.45653 0.251581 6.70806 0.561774 6.70806H15.4382Z" fill="#A3A3A3"/>
<path d="M13.8876 12.2692C14.1979 12.2692 14.4494 12.0177 14.4494 11.7075C14.4494 11.3972 14.1979 11.1458 13.8876 11.1458H11.3599C11.0497 11.1458 10.7981 11.3972 10.7981 11.7075C10.7981 12.0177 11.0497 12.2692 11.3599 12.2692H12.0621V14.8532H8.53813V7.60687H7.41464V14.8532H3.90393V12.2692H4.60603C4.91634 12.2692 5.16781 12.0177 5.16781 11.7075C5.16781 11.3972 4.91634 11.1458 4.60603 11.1458H2.07827C1.76807 11.1458 1.5166 11.3972 1.5166 11.7075C1.5166 12.0177 1.76807 12.2692 2.07827 12.2692H2.78049V14.8532H2.41529C2.1051 14.8532 1.85352 15.1047 1.85352 15.4149C1.85352 15.7251 2.1051 15.9766 2.41529 15.9766H13.5644C13.8747 15.9766 14.1262 15.7251 14.1262 15.4149C14.1262 15.1047 13.8747 14.8532 13.5644 14.8532H13.1855V12.2692H13.8876Z" fill="#A3A3A3"/>
</g>
<defs>
<clipPath id="clip0_566_6158">
<rect width="16" height="16" fill="white"/>
</clipPath>
</defs>
</svg>
