<svg width="16" height="16" viewBox="0 0 16 16" fill="none" xmlns="http://www.w3.org/2000/svg">
<g clip-path="url(#clip0_384_2544)">
<path fill-rule="evenodd" clip-rule="evenodd" d="M1.47928 1.29775L0.767364 2.00967C0.646176 2.13086 0.449423 2.13086 0.328235 2.00967C0.207047 1.88848 0.207047 1.69173 0.328235 1.57054L1.57022 0.328559C1.6914 0.207212 1.88816 0.207212 2.00934 0.328559L3.25132 1.57054C3.37251 1.69173 3.37251 1.88848 3.25132 2.00967C3.13014 2.13086 2.93338 2.13086 2.8122 2.00967L2.10028 1.29775V13.8994H14.7019L13.99 13.1875C13.8688 13.0663 13.8688 12.8695 13.99 12.7484C14.1112 12.6272 14.308 12.6272 14.4291 12.7484L15.6711 13.9903C15.7923 14.1115 15.7923 14.3081 15.6711 14.4295L14.4291 15.6715C14.308 15.7926 14.1112 15.7926 13.99 15.6715C13.8688 15.5503 13.8688 15.3535 13.99 15.2323L14.7019 14.5204H2.10028V15.4519C2.10028 15.6233 1.96119 15.7624 1.78978 15.7624C1.61837 15.7624 1.47928 15.6233 1.47928 15.4519V14.5204H0.5478C0.376394 14.5204 0.237305 14.3813 0.237305 14.2099C0.237305 14.0385 0.376394 13.8994 0.5478 13.8994H1.47928V1.29775ZM12.9735 3.64721C12.9735 3.30424 12.6954 3.02622 12.3525 3.02622H3.64689C3.30392 3.02622 3.0259 3.30424 3.0259 3.64721V12.3528C3.0259 12.6958 3.30392 12.9738 3.64689 12.9738H12.3525C12.6954 12.9738 12.9735 12.6958 12.9735 12.3528V3.64721Z" fill="#FF6B2A"/>
</g>
<defs>
<clipPath id="clip0_384_2544">
<rect width="16" height="16" fill="white"/>
</clipPath>
</defs>
</svg>
