<svg width="17" height="16" viewBox="0 0 17 16" fill="none" xmlns="http://www.w3.org/2000/svg">
<g clip-path="url(#clip0_248_5624)">
<path fill-rule="evenodd" clip-rule="evenodd" d="M2.17773 3C2.17773 2.73478 2.28309 2.48043 2.47063 2.29289C2.65816 2.10536 2.91252 2 3.17773 2H13.1777C13.443 2 13.6973 2.10536 13.8848 2.29289C14.0724 2.48043 14.1777 2.73478 14.1777 3V4.39067C14.1777 4.74426 14.0371 5.08334 13.7871 5.33333L10.1777 8.94267V13.892C10.1778 14.017 10.1458 14.14 10.0849 14.2492C10.0241 14.3584 9.9363 14.4502 9.82996 14.5159C9.72362 14.5816 9.60224 14.6191 9.47735 14.6247C9.35247 14.6303 9.22821 14.6039 9.1164 14.548L6.6384 13.3093C6.49998 13.2401 6.38357 13.1337 6.3022 13.0021C6.22084 12.8705 6.17774 12.7188 6.17773 12.564V8.94267L2.5684 5.33333C2.31834 5.08334 2.17781 4.74426 2.17773 4.39067V3ZM3.51107 3.33333V4.39067L7.21773 8.09733C7.3107 8.19018 7.38446 8.30044 7.43479 8.42181C7.48512 8.54318 7.51104 8.67328 7.51107 8.80467V12.2547L8.8444 12.9213V8.80467C8.8444 8.53933 8.94973 8.28467 9.13773 8.098L12.8444 4.39V3.33333H3.51107Z" fill="white"/>
</g>
<defs>
<clipPath id="clip0_248_5624">
<rect width="16" height="16" fill="white" transform="translate(0.177734)"/>
</clipPath>
</defs>
</svg>
