<svg width="16" height="16" viewBox="0 0 16 16" fill="none" xmlns="http://www.w3.org/2000/svg">
<g clip-path="url(#clip0_563_6086)">
<path fill-rule="evenodd" clip-rule="evenodd" d="M0.941176 2.94119C0.941176 1.9016 1.78393 1.05884 2.82353 1.05884C3.86312 1.05884 4.70588 1.9016 4.70588 2.94119V3.17649C4.70588 3.30643 4.60054 3.41178 4.47059 3.41178H4C3.87005 3.41178 3.76471 3.30643 3.76471 3.17649V2.94119C3.76471 2.42139 3.34333 2.00001 2.82353 2.00001C2.30373 2.00001 1.88235 2.42139 1.88235 2.94119V6.00001H6.35294V14.9412H1.17474C0.525554 14.9412 0 14.414 0 13.7642V7.17704C0 6.60732 0.403963 6.13178 0.941176 6.02326V2.94119ZM4.82353 8.82354C5.1484 8.82354 5.41176 8.56018 5.41176 8.23531C5.41176 7.91044 5.1484 7.64707 4.82353 7.64707C4.49866 7.64707 4.23529 7.91044 4.23529 8.23531C4.23529 8.56018 4.49866 8.82354 4.82353 8.82354ZM7.05882 6.00001H14.8243C15.4737 6.00001 16 6.52704 16 7.17635V9.52943H7.05882V6.00001ZM8.58823 8.35296C8.91311 8.35296 9.17647 8.08959 9.17647 7.76472C9.17647 7.43985 8.91311 7.17649 8.58823 7.17649C8.26336 7.17649 8 7.43985 8 7.76472C8 8.08959 8.26336 8.35296 8.58823 8.35296ZM13.7647 8.35296C14.0896 8.35296 14.3529 8.08959 14.3529 7.76472C14.3529 7.43985 14.0896 7.17649 13.7647 7.17649C13.4398 7.17649 13.1765 7.43985 13.1765 7.76472C13.1765 8.08959 13.4398 8.35296 13.7647 8.35296ZM11.1765 8.35296C11.5013 8.35296 11.7647 8.08959 11.7647 7.76472C11.7647 7.43985 11.5013 7.17649 11.1765 7.17649C10.8516 7.17649 10.5882 7.43985 10.5882 7.76472C10.5882 8.08959 10.8516 8.35296 11.1765 8.35296ZM7.05882 10.2353H16V13.7647C16 14.4145 15.4743 14.9412 14.8243 14.9412H7.05882V10.2353ZM15.0588 4.82354V5.29413C15.0588 5.42408 14.9535 5.52943 14.8235 5.52943H12C11.8701 5.52943 11.7647 5.42408 11.7647 5.29413V4.82354C11.7647 4.69359 11.8701 4.58825 12 4.58825H14.8235C14.9535 4.58825 15.0588 4.69359 15.0588 4.82354ZM10.5882 4.82354V5.29413C10.5882 5.42408 10.4829 5.52943 10.3529 5.52943H7.52941C7.39946 5.52943 7.29412 5.42408 7.29412 5.29413V4.82354C7.29412 4.69359 7.39946 4.58825 7.52941 4.58825H10.3529C10.4829 4.58825 10.5882 4.69359 10.5882 4.82354Z" fill="#A3A3A3"/>
</g>
<defs>
<clipPath id="clip0_563_6086">
<rect width="16" height="16" fill="white"/>
</clipPath>
</defs>
</svg>
