<svg width="16" height="16" viewBox="0 0 16 16" fill="none" xmlns="http://www.w3.org/2000/svg">
<g clip-path="url(#clip0_563_6061)">
<path d="M8 0.9375C9.62954 0.938157 11.2087 1.50214 12.47 2.5339C13.7313 3.56566 14.5971 5.00174 14.9208 6.59881C15.2444 8.19588 15.006 9.85574 14.2459 11.2971C13.4858 12.7385 12.2507 13.8728 10.75 14.5078C9.02402 15.2372 7.079 15.251 5.34283 14.5463C3.60665 13.8415 2.22153 12.476 1.49219 10.75C0.762842 9.02402 0.749012 7.079 1.45374 5.34283C2.15846 3.60665 3.52402 2.22153 5.25 1.49219C6.11997 1.12403 7.05534 0.935364 8 0.9375ZM8 0C3.58187 0 0 3.58187 0 8C0 12.4181 3.58187 16 8 16C12.4181 16 16 12.4181 16 8C16 3.58187 12.4181 0 8 0Z" fill="#A3A3A3"/>
<path d="M12.0004 7.33376C11.9966 6.9572 12.0038 6.58376 11.9948 6.20626C11.9066 5.50001 10.8563 5.56251 10.8801 6.29657C10.8801 6.8522 10.8801 7.40782 10.8782 7.96376C10.886 8.00501 10.8491 8.13001 10.7451 8.11657C10.6676 8.11657 10.6201 8.09376 10.6201 7.98189C10.6154 6.9622 10.626 5.85689 10.6148 4.83157C10.5776 4.4147 10.0941 4.17845 9.75039 4.40626C9.48883 4.57001 9.48946 4.8497 9.49008 4.9547V7.52657C9.49008 7.68001 9.49321 7.83907 9.48821 7.98782C9.50383 8.07345 9.37227 8.17189 9.27477 8.08314C9.26064 8.06791 9.24974 8.04998 9.2427 8.03044C9.23567 8.01089 9.23265 7.99013 9.23383 7.96939C9.24008 6.83501 9.23664 5.71314 9.23633 4.59032C9.23633 4.46064 9.23977 4.33376 9.23633 4.20126C9.22633 3.84532 8.93414 3.58532 8.59727 3.62907C7.97852 3.72064 8.11571 4.42626 8.10414 4.89251V7.92032C8.10414 8.0097 8.09321 8.04845 8.08383 8.06626C8.04789 8.15314 7.84539 8.13751 7.85789 7.99345C7.85414 7.55439 7.85789 7.11564 7.85789 6.67845C7.85789 6.33126 7.85789 5.9722 7.85789 5.61876C7.85602 5.27032 7.61664 5.00751 7.30164 5.00751C6.98914 5.03345 6.74071 5.17595 6.72321 5.6247C6.72321 6.46262 6.72321 7.30105 6.72321 8.14001V9.06939C6.72325 9.08751 6.71791 9.10523 6.70787 9.12031C6.69783 9.1354 6.68354 9.14717 6.66681 9.15412C6.65008 9.16108 6.63166 9.16292 6.61389 9.15941C6.59611 9.1559 6.57978 9.14719 6.56696 9.13439L5.33539 7.9022C5.19534 7.76518 5.00891 7.6858 4.81307 7.67978C4.61723 7.67376 4.42628 7.74154 4.27807 7.8697C4.12986 7.99785 4.03522 8.17702 4.0129 8.37167C3.99058 8.56633 4.04222 8.76227 4.15758 8.92064C4.18038 8.95066 4.20512 8.97916 4.23164 9.00595L6.04227 10.8163C6.86852 11.6953 7.56946 12.4616 9.03039 12.3634C10.5957 12.5016 12.0404 11.3197 12.002 9.71689C12.007 8.92251 12.0041 8.11501 12.0004 7.33376Z" fill="#A3A3A3"/>
</g>
<defs>
<clipPath id="clip0_563_6061">
<rect width="16" height="16" fill="white"/>
</clipPath>
</defs>
</svg>
