<svg width="16" height="16" viewBox="0 0 16 16" fill="none" xmlns="http://www.w3.org/2000/svg">
<path fill-rule="evenodd" clip-rule="evenodd" d="M3 11.3333V4.66665C3 4.48265 2.85067 4.33331 2.66667 4.33331H2C1.73467 4.33331 1.48033 4.43865 1.293 4.62631C1.10533 4.81365 1 5.06798 1 5.33331V12C1.28667 11.785 1.63733 11.6666 2 11.6666H2.66667C2.755 11.6666 2.84 11.6316 2.90233 11.569C2.965 11.5066 3 11.4216 3 11.3333Z" fill="#A3A3A3"/>
<path fill-rule="evenodd" clip-rule="evenodd" d="M7.19336 9.473L8.04936 9.18766L7.47869 8.617L7.19336 9.473Z" fill="#A3A3A3"/>
<path fill-rule="evenodd" clip-rule="evenodd" d="M7.80469 8L8.66669 8.862L13.5287 4L12.6667 3.138L7.80469 8Z" fill="#A3A3A3"/>
<path fill-rule="evenodd" clip-rule="evenodd" d="M13.9997 3.52865L13.1377 2.66665L14.0974 1.70698C14.1597 1.64465 14.2447 1.60931 14.333 1.60931C14.4214 1.60931 14.5064 1.64465 14.5687 1.70698L14.9594 2.09765C15.0217 2.15998 15.057 2.24498 15.057 2.33331C15.057 2.42165 15.0217 2.50665 14.9594 2.56898L13.9997 3.52865Z" fill="#A3A3A3"/>
<path fill-rule="evenodd" clip-rule="evenodd" d="M12.8047 5.66663L9.01367 9.45762C8.904 9.56762 8.77 9.65029 8.62267 9.69929C8.15867 9.85396 6.772 10.3163 6.772 10.3163C6.65233 10.356 6.52033 10.325 6.431 10.2356C6.34167 10.1463 6.31067 10.0143 6.35033 9.89462C6.35033 9.89462 6.81267 8.50796 6.96733 8.04396C7.01633 7.89662 7.099 7.76263 7.209 7.65296L9.19533 5.66663H3.66667V11.3333C3.66667 11.5986 3.56133 11.853 3.37367 12.0403C3.18633 12.228 2.932 12.3333 2.66667 12.3333H2C1.73467 12.3333 1.48033 12.4386 1.293 12.6263C1.10533 12.8136 1 13.068 1 13.3333C1 13.5986 1.10533 13.853 1.293 14.0403C1.48033 14.228 1.73467 14.3333 2 14.3333H14.6667C14.8507 14.3333 15 14.184 15 14V5.99996C15 5.81596 14.8507 5.66663 14.6667 5.66663H12.8047ZM12.6667 11C12.1147 11 11.6667 11.448 11.6667 12C11.6667 12.552 12.1147 13 12.6667 13C13.2187 13 13.6667 12.552 13.6667 12C13.6667 11.448 13.2187 11 12.6667 11ZM9.862 12.3333L9.76433 12.431C9.63433 12.561 9.63433 12.7723 9.76433 12.9023C9.89433 13.0323 10.1057 13.0323 10.2357 12.9023L10.9023 12.2356C11.0327 12.1056 11.0327 11.8943 10.9023 11.7643L10.2357 11.0976C10.1057 10.9676 9.89433 10.9676 9.76433 11.0976C9.63433 11.2276 9.63433 11.439 9.76433 11.569L9.862 11.6666H6.66667C6.40133 11.6666 6.147 11.5613 5.95967 11.3736C5.772 11.1863 5.66667 10.932 5.66667 10.6666V9.99996C5.66667 9.81596 5.51733 9.66663 5.33333 9.66663C5.14933 9.66663 5 9.81596 5 9.99996V10.6666C5 11.1086 5.17567 11.5326 5.488 11.8453C5.80067 12.1576 6.22467 12.3333 6.66667 12.3333H9.862ZM12.6667 11.6666C12.8507 11.6666 13 11.816 13 12C13 12.184 12.8507 12.3333 12.6667 12.3333C12.4827 12.3333 12.3333 12.184 12.3333 12C12.3333 11.816 12.4827 11.6666 12.6667 11.6666ZM12.1953 9.33329L11.7643 9.76429C11.6343 9.89429 11.6343 10.1056 11.7643 10.2356C11.8943 10.3656 12.1057 10.3656 12.2357 10.2356L12.6667 9.80463L13.0977 10.2356C13.2277 10.3656 13.439 10.3656 13.569 10.2356C13.699 10.1056 13.699 9.89429 13.569 9.76429L13.138 9.33329L13.569 8.90229C13.699 8.77229 13.699 8.56096 13.569 8.43096C13.439 8.30096 13.2277 8.30096 13.0977 8.43096L12.6667 8.86196L12.2357 8.43096C12.1057 8.30096 11.8943 8.30096 11.7643 8.43096C11.6343 8.56096 11.6343 8.77229 11.7643 8.90229L12.1953 9.33329ZM5.33333 6.99996C4.78133 6.99996 4.33333 7.44796 4.33333 7.99996C4.33333 8.55196 4.78133 8.99996 5.33333 8.99996C5.88533 8.99996 6.33333 8.55196 6.33333 7.99996C6.33333 7.44796 5.88533 6.99996 5.33333 6.99996ZM5.33333 7.66663C5.51733 7.66663 5.66667 7.81596 5.66667 7.99996C5.66667 8.18396 5.51733 8.33329 5.33333 8.33329C5.14933 8.33329 5 8.18396 5 7.99996C5 7.81596 5.14933 7.66663 5.33333 7.66663Z" fill="#A3A3A3"/>
</svg>
