<svg width="16" height="16" viewBox="0 0 16 16" fill="none" xmlns="http://www.w3.org/2000/svg">
<g clip-path="url(#clip0_563_6047)">
<path d="M15.4372 9.7185C15.2024 9.54223 15.0624 9.26208 15.0624 8.96862V4.39245L15.9504 2.61584C16.0232 2.47034 16.0154 2.29773 15.9298 2.15991C15.8442 2.02173 15.6936 1.9375 15.5311 1.9375H3.75V0.46875C3.75 0.209717 3.54028 0 3.28125 0H1.40625C1.14709 0 0.9375 0.209717 0.9375 0.46875V1.9375H0.46875C0.209595 1.9375 0 2.14709 0 2.40625V4.28125C0 4.54028 0.209595 4.75 0.46875 4.75H0.9375V15.5311C0.9375 15.7903 1.14709 15.9999 1.40625 15.9999H3.28125C3.54028 15.9999 3.75 15.7903 3.75 15.5311V4.75H14.1249V8.96862C14.1249 9.55554 14.405 10.1163 14.8747 10.4687C14.9941 10.558 15.0624 10.6945 15.0624 10.8436C15.0624 11.1023 14.8523 11.3124 14.5936 11.3124C14.335 11.3124 14.1249 11.1023 14.1249 10.8436C14.1249 10.5846 13.9153 10.3749 13.6561 10.3749C13.3971 10.3749 13.1874 10.5846 13.1874 10.8436C13.1874 11.6191 13.8182 12.2499 14.5936 12.2499C15.369 12.2499 15.9999 11.6191 15.9999 10.8436C15.9999 10.4028 15.7893 9.98217 15.4372 9.7185ZM1.875 0.9375H2.8125V1.9375H1.875V0.9375ZM2.8125 15.0624H1.875V13.7623L2.8125 14.6998V15.0624ZM2.8125 13.3741L2.06909 12.6307L2.8125 11.8873V13.3741ZM1.875 11.4991V9.94348L2.62842 10.7457L1.875 11.4991ZM2.8125 9.57214L2.11755 8.83227L2.8125 8.13745V9.57214ZM1.875 7.74902V6.36413L2.60144 7.02234L1.875 7.74902ZM2.8125 5.94812L1.875 5.09851V4.74988H2.8125V5.94812ZM0.9375 3.8125V2.875H2.14966L3.08716 3.8125H0.9375ZM4.21875 3.61841L3.47534 2.875H4.96216L4.21875 3.61841ZM5.35034 3.8125L6.125 3.06909L6.8684 3.8125H5.35034ZM8.01001 3.62842L7.25659 2.875H8.81225L8.01001 3.62842ZM9.18347 3.8125L9.92346 3.11755L10.6183 3.8125H9.18347ZM11.7334 3.60144L11.0067 2.875H12.4228L11.7334 3.60144ZM14.3038 3.8125H12.8389L13.6885 2.875H14.7727L14.3038 3.8125Z" fill="#A3A3A3"/>
<path d="M8.46875 14.1249H9.40625V15.9999H8.46875V14.1249Z" fill="#A3A3A3"/>
<path d="M12.7186 5.6875H5.15625C4.89709 5.6875 4.6875 5.89709 4.6875 6.15625V15.5311C4.6875 15.7903 4.89709 15.9999 5.15625 15.9999H7.53125V13.6561C7.53125 13.3971 7.74084 13.1874 7.99988 13.1874H9.87488C10.134 13.1874 10.3436 13.3971 10.3436 13.6561V15.9999H12.7186C12.9778 15.9999 13.1874 15.7903 13.1874 15.5311V6.15625C13.1874 5.89709 12.9778 5.6875 12.7186 5.6875ZM7.99988 12.2499H7.0625C6.80334 12.2499 6.59375 12.0403 6.59375 11.7811C6.59375 11.5221 6.80334 11.3124 7.0625 11.3124H7.99988C8.25903 11.3124 8.46863 11.5221 8.46863 11.7811C8.46863 12.0403 8.25903 12.2499 7.99988 12.2499ZM7.99988 10.3749H7.0625C6.80334 10.3749 6.59375 10.1653 6.59375 9.90613C6.59375 9.64709 6.80334 9.43738 7.0625 9.43738H7.99988C8.25903 9.43738 8.46863 9.64709 8.46863 9.90613C8.46863 10.1653 8.25903 10.3749 7.99988 10.3749ZM7.99988 8.49988H7.0625C6.80334 8.49988 6.59375 8.29028 6.59375 8.03125C6.59375 7.77209 6.80334 7.5625 7.0625 7.5625H7.99988C8.25903 7.5625 8.46863 7.77209 8.46863 8.03125C8.46863 8.29028 8.25903 8.49988 7.99988 8.49988ZM10.8124 12.2499H9.87488C9.61584 12.2499 9.40613 12.0403 9.40613 11.7811C9.40613 11.5221 9.61584 11.3124 9.87488 11.3124H10.8124C11.0715 11.3124 11.2811 11.5221 11.2811 11.7811C11.2811 12.0403 11.0715 12.2499 10.8124 12.2499ZM10.8124 10.3749H9.87488C9.61584 10.3749 9.40613 10.1653 9.40613 9.90613C9.40613 9.64709 9.61584 9.43738 9.87488 9.43738H10.8124C11.0715 9.43738 11.2811 9.64709 11.2811 9.90613C11.2811 10.1653 11.0715 10.3749 10.8124 10.3749ZM10.8124 8.49988H9.87488C9.61584 8.49988 9.40613 8.29028 9.40613 8.03125C9.40613 7.77209 9.61584 7.5625 9.87488 7.5625H10.8124C11.0715 7.5625 11.2811 7.77209 11.2811 8.03125C11.2811 8.29028 11.0715 8.49988 10.8124 8.49988Z" fill="#A3A3A3"/>
</g>
<defs>
<clipPath id="clip0_563_6047">
<rect width="16" height="16" fill="white"/>
</clipPath>
</defs>
</svg>
