<svg width="16" height="16" viewBox="0 0 16 16" fill="none" xmlns="http://www.w3.org/2000/svg">
<g clip-path="url(#clip0_636_11708)">
<path d="M13.6569 2.34316C12.1459 0.832127 10.1369 0 8.00002 0C5.86314 0 3.85413 0.832127 2.34316 2.34313C0.832127 3.85413 0 5.86314 0 8.00002C0 10.1369 0.832127 12.1459 2.34316 13.6569C3.85413 15.1679 5.86314 16 8.00002 16C10.1369 16 12.1459 15.1679 13.6569 13.6568C15.1679 12.1459 16 10.1369 16 7.99998C16 5.86311 15.1679 3.85413 13.6569 2.34316ZM3.00676 3.00676C3.71023 2.30329 4.53607 1.76672 5.4362 1.4165C5.19645 1.71582 4.9721 2.05985 4.76651 2.44679C4.52773 2.89616 4.3217 3.38969 4.1501 3.91685C3.55566 3.8182 3.00488 3.69688 2.51282 3.55451C2.66704 3.36494 2.83157 3.18194 3.00676 3.00676ZM1.94466 4.36204C2.52019 4.54632 3.17838 4.70173 3.89657 4.82482C3.69657 5.67376 3.57885 6.58729 3.55076 7.5308H0.954252C1.028 6.39851 1.36807 5.31789 1.94466 4.36204ZM1.89357 11.5512C1.3481 10.6169 1.02578 9.56743 0.954221 8.46924H3.55254C3.58323 9.38577 3.6986 10.2733 3.89185 11.1001C3.15891 11.2189 2.48419 11.3703 1.89357 11.5512ZM3.00676 12.9933C2.80738 12.7939 2.62169 12.5845 2.44954 12.3666C2.95963 12.2251 3.52988 12.1053 4.14373 12.0093C4.31654 12.5437 4.52479 13.0438 4.76648 13.4987C4.99054 13.9204 5.23689 14.2909 5.50117 14.6082C4.57585 14.2588 3.72713 13.7136 3.00676 12.9933ZM7.53077 14.9411C6.81801 14.7415 6.14376 14.0906 5.59526 13.0583C5.40342 12.6973 5.23492 12.3035 5.09057 11.8837C5.86339 11.7987 6.68573 11.7484 7.53077 11.7366V14.9411ZM7.53077 10.7981C6.59364 10.8108 5.68023 10.8697 4.82482 10.9701C4.63613 10.1901 4.5226 9.34583 4.49145 8.46927H7.5308V10.7981H7.53077ZM7.53077 7.53077H4.48967C4.51813 6.6297 4.63348 5.76186 4.82804 4.96198C5.67798 5.06823 6.58948 5.13285 7.53077 5.15135V7.53077ZM7.53077 4.21276C6.68245 4.19566 5.86192 4.14035 5.09457 4.0501C5.23804 3.63473 5.40523 3.24485 5.59526 2.88713C6.14373 1.85488 6.81801 1.204 7.53077 1.00435V4.21276ZM14.0849 4.41188C14.6435 5.35542 14.9733 6.41811 15.0458 7.53077H12.4493C12.4216 6.59814 12.3061 5.69486 12.1103 4.85429C12.8332 4.73754 13.4995 4.58901 14.0849 4.41188ZM12.9932 3.00676C13.1817 3.19516 13.3577 3.39266 13.5218 3.59769C13.0195 3.73485 12.4602 3.85126 11.8592 3.94495C11.6858 3.40719 11.4766 2.90416 11.2336 2.44679C11.028 2.05985 10.8036 1.71582 10.5639 1.4165C11.4639 1.76672 12.2898 2.30329 12.9932 3.00676ZM8.46927 8.46927H11.5086C11.4772 9.35264 11.3622 10.2033 11.1708 10.9884C10.321 10.8827 9.40989 10.8187 8.46927 10.8007V8.46927ZM8.46927 7.53077V5.15448C9.40693 5.14217 10.3211 5.08382 11.1773 4.98373C11.3687 5.77757 11.4821 6.63786 11.5104 7.53077H8.46927ZM8.4692 1.00435H8.46924C9.18199 1.204 9.85624 1.85488 10.4047 2.88713C10.5978 3.25048 10.7673 3.64707 10.9122 4.06988C10.1384 4.15463 9.31511 4.20454 8.4692 4.21595V1.00435ZM8.46927 14.9411V11.7393C9.31677 11.7559 10.1367 11.8107 10.9037 11.9004C10.7606 12.3139 10.594 12.7021 10.4048 13.0583C9.85627 14.0906 9.18202 14.7415 8.46927 14.9411ZM12.9932 12.9933C12.2729 13.7136 11.4242 14.2588 10.4988 14.6082C10.7631 14.2908 11.0095 13.9204 11.2335 13.4987C11.4716 13.0506 11.6772 12.5585 11.8485 12.0329C12.4568 12.1333 13.0196 12.2575 13.5209 12.4035C13.357 12.6081 13.1813 12.8052 12.9932 12.9933ZM14.0815 11.5941C13.4991 11.4068 12.8315 11.2493 12.1025 11.125C12.2993 10.2912 12.4165 9.39499 12.4476 8.46927H15.0459C14.9731 9.58421 14.6422 10.6491 14.0815 11.5941Z" fill="#5E5E5E"/>
</g>
<defs>
<clipPath id="clip0_636_11708">
<rect width="16" height="16" fill="white"/>
</clipPath>
</defs>
</svg>
