<svg width="30" height="30" viewBox="0 0 30 30" fill="none" xmlns="http://www.w3.org/2000/svg">
<rect x="0.5" y="0.5" width="29" height="29" rx="14.5" stroke="#FF6B2A"/>
<g clip-path="url(#clip0_381_1627)">
<path d="M18.1624 12.3315C18.2216 12.2795 18.2553 12.2043 18.2546 12.1254V8.19323C18.2541 8.09375 18.1991 8.00253 18.1114 7.95556C18.0237 7.9086 17.9174 7.91343 17.8343 7.96815C15.8465 9.20747 13.8587 6.26781 11.8682 7.17628C11.9641 7.312 12.0161 7.47383 12.0173 7.64001V11.7268C14.0648 10.981 16.1149 14.1132 18.1624 12.3315Z" fill="#FF6B2A"/>
<path d="M21.7038 20.0739C21.0204 19.7783 19.1031 19.2603 19.2441 18.3356C19.3444 17.6766 20.6 17.8963 20.6217 17.2509C20.6353 16.8142 20.0143 16.7302 19.6455 16.7085C17.1695 16.4346 14.4577 16.3586 12.017 16.8658V18.8427C13.0339 19.3851 12.5404 20.5593 11.2034 20.5593C9.86647 20.5593 9.37833 19.3715 10.3899 18.8427V17.3051C9.17223 17.7119 7.2007 18.5525 7.13562 19.8407C7.0624 21.3349 9.20206 21.9505 10.4929 22.2081L10.5797 22.2271C12.5962 22.6627 14.6626 22.8224 16.7221 22.7017C18.3343 22.609 19.9356 22.3786 21.5085 22.0129C22.1214 21.8366 23.179 21.5139 22.6638 20.7492C22.4108 20.4413 22.079 20.2079 21.7038 20.0739ZM17.9831 21.3729C17.384 21.3729 16.8983 20.8872 16.8983 20.2881C16.8983 19.689 17.384 19.2034 17.9831 19.2034C18.5822 19.2034 19.0678 19.689 19.0678 20.2881C19.0678 20.8872 18.5822 21.3729 17.9831 21.3729Z" fill="#FF6B2A"/>
<path d="M10.9326 7.64003V19.4746C10.9326 19.6244 11.054 19.7458 11.2038 19.7458C11.3536 19.7458 11.475 19.6244 11.475 19.4746C11.475 6.75867 11.5102 7.57765 11.4099 7.46375C11.3361 7.37746 11.2164 7.34628 11.1099 7.38561C11.0033 7.42495 10.9326 7.52648 10.9326 7.64003Z" fill="#FF6B2A"/>
</g>
<defs>
<clipPath id="clip0_381_1627">
<rect width="16" height="16" fill="white" transform="translate(7 7)"/>
</clipPath>
</defs>
</svg>
