<svg width="34" height="34" viewBox="0 0 34 34" fill="none" xmlns="http://www.w3.org/2000/svg">
<circle opacity="0.8" cx="17" cy="17" r="16.5" fill="white" stroke="black"/>
<g clip-path="url(#clip0_426_3109)">
<path d="M16.5034 20.6749H17.4766C17.6418 20.6749 17.7764 20.5405 17.7764 20.3752V18.3951C17.7764 18.1627 17.944 17.9641 18.1731 17.925C18.3152 17.9008 18.4224 17.7738 18.4224 17.6296V16.1943C18.4224 16.0291 18.2878 15.8945 18.1226 15.8945H15.8574C15.6921 15.8945 15.5576 16.0291 15.5576 16.1943V17.6296C15.5576 17.7738 15.6648 17.9008 15.8069 17.925C16.0361 17.9641 16.2036 18.1627 16.2036 18.3951V20.3752C16.2036 20.5405 16.3381 20.6749 16.5034 20.6749Z" fill="black"/>
<path d="M17.4668 11.9781C18.2886 12.1904 18.8975 12.9381 18.8975 13.8254C18.8975 14.2668 18.7465 14.6733 18.4938 14.9969C19.0043 15.1555 19.376 15.6323 19.376 16.1943V17.3683L23.6985 20.1298V13.4098C23.6985 13.2502 23.6188 13.1013 23.4861 13.0129L17.4668 9V11.9781Z" fill="black"/>
<path d="M16.0361 13.8254C16.0361 14.3514 16.464 14.7793 16.99 14.7793C17.5159 14.7793 17.9438 14.3514 17.9438 13.8254C17.9438 13.2996 17.5159 12.8716 16.99 12.8716C16.464 12.8716 16.0361 13.2996 16.0361 13.8254Z" fill="black"/>
<path d="M14.6038 17.2418V16.1943C14.6038 15.6324 14.9755 15.1556 15.486 14.9969C15.2334 14.6733 15.0823 14.2668 15.0823 13.8254C15.0823 12.9382 15.6912 12.1904 16.5131 11.9781V9L10.4937 13.0129C10.361 13.1013 10.2812 13.2502 10.2812 13.4098V20.1292L14.6038 17.2418Z" fill="black"/>
<path d="M19.147 18.3536C19.0388 18.5066 18.8971 18.635 18.7306 18.7268V20.3752C18.7306 21.0664 18.1682 21.6288 17.4769 21.6288H16.5038C15.8125 21.6288 15.2501 21.0664 15.2501 20.3752V18.7268C15.0546 18.6189 14.8927 18.4611 14.78 18.2715L10.7705 20.9497L16.7258 24.9199C16.8059 24.9733 16.8981 25 16.9904 25C17.0825 25 17.1748 24.9733 17.2549 24.9199L23.2105 20.9495L19.147 18.3536Z" fill="black"/>
</g>
<defs>
<clipPath id="clip0_426_3109">
<rect width="16" height="16" fill="white" transform="translate(9 9)"/>
</clipPath>
</defs>
</svg>
