<svg width="34" height="34" viewBox="0 0 34 34" fill="none" xmlns="http://www.w3.org/2000/svg">
<circle opacity="0.8" cx="17" cy="17" r="16.5" fill="white" stroke="black"/>
<g clip-path="url(#clip0_426_3108)">
<path d="M16.6129 19.2741H17.2471C17.4973 19.2741 17.7009 19.4776 17.7009 19.7278C17.7009 19.8612 17.809 19.9693 17.9423 19.9693C18.4451 19.9693 18.1429 18.7912 17.2471 18.7912H16.6129C16.0964 18.7912 15.6762 19.2114 15.6762 19.7278V21.8595C15.6762 22.3759 16.0964 22.7961 16.6129 22.7961H17.2471C17.7636 22.7961 18.1838 22.3759 18.1838 21.8595V21.3035C18.1838 20.787 17.7636 20.3668 17.2471 20.3668C16.595 20.3668 16.4248 20.3365 16.1591 20.4842V19.7278C16.1592 19.4776 16.3627 19.2741 16.6129 19.2741ZM16.6129 20.8497H17.2471C17.4973 20.8497 17.7009 21.0533 17.7009 21.3035V21.8595C17.7009 22.1096 17.4973 22.3132 17.2471 22.3132H16.6129C16.3627 22.3132 16.1592 22.1096 16.1592 21.8595V21.3035C16.1592 21.0533 16.3627 20.8497 16.6129 20.8497ZM20.226 18.7912H19.5918C19.0753 18.7912 18.6551 19.2114 18.6551 19.7278V21.8595C18.6551 22.3759 19.0753 22.7961 19.5918 22.7961H20.226C20.7425 22.7961 21.1627 22.3759 21.1627 21.8595V19.7278C21.1627 19.2114 20.7425 18.7912 20.226 18.7912ZM20.6798 21.8595C20.6798 22.1096 20.4762 22.3132 20.226 22.3132H19.5918C19.3416 22.3132 19.138 22.1096 19.138 21.8595V19.7278C19.138 19.4776 19.3416 19.2741 19.5918 19.2741H20.226C20.4762 19.2741 20.6798 19.4776 20.6798 19.7278V21.8595ZM14.3045 18.7912H13.7307C12.8918 18.7912 12.6092 19.903 13.1017 19.903C13.2351 19.903 13.3431 19.795 13.3431 19.6616C13.3431 19.4479 13.517 19.2741 13.7307 19.2741H14.3045C14.5182 19.2741 14.6921 19.4479 14.6921 19.6616V20.1646C14.6921 20.3784 14.5182 20.5522 14.3045 20.5522H13.9161C13.7827 20.5522 13.6747 20.6603 13.6747 20.7936C13.6747 20.927 13.7828 21.0351 13.9161 21.0351H14.3045C14.5182 21.0351 14.6921 21.2089 14.6921 21.4226V21.9256C14.6921 22.1393 14.5182 22.3132 14.3045 22.3132H13.7307C13.517 22.3132 13.3431 22.1393 13.3431 21.9256C13.3431 21.7923 13.235 21.6842 13.1017 21.6842C12.6082 21.6842 12.8926 22.7961 13.7307 22.7961H14.3045C14.7845 22.7961 15.1749 22.4056 15.1749 21.9257V21.4227C15.1749 21.1755 15.0712 20.9523 14.9053 20.7937C15.0712 20.6351 15.1749 20.4118 15.1749 20.1646V19.6616C15.1749 19.1816 14.7845 18.7912 14.3045 18.7912ZM11.2616 21.0287C9.83891 20.6053 9 20.0447 9 19.5065V14.3743C9.45391 14.7923 10.2197 15.1622 11.2616 15.4587V21.0287ZM25 19.5065C25 20.0446 24.1611 20.6053 22.7383 21.0287L22.7384 15.4587C23.7803 15.1622 24.5461 14.7923 25 14.3743V19.5065ZM22.4343 15.0418C22.3288 15.0701 22.2555 15.1658 22.2555 15.275V17.3947C19.1902 16.647 14.8058 16.648 11.7445 17.3947V15.275C11.7445 15.1658 11.6712 15.0701 11.5657 15.0418C9.95912 14.6103 9 14.0091 9 13.4337C9 12.379 12.2855 11.2039 17 11.2039C21.7145 11.2039 25 12.379 25 13.4337C25 14.0091 24.0409 14.6103 22.4343 15.0418ZM18.9662 13.3091C18.7504 12.9517 18.2316 12.9507 18.0145 13.3074L17.6748 13.7821L16.7651 12.4443C16.5498 12.086 16.0298 12.0841 15.8125 12.442C14.2121 14.6959 13.8765 15.1669 13.8675 15.1824C13.6533 15.5534 13.9207 16.0175 14.3497 16.0175H19.7832C20.2116 16.0175 20.4799 15.5539 20.2654 15.1824C20.2564 15.1667 20.3404 15.2895 18.9662 13.3091ZM19.7832 15.5346C14.0789 15.5105 14.3306 15.5754 14.2857 15.4977C14.2784 15.4849 14.2687 15.4599 14.2822 15.4307C15.8655 13.2007 16.2153 12.7099 16.2241 12.6945C16.2527 12.645 16.3235 12.6452 16.352 12.6945C16.359 12.7066 16.2629 12.5647 17.7383 14.7344C17.8133 14.8446 17.9634 14.8733 18.0737 14.7983C18.184 14.7233 18.2126 14.5731 18.1376 14.4628L17.9631 14.2062C17.9777 14.1901 18.4171 13.5757 18.4259 13.5604C18.4543 13.5112 18.5251 13.5109 18.5538 13.5604C18.5627 13.576 18.4751 13.448 19.8503 15.4299C19.8725 15.4765 19.8393 15.5346 19.7832 15.5346Z" fill="black"/>
</g>
<defs>
<clipPath id="clip0_426_3108">
<rect width="16" height="16" fill="white" transform="translate(9 9)"/>
</clipPath>
</defs>
</svg>
