<svg width="34" height="34" viewBox="0 0 34 34" fill="none" xmlns="http://www.w3.org/2000/svg">
<circle opacity="0.8" cx="17" cy="17" r="16.5" fill="white" stroke="black"/>
<g clip-path="url(#clip0_426_3106)">
<path fill-rule="evenodd" clip-rule="evenodd" d="M12.5769 11.4827C12.6907 11.48 12.7926 11.4116 12.8382 11.3073C12.8839 11.2031 12.865 11.0818 12.7898 10.9964L11.1444 9.09822C11.0912 9.03591 11.0134 9 10.9314 9C10.8494 9 10.7716 9.03591 10.7184 9.09822L9.07298 10.9964C8.99782 11.0818 8.97898 11.2031 9.0246 11.3073C9.07023 11.4116 9.17216 11.48 9.28594 11.4827H10.3797V17.5515H9.28594C9.17216 17.5542 9.07026 17.6226 9.0246 17.7269C8.97895 17.8311 8.99782 17.9524 9.07298 18.0378L10.7185 19.936C10.7716 19.9983 10.8495 20.0342 10.9314 20.0342C11.0134 20.0342 11.0912 19.9983 11.1444 19.936L12.7899 18.0378C12.865 17.9524 12.8839 17.8311 12.8382 17.7269C12.7926 17.6226 12.6907 17.5543 12.5769 17.5515H11.4831V11.4827H12.5769Z" fill="black"/>
<path fill-rule="evenodd" clip-rule="evenodd" d="M24.9018 22.8557L23.0037 21.2102C22.9182 21.135 22.797 21.1162 22.6927 21.1618C22.5885 21.2074 22.5201 21.3094 22.5173 21.4231V22.5169H16.4485V21.4231C16.4458 21.3094 16.3774 21.2075 16.2732 21.1618C16.1689 21.1162 16.0477 21.135 15.9622 21.2102L14.064 22.8557C14.0017 22.9089 13.9658 22.9867 13.9658 23.0686C13.9658 23.1506 14.0017 23.2284 14.064 23.2816L15.9622 24.9271C16.0477 25.0022 16.1689 25.0211 16.2732 24.9755C16.3774 24.9298 16.4458 24.8279 16.4485 24.7141V23.6204H22.5173V24.7141C22.5201 24.8279 22.5885 24.9298 22.6927 24.9755C22.797 25.0211 22.9182 25.0022 23.0037 24.9271L24.9018 23.2816C24.9641 23.2284 25 23.1506 25 23.0686C25 22.9867 24.9641 22.9089 24.9018 22.8557Z" fill="black"/>
<path fill-rule="evenodd" clip-rule="evenodd" d="M24.7237 14.2413V9.55175C24.7237 9.39941 24.6002 9.27588 24.4478 9.27588H21.1376V10.3793C21.1376 10.5316 21.0141 10.6552 20.8617 10.6552C20.7093 10.6552 20.5858 10.5317 20.5858 10.3793V9.27591H14.5171C14.3647 9.27591 14.2412 9.39941 14.2412 9.55178V14.2413H18.6549V12.3103C18.6549 12.158 18.7784 12.0345 18.9307 12.0345C19.0831 12.0345 19.2066 12.158 19.2066 12.3103V14.5172C19.2066 14.6695 19.0831 14.793 18.9307 14.793H14.2412V19.4826C14.2412 19.6349 14.3647 19.7584 14.5171 19.7584H15.7822L17.0806 18.46C17.1888 18.3555 17.3609 18.3569 17.4673 18.4634C17.5737 18.5698 17.5752 18.7418 17.4707 18.8501L16.5623 19.7585H20.5859V18.6551C20.5859 18.5027 20.7094 18.3792 20.8618 18.3792C21.0142 18.3792 21.1376 18.5027 21.1376 18.6551V19.7585H24.4479C24.6002 19.7585 24.7238 19.635 24.7238 19.4826V14.793H21.1376V16.724C21.1376 16.8763 21.0141 16.9999 20.8617 16.9999C20.7093 16.9999 20.5858 16.8764 20.5858 16.724V12.3103C20.5858 12.158 20.7093 12.0344 20.8617 12.0344C21.0141 12.0344 21.1376 12.1579 21.1376 12.3103V14.2413H24.7237Z" fill="black"/>
</g>
<defs>
<clipPath id="clip0_426_3106">
<rect width="16" height="16" fill="white" transform="translate(9 9)"/>
</clipPath>
</defs>
</svg>
