<svg width="16" height="16" viewBox="0 0 16 16" fill="none" xmlns="http://www.w3.org/2000/svg">
<g clip-path="url(#clip0_563_6059)">
<path d="M15.1047 4.93869L9.438 0.504019C8.59067 -0.158648 7.408 -0.158648 6.562 0.504019L0.896 4.93802C0.326667 5.38335 0 6.05335 0 6.77602V15.992H16V6.77602C16 6.05335 15.674 5.38335 15.1047 4.93869ZM14 13.992H2V6.77602C2 6.67269 2.04667 6.57735 2.128 6.51335L7.79467 2.07869C7.916 1.98402 8.084 1.98402 8.20467 2.07869L13.872 6.51335C13.9527 6.57669 13.9993 6.67269 13.9993 6.77602L14 13.992ZM10.9873 8.31669C10.9873 10.0447 7.98733 12.1667 7.98733 12.1667C7.98733 12.1667 4.98733 10.0447 4.98733 8.31669C4.98733 7.40535 5.65867 6.66669 6.48733 6.66669C7.316 6.66669 7.98733 7.40535 7.98733 8.31669C7.98733 7.40535 8.65867 6.66669 9.48733 6.66669C10.316 6.66669 10.9873 7.40535 10.9873 8.31669Z" fill="#A3A3A3"/>
</g>
<defs>
<clipPath id="clip0_563_6059">
<rect width="16" height="16" fill="white"/>
</clipPath>
</defs>
</svg>
