<svg width="16" height="16" viewBox="0 0 16 16" fill="none" xmlns="http://www.w3.org/2000/svg">
<g clip-path="url(#clip0_565_6098)">
<path d="M15 8.75H13.5V8.25C13.6326 8.25 13.7598 8.19732 13.8536 8.10355C13.9473 8.00979 14 7.88261 14 7.75C14 7.61739 13.9473 7.49021 13.8536 7.39645C13.7598 7.30268 13.6326 7.25 13.5 7.25H9.5C9.36739 7.25 9.24021 7.30268 9.14645 7.39645C9.05268 7.49021 9 7.61739 9 7.75C9 7.88261 9.05268 8.00979 9.14645 8.10355C9.24021 8.19732 9.36739 8.25 9.5 8.25V8.75H6.5V8.25C6.63261 8.25 6.75979 8.19732 6.85355 8.10355C6.94732 8.00979 7 7.88261 7 7.75C7 7.61739 6.94732 7.49021 6.85355 7.39645C6.75979 7.30268 6.63261 7.25 6.5 7.25H2.5C2.36739 7.25 2.24021 7.30268 2.14645 7.39645C2.05268 7.49021 2 7.61739 2 7.75C2 7.88261 2.05268 8.00979 2.14645 8.10355C2.24021 8.19732 2.36739 8.25 2.5 8.25V8.75H1C0.867511 8.75039 0.74056 8.80319 0.646876 8.89688C0.553192 8.99056 0.500389 9.11751 0.5 9.25V11.25C0.500389 11.3825 0.553192 11.5094 0.646876 11.6031C0.74056 11.6968 0.867511 11.7496 1 11.75H1.25V15C1.25039 15.1325 1.30319 15.2594 1.39688 15.3531C1.49056 15.4468 1.61751 15.4996 1.75 15.5H14.25C14.3825 15.4996 14.5094 15.4468 14.6031 15.3531C14.6968 15.2594 14.7496 15.1325 14.75 15V11.75H15C15.1325 11.7496 15.2594 11.6968 15.3531 11.6031C15.4468 11.5094 15.4996 11.3825 15.5 11.25V9.25C15.4996 9.11751 15.4468 8.99056 15.3531 8.89688C15.2594 8.80319 15.1325 8.75039 15 8.75ZM10.5 8.25H12.5V8.75H10.5V8.25ZM3.5 8.25H5.5V8.75H3.5V8.25ZM4.5 13.75C4.35166 13.75 4.20666 13.706 4.08332 13.6236C3.95999 13.5412 3.86386 13.4241 3.80709 13.287C3.75032 13.15 3.73547 12.9992 3.76441 12.8537C3.79335 12.7082 3.86478 12.5746 3.96967 12.4697C4.07456 12.3648 4.2082 12.2933 4.35368 12.2644C4.49917 12.2355 4.64997 12.2503 4.78701 12.3071C4.92406 12.3639 5.04119 12.46 5.1236 12.5833C5.20601 12.7067 5.25 12.8517 5.25 13C5.24942 13.1987 5.17022 13.3892 5.02969 13.5297C4.88916 13.6702 4.69873 13.7494 4.5 13.75ZM11.5 13.75C11.3517 13.75 11.2067 13.706 11.0833 13.6236C10.96 13.5412 10.8639 13.4241 10.8071 13.287C10.7503 13.15 10.7355 12.9992 10.7644 12.8537C10.7934 12.7082 10.8648 12.5746 10.9697 12.4697C11.0746 12.3648 11.2082 12.2933 11.3537 12.2644C11.4992 12.2355 11.65 12.2503 11.787 12.3071C11.9241 12.3639 12.0412 12.46 12.1236 12.5833C12.206 12.7067 12.25 12.8517 12.25 13C12.2494 13.1987 12.1702 13.3892 12.0297 13.5297C11.8892 13.6702 11.6987 13.7494 11.5 13.75ZM14.5 10.75H1.5V9.75H14.5V10.75Z" fill="#A3A3A3"/>
<path d="M9.24955 4.75H13.7495C13.8348 4.74998 13.9186 4.72815 13.993 4.68658C14.0674 4.645 14.1299 4.58507 14.1745 4.5125C14.2198 4.44045 14.2456 4.35793 14.2495 4.27296C14.2535 4.18798 14.2354 4.10343 14.197 4.0275L13.4995 2.6325V1C13.4992 0.867511 13.4464 0.74056 13.3527 0.646876C13.259 0.553192 13.132 0.500389 12.9995 0.5H9.99955C9.86706 0.500389 9.74011 0.553192 9.64642 0.646876C9.55274 0.74056 9.49994 0.867511 9.49955 1V2.6325L8.80205 4.0275C8.76369 4.10343 8.74561 4.18798 8.74955 4.27296C8.7535 4.35793 8.77933 4.44045 8.82455 4.5125C8.86922 4.58507 8.93173 4.645 9.00613 4.68658C9.08052 4.72815 9.16432 4.74998 9.24955 4.75ZM10.3095 3.25H12.6895L12.9395 3.75H10.0595L10.3095 3.25Z" fill="#A3A3A3"/>
<path d="M2.24955 4.75H6.74955C6.83477 4.74998 6.91857 4.72815 6.99297 4.68658C7.06736 4.645 7.12987 4.58507 7.17455 4.5125C7.21977 4.44045 7.2456 4.35793 7.24954 4.27296C7.25348 4.18798 7.2354 4.10343 7.19705 4.0275L6.49955 2.6325V1C6.49916 0.867511 6.44636 0.74056 6.35267 0.646876C6.25899 0.553192 6.13204 0.500389 5.99955 0.5H2.99955C2.86706 0.500389 2.74011 0.553192 2.64642 0.646876C2.55274 0.74056 2.49994 0.867511 2.49955 1V2.6325L1.80205 4.0275C1.76369 4.10343 1.74561 4.18798 1.74955 4.27296C1.7535 4.35793 1.77933 4.44045 1.82455 4.5125C1.86922 4.58507 1.93173 4.645 2.00613 4.68658C2.08052 4.72815 2.16432 4.74998 2.24955 4.75ZM3.30955 3.25H5.68955L5.93955 3.75H3.05955L3.30955 3.25Z" fill="#A3A3A3"/>
</g>
<defs>
<clipPath id="clip0_565_6098">
<rect width="16" height="16" fill="white"/>
</clipPath>
</defs>
</svg>
