<svg width="246" height="52" viewBox="0 0 246 52" fill="none" xmlns="http://www.w3.org/2000/svg">
<path d="M106.096 7C106.096 3.13401 109.23 0 113.096 0H238.212C242.078 0 245.212 3.13401 245.212 7V45C245.212 48.866 242.078 52 238.212 52H113.096C109.23 52 106.096 48.866 106.096 45V7Z" fill="#16171A"/>
<mask id="path-2-inside-1_788_316" fill="white">
<path d="M0.00732422 7C0.00732422 3.13401 3.14133 0 7.00732 0H175.153V52H7.00732C3.14133 52 0.00732422 48.866 0.00732422 45V7Z"/>
</mask>
<path d="M0.00732422 7C0.00732422 3.13401 3.14133 0 7.00732 0H175.153V52H7.00732C3.14133 52 0.00732422 48.866 0.00732422 45V7Z" fill="white"/>
<path d="M-0.992676 7C-0.992676 2.58172 2.58905 -1 7.00732 -1H175.153V1H7.00732C3.69362 1 1.00732 3.68629 1.00732 7H-0.992676ZM175.153 53H7.00732C2.58905 53 -0.992676 49.4183 -0.992676 45H1.00732C1.00732 48.3137 3.69362 51 7.00732 51H175.153V53ZM7.00732 53C2.58905 53 -0.992676 49.4183 -0.992676 45V7C-0.992676 2.58172 2.58905 -1 7.00732 -1V1C3.69362 1 1.00732 3.68629 1.00732 7V45C1.00732 48.3137 3.69362 51 7.00732 51V53ZM175.153 0V52V0Z" fill="#FFB391" mask="url(#path-2-inside-1_788_316)"/>
<g clip-path="url(#clip0_788_316)">
<path d="M25.5801 32H22.5801C21.2011 32 20.0801 30.879 20.0801 29.5V26.5C20.0801 25.121 21.2011 24 22.5801 24H25.5801C26.9591 24 28.0801 25.121 28.0801 26.5V29.5C28.0801 30.879 26.9591 32 25.5801 32ZM23.0801 29H25.0801V27H23.0801V29ZM30.5801 38H17.5801C14.5481 38 12.0801 35.532 12.0801 32.5V23.886C12.0801 22.056 12.9861 20.352 14.5041 19.327L21.0041 14.941C22.8711 13.679 25.2881 13.679 27.1571 14.941L33.6561 19.327C35.1741 20.351 36.0801 22.056 36.0801 23.886V32.5C36.0801 35.532 33.6121 38 30.5801 38ZM24.0801 16.997C23.5941 16.997 23.1061 17.141 22.6831 17.428L16.1821 21.813C15.4931 22.279 15.0801 23.053 15.0801 23.885V32.499C15.0801 33.878 16.2011 34.999 17.5801 34.999H30.5801C31.9591 34.999 33.0801 33.878 33.0801 32.499V23.886C33.0801 23.054 32.6681 22.28 31.9781 21.814L25.4781 17.428C25.0531 17.141 24.5661 16.997 24.0801 16.997Z" fill="#FF6B2A"/>
</g>
<path d="M45.1547 32.5V20.1364H53.4856V22.2915H47.7686V25.2376H53.057V27.3928H47.7686V30.3448H53.5098V32.5H45.1547ZM63.2307 25.8714L60.8763 26.0163C60.8361 25.8151 60.7496 25.634 60.6167 25.473C60.4839 25.308 60.3089 25.1772 60.0915 25.0806C59.8782 24.98 59.6227 24.9297 59.3248 24.9297C58.9264 24.9297 58.5903 25.0142 58.3167 25.1832C58.043 25.3482 57.9062 25.5696 57.9062 25.8473C57.9062 26.0687 57.9947 26.2558 58.1718 26.4087C58.3489 26.5617 58.6527 26.6844 59.0834 26.777L60.7616 27.1151C61.6631 27.3002 62.3353 27.598 62.778 28.0085C63.2207 28.419 63.442 28.9583 63.442 29.6264C63.442 30.2341 63.2629 30.7674 62.9047 31.2262C62.5506 31.685 62.0636 32.0432 61.4438 32.3008C60.828 32.5543 60.1177 32.6811 59.3128 32.6811C58.0853 32.6811 57.1073 32.4255 56.3788 31.9144C55.6544 31.3993 55.2298 30.699 55.105 29.8136L57.6345 29.6808C57.711 30.055 57.8961 30.3408 58.1899 30.538C58.4837 30.7312 58.86 30.8278 59.3188 30.8278C59.7696 30.8278 60.1318 30.7412 60.4055 30.5682C60.6832 30.3911 60.824 30.1637 60.828 29.886C60.824 29.6526 60.7254 29.4614 60.5322 29.3125C60.339 29.1596 60.0412 29.0429 59.6388 28.9624L58.0329 28.6424C57.1274 28.4613 56.4533 28.1474 56.0106 27.7006C55.5719 27.2539 55.3525 26.6844 55.3525 25.9922C55.3525 25.3965 55.5135 24.8834 55.8355 24.4528C56.1615 24.0221 56.6183 23.6901 57.2059 23.4567C57.7975 23.2232 58.4897 23.1065 59.2826 23.1065C60.4537 23.1065 61.3754 23.354 62.0475 23.8491C62.7236 24.3441 63.118 25.0182 63.2307 25.8714ZM69.9936 23.2273V25.1591H64.4094V23.2273H69.9936ZM65.6772 21.0057H68.2489V29.6506C68.2489 29.888 68.2852 30.0732 68.3576 30.206C68.43 30.3348 68.5307 30.4253 68.6594 30.4776C68.7923 30.5299 68.9452 30.5561 69.1183 30.5561C69.239 30.5561 69.3597 30.546 69.4805 30.5259C69.6012 30.5018 69.6938 30.4837 69.7582 30.4716L70.1626 32.3853C70.0339 32.4255 69.8527 32.4718 69.6193 32.5241C69.3859 32.5805 69.1022 32.6147 68.7681 32.6268C68.1483 32.6509 67.605 32.5684 67.1381 32.3793C66.6753 32.1901 66.3151 31.8963 66.0575 31.4979C65.8 31.0994 65.6732 30.5964 65.6772 29.9886V21.0057ZM74.313 32.6751C73.7214 32.6751 73.1942 32.5724 72.7314 32.3672C72.2685 32.1579 71.9023 31.85 71.6326 31.4435C71.367 31.033 71.2342 30.5219 71.2342 29.9102C71.2342 29.395 71.3288 28.9624 71.5179 28.6122C71.7071 28.2621 71.9647 27.9804 72.2907 27.767C72.6167 27.5537 72.9869 27.3928 73.4015 27.2841C73.82 27.1754 74.2587 27.099 74.7175 27.0547C75.2568 26.9983 75.6915 26.946 76.0215 26.8977C76.3515 26.8454 76.591 26.7689 76.7399 26.6683C76.8888 26.5677 76.9632 26.4188 76.9632 26.2216V26.1854C76.9632 25.803 76.8425 25.5072 76.601 25.2979C76.3636 25.0887 76.0255 24.984 75.5868 24.984C75.124 24.984 74.7557 25.0866 74.4821 25.2919C74.2084 25.4931 74.0273 25.7467 73.9387 26.0526L71.5602 25.8594C71.6809 25.2959 71.9184 24.8089 72.2725 24.3984C72.6267 23.9839 73.0835 23.666 73.6429 23.4446C74.2064 23.2192 74.8584 23.1065 75.5989 23.1065C76.1141 23.1065 76.6071 23.1669 77.0779 23.2876C77.5529 23.4084 77.9734 23.5955 78.3397 23.8491C78.7099 24.1026 79.0017 24.4286 79.215 24.8271C79.4283 25.2215 79.535 25.6944 79.535 26.2457V32.5H77.0961V31.2141H77.0236C76.8747 31.5039 76.6755 31.7595 76.426 31.9808C76.1764 32.1982 75.8766 32.3692 75.5265 32.494C75.1763 32.6147 74.7718 32.6751 74.313 32.6751ZM75.0495 30.9002C75.4279 30.9002 75.7619 30.8258 76.0517 30.6768C76.3414 30.5239 76.5688 30.3187 76.7338 30.0611C76.8989 29.8035 76.9814 29.5117 76.9814 29.1857V28.2017C76.9009 28.254 76.7902 28.3023 76.6493 28.3466C76.5125 28.3868 76.3575 28.4251 76.1845 28.4613C76.0114 28.4935 75.8384 28.5237 75.6653 28.5518C75.4922 28.576 75.3353 28.5981 75.1944 28.6183C74.8926 28.6625 74.629 28.733 74.4036 28.8295C74.1782 28.9261 74.0031 29.0569 73.8784 29.2219C73.7536 29.3829 73.6912 29.5842 73.6912 29.8256C73.6912 30.1758 73.818 30.4434 74.0716 30.6286C74.3291 30.8097 74.6551 30.9002 75.0495 30.9002ZM86.4624 23.2273V25.1591H80.8782V23.2273H86.4624ZM82.146 21.0057H84.7177V29.6506C84.7177 29.888 84.7539 30.0732 84.8263 30.206C84.8988 30.3348 84.9994 30.4253 85.1282 30.4776C85.261 30.5299 85.4139 30.5561 85.587 30.5561C85.7077 30.5561 85.8285 30.546 85.9492 30.5259C86.07 30.5018 86.1625 30.4837 86.2269 30.4716L86.6314 32.3853C86.5026 32.4255 86.3215 32.4718 86.0881 32.5241C85.8546 32.5805 85.5709 32.6147 85.2369 32.6268C84.6171 32.6509 84.0737 32.5684 83.6069 32.3793C83.1441 32.1901 82.7839 31.8963 82.5263 31.4979C82.2687 31.0994 82.1419 30.5964 82.146 29.9886V21.0057ZM92.2638 32.6811C91.31 32.6811 90.489 32.4879 89.8008 32.1016C89.1166 31.7112 88.5894 31.1598 88.2191 30.4474C87.8488 29.7311 87.6637 28.8839 87.6637 27.9059C87.6637 26.9521 87.8488 26.1149 88.2191 25.3945C88.5894 24.6741 89.1106 24.1127 89.7827 23.7102C90.4588 23.3078 91.2517 23.1065 92.1612 23.1065C92.773 23.1065 93.3424 23.2051 93.8697 23.4023C94.4009 23.5955 94.8638 23.8873 95.2582 24.2777C95.6566 24.6681 95.9665 25.1591 96.1879 25.7507C96.4092 26.3383 96.5199 27.0265 96.5199 27.8153V28.5217H88.69V26.9279H94.0991C94.0991 26.5576 94.0186 26.2296 93.8576 25.9439C93.6966 25.6581 93.4732 25.4348 93.1875 25.2738C92.9058 25.1088 92.5778 25.0263 92.2035 25.0263C91.8131 25.0263 91.467 25.1168 91.1651 25.2979C90.8673 25.475 90.6339 25.7145 90.4648 26.0163C90.2958 26.3142 90.2093 26.6462 90.2053 27.0124V28.5277C90.2053 28.9865 90.2898 29.3829 90.4588 29.717C90.6319 30.051 90.8754 30.3086 91.1893 30.4897C91.5032 30.6708 91.8755 30.7614 92.3061 30.7614C92.5919 30.7614 92.8535 30.7211 93.0909 30.6406C93.3284 30.5601 93.5316 30.4394 93.7006 30.2784C93.8697 30.1174 93.9985 29.9202 94.087 29.6868L96.4656 29.8438C96.3448 30.4152 96.0973 30.9143 95.723 31.3409C95.3527 31.7635 94.8738 32.0935 94.2862 32.331C93.7027 32.5644 93.0285 32.6811 92.2638 32.6811ZM108.588 20.1364V32.5H106.33L100.951 24.7184H100.86V32.5H98.2464V20.1364H100.54L105.877 27.9119H105.986V20.1364H108.588ZM114.925 32.6811C113.971 32.6811 113.15 32.4879 112.462 32.1016C111.778 31.7112 111.251 31.1598 110.88 30.4474C110.51 29.7311 110.325 28.8839 110.325 27.9059C110.325 26.9521 110.51 26.1149 110.88 25.3945C111.251 24.6741 111.772 24.1127 112.444 23.7102C113.12 23.3078 113.913 23.1065 114.822 23.1065C115.434 23.1065 116.004 23.2051 116.531 23.4023C117.062 23.5955 117.525 23.8873 117.919 24.2777C118.318 24.6681 118.628 25.1591 118.849 25.7507C119.07 26.3383 119.181 27.0265 119.181 27.8153V28.5217H111.351V26.9279H116.76C116.76 26.5576 116.68 26.2296 116.519 25.9439C116.358 25.6581 116.134 25.4348 115.849 25.2738C115.567 25.1088 115.239 25.0263 114.865 25.0263C114.474 25.0263 114.128 25.1168 113.826 25.2979C113.528 25.475 113.295 25.7145 113.126 26.0163C112.957 26.3142 112.87 26.6462 112.866 27.0124V28.5277C112.866 28.9865 112.951 29.3829 113.12 29.717C113.293 30.051 113.536 30.3086 113.85 30.4897C114.164 30.6708 114.537 30.7614 114.967 30.7614C115.253 30.7614 115.515 30.7211 115.752 30.6406C115.989 30.5601 116.193 30.4394 116.362 30.2784C116.531 30.1174 116.66 29.9202 116.748 29.6868L119.127 29.8438C119.006 30.4152 118.758 30.9143 118.384 31.3409C118.014 31.7635 117.535 32.0935 116.947 32.331C116.364 32.5644 115.69 32.6811 114.925 32.6811ZM123.503 32.6751C122.912 32.6751 122.385 32.5724 121.922 32.3672C121.459 32.1579 121.093 31.85 120.823 31.4435C120.557 31.033 120.425 30.5219 120.425 29.9102C120.425 29.395 120.519 28.9624 120.708 28.6122C120.898 28.2621 121.155 27.9804 121.481 27.767C121.807 27.5537 122.177 27.3928 122.592 27.2841C123.01 27.1754 123.449 27.099 123.908 27.0547C124.447 26.9983 124.882 26.946 125.212 26.8977C125.542 26.8454 125.781 26.7689 125.93 26.6683C126.079 26.5677 126.154 26.4188 126.154 26.2216V26.1854C126.154 25.803 126.033 25.5072 125.791 25.2979C125.554 25.0887 125.216 24.984 124.777 24.984C124.314 24.984 123.946 25.0866 123.672 25.2919C123.399 25.4931 123.218 25.7467 123.129 26.0526L120.751 25.8594C120.871 25.2959 121.109 24.8089 121.463 24.3984C121.817 23.9839 122.274 23.666 122.833 23.4446C123.397 23.2192 124.049 23.1065 124.789 23.1065C125.304 23.1065 125.797 23.1669 126.268 23.2876C126.743 23.4084 127.164 23.5955 127.53 23.8491C127.9 24.1026 128.192 24.4286 128.405 24.8271C128.619 25.2215 128.725 25.6944 128.725 26.2457V32.5H126.286V31.2141H126.214C126.065 31.5039 125.866 31.7595 125.616 31.9808C125.367 32.1982 125.067 32.3692 124.717 32.494C124.367 32.6147 123.962 32.6751 123.503 32.6751ZM124.24 30.9002C124.618 30.9002 124.952 30.8258 125.242 30.6768C125.532 30.5239 125.759 30.3187 125.924 30.0611C126.089 29.8035 126.172 29.5117 126.172 29.1857V28.2017C126.091 28.254 125.981 28.3023 125.84 28.3466C125.703 28.3868 125.548 28.4251 125.375 28.4613C125.202 28.4935 125.029 28.5237 124.856 28.5518C124.683 28.576 124.526 28.5981 124.385 28.6183C124.083 28.6625 123.819 28.733 123.594 28.8295C123.369 28.9261 123.194 29.0569 123.069 29.2219C122.944 29.3829 122.882 29.5842 122.882 29.8256C122.882 30.1758 123.008 30.4434 123.262 30.6286C123.52 30.8097 123.846 30.9002 124.24 30.9002ZM130.721 32.5V23.2273H133.214V24.8452H133.31C133.479 24.2696 133.763 23.835 134.162 23.5412C134.56 23.2434 135.019 23.0945 135.538 23.0945C135.667 23.0945 135.806 23.1025 135.955 23.1186C136.104 23.1347 136.234 23.1568 136.347 23.185V25.467C136.226 25.4308 136.059 25.3986 135.846 25.3704C135.633 25.3422 135.437 25.3281 135.26 25.3281C134.882 25.3281 134.544 25.4106 134.246 25.5756C133.952 25.7366 133.719 25.962 133.546 26.2518C133.377 26.5415 133.292 26.8756 133.292 27.2539V32.5H130.721ZM137.725 20.1364H140.949L144.354 28.4432H144.498L147.903 20.1364H151.127V32.5H148.591V24.4528H148.489L145.289 32.4396H143.563L140.363 24.4226H140.26V32.5H137.725V20.1364ZM157.458 32.6811C156.504 32.6811 155.683 32.4879 154.995 32.1016C154.311 31.7112 153.784 31.1598 153.413 30.4474C153.043 29.7311 152.858 28.8839 152.858 27.9059C152.858 26.9521 153.043 26.1149 153.413 25.3945C153.784 24.6741 154.305 24.1127 154.977 23.7102C155.653 23.3078 156.446 23.1065 157.356 23.1065C157.967 23.1065 158.537 23.2051 159.064 23.4023C159.595 23.5955 160.058 23.8873 160.453 24.2777C160.851 24.6681 161.161 25.1591 161.382 25.7507C161.604 26.3383 161.714 27.0265 161.714 27.8153V28.5217H153.884V26.9279H159.293C159.293 26.5576 159.213 26.2296 159.052 25.9439C158.891 25.6581 158.668 25.4348 158.382 25.2738C158.1 25.1088 157.772 25.0263 157.398 25.0263C157.007 25.0263 156.661 25.1168 156.359 25.2979C156.062 25.475 155.828 25.7145 155.659 26.0163C155.49 26.3142 155.404 26.6462 155.4 27.0124V28.5277C155.4 28.9865 155.484 29.3829 155.653 29.717C155.826 30.051 156.07 30.3086 156.384 30.4897C156.698 30.6708 157.07 30.7614 157.5 30.7614C157.786 30.7614 158.048 30.7211 158.285 30.6406C158.523 30.5601 158.726 30.4394 158.895 30.2784C159.064 30.1174 159.193 29.9202 159.281 29.6868L161.66 29.8438C161.539 30.4152 161.292 30.9143 160.917 31.3409C160.547 31.7635 160.068 32.0935 159.481 32.331C158.897 32.5644 158.223 32.6811 157.458 32.6811Z" fill="#FF6B2A"/>
<path d="M191.942 24.1921C191.894 23.7051 191.687 23.3268 191.32 23.0572C190.954 22.7875 190.457 22.6527 189.829 22.6527C189.403 22.6527 189.043 22.7131 188.749 22.8338C188.455 22.9505 188.23 23.1135 188.073 23.3228C187.92 23.5321 187.843 23.7695 187.843 24.0352C187.835 24.2565 187.881 24.4497 187.982 24.6147C188.087 24.7797 188.23 24.9226 188.411 25.0433C188.592 25.16 188.801 25.2627 189.038 25.3512C189.276 25.4357 189.529 25.5082 189.799 25.5685L190.91 25.8342C191.449 25.9549 191.944 26.1159 192.395 26.3171C192.846 26.5183 193.236 26.7659 193.566 27.0597C193.896 27.3535 194.152 27.6996 194.333 28.098C194.518 28.4964 194.613 28.9532 194.617 29.4684C194.613 30.225 194.419 30.881 194.037 31.4364C193.659 31.9878 193.111 32.4164 192.395 32.7223C191.683 33.0241 190.823 33.1751 189.817 33.1751C188.819 33.1751 187.95 33.0221 187.209 32.7163C186.473 32.4104 185.897 31.9576 185.483 31.358C185.072 30.7543 184.857 30.0077 184.837 29.1183H187.366C187.394 29.5328 187.513 29.8789 187.722 30.1566C187.936 30.4303 188.219 30.6375 188.574 30.7784C188.932 30.9152 189.336 30.9837 189.787 30.9837C190.23 30.9837 190.614 30.9193 190.94 30.7905C191.27 30.6617 191.526 30.4826 191.707 30.2532C191.888 30.0238 191.978 29.7602 191.978 29.4624C191.978 29.1847 191.896 28.9512 191.731 28.7621C191.57 28.5729 191.333 28.4119 191.019 28.2791C190.709 28.1463 190.328 28.0256 189.878 27.9169L188.531 27.5788C187.489 27.3253 186.666 26.9289 186.062 26.3896C185.459 25.8503 185.159 25.1238 185.163 24.2102C185.159 23.4616 185.358 22.8076 185.76 22.2482C186.167 21.6888 186.724 21.2521 187.433 20.9382C188.141 20.6243 188.946 20.4673 189.847 20.4673C190.765 20.4673 191.566 20.6243 192.25 20.9382C192.938 21.2521 193.474 21.6888 193.856 22.2482C194.238 22.8076 194.436 23.4556 194.448 24.1921H191.942ZM196.375 33V20.6364H201.253C202.19 20.6364 202.989 20.8155 203.649 21.1737C204.309 21.5278 204.812 22.0208 205.159 22.6527C205.509 23.2805 205.684 24.005 205.684 24.826C205.684 25.647 205.507 26.3714 205.153 26.9993C204.798 27.6271 204.285 28.1161 203.613 28.4663C202.945 28.8164 202.136 28.9915 201.186 28.9915H198.077V26.8967H200.764C201.267 26.8967 201.681 26.8101 202.007 26.6371C202.337 26.46 202.583 26.2165 202.744 25.9066C202.909 25.5927 202.991 25.2325 202.991 24.826C202.991 24.4155 202.909 24.0573 202.744 23.7514C202.583 23.4415 202.337 23.2021 202.007 23.033C201.677 22.86 201.259 22.7734 200.752 22.7734H198.989V33H196.375ZM208.085 33H205.284L209.552 20.6364H212.921L217.183 33H214.382L211.285 23.4616H211.188L208.085 33ZM207.91 28.1403H214.526V30.1808H207.91V28.1403ZM221.285 20.6364V33H218.671V20.6364H221.285ZM233.777 20.6364V33H231.519L226.14 25.2184H226.049V33H223.435V20.6364H225.729L231.066 28.4119H231.175V20.6364H233.777Z" fill="white"/>
<defs>
<clipPath id="clip0_788_316">
<rect width="24" height="24" fill="white" transform="translate(12.0801 14)"/>
</clipPath>
</defs>
</svg>
