<svg width="16" height="16" viewBox="0 0 16 16" fill="none" xmlns="http://www.w3.org/2000/svg">
<path d="M14 2.5H2C1.60218 2.5 1.22064 2.65804 0.93934 2.93934C0.658035 3.22064 0.5 3.60218 0.5 4V9C0.5 9.39782 0.658035 9.77936 0.93934 10.0607C1.22064 10.342 1.60218 10.5 2 10.5H3V8.5C3 8.10218 3.15804 7.72064 3.43934 7.43934C3.72064 7.15804 4.10218 7 4.5 7H11.5C11.8978 7 12.2794 7.15804 12.5607 7.43934C12.842 7.72064 13 8.10218 13 8.5V10.5H14C14.3978 10.5 14.7794 10.342 15.0607 10.0607C15.342 9.77936 15.5 9.39782 15.5 9V4C15.5 3.60218 15.342 3.22064 15.0607 2.93934C14.7794 2.65804 14.3978 2.5 14 2.5ZM13.5 5H11.5C11.3674 5 11.2402 4.94732 11.1464 4.85355C11.0527 4.75979 11 4.63261 11 4.5C11 4.36739 11.0527 4.24021 11.1464 4.14645C11.2402 4.05268 11.3674 4 11.5 4H13.5C13.6326 4 13.7598 4.05268 13.8536 4.14645C13.9473 4.24021 14 4.36739 14 4.5C14 4.63261 13.9473 4.75979 13.8536 4.85355C13.7598 4.94732 13.6326 5 13.5 5Z" fill="#A3A3A3"/>
<path d="M13.8104 12.5C13.28 12.5 12.7713 12.2893 12.3962 11.9142C12.0211 11.5391 11.8104 11.0304 11.8104 10.5H12.0004V8.5C12.0004 8.36739 11.9478 8.24021 11.854 8.14645C11.7602 8.05268 11.633 8 11.5004 8H4.50043C4.36782 8 4.24064 8.05268 4.14688 8.14645C4.05311 8.24021 4.00043 8.36739 4.00043 8.5V10.5H4.19043C4.19043 11.0304 3.97972 11.5391 3.60464 11.9142C3.22957 12.2893 2.72086 12.5 2.19043 12.5C2.05782 12.5 1.93064 12.5527 1.83688 12.6464C1.74311 12.7402 1.69043 12.8674 1.69043 13C1.69043 13.1326 1.74311 13.2598 1.83688 13.3536C1.93064 13.4473 2.05782 13.5 2.19043 13.5C2.98608 13.5 3.74914 13.1839 4.31175 12.6213C4.87436 12.0587 5.19043 11.2956 5.19043 10.5H6.26543V11.75C6.26543 11.8826 6.31811 12.0098 6.41188 12.1036C6.50564 12.1973 6.63282 12.25 6.76543 12.25C6.89804 12.25 7.02521 12.1973 7.11898 12.1036C7.21275 12.0098 7.26543 11.8826 7.26543 11.75V10.5H8.76543V11.75C8.76543 11.8826 8.81811 12.0098 8.91188 12.1036C9.00564 12.1973 9.13282 12.25 9.26543 12.25C9.39804 12.25 9.52521 12.1973 9.61898 12.1036C9.71275 12.0098 9.76543 11.8826 9.76543 11.75V10.5H10.8104C10.8104 11.2956 11.1265 12.0587 11.6891 12.6213C12.2517 13.1839 13.0148 13.5 13.8104 13.5C13.943 13.5 14.0702 13.4473 14.164 13.3536C14.2578 13.2598 14.3104 13.1326 14.3104 13C14.3104 12.8674 14.2578 12.7402 14.164 12.6464C14.0702 12.5527 13.943 12.5 13.8104 12.5Z" fill="#A3A3A3"/>
</svg>
