<svg width="25" height="24" viewBox="0 0 25 24" fill="none" xmlns="http://www.w3.org/2000/svg">
<path d="M12.4775 12C11.3775 12 10.4775 11.1 10.4775 10C10.4775 8.9 11.3775 8 12.4775 8C13.5775 8 14.4775 8.9 14.4775 10C14.4775 11.1 13.5775 12 12.4775 12ZM18.4775 10.2C18.4775 6.57 15.8275 4 12.4775 4C9.12754 4 6.47754 6.57 6.47754 10.2C6.47754 12.54 8.42754 15.64 12.4775 19.34C16.5275 15.64 18.4775 12.54 18.4775 10.2ZM12.4775 2C16.6775 2 20.4775 5.22 20.4775 10.2C20.4775 13.52 17.8075 17.45 12.4775 22C7.14754 17.45 4.47754 13.52 4.47754 10.2C4.47754 5.22 8.27754 2 12.4775 2Z" fill="#A8A8A8"/>
</svg>
