<svg width="30" height="30" viewBox="0 0 30 30" fill="none" xmlns="http://www.w3.org/2000/svg">
<rect x="0.5" y="0.5" width="29" height="29" rx="14.5" stroke="#FF6B2A"/>
<g clip-path="url(#clip0_381_1624)">
<path d="M18.3464 13.9313C18.2949 13.9313 18.2421 13.9387 18.1892 13.9532L17.592 14.1177L16.972 12.6071C16.7963 12.1791 16.277 11.8309 15.8144 11.8309H10.0109C9.54822 11.8309 9.02898 12.1791 8.85332 12.6071L8.23404 14.1156L7.64423 13.9531C7.59145 13.9386 7.53861 13.9312 7.48712 13.9312C7.20484 13.9312 7 14.1469 7 14.4439V14.7959C7 15.1427 7.28216 15.4248 7.62891 15.4248H7.69648L7.59638 15.6687C7.43317 16.0661 7.3003 16.7393 7.3003 17.1692V20.1702C7.3003 20.5169 7.58247 20.7991 7.92921 20.7991H8.75058C9.09732 20.7991 9.37948 20.5169 9.37948 20.1702V19.4208H16.4457V20.1702C16.4457 20.5169 16.7279 20.7991 17.0746 20.7991H17.8959C18.2426 20.7991 18.5248 20.5169 18.5248 20.1702V17.1693C18.5248 16.7394 18.3919 16.0663 18.2287 15.6687L18.1286 15.4249H18.2046C18.5513 15.4249 18.8335 15.1427 18.8335 14.796V14.444C18.8335 14.147 18.6286 13.9313 18.3464 13.9313ZM8.68488 15.0833L9.62296 12.7984C9.72805 12.5424 10.0404 12.333 10.3171 12.333H15.5082C15.7849 12.333 16.0972 12.5424 16.2023 12.7984L17.1404 15.0833C17.2454 15.3393 17.105 15.5488 16.8283 15.5488H8.99698C8.72022 15.5487 8.57984 15.3393 8.68488 15.0833ZM10.7789 17.9735C10.7789 18.1119 10.6657 18.225 10.5274 18.225H8.74541C8.60703 18.225 8.49383 18.1118 8.49383 17.9735V17.1183C8.49383 16.98 8.60703 16.8668 8.74541 16.8668H10.5274C10.6657 16.8668 10.7789 16.98 10.7789 17.1183V17.9735ZM17.3145 17.9735C17.3145 18.1119 17.2013 18.225 17.063 18.225H15.281C15.1428 18.225 15.0295 18.1118 15.0295 17.9735V17.1183C15.0295 16.98 15.1428 16.8668 15.281 16.8668H17.063C17.2013 16.8668 17.3145 16.98 17.3145 17.1183V17.9735Z" fill="#FF6B2A"/>
<path d="M22.2135 9.20084H19.2348C18.8011 9.20084 18.4482 9.55375 18.4482 9.98744V12.9662C18.4482 13.3999 18.8012 13.7528 19.2348 13.7528H20.4306V20.4383C20.4306 20.6005 20.562 20.7319 20.7242 20.7319C20.8863 20.7319 21.0177 20.6005 21.0177 20.4383V13.7529H22.2135C22.6473 13.7529 23.0001 13.4 23.0001 12.9662V9.9875C23.0001 9.55375 22.6473 9.20084 22.2135 9.20084ZM21.5389 11.6706C21.3676 11.8248 21.1152 11.9031 20.7889 11.9031H20.3576C20.3058 11.9031 20.2636 11.9453 20.2636 11.997V12.7244C20.2636 12.8034 20.1993 12.8677 20.1203 12.8677H19.7937C19.7146 12.8677 19.6503 12.8034 19.6503 12.7244V10.2295C19.6503 10.1504 19.7146 10.0861 19.7937 10.0861H20.6165C21.1617 10.0861 21.3652 10.1683 21.5324 10.3102C21.7087 10.4598 21.7981 10.689 21.7981 10.9916C21.798 11.2872 21.7109 11.5156 21.5389 11.6706Z" fill="#FF6B2A"/>
<path d="M21.072 10.6885C20.9924 10.6284 20.8515 10.5979 20.6535 10.5979H20.3576C20.3058 10.5979 20.2637 10.64 20.2637 10.6917V11.2895C20.2637 11.3413 20.3058 11.3834 20.3576 11.3834H20.5349C20.6 11.3834 20.7052 11.3786 20.7693 11.3727C20.8316 11.367 21.0075 11.3415 21.072 11.2928C21.1494 11.2342 21.1887 11.1328 21.1887 10.9916C21.1887 10.8491 21.1494 10.7471 21.072 10.6885Z" fill="#FF6B2A"/>
</g>
<defs>
<clipPath id="clip0_381_1624">
<rect width="16" height="16" fill="white" transform="translate(7 7)"/>
</clipPath>
</defs>
</svg>
