<svg width="16" height="16" viewBox="0 0 16 16" fill="none" xmlns="http://www.w3.org/2000/svg">
<g clip-path="url(#clip0_733_4555)">
<path d="M15.6889 12.7226L13.9151 11.54L12.3383 10.4889C12.034 10.2865 11.625 10.3528 11.4004 10.6412L10.4246 11.8955C10.2151 12.1677 9.83803 12.246 9.53747 12.0795C8.87541 11.7113 8.09251 11.3645 6.3651 9.63489C4.63768 7.90525 4.28872 7.12457 3.92044 6.46252C3.75403 6.16196 3.83225 5.78493 4.10444 5.57537L5.35877 4.59967C5.64711 4.37504 5.71351 3.96608 5.51105 3.66174L4.49231 2.13348L3.27742 0.311122C3.07064 0.000938136 2.6567 -0.0921858 2.33702 0.0995307L0.935911 0.940083C0.55726 1.16317 0.278919 1.52342 0.158545 1.94613C-0.224606 3.34309 -0.301855 6.42471 4.63684 11.3634C9.57553 16.3021 12.6569 16.2246 14.0538 15.8414C14.4765 15.7211 14.8368 15.4427 15.0599 15.064L15.9004 13.663C16.0922 13.3433 15.999 12.9293 15.6889 12.7226Z" fill="white"/>
<path d="M9.10299 2.48274C11.6918 2.48562 13.7897 4.58353 13.7926 7.17234C13.7926 7.32469 13.9161 7.44822 14.0685 7.44822C14.2208 7.44822 14.3443 7.32472 14.3443 7.17234C14.3411 4.27897 11.9964 1.93422 9.10302 1.93103C8.95068 1.93103 8.82715 2.05453 8.82715 2.2069C8.82712 2.35921 8.95062 2.48274 9.10299 2.48274Z" fill="white"/>
<path d="M9.10302 4.1378C10.7781 4.13977 12.1355 5.49719 12.1375 7.17224C12.1375 7.32458 12.261 7.44811 12.4133 7.44811C12.5657 7.44811 12.6892 7.32461 12.6892 7.17224C12.6869 5.1926 11.0827 3.58834 9.10302 3.58606C8.95068 3.58606 8.82715 3.70956 8.82715 3.86193C8.82715 4.0143 8.95065 4.1378 9.10302 4.1378Z" fill="white"/>
<path d="M9.10299 5.79305C9.86439 5.79395 10.4814 6.41094 10.4823 7.17234C10.4823 7.32468 10.6058 7.44821 10.7582 7.44821C10.9105 7.44821 11.034 7.32471 11.034 7.17234C11.0328 6.10639 10.169 5.24255 9.10302 5.24133C8.95068 5.24133 8.82715 5.36483 8.82715 5.5172C8.82712 5.66955 8.95062 5.79305 9.10299 5.79305Z" fill="white"/>
</g>
<defs>
<clipPath id="clip0_733_4555">
<rect width="16" height="16" fill="white"/>
</clipPath>
</defs>
</svg>
