<svg width="30" height="30" viewBox="0 0 30 30" fill="none" xmlns="http://www.w3.org/2000/svg">
<rect x="0.5" y="0.5" width="29" height="29" rx="14.5" stroke="#FF6B2A"/>
<g clip-path="url(#clip0_381_1623)">
<path d="M10.3333 15.6667H16.3333V16.3333H17.6667V10.3333C17.6667 9.22875 18.5621 8.33331 19.6667 8.33331C20.7713 8.33331 21.6667 9.22875 21.6667 10.3333H23C23 8.49238 21.5076 7 19.6667 7C17.8257 7 16.3333 8.49238 16.3333 10.3333V11.6667H10.3333V10.3333C10.3333 9.22878 11.2287 8.33334 12.3333 8.33334C13.4379 8.33334 14.3333 9.22878 14.3333 10.3333H15.6667C15.6667 8.49238 14.1743 7 12.3333 7C10.4924 7 9 8.49238 9 10.3333V16.3333H10.3333V15.6667ZM10.3333 13H16.3333V14.3333H10.3333V13Z" fill="#FF6B2A"/>
<path d="M20.3333 21C19.8411 21.0003 19.3662 20.8183 19 20.4893C18.2408 21.1684 17.0925 21.1684 16.3333 20.4893C15.5742 21.1684 14.4259 21.1684 13.6667 20.4893C12.9075 21.1684 11.7592 21.1684 11 20.4893C10.2408 21.1684 9.09256 21.1684 8.33337 20.4893C7.96719 20.8183 7.49225 21.0003 7 21V23H23V21C22.5077 21.0003 22.0328 20.8183 21.6667 20.4893C21.3005 20.8183 20.8256 21.0003 20.3333 21Z" fill="#FF6B2A"/>
<path d="M20.3333 18.1773C19.8411 18.1776 19.3662 17.9957 19 17.6667C18.2408 18.3457 17.0925 18.3457 16.3333 17.6667C15.5742 18.3457 14.4259 18.3457 13.6667 17.6667C12.9075 18.3457 11.7592 18.3457 11 17.6667C10.2408 18.3457 9.09256 18.3457 8.33337 17.6667C7.96719 17.9957 7.49225 18.1776 7 18.1773V20.1773C7.49225 20.1776 7.96719 19.9957 8.33334 19.6667C9.09253 20.3457 10.2408 20.3457 11 19.6667C11.7592 20.3457 12.9075 20.3457 13.6667 19.6667C14.4258 20.3457 15.5741 20.3457 16.3333 19.6667C17.0925 20.3457 18.2408 20.3457 19 19.6667C19.7592 20.3457 20.9074 20.3457 21.6666 19.6667C22.0328 19.9957 22.5077 20.1776 23 20.1773V18.1773C22.5077 18.1776 22.0328 17.9957 21.6666 17.6667C21.3005 17.9957 20.8256 18.1776 20.3333 18.1773Z" fill="#FF6B2A"/>
</g>
<defs>
<clipPath id="clip0_381_1623">
<rect width="16" height="16" fill="white" transform="translate(7 7)"/>
</clipPath>
</defs>
</svg>
