<svg width="30" height="31" viewBox="0 0 30 31" fill="none" xmlns="http://www.w3.org/2000/svg">
<rect x="0.5" y="1.42188" width="29" height="29" rx="14.5" stroke="#FF6B2A"/>
<path d="M22.5312 15.0924C22.0392 15.0924 21.5579 14.8817 21.1395 14.4832C20.8639 14.2208 20.4322 14.2208 20.1567 14.4833C20.0533 14.5818 19.9461 14.6687 19.8358 14.7439C19.8359 14.7309 19.8364 14.7178 19.8364 14.7048C19.8364 12.038 17.6668 9.86838 15 9.86838C12.3332 9.86838 10.1636 12.038 10.1636 14.7048C10.1636 14.7179 10.1641 14.731 10.1642 14.7441C10.0537 14.6688 9.9463 14.5818 9.84277 14.4832C9.56718 14.2207 9.13546 14.2208 8.85999 14.4833C8.44174 14.8818 7.96068 15.0924 7.46875 15.0924C7.20987 15.0924 7 15.3023 7 15.5611C7 15.82 7.20987 16.0299 7.46875 16.0299C8.14303 16.0299 8.78996 15.7789 9.35146 15.3018C9.91308 15.7789 10.5602 16.0299 11.2345 16.0299C11.9087 16.0299 12.5557 15.7789 13.1172 15.3018C13.6788 15.7789 14.3259 16.0299 15.0002 16.0299C15.6743 16.0299 16.3212 15.779 16.8828 15.3021C17.4444 15.779 18.0914 16.0299 18.7655 16.0299C19.4397 16.0299 20.0867 15.7789 20.6482 15.3018C21.2098 15.7789 21.8569 16.0299 22.5312 16.0299C22.7901 16.0299 22.9999 15.82 22.9999 15.5611C22.9999 15.3023 22.7901 15.0924 22.5312 15.0924Z" fill="#FF6B2A"/>
<path d="M22.5312 18.0651C22.0392 18.0651 21.5579 17.8545 21.1395 17.4559C20.8639 17.1934 20.4322 17.1936 20.1567 17.456C19.7385 17.8545 19.2574 18.0651 18.7655 18.0651C18.2736 18.0651 17.7925 17.8546 17.3741 17.4563C17.0986 17.194 16.6671 17.1939 16.3916 17.4563C15.9732 17.8546 15.4921 18.0651 15.0002 18.0651C14.5082 18.0651 14.027 17.8545 13.6085 17.4559C13.3329 17.1934 12.9012 17.1936 12.6257 17.456C12.2075 17.8545 11.7264 18.0651 11.2345 18.0651C10.7425 18.0651 10.2612 17.8545 9.84277 17.4559C9.56718 17.1934 9.13546 17.1936 8.85999 17.456C8.44174 17.8545 7.96068 18.0651 7.46875 18.0651C7.20987 18.0651 7 18.275 7 18.5339C7 18.7927 7.20987 19.0026 7.46875 19.0026C8.14303 19.0026 8.78996 18.7517 9.35146 18.2745C9.91308 18.7517 10.5602 19.0026 11.2345 19.0026C11.9088 19.0026 12.5557 18.7517 13.1172 18.2745C13.6788 18.7517 14.326 19.0026 15.0002 19.0026C15.6743 19.0026 16.3213 18.7518 16.8829 18.2749C17.4444 18.7518 18.0914 19.0026 18.7655 19.0026C19.4398 19.0026 20.0868 18.7517 20.6482 18.2745C21.2099 18.7517 21.857 19.0026 22.5312 19.0026C22.7901 19.0026 23 18.7927 23 18.5339C23 18.275 22.7901 18.0651 22.5312 18.0651Z" fill="#FF6B2A"/>
<path d="M22.5312 21.0379C22.0392 21.0379 21.5579 20.8272 21.1395 20.4287C20.8639 20.1663 20.4323 20.1663 20.1567 20.4288C19.7385 20.8273 19.2574 21.0379 18.7655 21.0379C18.2736 21.0379 17.7925 20.8273 17.3741 20.429C17.0986 20.1668 16.6671 20.1667 16.3916 20.429C15.9732 20.8273 15.4921 21.0379 15.0002 21.0379C14.5082 21.0379 14.027 20.8272 13.6085 20.4287C13.333 20.1663 12.9013 20.1662 12.6257 20.4288C12.2075 20.8273 11.7264 21.0379 11.2345 21.0379C10.7425 21.0379 10.2612 20.8272 9.84277 20.4287C9.56724 20.1663 9.13552 20.1663 8.85999 20.4288C8.44174 20.8273 7.96068 21.0379 7.46875 21.0379C7.20987 21.0379 7 21.2478 7 21.5066C7 21.7655 7.20987 21.9754 7.46875 21.9754C8.14303 21.9754 8.79002 21.7244 9.35146 21.2473C9.91308 21.7244 10.5602 21.9754 11.2345 21.9754C11.9088 21.9754 12.5558 21.7244 13.1172 21.2473C13.6788 21.7244 14.3259 21.9754 15.0002 21.9754C15.6743 21.9754 16.3213 21.7245 16.8829 21.2476C17.4444 21.7245 18.0914 21.9754 18.7655 21.9754C19.4398 21.9754 20.0868 21.7244 20.6482 21.2473C21.2099 21.7244 21.857 21.9754 22.5313 21.9754C22.7901 21.9754 23 21.7655 23 21.5066C23 21.2478 22.7901 21.0379 22.5312 21.0379Z" fill="#FF6B2A"/>
</svg>
