<svg width="30" height="30" viewBox="0 0 30 30" fill="none" xmlns="http://www.w3.org/2000/svg">
<rect x="0.5" y="0.5" width="29" height="29" rx="14.5" stroke="#FF6B2A"/>
<g clip-path="url(#clip0_381_1635)">
<path d="M15 11.9999C14.4487 11.9999 14 12.4486 14 12.9999V13.9999H16V12.9999C16 12.4486 15.5513 11.9999 15 11.9999Z" fill="#FF6B2A"/>
<path d="M21.4326 7.09827C21.0854 6.93177 20.6743 6.97961 20.3734 7.22083C19.124 8.22524 16.8749 8.22475 15.6274 7.22133C15.2612 6.92639 14.7397 6.92689 14.3735 7.22083C13.1245 8.22521 10.8745 8.22471 9.62739 7.2213C9.32704 6.97961 8.91457 6.93173 8.56872 7.09824C8.22169 7.26427 8.0005 7.61533 8.0005 8.00012L8 16.0002C8 19.1345 10.5127 21.7363 14.7211 22.9605C14.8124 22.9868 14.9062 23 15.0005 23C15.0946 23 15.1885 22.9868 15.2798 22.9605C19.4882 21.7363 22.0005 19.135 22.0005 16.0002V8.00012C22.0005 7.61533 21.7798 7.26427 21.4326 7.09827ZM18.0005 16.9999C18.0005 17.5524 17.5528 17.9999 17.0004 17.9999H13.0004C12.4481 17.9999 12.0004 17.5524 12.0004 16.9999V14.9999C12.0004 14.4477 12.4481 13.9999 13.0004 13.9999V12.9999C13.0004 11.8974 13.8974 10.9999 15.0004 10.9999C16.1035 10.9999 17.0004 11.8974 17.0004 12.9999V13.9999C17.5528 13.9999 18.0005 14.4477 18.0005 14.9999V16.9999Z" fill="#FF6B2A"/>
<path d="M15 15.4999C14.7239 15.4999 14.5 15.7238 14.5 15.9999C14.5 16.2763 14.7239 16.4999 15 16.4999C15.2761 16.4999 15.5 16.2763 15.5 15.9999C15.5 15.7238 15.2761 15.4999 15 15.4999Z" fill="#FF6B2A"/>
</g>
<defs>
<clipPath id="clip0_381_1635">
<rect width="16" height="16" fill="white" transform="translate(7 7)"/>
</clipPath>
</defs>
</svg>
