<svg width="30" height="31" viewBox="0 0 30 31" fill="none" xmlns="http://www.w3.org/2000/svg">
<g clip-path="url(#clip0_384_4219)">
<path d="M23 8.17188V9.67188C23 9.80938 22.8875 9.92188 22.75 9.92188H15.25V23.6719C15.25 23.8094 15.1375 23.9219 15 23.9219C14.8625 23.9219 14.75 23.8094 14.75 23.6719V9.92188H7.25C7.1125 9.92188 7 9.80938 7 9.67188V8.17188C7 8.03437 7.1125 7.92188 7.25 7.92188H22.75C22.8875 7.92188 23 8.03437 23 8.17188Z" fill="#A3A3A3"/>
<path d="M14 14.6719H13.75V12.9219C13.75 11.6819 12.74 10.6719 11.5 10.6719H10C8.76 10.6719 7.75 11.6819 7.75 12.9219V14.6719H7.5C7.3625 14.6719 7.25 14.7844 7.25 14.9219C7.25 15.0594 7.3625 15.1719 7.5 15.1719H7.75V21.9219C7.75 22.2444 7.875 22.5369 8.0775 22.7569C8.08 22.7644 8.085 22.7669 8.09 22.7719C8.3175 23.0169 8.64 23.1719 9 23.1719H12.5C12.86 23.1719 13.1825 23.0169 13.41 22.7719C13.415 22.7669 13.42 22.7644 13.4225 22.7569C13.625 22.5369 13.75 22.2444 13.75 21.9219V15.1719H14C14.1375 15.1719 14.25 15.0594 14.25 14.9219C14.25 14.7844 14.1375 14.6719 14 14.6719ZM11.5075 11.8919C11.5425 11.7569 11.6775 11.6769 11.8125 11.7119C12.135 11.7944 12.415 12.0069 12.5825 12.2969C12.6525 12.4169 12.61 12.5694 12.49 12.6394C12.4525 12.6619 12.4075 12.6719 12.365 12.6719C12.28 12.6719 12.195 12.6269 12.15 12.5469C12.05 12.3744 11.88 12.2444 11.6875 12.1969C11.555 12.1619 11.4725 12.0244 11.5075 11.8919ZM8.9175 12.2969C9.085 12.0069 9.365 11.7944 9.6875 11.7119C9.82 11.6769 9.9575 11.7569 9.9925 11.8919C10.0275 12.0244 9.945 12.1619 9.8125 12.1969C9.62 12.2444 9.45 12.3744 9.35 12.5469C9.305 12.6269 9.22 12.6719 9.135 12.6719C9.0925 12.6719 9.0475 12.6619 9.01 12.6394C8.89 12.5694 8.8475 12.4169 8.9175 12.2969ZM10.7075 14.1719H10.7925C11.605 14.1719 12.4025 14.3719 13.12 14.7469L12.38 15.6719H9.12L8.38 14.7469C9.0975 14.3719 9.895 14.1719 10.7075 14.1719ZM8.25 21.9219V15.3844L8.75 16.0094V21.3519L8.2825 22.1294C8.2625 22.0644 8.25 21.9944 8.25 21.9219ZM12.5 22.6719H9C8.8575 22.6719 8.7225 22.6294 8.61 22.5594L9.1425 21.6719H12.3575L12.89 22.5594C12.7775 22.6294 12.6425 22.6719 12.5 22.6719ZM13.25 21.9219C13.25 21.9944 13.2375 22.0644 13.2175 22.1294L12.75 21.3519V16.0094L13.25 15.3844V21.9219Z" fill="#A3A3A3"/>
<path d="M17.9107 13.3844C17.7882 13.4494 17.7432 13.6019 17.8107 13.7244C17.8782 13.8469 18.0282 13.8919 18.1507 13.8244C18.5182 13.6244 18.9857 13.6244 19.3532 13.8244C19.3907 13.8444 19.4307 13.8544 19.4732 13.8544C19.5607 13.8544 19.6482 13.8069 19.6932 13.7244C19.7582 13.6019 19.7132 13.4519 19.5932 13.3844C19.0807 13.1044 18.4282 13.1044 17.9157 13.3844H17.9107Z" fill="#A3A3A3"/>
<path d="M19.9492 12.9794C20.0367 12.9794 20.1217 12.9319 20.1692 12.8494C20.2367 12.7294 20.1917 12.5769 20.0717 12.5094C19.6642 12.2844 19.2192 12.1694 18.7517 12.1694C18.2842 12.1694 17.8367 12.2844 17.4317 12.5094C17.3117 12.5769 17.2667 12.7294 17.3342 12.8494C17.4017 12.9694 17.5542 13.0144 17.6742 12.9469C18.3392 12.5794 19.1692 12.5794 19.8317 12.9469C19.8692 12.9669 19.9117 12.9769 19.9517 12.9769L19.9492 12.9794Z" fill="#A3A3A3"/>
<path d="M17.1907 12.0719C18.1407 11.5494 19.3607 11.5494 20.3107 12.0719C20.3482 12.0919 20.3907 12.1019 20.4307 12.1019C20.5182 12.1019 20.6057 12.0544 20.6507 11.9719C20.7182 11.8519 20.6732 11.6994 20.5532 11.6319C19.4557 11.0294 18.0482 11.0294 16.9532 11.6319C16.8332 11.6994 16.7882 11.8494 16.8557 11.9719C16.9232 12.0919 17.0732 12.1369 17.1957 12.0694L17.1907 12.0719Z" fill="#A3A3A3"/>
<path d="M19.25 14.9219H17V21.4219H18V18.4219H19.25C19.735 18.4219 20.17 18.2269 20.4875 17.9094C20.805 17.5919 21 17.1569 21 16.6719C21 15.7044 20.2175 14.9219 19.25 14.9219ZM19.78 17.2019C19.645 17.3369 19.4575 17.4219 19.25 17.4219H18V15.9219H19.25C19.665 15.9219 20 16.2569 20 16.6719C20 16.8794 19.915 17.0669 19.78 17.2019Z" fill="#A3A3A3"/>
</g>
<defs>
<clipPath id="clip0_384_4219">
<rect width="16" height="16" fill="white" transform="translate(7 7.92188)"/>
</clipPath>
</defs>
</svg>
