<svg width="30" height="30" viewBox="0 0 30 30" fill="none" xmlns="http://www.w3.org/2000/svg">
<path d="M18.2002 19.5344V19.801H18.7335V19.2677H18.4669C18.3199 19.2677 18.2002 19.3874 18.2002 19.5344Z" fill="#A3A3A3"/>
<path d="M16.3331 19.2677H16.0664V19.801H16.5997V19.5344C16.5997 19.3874 16.4801 19.2677 16.3331 19.2677Z" fill="#A3A3A3"/>
<path d="M15.0001 12.3344C15.2947 12.3344 15.5335 12.0956 15.5335 11.8011C15.5335 11.5065 15.2947 11.2677 15.0001 11.2677C14.7056 11.2677 14.4668 11.5065 14.4668 11.8011C14.4668 12.0956 14.7056 12.3344 15.0001 12.3344Z" fill="#A3A3A3"/>
<path d="M18.2002 17.401C18.2002 17.548 18.3199 17.6677 18.4669 17.6677H18.7335V17.1344H18.2002V17.401Z" fill="#A3A3A3"/>
<path d="M20.3337 20.0667V9.93334C20.3337 9.20001 19.7363 8.60001 19.0003 8.60001H11.0003C10.2643 8.60001 9.66699 9.20001 9.66699 9.93334V20.0667C9.66699 20.8027 10.2643 21.4 11.0003 21.4H19.0003C19.7363 21.4 20.3337 20.8027 20.3337 20.0667ZM19.267 17.9344C19.267 18.0816 19.1476 18.201 19.0003 18.201H18.467C18.0258 18.201 17.667 17.8422 17.667 17.401V16.8677C17.667 16.7204 17.7864 16.601 17.9337 16.601H19.0003C19.1476 16.601 19.267 16.7204 19.267 16.8677V17.9344ZM10.7337 9.93438C10.7337 9.78712 10.8531 9.66771 11.0003 9.66771H19.0003C19.1476 9.66771 19.267 9.78712 19.267 9.93438V15.801C19.267 15.9483 19.1476 16.0677 19.0003 16.0677H11.0003C10.8531 16.0677 10.7337 15.9483 10.7337 15.801V9.93438ZM12.6003 20.3344C11.571 20.3344 10.7337 19.497 10.7337 18.4677C10.7337 17.4384 11.571 16.601 12.6003 16.601C13.6296 16.601 14.467 17.4384 14.467 18.4677C14.467 19.497 13.6296 20.3344 12.6003 20.3344ZM17.1337 20.0677C17.1337 20.215 17.0143 20.3344 16.867 20.3344H15.8003C15.6531 20.3344 15.5337 20.215 15.5337 20.0677V19.001C15.5337 18.8538 15.6531 18.7344 15.8003 18.7344H16.3337C16.7748 18.7344 17.1337 19.0932 17.1337 19.5344V20.0677ZM17.1337 17.401C17.1337 17.8422 16.7748 18.201 16.3337 18.201H15.8003C15.6531 18.201 15.5337 18.0816 15.5337 17.9344V16.8677C15.5337 16.7204 15.6531 16.601 15.8003 16.601H16.867C17.0143 16.601 17.1337 16.7204 17.1337 16.8677V17.401ZM17.667 20.0677V19.5344C17.667 19.0932 18.0258 18.7344 18.467 18.7344H19.0003C19.1476 18.7344 19.267 18.8538 19.267 19.001V20.0677C19.267 20.215 19.1476 20.3344 19.0003 20.3344H17.9337C17.7864 20.3344 17.667 20.215 17.667 20.0677Z" fill="#A3A3A3"/>
<path d="M16.0664 17.6677H16.3331C16.4801 17.6677 16.5997 17.548 16.5997 17.401V17.1344H16.0664V17.6677Z" fill="#A3A3A3"/>
<path d="M15.0158 13.401H14.9838C14.3432 13.401 13.8077 13.8608 13.6904 14.4677H16.3092C16.1919 13.8608 15.6564 13.401 15.0158 13.401Z" fill="#A3A3A3"/>
<path d="M18.7333 10.201H11.2666V15.5344H18.7333V10.201ZM16.5999 15.001H13.3999C13.2527 15.001 13.1333 14.8816 13.1333 14.7344C13.1333 13.6979 13.9635 12.8677 14.9839 12.8677H14.9999C14.4118 12.8677 13.9333 12.3892 13.9333 11.801C13.9333 11.2129 14.4118 10.7344 14.9999 10.7344C15.5881 10.7344 16.0666 11.2129 16.0666 11.801C16.0666 12.3892 15.5881 12.8677 14.9999 12.8677H15.016C16.0364 12.8677 16.8666 13.6979 16.8666 14.7184C16.8666 14.8656 16.7472 15.001 16.5999 15.001Z" fill="#A3A3A3"/>
<path d="M12.5999 19.8011C13.3363 19.8011 13.9333 19.2041 13.9333 18.4677C13.9333 17.7314 13.3363 17.1344 12.5999 17.1344C11.8636 17.1344 11.2666 17.7314 11.2666 18.4677C11.2666 19.2041 11.8636 19.8011 12.5999 19.8011Z" fill="#A3A3A3"/>
</svg>
