<svg width="30" height="31" viewBox="0 0 30 31" fill="none" xmlns="http://www.w3.org/2000/svg">
<path d="M21.4373 13.9996C20.953 13.5208 20.3915 13.1472 19.7816 12.8904V14.3366C19.7816 14.595 19.5716 14.8048 19.3129 14.8048C19.0542 14.8048 18.8442 14.5951 18.8442 14.3366V12.5961C18.4836 12.519 18.1121 12.4796 17.735 12.4796C17.4762 12.4796 17.221 12.4981 16.9694 12.5346V14.3366C16.9694 14.595 16.7595 14.8048 16.5007 14.8048C16.242 14.8048 16.0321 14.5951 16.0321 14.3366V12.7609C15.8336 12.8286 15.6386 12.9085 15.4474 13.0009C14.0407 13.7 12.4765 13.9172 10.9701 13.7749C8.81571 13.7296 6.92687 15.643 7.00218 17.7946C6.98874 19.8791 8.84102 21.7223 10.9276 21.7017C12.285 21.5916 13.6423 21.7146 14.9853 22.2751C15.8817 22.7011 16.8197 23.0394 17.8315 22.9963C20.7149 22.9448 23.0331 20.5579 22.9996 17.676C22.9834 16.2844 22.4285 14.9786 21.4373 13.9996ZM18.0943 19.6503H18.0921C17.679 19.6481 17.2909 19.4846 16.9988 19.19C16.8051 18.9812 16.4807 18.9347 16.2398 19.0845V19.0842C16.1911 19.1132 16.1457 19.1506 16.1064 19.1928C15.8105 19.4899 15.4177 19.6525 15.0009 19.6503C14.5841 19.6525 14.1913 19.4899 13.8954 19.1928C13.856 19.1506 13.8107 19.1132 13.7619 19.0842V19.0845C13.521 18.9347 13.1967 18.9812 13.003 19.19C12.7108 19.4846 12.3227 19.6481 11.9096 19.6503H11.9075C11.6497 19.6503 11.44 19.4422 11.4388 19.1844C11.4375 18.9256 11.6462 18.7153 11.9053 18.7141C12.0727 18.7134 12.2309 18.6432 12.3477 18.5202C12.777 18.0864 13.421 17.9447 13.9906 18.1588C14.081 18.1919 14.1697 18.2353 14.2528 18.2868V18.2865C14.365 18.3548 14.4693 18.4385 14.5615 18.534C14.6796 18.6516 14.8365 18.7166 15.0008 18.7138C15.1652 18.7166 15.3221 18.6517 15.4401 18.534C15.5323 18.4385 15.6367 18.3548 15.7489 18.2865V18.2868C15.832 18.2353 15.9207 18.1919 16.011 18.1588C16.5806 17.9447 17.2246 18.0864 17.654 18.5202C17.7711 18.6432 17.9289 18.7134 18.0964 18.7141C18.3554 18.7153 18.5641 18.9256 18.5629 19.1844C18.5617 19.4421 18.3521 19.6503 18.0943 19.6503ZM18.0943 17.4173H18.0921C17.679 17.4151 17.2909 17.2516 16.9988 16.957C16.8051 16.7482 16.4807 16.7017 16.2398 16.8515V16.8511C16.1911 16.8802 16.1457 16.9176 16.1064 16.9597C15.8105 17.2569 15.4177 17.4195 15.0009 17.4173C14.5841 17.4195 14.1913 17.2569 13.8954 16.9597C13.856 16.9176 13.8107 16.8801 13.7619 16.8511V16.8515C13.521 16.7016 13.1967 16.7481 13.003 16.957C12.7108 17.2516 12.3227 17.4151 11.9096 17.4173H11.9075C11.6497 17.4173 11.44 17.2091 11.4388 16.9513C11.4375 16.6926 11.6462 16.4822 11.9053 16.481C12.0727 16.4804 12.2309 16.4102 12.3477 16.2872C12.777 15.8534 13.421 15.7117 13.9906 15.9258C14.081 15.9592 14.1697 16.0026 14.2528 16.0538V16.0535C14.365 16.1218 14.4693 16.2055 14.5615 16.301C14.6796 16.4186 14.8365 16.4838 15.0008 16.4807C15.1652 16.4839 15.3221 16.4186 15.4401 16.301C15.5323 16.2055 15.6367 16.1218 15.7489 16.0535V16.0538C15.832 16.0026 15.9207 15.9592 16.011 15.9258C16.5806 15.7117 17.2246 15.8534 17.654 16.2872C17.7711 16.4102 17.9289 16.4804 18.0964 16.481C18.3554 16.4823 18.5641 16.6926 18.5629 16.9513C18.5617 17.2091 18.3521 17.4173 18.0943 17.4173Z" fill="#A3A3A3"/>
<path d="M20.7504 9.31191C20.7504 9.57031 20.5404 9.78006 20.2817 9.78006H20.2504C19.992 9.78006 19.7818 9.99009 19.7818 10.2482V12.8904C19.4799 12.7634 19.1665 12.6647 18.8444 12.5961V11.5278H16.9696V12.5346C16.6503 12.5805 16.3372 12.656 16.0322 12.7609V10.2482C16.0322 9.47388 16.6631 8.84375 17.4383 8.84375C17.697 8.84375 17.907 9.05347 17.907 9.31191C17.907 9.57034 17.697 9.78006 17.4383 9.78006C17.1799 9.78006 16.9696 9.99009 16.9696 10.2482V10.5915H18.8444V10.2482C18.8444 9.47388 19.4753 8.84375 20.2505 8.84375H20.2818C20.5404 8.84375 20.7504 9.05347 20.7504 9.31191Z" fill="#A3A3A3"/>
</svg>
