<svg width="30" height="30" viewBox="0 0 30 30" fill="none" xmlns="http://www.w3.org/2000/svg">
<g clip-path="url(#clip0_384_4232)">
<path d="M7.22766 19.8681C6.96187 20.134 6.96187 20.5649 7.22766 20.8308L8.19036 21.7969C8.45624 22.0627 8.88722 22.0627 9.15307 21.7969L11.5605 19.3915L9.6351 17.464L7.22766 19.8681Z" fill="#A3A3A3"/>
<path d="M10.117 16.9827L12.0424 18.9081C12.856 18.0945 14.2796 18.8081 15.9702 18.9844L10.04 13.0542C10.217 14.7454 10.9299 16.1698 10.117 16.9827Z" fill="#A3A3A3"/>
<path d="M20.2235 17.462C22.6166 15.1023 22.6438 11.2493 20.2841 8.85615C20.2834 8.85545 20.2827 8.85475 20.282 8.85405C17.9263 6.43064 14.0521 6.37575 11.6287 8.73146C11.6057 8.75377 11.583 8.77624 11.5604 8.7989C10.6429 9.64783 10.09 10.8191 10.0176 12.067L16.9554 19.0048C18.2032 18.9324 19.3745 18.3794 20.2235 17.462Z" fill="#A3A3A3"/>
<path d="M20.9293 23C22.0573 23 22.9718 22.0855 22.9718 20.9575C22.9718 19.8294 22.0573 18.9149 20.9293 18.9149C19.8012 18.9149 18.8867 19.8294 18.8867 20.9575C18.8867 22.0855 19.8012 23 20.9293 23Z" fill="#A3A3A3"/>
</g>
<defs>
<clipPath id="clip0_384_4232">
<rect width="16" height="16" fill="white" transform="translate(7 7)"/>
</clipPath>
</defs>
</svg>
