<svg width="30" height="31" viewBox="0 0 30 31" fill="none" xmlns="http://www.w3.org/2000/svg">
<g clip-path="url(#clip0_384_4229)">
<path d="M22.9038 16.143C22.7307 15.8353 22.3269 15.7199 22 15.9123L19.8077 17.1815L19.25 17.5084V20.5468L19.7692 20.8545C19.7885 20.8545 19.7885 20.8737 19.8077 20.8737L21.9615 22.1237C22.0577 22.2006 22.1923 22.2391 22.3269 22.2391C22.6923 22.2391 22.9807 21.9506 22.9807 21.5853V19.0084L23 16.4699C23 16.3546 22.9807 16.2392 22.9038 16.143Z" fill="#A3A3A3"/>
<path d="M10.0963 15.1623C11.8078 15.1623 13.1924 13.7777 13.1924 12.0661C13.1924 10.3546 11.8078 8.97003 10.0963 8.97003C8.38479 8.97003 7.0002 10.3546 7.0002 12.0661C6.98096 13.7777 8.38479 15.1623 10.0963 15.1623ZM10.0963 10.7969C10.8078 10.7969 11.3655 11.3738 11.3655 12.0661C11.3655 12.7777 10.7886 13.3354 10.0963 13.3354C9.40401 13.3354 8.8271 12.7584 8.8271 12.0661C8.80787 11.3546 9.38478 10.7969 10.0963 10.7969Z" fill="#A3A3A3"/>
<path d="M17.9423 15.3353C17.4423 15.5853 16.8846 15.7392 16.2884 15.7392C15.5577 15.7392 14.8654 15.5276 14.2885 15.143H12.0962C11.5193 15.5276 10.827 15.7392 10.0962 15.7392C9.50005 15.7392 8.94237 15.6046 8.44237 15.3353C8.00007 15.5853 7.69238 16.0853 7.69238 16.6238V21.316C7.69238 22.1814 8.40391 22.8737 9.25006 22.8737H17.1538C18.0192 22.8737 18.7115 22.1622 18.7115 21.316V16.6238C18.6923 16.0853 18.3846 15.5853 17.9423 15.3353Z" fill="#A3A3A3"/>
<path d="M16.2885 15.1623C18 15.1623 19.3846 13.7777 19.3846 12.0661C19.3846 10.3546 18 8.97003 16.2885 8.97003C14.577 8.97003 13.1924 10.3546 13.1924 12.0661C13.1924 13.7777 14.577 15.1623 16.2885 15.1623ZM16.2885 10.7969C17 10.7969 17.5577 11.3738 17.5577 12.0661C17.5577 12.7777 16.9808 13.3354 16.2885 13.3354C15.5962 13.3354 15.0193 12.7584 15.0193 12.0661C15.0193 11.3546 15.577 10.7969 16.2885 10.7969Z" fill="#A3A3A3"/>
</g>
<defs>
<clipPath id="clip0_384_4229">
<rect width="16" height="16" fill="white" transform="translate(7 7.92188)"/>
</clipPath>
</defs>
</svg>
