<svg width="30" height="30" viewBox="0 0 30 30" fill="none" xmlns="http://www.w3.org/2000/svg">
<g clip-path="url(#clip0_384_4227)">
<path d="M22.5317 15.0346H20.5234C20.2645 15.0346 20.0546 15.2445 20.0546 15.5033V19.0513H17.0088C16.7499 19.0513 16.54 19.2611 16.54 19.52V22.5325C16.5648 23.1545 17.453 23.154 17.4775 22.5325V21.9971H22.063V22.5325C22.0878 23.1545 22.9759 23.154 23.0005 22.5325V15.5033C23.0005 15.2445 22.7906 15.0346 22.5317 15.0346Z" fill="#A3A3A3"/>
<path d="M11.4858 7.93875H13.0254V9.00959H12.49C12.2311 9.00959 12.0212 9.21947 12.0212 9.47834V12.4908C12.0212 12.7497 12.2311 12.9596 12.49 12.9596H17.5108C17.7697 12.9596 17.9796 12.7497 17.9796 12.4908V9.47834C17.9796 9.21947 17.7697 9.00959 17.5108 9.00959H16.9754V7.93875H18.515C19.1369 7.91397 19.1365 7.02578 18.515 7.00125H11.4858C10.8639 7.026 10.8643 7.91419 11.4858 7.93875ZM16.0379 9.00956H13.9629V7.93875H16.0379V9.00956Z" fill="#A3A3A3"/>
<path d="M12.9917 19.0513H9.94584V15.5033C9.94584 15.2445 9.73597 15.0346 9.47709 15.0346H7.46875C7.20987 15.0346 7 15.2445 7 15.5033V22.5325C7.02478 23.1545 7.91297 23.154 7.9375 22.5325V21.9971H12.5229V22.5325C12.5477 23.1545 13.4359 23.154 13.4604 22.5325V19.52C13.4604 19.2611 13.2506 19.0513 12.9917 19.0513Z" fill="#A3A3A3"/>
<path d="M18.5145 17.9804C18.7734 17.9804 18.9833 17.7705 18.9833 17.5117V15.5033C18.9833 15.2445 18.7734 15.0346 18.5145 15.0346H11.4854C11.2265 15.0346 11.0166 15.2445 11.0166 15.5033V17.5117C11.0166 17.7705 11.2265 17.9804 11.4854 17.9804H14.5312V22.5325C14.556 23.1545 15.4442 23.154 15.4687 22.5325V17.9804H18.5145Z" fill="#A3A3A3"/>
</g>
<defs>
<clipPath id="clip0_384_4227">
<rect width="16" height="16" fill="white" transform="translate(7 7)"/>
</clipPath>
</defs>
</svg>
