<svg width="30" height="30" viewBox="0 0 30 30" fill="none" xmlns="http://www.w3.org/2000/svg">
<g clip-path="url(#clip0_384_4224)">
<path d="M20.1391 18.7451C19.0894 18.7451 18.1835 19.3304 17.7014 20.1856C17.1113 19.3172 16.1162 18.7451 14.9896 18.7451C13.863 18.7451 12.8679 19.3172 12.2778 20.1856C11.7957 19.3305 10.8896 18.7451 9.84004 18.7451C8.29116 18.7451 7 20.0051 7 21.554V22.4902C7.45859 22.4902 23.6597 22.4902 22.9792 22.4902V21.554C22.9792 20.0051 21.688 18.7451 20.1391 18.7451Z" fill="#A3A3A3"/>
<path d="M14.9891 18.7451C16.2819 18.7451 17.3298 17.6971 17.3298 16.4044C17.3298 15.1117 16.2819 14.0637 14.9891 14.0637C13.6964 14.0637 12.6484 15.1117 12.6484 16.4044C12.6484 17.6971 13.6964 18.7451 14.9891 18.7451Z" fill="#A3A3A3"/>
<path d="M9.84033 18.7451C10.8745 18.7451 11.7129 17.9067 11.7129 16.8726C11.7129 15.8384 10.8745 15 9.84033 15C8.80615 15 7.96777 15.8384 7.96777 16.8726C7.96777 17.9067 8.80615 18.7451 9.84033 18.7451Z" fill="#A3A3A3"/>
<path d="M20.1392 18.7451C21.1733 18.7451 22.0117 17.9067 22.0117 16.8726C22.0117 15.8384 21.1733 15 20.1392 15C19.105 15 18.2666 15.8384 18.2666 16.8726C18.2666 17.9067 19.105 18.7451 20.1392 18.7451Z" fill="#A3A3A3"/>
<path d="M7 7.50977V12.1912H8.90377V14.7257L11.4383 12.1912H13.8595L14.9896 13.3213L16.1197 12.1912H18.5408L21.0754 14.7257V12.1912H22.9792V7.50977H7ZM10.7763 10.3186H8.90377V9.38232H10.7763V10.3186ZM18.2666 10.3186H11.7126V9.38232H18.2666V10.3186ZM21.0754 10.3186H19.2028V9.38232H21.0754V10.3186Z" fill="#A3A3A3"/>
</g>
<defs>
<clipPath id="clip0_384_4224">
<rect width="16" height="16" fill="white" transform="translate(7 7)"/>
</clipPath>
</defs>
</svg>
