<svg width="30" height="30" viewBox="0 0 30 30" fill="none" xmlns="http://www.w3.org/2000/svg">
<g clip-path="url(#clip0_384_4223)">
<path d="M10.5859 14.7241H12.2411V15.2758H10.5859V14.7241Z" fill="#A3A3A3"/>
<path d="M11.414 16.3792C11.7187 16.3792 11.9657 16.1322 11.9657 15.8275H10.8623C10.8623 16.1322 11.1093 16.3792 11.414 16.3792Z" fill="#A3A3A3"/>
<path d="M11.4743 9.20709C11.4539 9.20709 11.4335 9.20709 11.4133 9.20709C10.4979 9.20778 9.67785 9.77357 9.35233 10.6292C9.02681 11.4848 9.26334 12.4526 9.94684 13.0616C10.2703 13.3519 10.4852 13.7437 10.5562 14.1724H12.272C12.3511 13.7374 12.5718 13.3407 12.8996 13.0439C13.5647 12.4376 13.795 11.4882 13.4816 10.6446C13.1682 9.80095 12.3739 9.23212 11.4743 9.20709ZM11.4133 10.3105C10.8039 10.3105 10.3099 10.8045 10.3099 11.4139C10.3099 11.5662 10.1864 11.6898 10.034 11.6898C9.88166 11.6898 9.75816 11.5663 9.75816 11.4139C9.75907 10.5002 10.4996 9.7597 11.4133 9.75876C11.5656 9.75876 11.6892 9.88226 11.6892 10.0346C11.6892 10.187 11.5657 10.3105 11.4133 10.3105Z" fill="#A3A3A3"/>
<path d="M11.4136 8.10367C11.2612 8.10367 11.1377 7.98018 11.1377 7.82781V7.27611C11.1377 7.12377 11.2612 7.00024 11.4136 7.00024C11.5659 7.00024 11.6894 7.12374 11.6894 7.27611V7.82781C11.6894 7.98018 11.5659 8.10367 11.4136 8.10367Z" fill="#A3A3A3"/>
<path d="M15.5512 11.6898H14.9995C14.8472 11.6898 14.7236 11.5663 14.7236 11.4139C14.7236 11.2615 14.8471 11.138 14.9995 11.138H15.5512C15.7035 11.138 15.8271 11.2615 15.8271 11.4139C15.8271 11.5663 15.7036 11.6898 15.5512 11.6898Z" fill="#A3A3A3"/>
<path d="M7.82756 11.6898H7.27587C7.12353 11.6898 7 11.5663 7 11.4139C7 11.2615 7.1235 11.138 7.27587 11.138H7.82756C7.9799 11.138 8.10343 11.2615 8.10343 11.4139C8.10343 11.5663 7.9799 11.6898 7.82756 11.6898Z" fill="#A3A3A3"/>
<path d="M9.6203 8.58422C9.52165 8.58431 9.43047 8.53172 9.38112 8.44629L9.10526 7.96852C9.0552 7.88312 9.05473 7.77747 9.10404 7.69163C9.15335 7.60579 9.24485 7.55294 9.34384 7.55316C9.44284 7.55338 9.53412 7.60663 9.58305 7.69266L9.85892 8.17042C9.90817 8.25573 9.9082 8.36082 9.85898 8.44616C9.8098 8.5315 9.7188 8.58413 9.6203 8.58422Z" fill="#A3A3A3"/>
<path d="M13.2062 8.58422C13.1077 8.58413 13.0168 8.5315 12.9676 8.44616C12.9183 8.36082 12.9184 8.25573 12.9676 8.17042L13.2435 7.69266C13.2924 7.6066 13.3837 7.55335 13.4827 7.55316C13.5817 7.55294 13.6732 7.60579 13.7225 7.69163C13.7718 7.77747 13.7713 7.88315 13.7213 7.96852L13.4454 8.44629C13.3961 8.53172 13.3049 8.58431 13.2062 8.58422Z" fill="#A3A3A3"/>
<path d="M14.519 9.89671C14.3942 9.89671 14.2849 9.81284 14.2526 9.69225C14.2203 9.57166 14.273 9.44438 14.3811 9.38198L14.8589 9.10611C14.9443 9.05605 15.0499 9.05558 15.1358 9.10489C15.2216 9.15421 15.2745 9.2457 15.2742 9.3447C15.274 9.4437 15.2208 9.53497 15.1347 9.58391L14.657 9.85977C14.615 9.88409 14.5675 9.89684 14.519 9.89671Z" fill="#A3A3A3"/>
<path d="M7.83054 13.7586C7.7057 13.7586 7.59642 13.6748 7.56411 13.5542C7.5318 13.4336 7.58452 13.3063 7.69264 13.2439L8.1704 12.9681C8.2558 12.918 8.36146 12.9175 8.4473 12.9668C8.53314 13.0161 8.58598 13.1076 8.58576 13.2066C8.58554 13.3056 8.5323 13.3969 8.44627 13.4458L7.9685 13.7217C7.92654 13.7459 7.87894 13.7586 7.83054 13.7586Z" fill="#A3A3A3"/>
<path d="M14.9962 13.7587C14.9478 13.7587 14.9002 13.7459 14.8583 13.7217L14.3805 13.4458C14.2497 13.3691 14.2053 13.2012 14.2812 13.0699C14.357 12.9386 14.5246 12.8931 14.6564 12.9681L15.1342 13.2439C15.2423 13.3064 15.295 13.4336 15.2627 13.5542C15.2304 13.6748 15.1211 13.7587 14.9962 13.7587Z" fill="#A3A3A3"/>
<path d="M8.30775 9.89669C8.25931 9.89679 8.21172 9.88404 8.16981 9.85973L7.69205 9.58386C7.56124 9.50718 7.51684 9.33927 7.59268 9.20797C7.66852 9.07666 7.83611 9.03116 7.96792 9.1061L8.44568 9.38196C8.5538 9.4444 8.60652 9.57164 8.57421 9.69223C8.5419 9.81282 8.43259 9.89669 8.30775 9.89669Z" fill="#A3A3A3"/>
<path d="M15.5872 22.448C15.5626 22.5379 15.5505 22.6307 15.5513 22.7239V22.9997H12.2411C11.6317 22.9997 11.1377 22.5057 11.1377 21.8963V16.8951C11.3185 16.9429 11.5086 16.9429 11.6894 16.8951V21.8963C11.6903 22.2006 11.9368 22.4471 12.2411 22.448H15.5872V22.448Z" fill="#A3A3A3"/>
<path d="M16.1061 16.6551H17.7585V18.0344H15.9092L16.1061 16.6551Z" fill="#A3A3A3"/>
<path d="M15.3516 18.0344H13.6992L14.0934 16.6551H15.5485L15.3516 18.0344Z" fill="#A3A3A3"/>
<path d="M18.3096 16.6551H19.9826L20.1945 18.0344H18.3096V16.6551Z" fill="#A3A3A3"/>
<path d="M20.541 16.6551H21.9749L22.3691 18.0344H20.7531L20.541 16.6551Z" fill="#A3A3A3"/>
<path d="M21.8168 16.1034H20.4558L20.2861 15H21.5012L21.8168 16.1034Z" fill="#A3A3A3"/>
<path d="M19.8976 16.1034H18.3096V15H19.728L19.8976 16.1034Z" fill="#A3A3A3"/>
<path d="M17.758 15V16.1034H16.1846L16.3421 15H17.758Z" fill="#A3A3A3"/>
<path d="M15.785 15L15.6275 16.1034H14.251L14.5663 15H15.785Z" fill="#A3A3A3"/>
<path d="M13.5414 18.5861H15.2724L15.036 20.2412H13.0684L13.5414 18.5861Z" fill="#A3A3A3"/>
<path d="M15.8301 18.5861H17.7584V20.2412H16.655H15.5938L15.8301 18.5861Z" fill="#A3A3A3"/>
<path d="M19.9655 22.7238V22.9997H16.1035V22.7238C16.1035 22.4191 16.3505 22.1721 16.6552 22.1721H19.4137C19.7185 22.1721 19.9655 22.4192 19.9655 22.7238Z" fill="#A3A3A3"/>
<path d="M16.9307 20.7929H19.1375V21.6204H16.9307V20.7929Z" fill="#A3A3A3"/>
<path d="M19.413 20.2412H18.3096V18.5861H20.2794L20.5338 20.2412H19.413Z" fill="#A3A3A3"/>
<path d="M21.0922 20.2412L20.8379 18.5861H22.5269L23 20.2412H21.0922Z" fill="#A3A3A3"/>
</g>
<defs>
<clipPath id="clip0_384_4223">
<rect width="16" height="16" fill="white" transform="translate(7 7)"/>
</clipPath>
</defs>
</svg>
