<svg width="30" height="30" viewBox="0 0 30 30" fill="none" xmlns="http://www.w3.org/2000/svg">
<path d="M7.107 18.258V15.931H4.78V14.7025H7.107V12.382H8.3355V14.7025H10.6495V15.931H8.3355V18.258H7.107ZM13.9618 20V12.3495L12.2068 13.422V11.693L13.9618 10.64H15.5608V20H13.9618ZM21.404 20.195C20.741 20.195 20.156 20.0542 19.649 19.7725C19.142 19.4865 18.7455 19.09 18.4595 18.583C18.1778 18.076 18.037 17.491 18.037 16.828V13.812C18.037 13.149 18.1778 12.564 18.4595 12.057C18.7455 11.55 19.142 11.1557 19.649 10.874C20.156 10.588 20.741 10.445 21.404 10.445C22.067 10.445 22.6498 10.588 23.1525 10.874C23.6595 11.1557 24.056 11.55 24.342 12.057C24.628 12.564 24.771 13.149 24.771 13.812V16.828C24.771 17.491 24.628 18.076 24.342 18.583C24.056 19.09 23.6595 19.4865 23.1525 19.7725C22.6498 20.0542 22.067 20.195 21.404 20.195ZM21.404 18.7065C21.7333 18.7065 22.0323 18.6285 22.301 18.4725C22.5696 18.3122 22.782 18.0998 22.938 17.8355C23.094 17.5668 23.172 17.2678 23.172 16.9385V13.695C23.172 13.3613 23.094 13.0623 22.938 12.798C22.782 12.5293 22.5696 12.317 22.301 12.161C22.0323 12.0007 21.7333 11.9205 21.404 11.9205C21.0746 11.9205 20.7756 12.0007 20.507 12.161C20.2383 12.317 20.026 12.5293 19.87 12.798C19.714 13.0623 19.636 13.3613 19.636 13.695V16.9385C19.636 17.2678 19.714 17.5668 19.87 17.8355C20.026 18.0998 20.2383 18.3122 20.507 18.4725C20.7756 18.6285 21.0746 18.7065 21.404 18.7065Z" fill="#A3A3A3"/>
</svg>
