<svg width="30" height="30" viewBox="0 0 30 30" fill="none" xmlns="http://www.w3.org/2000/svg">
<g clip-path="url(#clip0_384_4236)">
<path d="M10.8125 21.5938V22.5312C10.8125 22.7901 11.0224 23 11.2812 23H22.5312C22.7901 23 23 22.7901 23 22.5312V21.5938C23 21.3349 22.7901 21.125 22.5312 21.125H11.2812C11.0224 21.125 10.8125 21.3349 10.8125 21.5938Z" fill="#A3A3A3"/>
<path d="M16.3669 11.6875L17.0244 13.2216C17.0864 13.3664 17.0716 13.5327 16.9849 13.6643C16.8981 13.7958 16.7511 13.875 16.5935 13.875H15.1846L16.7498 16.8315V15.5938C16.7498 15.3349 16.9597 15.125 17.2185 15.125H18.7409L17.5132 11.6875H16.3669Z" fill="#A3A3A3"/>
<path d="M20.0312 7H13.7812C12.8335 7 12.0625 7.77103 12.0625 8.71875V17.375H10.2812C9.85047 17.375 9.5 17.0245 9.5 16.5938V13.625H9.96875C10.5718 13.625 11.0625 13.1343 11.0625 12.5312V10.3438C11.0625 10.0849 10.8526 9.875 10.5938 9.875H10.4375V8.78125C10.4375 8.52237 10.2276 8.3125 9.96875 8.3125C9.70988 8.3125 9.5 8.52237 9.5 8.78125V9.875H8.5625V8.78125C8.5625 8.52237 8.35263 8.3125 8.09375 8.3125C7.83487 8.3125 7.625 8.52237 7.625 8.78125V9.875H7.46875C7.20987 9.875 7 10.0849 7 10.3438V12.5312C7 13.1343 7.49066 13.625 8.09375 13.625H8.5625V16.5938C8.5625 17.5415 9.33353 18.3125 10.2812 18.3125H12.0625V20.1875H21.75V8.71875C21.75 7.77103 20.979 7 20.0312 7ZM18.7812 8.875C19.0401 8.875 19.25 9.08488 19.25 9.34375C19.25 9.60262 19.0401 9.8125 18.7812 9.8125C18.5224 9.8125 18.3125 9.60262 18.3125 9.34375C18.3125 9.08488 18.5224 8.875 18.7812 8.875ZM16.9062 8.875C17.1651 8.875 17.375 9.08488 17.375 9.34375C17.375 9.60262 17.1651 9.8125 16.9062 9.8125C16.6474 9.8125 16.4375 9.60262 16.4375 9.34375C16.4375 9.08488 16.6474 8.875 16.9062 8.875ZM15.0312 8.875C15.2901 8.875 15.5 9.08488 15.5 9.34375C15.5 9.60262 15.2901 9.8125 15.0312 9.8125C14.7724 9.8125 14.5625 9.60262 14.5625 9.34375C14.5625 9.08488 14.7724 8.875 15.0312 8.875ZM19.7894 15.8638C19.7016 15.9884 19.5587 16.0625 19.4062 16.0625H17.6875V18.7188C17.6875 18.9341 17.5407 19.1218 17.3317 19.1737C17.2941 19.1831 17.2561 19.1875 17.2187 19.1875C17.0481 19.1876 16.8871 19.0941 16.8045 18.9381L13.992 13.6256C13.915 13.4803 13.9198 13.3053 14.0047 13.1645C14.0895 13.0236 14.2418 12.9375 14.4062 12.9375H15.8829L15.2254 11.4034C15.1633 11.2586 15.1782 11.0922 15.2649 10.9607C15.3517 10.8292 15.4987 10.75 15.6562 10.75H17.8438C18.0418 10.75 18.2186 10.8745 18.2852 11.0611L19.8477 15.4361C19.899 15.5797 19.8772 15.7392 19.7894 15.8638Z" fill="#A3A3A3"/>
</g>
<defs>
<clipPath id="clip0_384_4236">
<rect width="16" height="16" fill="white" transform="translate(7 7)"/>
</clipPath>
</defs>
</svg>
