<svg width="30" height="30" viewBox="0 0 30 30" fill="none" xmlns="http://www.w3.org/2000/svg">
<path d="M10.127 14.0476C10.127 15.099 10.9803 15.9524 12.0317 15.9524C12.4317 15.9524 12.805 15.8266 13.1098 15.6171L13.0946 15.7619C13.0946 16.8133 13.9479 17.6666 14.9993 17.6666C16.0507 17.6666 16.9041 16.8133 16.9041 15.7619L16.8888 15.6171C17.1974 15.8304 17.5669 15.9524 17.9669 15.9524C19.0183 15.9524 19.8717 15.099 19.8717 14.0476C19.8717 13.2895 19.426 12.6381 18.7821 12.3333C19.4221 12.0286 19.8717 11.3771 19.8717 10.619C19.8717 9.56761 19.0183 8.71429 17.9669 8.71429C17.5669 8.71429 17.1936 8.84 16.8888 9.04954L16.9041 8.90479C16.9041 7.85332 16.0508 7 14.9993 7C13.9479 7 13.0946 7.85332 13.0946 8.90475L13.1098 9.0495C12.8012 8.83618 12.4317 8.71429 12.0317 8.71429C10.9803 8.71429 10.127 9.56761 10.127 10.619C10.127 11.3771 10.5727 12.0286 11.2165 12.3333C10.5727 12.6381 10.127 13.2895 10.127 14.0476ZM14.9993 10.4286C16.0508 10.4286 16.9041 11.2819 16.9041 12.3333C16.9041 13.3847 16.0508 14.2381 14.9993 14.2381C13.9479 14.2381 13.0946 13.3848 13.0946 12.3334C13.0946 11.2819 13.9479 10.4286 14.9993 10.4286Z" fill="#A3A3A3"/>
<path d="M8.14258 16.1429C8.14258 19.9295 11.213 23 14.9997 23C14.9997 19.2133 11.9293 16.1429 8.14258 16.1429Z" fill="#A3A3A3"/>
<path d="M15 23C18.7867 23 21.8571 19.9295 21.8571 16.1429C18.0705 16.1429 15 19.2133 15 23Z" fill="#A3A3A3"/>
</svg>
