<svg width="30" height="30" viewBox="0 0 30 30" fill="none" xmlns="http://www.w3.org/2000/svg">
<g clip-path="url(#clip0_384_4217)">
<path d="M20.9998 21.353C20.3946 21.353 20.0646 21.5083 19.7994 21.6331C19.5732 21.7396 19.3946 21.8236 18.9997 21.8236C18.6049 21.8236 18.4263 21.7395 18.2001 21.6331C17.5201 21.2601 16.4772 21.2611 15.7993 21.6331C15.5731 21.7396 15.3945 21.8236 14.9997 21.8236C14.605 21.8236 14.4263 21.7395 14.2002 21.6331C13.5181 21.2596 12.4781 21.2614 11.7995 21.6332C11.5733 21.7396 11.3947 21.8236 10.9999 21.8236C10.6051 21.8236 10.4264 21.7396 10.2003 21.6332C9.52028 21.2601 8.47743 21.2612 7.79956 21.6332C7.5734 21.7396 7.39476 21.8236 7 21.8236V22.7648C7.60518 22.7648 7.93518 22.6095 8.20035 22.4847C8.42651 22.3783 8.60515 22.2942 8.99991 22.2942C9.3947 22.2942 9.57333 22.3783 9.7995 22.4847C10.4827 22.8588 11.5233 22.8558 12.2002 22.4847C12.4264 22.3783 12.605 22.2942 12.9998 22.2942C13.3946 22.2942 13.5732 22.3783 13.7994 22.4847C14.0645 22.6095 14.3945 22.7648 14.9997 22.7648C15.6049 22.7648 15.9349 22.6095 16.2001 22.4847C16.4262 22.3783 16.6049 22.2942 16.9997 22.2942C17.3945 22.2942 17.5731 22.3783 17.7993 22.4847C18.4824 22.8584 19.5212 22.8563 20.2001 22.4847C20.4263 22.3783 20.605 22.2942 20.9998 22.2942C21.3947 22.2942 21.5733 22.3783 21.7995 22.4847C22.0647 22.6094 22.3947 22.7648 22.9999 22.7648V21.8236C22.6051 21.8236 22.4264 21.7395 22.2003 21.6331C21.9351 21.5083 21.6051 21.353 20.9998 21.353Z" fill="#A3A3A3"/>
<path d="M15.0283 17.3236C16.2065 17.3236 16.9106 16.9245 16.9106 16.5387C16.9106 16.2936 16.7087 16.0967 16.4619 16.1042C15.8997 16.1222 15.4173 16.1314 15.0282 16.1314C14.4773 16.1314 13.7171 15.7565 13.3092 15.7099C12.9867 15.6728 12.6953 15.89 12.6461 16.2039C12.5749 16.6588 13.5943 17.3236 15.0283 17.3236Z" fill="#A3A3A3"/>
<path d="M9.22663 17.8966C10.163 19.1011 11.9224 19.9741 14.0537 20.292C17.4455 20.7978 21.3968 19.785 22.6236 16.5545C23.5946 13.9975 22.3807 11.2641 22.2943 10.8298L21.7453 11.3653C20.611 12.4718 18.0085 13.1149 16.2295 13.0309C17.8359 10.5779 16.0003 7.20776 13.0571 7.23537C10.2312 7.21008 8.376 10.341 9.75212 12.8041C7.74654 15.2275 8.5488 17.0248 9.22663 17.8966ZM11.7032 10.5295H12.6444V11.4707H11.7032V10.5295ZM13.4165 14.7749C13.9315 14.8337 14.6936 15.1903 15.0287 15.1903C15.4078 15.1903 15.88 15.1813 16.4323 15.1635C17.9594 15.1767 18.4124 17.0933 16.9883 17.8367C15.4557 18.7609 11.6909 18.16 11.7023 16.225C11.7023 15.432 12.4629 14.6658 13.4165 14.7749Z" fill="#A3A3A3"/>
<path d="M9.00009 19.9412C9.39495 19.9412 9.57362 20.0253 9.79981 20.1317C10.0525 20.2605 10.497 20.4345 11.077 20.4106C10.2414 20.0341 9.52038 19.5572 8.95413 19.0008C8.37851 19.0086 8.05798 19.1586 7.79969 19.2801C7.57349 19.3866 7.39482 19.4706 7 19.4706V20.4118C7.60524 20.4118 7.93525 20.2565 8.20044 20.1317C8.4266 20.0253 8.60524 19.9412 9.00009 19.9412Z" fill="#A3A3A3"/>
<path d="M21.9705 19.1777C21.6764 19.4563 21.3518 19.7115 20.999 19.9412C21.3937 19.9411 21.5731 20.0253 21.7992 20.1317C22.0643 20.2565 22.3943 20.4118 22.9995 20.4118V19.4707C22.4824 19.4707 22.3358 19.3262 21.9705 19.1777Z" fill="#A3A3A3"/>
<path d="M7.56039 12.5416C7.77381 12.7892 8.0385 12.9897 8.35198 13.1434C8.44654 12.9885 8.54897 12.8336 8.6599 12.6789C8.4076 12.0168 8.30508 11.2998 8.37017 10.5754C8.01598 10.6869 7.64321 10.659 7.01758 10.6635L7.02115 11.1377C7.02291 11.3737 7.07904 11.9831 7.56039 12.5416Z" fill="#A3A3A3"/>
</g>
<defs>
<clipPath id="clip0_384_4217">
<rect width="16" height="16" fill="white" transform="translate(7 7)"/>
</clipPath>
</defs>
</svg>
