<svg width="30" height="30" viewBox="0 0 30 30" fill="none" xmlns="http://www.w3.org/2000/svg">
<g clip-path="url(#clip0_384_4235)">
<path d="M22.7203 11.915L21.3972 10.5919L22.3918 9.5977C22.4798 9.50986 22.5292 9.39083 22.5292 9.26632C22.5292 9.14182 22.4798 9.02279 22.3919 8.93492L21.0602 7.60329C20.8845 7.42751 20.5732 7.42751 20.3974 7.60329L19.4032 8.59789L18.0799 7.27457C17.7138 6.90848 17.1202 6.90848 16.7541 7.27457C16.388 7.64067 16.388 8.23426 16.7541 8.60039L21.3945 13.2408C21.7606 13.6069 22.3542 13.6069 22.7203 13.2408C23.0864 12.8747 23.0864 12.2811 22.7203 11.915Z" fill="#A3A3A3"/>
<path d="M13.2457 21.3996L8.6053 16.7592C8.23914 16.3931 7.64561 16.3931 7.27945 16.7592C6.91336 17.1253 6.91336 17.7189 7.27945 18.085L8.60274 19.4083L7.61008 20.4006C7.52217 20.4885 7.47274 20.6075 7.47274 20.732C7.47274 20.8565 7.52217 20.9755 7.61008 21.0634L8.94171 22.3946C9.03324 22.4862 9.15318 22.532 9.27311 22.532C9.39305 22.532 9.51299 22.4862 9.60452 22.3946L10.5968 21.4024L11.9198 22.7255C12.2859 23.0915 12.8795 23.0915 13.2457 22.7255C13.6118 22.3593 13.6118 21.7657 13.2457 21.3996Z" fill="#A3A3A3"/>
<path d="M15.4288 12.5779L12.583 15.4334L14.5718 17.4221L17.4176 14.5666L15.4288 12.5779Z" fill="#A3A3A3"/>
<path d="M21.3948 14.5666L15.4286 8.60038C15.0625 8.23428 14.4688 8.23428 14.1027 8.60038C13.7366 8.96653 13.7366 9.56007 14.1027 9.92622L20.069 15.8925C20.4351 16.2585 21.0287 16.2585 21.3948 15.8925C21.7609 15.5264 21.7609 14.9328 21.3948 14.5666Z" fill="#A3A3A3"/>
<path d="M15.8977 20.0738L9.93146 14.1075C9.56536 13.7414 8.97177 13.7414 8.60567 14.1075C8.23952 14.4737 8.23952 15.0673 8.60567 15.4334L14.5719 21.3996C14.938 21.7657 15.5316 21.7657 15.8977 21.3996C16.2639 21.0335 16.2639 20.4399 15.8977 20.0738Z" fill="#A3A3A3"/>
</g>
<defs>
<clipPath id="clip0_384_4235">
<rect width="16" height="16" fill="white" transform="translate(7 7)"/>
</clipPath>
</defs>
</svg>
