<svg width="30" height="30" viewBox="0 0 30 30" fill="none" xmlns="http://www.w3.org/2000/svg">
<path d="M19.2188 16.6667H20.1562V18.5417H19.2188V16.6667Z" fill="#A3A3A3"/>
<path d="M9.84375 13.5625H13.5938V23H9.84375V13.5625Z" fill="#A3A3A3"/>
<path d="M14.5312 13.5625H18.2812V23H14.5312V13.5625Z" fill="#A3A3A3"/>
<path d="M22.5312 7H7.46875C7.20987 7 7 7.20987 7 7.46875V22.5312C7 22.7901 7.20987 23 7.46875 23H8.90625V13.0938C8.90625 12.8349 9.11613 12.625 9.375 12.625H18.75C19.0088 12.625 19.2188 12.8349 19.2188 13.0938V15.7292H20.625C20.8838 15.7292 21.0938 15.9391 21.0938 16.1979V19.0104C21.0938 19.2693 20.8838 19.4792 20.625 19.4792H19.2188V23H22.5312C22.7901 23 23 22.7901 23 22.5312V7.46875C23 7.20987 22.7901 7 22.5312 7ZM12.9877 10.6127C12.8046 10.7958 12.5078 10.7958 12.3248 10.6127L11.7188 10.0067L11.1127 10.6127C10.9297 10.7958 10.6328 10.7958 10.4498 10.6127C10.2667 10.4297 10.2667 10.1329 10.4498 9.94981L11.3873 9.01231C11.5703 8.82925 11.8671 8.82925 12.0502 9.01231L12.9877 9.94981C13.1708 10.1328 13.1708 10.4297 12.9877 10.6127ZM17.6752 9.67519L16.7377 10.6127C16.5546 10.7958 16.2578 10.7958 16.0748 10.6127L15.1373 9.67519C14.9542 9.49216 14.9542 9.19534 15.1373 9.01228C15.3203 8.82922 15.6171 8.82922 15.8002 9.01228L16.4062 9.61834L17.0123 9.01228C17.1953 8.82922 17.4922 8.82922 17.6752 9.01228C17.8583 9.19534 17.8583 9.49216 17.6752 9.67519Z" fill="#A3A3A3"/>
</svg>
