<svg width="30" height="30" viewBox="0 0 30 30" fill="none" xmlns="http://www.w3.org/2000/svg">
<g clip-path="url(#clip0_384_4231)">
<path d="M16.2174 10.9L11.9988 7.11878C11.8211 6.96041 11.5538 6.96041 11.3762 7.11878L7.1575 10.9C6.83629 11.1848 7.03947 11.7189 7.46879 11.7189H15.9062C16.3355 11.7189 16.5387 11.1848 16.2174 10.9Z" fill="#A3A3A3"/>
<path d="M15.9061 22.0625H15.4374C15.4374 18.6387 15.4374 15.9794 15.4374 12.6564H7.9375C7.9375 15.9788 7.9375 18.6389 7.9375 22.0625H7.46875C7.20966 22.0625 7 22.2722 7 22.5312C7 22.7903 7.20966 23 7.46875 23H8.40625C8.66534 23 8.875 22.7903 8.875 22.5312V20.1875H9.8125V22.5312C9.8125 22.7903 10.0222 23 10.2812 23C10.5403 23 10.75 22.7903 10.75 22.5312V22.0625H12.625V22.5312C12.625 22.7903 12.8346 23 13.0937 23C13.3528 23 13.5625 22.7903 13.5625 22.5312V20.1875H14.5V22.5312C14.5 22.7903 14.7096 23 14.9687 23H15.9062C16.1653 23 16.375 22.7903 16.375 22.5312C16.3749 22.2722 16.1652 22.0625 15.9061 22.0625ZM9.81247 19.2501H8.87497V18.3126H9.81247V19.2501ZM12.6249 21.125H10.75V20.1875H12.6249V21.125ZM12.6249 19.2501H10.75V18.3126H12.6249V19.2501ZM11.6874 17.3438C10.6533 17.3438 9.81247 16.5029 9.81247 15.4689C9.81247 14.4348 10.6534 13.5939 11.6874 13.5939C12.7215 13.5939 13.5624 14.4348 13.5624 15.4689C13.5624 16.5029 12.7215 17.3438 11.6874 17.3438ZM14.4999 19.2501H13.5624V18.3126H14.4999V19.2501Z" fill="#A3A3A3"/>
<path d="M22.0624 21.125H20.4083C20.032 21.125 19.6938 20.9021 19.5468 20.5569L18.5118 17.1735C18.1281 16.2778 17.3162 15.6582 16.375 15.5067V17.389C16.6307 17.4699 16.8446 17.688 16.9532 17.9431L18.2317 21.8633C18.5278 22.5537 19.2039 22.9999 19.9551 22.9999H22.0624C22.5792 22.9999 22.9999 22.5792 22.9999 22.0624C22.9999 21.5456 22.5793 21.125 22.0624 21.125Z" fill="#A3A3A3"/>
</g>
<defs>
<clipPath id="clip0_384_4231">
<rect width="16" height="16" fill="white" transform="translate(7 7)"/>
</clipPath>
</defs>
</svg>
