<svg width="30" height="30" viewBox="0 0 30 30" fill="none" xmlns="http://www.w3.org/2000/svg">
<g clip-path="url(#clip0_384_4226)">
<path d="M17.9693 8.9892C18.1338 8.71885 18.3559 8.48729 18.6183 8.31132L18.5939 8.28691C18.4108 8.10354 18.1136 8.10307 17.93 8.28588C17.7464 8.46866 17.7459 8.76545 17.929 8.94879L17.9693 8.9892Z" fill="#A3A3A3"/>
<path d="M17.6547 10.1123C17.6547 9.97574 17.668 9.84233 17.6922 9.71274H17.114C16.8547 9.71274 16.6445 9.92261 16.6445 10.1815C16.6445 10.4404 16.8547 10.6502 17.114 10.6502H17.7224C17.6782 10.4781 17.6547 10.2979 17.6547 10.1123Z" fill="#A3A3A3"/>
<path d="M18.0234 11.3196L17.929 11.4142C17.7459 11.5975 17.7464 11.8943 17.93 12.0771C18.0216 12.1683 18.1415 12.2139 18.2614 12.2139C18.3818 12.2139 18.5022 12.1679 18.5939 12.0761L18.7026 11.9671C18.4319 11.8031 18.1998 11.5816 18.0234 11.3196Z" fill="#A3A3A3"/>
<path d="M19.822 12.2795C19.6608 12.2795 19.5038 12.2613 19.3525 12.2277V12.8943C19.3525 13.1531 19.5627 13.363 19.822 13.363C20.0812 13.363 20.2914 13.1531 20.2914 12.8943V12.2277C20.1402 12.2613 19.9832 12.2795 19.822 12.2795Z" fill="#A3A3A3"/>
<path d="M21.6216 11.3196C21.4452 11.5816 21.2131 11.8031 20.9424 11.9671L21.0511 12.0761C21.1429 12.168 21.2632 12.2139 21.3836 12.2139C21.5035 12.2139 21.6234 12.1683 21.715 12.0771C21.8986 11.8943 21.8991 11.5975 21.716 11.4142L21.6216 11.3196Z" fill="#A3A3A3"/>
<path d="M22.5303 9.71274H21.952C21.9762 9.84233 21.9895 9.97574 21.9895 10.1123C21.9895 10.2979 21.966 10.4781 21.9219 10.6502H22.5303C22.7896 10.6502 22.9998 10.4404 22.9998 10.1815C22.9998 9.92261 22.7896 9.71274 22.5303 9.71274Z" fill="#A3A3A3"/>
<path d="M21.6753 8.98923L21.7156 8.94879C21.8987 8.76545 21.8982 8.46866 21.7146 8.28588C21.531 8.10307 21.2337 8.10354 21.0507 8.28691L21.0264 8.31132C21.2887 8.48729 21.5108 8.71888 21.6753 8.98923Z" fill="#A3A3A3"/>
<path d="M19.822 7.94506C19.9832 7.94506 20.1401 7.96331 20.2914 7.99684V7.46875C20.2914 7.20987 20.0812 7 19.822 7C19.5627 7 19.3525 7.20987 19.3525 7.46875V7.99684C19.5038 7.96328 19.6608 7.94506 19.822 7.94506Z" fill="#A3A3A3"/>
<path d="M19.8224 11.342C19.1449 11.342 18.5938 10.7903 18.5938 10.1123C18.5938 9.43422 19.1449 8.88257 19.8224 8.88257C20.4998 8.88257 21.051 9.43422 21.051 10.1123C21.051 10.7903 20.4998 11.342 19.8224 11.342Z" fill="#A3A3A3"/>
<path d="M7.4988 16.4658C7.40111 16.4658 7.30458 16.4354 7.22345 16.3767C7.10152 16.2886 7.02933 16.1474 7.02933 15.9971L7.0293 7.47449C7.0293 7.35017 7.07873 7.23092 7.1668 7.14302C7.25483 7.05511 7.37423 7.00574 7.49873 7.00574H15.908C16.0581 7.00574 16.1991 7.07742 16.2875 7.19864C16.3759 7.31983 16.4008 7.47592 16.3547 7.61858C16.3545 7.61892 16.3542 7.62011 16.3539 7.62099C16.2925 7.8163 16.1111 7.94921 15.9061 7.94921C15.9048 7.94921 15.9035 7.94921 15.9021 7.94921C15.8971 7.94917 15.8921 7.94914 15.8871 7.94914C15.4242 7.94914 14.9898 8.12921 14.6624 8.45717C14.0535 9.06692 13.9852 10.0448 14.5035 10.7319C14.6265 10.895 14.6296 11.119 14.5111 11.2855L14.4851 11.3222C14.4112 11.4252 14.2986 11.4939 14.1731 11.5127C14.0476 11.5314 13.9198 11.4986 13.8189 11.4217C13.1336 10.8996 12.1569 10.9665 11.5471 11.5772C10.9464 12.1788 10.867 13.1182 11.3583 13.8108C11.4907 13.9975 11.4689 14.2522 11.3067 14.4137C11.1445 14.5752 10.8894 14.5963 10.7028 14.4635C10.0125 13.9724 9.07623 14.0519 8.47652 14.6525L8.47655 14.6525C8.12983 14.9997 7.94555 15.4806 7.97086 15.9719C7.9817 16.1828 7.84998 16.3749 7.64923 16.4411L7.64539 16.4424C7.59742 16.4581 7.54798 16.4658 7.4988 16.4658Z" fill="#A3A3A3"/>
<path d="M22.8863 22.2324L22.8987 22.2311L12.6923 12.0122C12.5098 12.0304 12.3415 12.1093 12.2119 12.2391C12.0981 12.3531 12.0256 12.4934 11.9944 12.6411L21.405 22.0625H16.5035L16.0098 20.6467H16.6241C16.8834 20.6467 17.0935 20.4368 17.0935 20.1779C17.0935 19.9191 16.8834 19.7092 16.6241 19.7092H13.319L12.199 18.0398C12.1989 18.0398 12.1989 18.0397 12.1989 18.0397C12.1146 17.9144 11.9714 17.832 11.809 17.832H8.16939L7.84676 17.3968C7.69248 17.1887 7.39845 17.1449 7.19017 17.299C6.9818 17.453 6.93789 17.7466 7.09217 17.9546L8.78364 20.2361L8.14664 22.0625H7.49867C7.23942 22.0625 7.02923 22.2724 7.02923 22.5312C7.02923 22.7901 7.23942 23 7.49867 23H22.5247C22.784 23 22.9942 22.7901 22.9942 22.5312C22.9942 22.4176 22.9537 22.3135 22.8863 22.2324ZM11.5584 18.7695L12.1889 19.7092H9.5612L8.86448 18.7695H11.5584ZM9.14086 22.0625L9.63464 20.6467H15.0156L15.5093 22.0625H9.14086Z" fill="#A3A3A3"/>
</g>
<defs>
<clipPath id="clip0_384_4226">
<rect width="16" height="16" fill="white" transform="translate(7 7)"/>
</clipPath>
</defs>
</svg>
