<svg width="30" height="30" viewBox="0 0 30 30" fill="none" xmlns="http://www.w3.org/2000/svg">
<g clip-path="url(#clip0_384_4234)">
<path d="M7.9062 15.4222C7.65777 15.7853 7.51273 16.2209 7.51273 16.6895C7.51273 17.9563 8.57036 18.9833 9.87498 18.9833C10.7921 18.9833 11.5866 18.4754 11.978 17.7338C12.2365 17.8982 12.5454 17.9941 12.8775 17.9941C13.3306 17.9941 13.7408 17.8162 14.0382 17.5285C14.3567 18.3337 15.1601 18.9056 16.1015 18.9056C17.1085 18.9056 17.9576 18.2513 18.2241 17.3569C18.5647 17.6572 18.9901 17.8682 19.4611 17.9528C19.3518 17.7108 19.2905 17.4426 19.2905 17.1602C19.2905 16.0942 20.1578 15.2269 21.2238 15.2269C21.6889 15.2269 22.1161 15.392 22.45 15.6667C22.4523 15.624 22.4535 15.5811 22.4535 15.5379C22.4535 15.2865 22.4144 15.044 22.3422 14.8156C22.7394 14.4492 22.9875 13.9317 22.9875 13.3577C22.9875 12.4447 22.3607 11.6743 21.5023 11.4289C21.5862 11.1589 21.6317 10.8728 21.6317 10.5763C21.6317 10.5722 21.6316 10.5681 21.6316 10.564C21.3809 10.683 21.1009 10.7498 20.8055 10.7498C19.7394 10.7498 18.8721 9.88253 18.8721 8.8165C18.8721 8.39778 19.0064 8.01003 19.2335 7.69313C19.0276 7.65034 18.814 7.62762 18.595 7.62762C18.0209 7.62762 17.4841 7.78244 17.0262 8.05125C16.6551 7.42331 15.9584 7 15.1595 7C14.3089 7 13.5738 7.47947 13.2247 8.17516C12.9348 7.84047 12.5006 7.62759 12.015 7.62759C11.1424 7.62759 10.435 8.3145 10.435 9.16184C10.435 9.24041 10.4411 9.31756 10.4528 9.39297C9.23867 9.4885 8.28377 10.4749 8.28377 11.6785C8.28377 11.9764 8.34289 12.2607 8.4493 12.5218C7.65183 12.5997 7.0293 13.2534 7.0293 14.0483C7.0293 14.6502 7.38652 15.1709 7.9062 15.4222ZM17.5203 11.7583C18.5864 11.7583 19.4536 12.6256 19.4536 13.6917C19.4536 14.7577 18.5864 15.625 17.5203 15.625C16.4542 15.625 15.587 14.7577 15.587 13.6917C15.587 12.6256 16.4542 11.7583 17.5203 11.7583ZM13.5466 9.04884C14.6126 9.04884 15.4799 9.91616 15.4799 10.9822C15.4799 12.0482 14.6126 12.9155 13.5466 12.9155C12.4805 12.9155 11.6132 12.0482 11.6132 10.9822C11.6132 9.91616 12.4805 9.04884 13.5466 9.04884ZM10.7131 13.1937C11.7792 13.1937 12.6465 14.061 12.6465 15.1271C12.6465 16.1931 11.7792 17.0604 10.7131 17.0604C9.64708 17.0604 8.7798 16.1931 8.7798 15.1271C8.7798 14.061 9.64711 13.1937 10.7131 13.1937Z" fill="#A3A3A3"/>
<path d="M14.4698 11.3641C14.6804 10.8559 14.4392 10.2732 13.931 10.0625C13.4228 9.85187 12.8401 10.0931 12.6295 10.6013C12.4188 11.1095 12.66 11.6922 13.1682 11.9028C13.6764 12.1135 14.2591 11.8723 14.4698 11.3641Z" fill="#A3A3A3"/>
<path d="M17.5203 14.6875C18.0702 14.6875 18.5161 14.2416 18.5161 13.6916C18.5161 13.1417 18.0702 12.6958 17.5203 12.6958C16.9703 12.6958 16.5244 13.1417 16.5244 13.6916C16.5244 14.2416 16.9703 14.6875 17.5203 14.6875Z" fill="#A3A3A3"/>
<path d="M21.0315 9.78156C21.5667 9.65506 21.8979 9.1187 21.7714 8.58356C21.645 8.04842 21.1086 7.71715 20.5734 7.84365C20.0383 7.97015 19.707 8.50651 19.8335 9.04165C19.96 9.57679 20.4964 9.90806 21.0315 9.78156Z" fill="#A3A3A3"/>
<path d="M11.098 16.047C11.6062 15.8364 11.8474 15.2536 11.6368 14.7454C11.4261 14.2373 10.8434 13.9961 10.3352 14.2067C9.82701 14.4173 9.5858 15.0001 9.79645 15.5083C10.0071 16.0165 10.5898 16.2577 11.098 16.047Z" fill="#A3A3A3"/>
<path d="M22.1495 17.5432C22.3601 17.035 22.1189 16.4522 21.6107 16.2416C21.1025 16.0309 20.5198 16.2722 20.3091 16.7803C20.0985 17.2885 20.3397 17.8713 20.8479 18.0819C21.3561 18.2926 21.9388 18.0513 22.1495 17.5432Z" fill="#A3A3A3"/>
<path d="M22.5161 22.0625H16.9145V19.7392C16.6523 19.8075 16.3799 19.8431 16.1017 19.8431C15.4572 19.8431 14.8374 19.6533 14.3094 19.2943C14.0949 19.1485 13.9016 18.9791 13.7325 18.79C13.5258 18.861 13.3092 18.9059 13.0871 18.9233V22.0625H7.48145C7.22257 22.0625 7.0127 22.2724 7.0127 22.5313C7.0127 22.7901 7.22257 23 7.48145 23H22.5161C22.7749 23 22.9848 22.7901 22.9848 22.5313C22.9848 22.2724 22.775 22.0625 22.5161 22.0625ZM15.4696 22.0625H14.5321V21.2068C14.5321 20.9479 14.7419 20.738 15.0008 20.738C15.2597 20.738 15.4696 20.9479 15.4696 21.2068V22.0625Z" fill="#A3A3A3"/>
</g>
<defs>
<clipPath id="clip0_384_4234">
<rect width="16" height="16" fill="white" transform="translate(7 7)"/>
</clipPath>
</defs>
</svg>
