<svg width="30" height="30" viewBox="0 0 30 30" fill="none" xmlns="http://www.w3.org/2000/svg">
<rect x="0.5" y="0.5" width="29" height="29" rx="14.5" stroke="#FF6B2A"/>
<path d="M21.5 13H8.5C7.95 13 7.5 13.45 7.5 14V18.25V18.5V21.5C7.5 21.8 7.7 22 8 22C8.3 22 8.5 21.8 8.5 21.5V19H21.5V21.5C21.5 21.8 21.7 22 22 22C22.3 22 22.5 21.8 22.5 21.5V18.5V18.25V14C22.5 13.45 22.05 13 21.5 13ZM14.5 15.5H12V14H14.5V15.5ZM15.5 14H18V15.5H15.5V14ZM14.5 16.5V18H12V16.5H14.5ZM15.5 16.5H18V18H15.5V16.5ZM19 16.5H21.5V18H19V16.5ZM21.5 15.5H19V14H21.5V15.5ZM11 14V15.5H8.5V14H11ZM8.5 16.5H11V18H8.5V16.5Z" fill="#FF6B2A"/>
<path d="M18 12C19.1 12 20 11.1 20 10C20 8.9 19.1 8 18 8C16.9 8 16 8.9 16 10C16 11.1 16.9 12 18 12Z" fill="#FF6B2A"/>
</svg>
