<?xml version="1.0" encoding="UTF-8"?>
<!-- Created with Inkscape (http://www.inkscape.org/) -->
<svg width="520" height="856" version="1.0" xmlns="http://www.w3.org/2000/svg" xmlns:cc="http://creativecommons.org/ns#" xmlns:dc="http://purl.org/dc/elements/1.1/" xmlns:rdf="http://www.w3.org/1999/02/22-rdf-syntax-ns#" xmlns:xlink="http://www.w3.org/1999/xlink">
 <metadata>
  <rdf:RDF>
   <cc:Work rdf:about="">
    <dc:format>image/svg+xml</dc:format>
    <dc:type rdf:resource="http://purl.org/dc/dcmitype/StillImage"/>
    <dc:title/>
   </cc:Work>
  </rdf:RDF>
 </metadata>
 <g transform="translate(-69.833 -141.76)">
  <g transform="matrix(1.0057 0 0 1.0058 -846.91 31.158)" style="stroke-width:.99427">
   <g style="stroke-width:.99427">
    <path transform="translate(-25.134 54.36)" d="m1195.1 130.06c-3.0689 20.063-16.258 35.899-30.727 36.498-8.3992 0.34794-19.091-1.5014-23.742-8.5039-3.4357-5.1727-7.7247-5.6449-9.9218 0-5.8131 14.935-25.987 18.123-45.358-15.947-7.7867 44.375-26.427 45.631-42.168 32.955-2.7353-2.2027-10.214 0.0451-9.9219 3.5449 0.4766 5.7062-4.3555 13.667-10.277 15.236-11.591 3.0723-27.035-6.5468-32.246-15.945-0.80389-1.4499-5.6278-1.1644-4.9609 0.35352 7.2614 16.529 30.84 32.786 42.832 26.861 6.5585-3.2404 10.947-9.8512 13.51-17.293 7.3542 3.0178 16.572 6.4526 24.49 4.0508 10.981-3.331 21.51-13.951 24.234-23.363 5.4193 6.5343 15.729 15.215 24.986 14.021 9.8613-1.2715 18.012-9.5046 20.549-14.908 2.7226 6.07 18.316 11.368 28.359 10.504 8.7522-0.75314 23.841-10.845 30.361-18.299 6.5203 7.4534 21.609 17.546 30.361 18.299 10.044 0.86426 25.637-4.4339 28.359-10.504 2.537 5.4036 10.688 13.637 20.549 14.908 9.2574 1.1937 19.567-7.4871 24.986-14.021 2.7239 9.4127 13.253 20.032 24.234 23.363 7.9178 2.4018 17.134-1.033 24.488-4.0508 2.5631 7.4417 6.9532 14.053 13.512 17.293 11.992 5.925 35.571-10.332 42.832-26.861 0.6667-1.5179-4.1571-1.8035-4.961-0.35352-5.2108 9.3985-20.655 19.018-32.246 15.945-5.9218-1.5696-10.754-9.5301-10.277-15.236 0.2923-3.4998-7.1866-5.7476-9.9219-3.5449-15.74 12.676-34.381 11.42-42.168-32.955-19.371 34.07-39.544 30.882-45.357 15.947-2.1971-5.6449-6.4862-5.1727-9.9219 0-4.6511 7.0025-15.343 8.8518-23.742 8.5039-14.468-0.59935-27.658-16.436-30.726-36.498z" style="fill:#c6a76e;stroke-width:1.4914;stroke:#000"/>
    <g transform="translate(-2.9375)" style="stroke-width:.99427;stroke:#000">
     <path transform="translate(-25.134 54.36)" d="m1198.1 56.352c-2.938 5.4378-7.8438 2.6318-8.3262 10.631-4.4295-2.8144-9.9645 1.8257-13.289 2.6582 0.9752 3.4356-1.055 8.0847 3.3652 10.098-4.9449-0.20698-6.0909 4.452-9.8692 4.2324 2.5008 1.4683 1.6494 5.3648 3.4551 6.4121 2.3227 1.3472 5.2268 0.60715 7.4824 1.3496 2.0442 0.67288 2.7889 3.6188 1.3907 4.9941-1.051 1.0339-2.4758 1.531-4.1895 0.08984-1.5144-1.2735-2.6488-3.8064-4.9765-5.1719-3.7767-2.2154-6.8942 1.3639-11.188-3.4004 0 0-1.31 4.4512-0.4122 6.7754 0.8939 2.3141 3.7993 3.2706 5.0938 5.3867 0.6431 1.0512 1.4205 2.6954 0.3105 3.2305-4.9539 2.3876-5.8453-4.693-9.8281-4.9707-6.24-0.43503-6.5964 12.976-11.109 14.914 4.4432 2.5057 1.7856 12.72 9.2129 13.643 4.1958 0.5211 6.8548-5.8586 12.402-2.6562 1.2864 0.74257 0.035 3.4675-1.2168 4.4375-2.1613 1.6756-6.0181 1.2624-7.2871 4.2441-2.4634 5.7884 2.214 7.2653 0.791 10.828 3.6743-2.199 8.3534-1.9348 11.611-5.5137 2.6218-2.88 4.5864-8.3751 7.1172-6.1797 1.1378 0.98708 0.8379 3.4882-0.1 4.7188-1.7245 2.2625-5.1061 3.1372-6.1836 5.9648-1.6218 4.2562 2.9284 5.6044 1.8242 9.4941 17.799-1.4358 23.995-17.267 23.918-22.502-0.077 5.2353 6.1207 21.066 23.92 22.502-1.1042-3.8898 3.4441-5.238 1.8223-9.4941-1.0775-2.8277-4.4591-3.7024-6.1836-5.9648-0.9375-1.2305-1.2374-3.7317-0.1-4.7188 2.5308-2.1954 4.4973 3.2997 7.1191 6.1797 3.2579 3.5788 7.937 3.3147 11.611 5.5137-1.423-3.5628 3.2545-5.0397 0.7911-10.828-1.269-2.9817-5.1259-2.5686-7.2872-4.2441-1.2514-0.96999-2.5051-3.6949-1.2187-4.4375 5.5476-3.2024 8.2065 3.1774 12.402 2.6562 7.4273-0.92245 4.7717-11.137 9.2149-13.643-4.513-1.9378-4.8713-15.349-11.111-14.914-3.9828 0.27766-4.8723 7.3583-9.8262 4.9707-1.11-0.53503-0.3345-2.1793 0.3086-3.2305 1.2945-2.1161 4.2018-3.0727 5.0957-5.3867 0.8978-2.3242-0.4141-6.7754-0.4141-6.7754-4.2933 4.7643-7.4088 1.185-11.186 3.4004-2.3277 1.3654-3.4622 3.8984-4.9766 5.1719-1.7137 1.4411-3.1404 0.94402-4.1914-0.08984-1.3982-1.3753-0.6516-4.3213 1.3926-4.9941 2.2556-0.74246 5.1597-0.0024 7.4824-1.3496 1.8057-1.0473 0.9523-4.9438 3.4531-6.4121-3.7783 0.21962-4.9242-4.4394-9.8691-4.2324 4.4202-2.0129 2.392-6.6621 3.3672-10.098-3.3246-0.83251-8.8596-5.4726-13.289-2.6582-0.4824-7.9991-5.3901-5.1931-8.3281-10.631z" style="fill:#c6a76e;stroke-linecap:round;stroke-linejoin:round;stroke-width:1.4914;stroke:#000"/>
     <g style="stroke-width:.99427;stroke:#000">
      <ellipse cx="1173" cy="168.23" rx="9.4168" ry="16.147" style="fill:none;stroke-linecap:round;stroke-linejoin:round;stroke-width:1.4508;stroke:#000"/>
      <ellipse cx="1173" cy="168.23" rx="6.6743" ry="12.208" style="fill:#da1e2a;stroke-linecap:round;stroke-linejoin:round;stroke-width:1.062;stroke:#000"/>
      <path d="m1173 151.89v-24.43" style="fill:none;stroke-linecap:round;stroke-linejoin:round;stroke-width:.99427px;stroke:#000"/>
      <path d="m1168.7 152.77c-1.6404-4.5693-5.8231-8.5912-10.399-12.528" style="fill:none;stroke-linecap:round;stroke-linejoin:round;stroke-width:.99427px;stroke:#000"/>
      <path d="m1163.3 165.42c-5.596-0.15364-11.192-7.3189-16.788-11.651" style="fill:none;stroke-linecap:round;stroke-linejoin:round;stroke-width:.99427px;stroke:#000"/>
      <path d="m1163.6 169.68c-11.023 0.51183-16.379-0.95789-26.184-0.75171" style="fill:none;stroke-linecap:round;stroke-linejoin:round;stroke-width:.99427px;stroke:#000"/>
      <path d="m1164.8 176.32c-4.1141 0.75508-8.2149 1.4308-12.654 4.1344" style="fill:none;stroke-linecap:round;stroke-linejoin:round;stroke-width:.99427px;stroke:#000"/>
      <path d="m1169.7 183.48c-2.554 6.582-6.8143 8.8211-10.566 13.007" style="fill:none;stroke-linecap:round;stroke-linejoin:round;stroke-width:.99427px;stroke:#000"/>
      <path d="m1177.2 152.77c1.6404-4.5693 5.8231-8.5912 10.399-12.528" style="fill:none;stroke-linecap:round;stroke-linejoin:round;stroke-width:.99427px;stroke:#000"/>
      <path d="m1182.6 165.42c5.596-0.15364 11.192-7.3189 16.788-11.651" style="fill:none;stroke-linecap:round;stroke-linejoin:round;stroke-width:.99427px;stroke:#000"/>
      <path d="m1182.3 169.68c11.023 0.51183 16.379-0.95789 26.184-0.75171" style="fill:none;stroke-linecap:round;stroke-linejoin:round;stroke-width:.99427px;stroke:#000"/>
      <path d="m1181.1 176.32c4.1141 0.75508 8.2149 1.4308 12.654 4.1344" style="fill:none;stroke-linecap:round;stroke-linejoin:round;stroke-width:.99427px;stroke:#000"/>
      <path d="m1175.9 183.48c2.554 6.582 7.0806 8.8211 10.833 13.007" style="fill:none;stroke-linecap:round;stroke-linejoin:round;stroke-width:.99427px;stroke:#000"/>
     </g>
    </g>
    <g transform="rotate(-11.587 1166 748.78)" style="fill:none;stroke-width:.99427;stroke:#000">
     <path transform="translate(-25.134 54.36)" d="m1187.3 71.712c-4.4295-2.8144-8.0798-1.7525-11.404-0.91998 0.9752 3.4356 0.2981 7.7227 4.6114 11.504-4.9449-0.20698-3.7152 0.97452-7.4935 0.7549 2.3252 1.4323 2.5473 4.293 5.9759 8.4637 2.1545 2.6208 4.1398 2.8861 4.8141 4.3834 0.9703 2.155 1.1651 4.0532-0.2331 5.4285-1.051 1.0339-1.7584 0.52704-3.4721-0.91408-1.5144-1.2735-1.9062-4.9331-4.2339-6.2985-3.7767-2.2154-8.1687 0.71887-10.885 0.11467 1.0464 2.3887-0.507 5.4121 0.9127 7.1749 1.5753 1.956 2.7291 1.0049 4.0236 3.121 0.6431 1.0512 1.0554 1.9811-0.055 2.5162-3.4497 1.2892-3.6802-5.2722-7.663-5.5499-7.5901-0.71185-6.8988 9.4612-14.096 12.639 4.4432 2.5057 3.9727 12.657 11.4 13.579 4.1958 0.5211 6.5705-7.2187 11.817-3.5436 1.5271 1.0697-0.1886 3.9331-1.4402 4.9033-2.1615 1.6754-4.8884 1.3662-6.1574 4.3479-2.4634 5.7884 0.3699 7.5266-1.0531 11.089 3.6743-2.199 9.99 0.0633 14.953-5.5958 2.6218-2.88 0.9328-9.8916 6.7363-8.6877 1.1378 0.98708 0.8661 2.7267-0.072 3.9572-1.7245 2.2625-3.8509 2.969-5.8626 5.647-3.0129 4.0107 2.2427 10.196-2.2066 14.806 17.616-4.2869 21.991-19.34 21.913-24.576-0.077 5.2353 6.4703 24.975 25.323 21.894-6.6395-2.4669-1.1663-7.0785-2.7881-11.335-1.0775-2.8277-3.7572-1.5122-5.4817-3.7747-0.9375-1.2305-0.9447-3.288 0.1927-4.2751 5.2592-2.4033 4.1543 3.5879 6.9713 6.2773 3.8613 3.6864 7.9021 0.36605 11.812-0.45601-2.6755-3.6918 2.4596-9.0286 0.256-11.961-1.9468-2.5906-5.2297-1.4388-7.391-3.1144-1.2514-0.96999-1.6711-3.396-0.3847-4.1386 5.5476-3.2024 6.2022 6.0915 12.192 5.5546 7.4273-0.92245 5.2344-10.275 9.6776-12.78-7.0463-1.4341-3.5515-9.5022-11.702-9.536-3.9924-0.0165-8.1128 6.7368-11.129 5.0872-1.7227-0.94214-1.2157-2.8715-0.5726-3.9227 1.2945-2.1161 6.119-2.4265 7.6951-4.3422 1.7397-2.1144 2.6794-6.269 2.6794-6.269-4.0669 3.6597-9.0171-1.5747-12.794 0.6407-2.3277 1.3654-2.6504 3.6812-4.1648 4.9547-1.7137 1.4411-3.3668 2.0486-4.4178 1.0147-1.3982-1.3753-0.9166-2.9976 0.7506-4.3584 1.6793-1.3706 3.7907-1.4341 6.1134-2.7813 1.8057-1.0473 2.664-8.3017 5.1648-9.77-3.7783 0.21962-1.7297 0.5639-6.6746 0.77088 5.5875-4.5872-0.2926-10.41 3.3354-13.685-4.9859 2.2799-6.156-0.56991-10.586 2.2444-1.3322-10.092-10.446-6.1021-12.576-15.656-2.4056 6.7595-11.569 5.3825-12.331 15.371z" style="fill:#c6a76e;stroke-linecap:round;stroke-linejoin:round;stroke-width:1.4914;stroke:#000"/>
     <g style="fill:none;stroke-width:.99427;stroke:#000">
      <ellipse cx="1173" cy="168.23" rx="9.4168" ry="16.147" style="fill:none;stroke-linecap:round;stroke-linejoin:round;stroke-width:1.4508;stroke:#000"/>
      <ellipse cx="1173" cy="168.23" rx="6.6743" ry="12.208" style="fill:#007c66;stroke-linecap:round;stroke-linejoin:round;stroke-width:1.062;stroke:#000"/>
      <path d="m1173 151.89v-24.43" style="fill:none;stroke-linecap:round;stroke-linejoin:round;stroke-width:.99427px;stroke:#000"/>
      <path d="m1168.7 152.77c-1.6404-4.5693-5.8231-8.5912-10.399-12.528" style="fill:none;stroke-linecap:round;stroke-linejoin:round;stroke-width:.99427px;stroke:#000"/>
      <path d="m1163.3 165.42c-5.596-0.15364-11.192-7.3189-16.788-11.651" style="fill:none;stroke-linecap:round;stroke-linejoin:round;stroke-width:.99427px;stroke:#000"/>
      <path d="m1163.6 169.68c-11.023 0.51183-16.379-0.95789-26.184-0.75171" style="fill:none;stroke-linecap:round;stroke-linejoin:round;stroke-width:.99427px;stroke:#000"/>
      <path d="m1163.5 173.24c-4.1141 0.75508-6.9276 4.5084-11.366 7.2119" style="fill:none;stroke-linecap:round;stroke-linejoin:round;stroke-width:.99427px;stroke:#000"/>
      <path d="m1169.7 183.48c-2.554 6.582-6.8143 8.8211-10.566 13.007" style="fill:none;stroke-linecap:round;stroke-linejoin:round;stroke-width:.99427px;stroke:#000"/>
      <path d="m1177.2 152.77c1.6404-4.5693 5.8231-8.5912 10.399-12.528" style="fill:none;stroke-linecap:round;stroke-linejoin:round;stroke-width:.99427px;stroke:#000"/>
      <path d="m1182.6 165.42c5.596-0.15364 11.192-7.3189 16.788-11.651" style="fill:none;stroke-linecap:round;stroke-linejoin:round;stroke-width:.99427px;stroke:#000"/>
      <path d="m1182.3 169.68c11.023 0.51183 16.379-0.95789 26.184-0.75171" style="fill:none;stroke-linecap:round;stroke-linejoin:round;stroke-width:.99427px;stroke:#000"/>
      <path d="m1182.1 172.69c4.1141 0.75508 7.2145 5.0624 11.653 7.766" style="fill:none;stroke-linecap:round;stroke-linejoin:round;stroke-width:.99427px;stroke:#000"/>
      <path d="m1175.9 183.48c2.554 6.582 7.0806 8.8211 10.833 13.007" style="fill:none;stroke-linecap:round;stroke-linejoin:round;stroke-width:.99427px;stroke:#000"/>
     </g>
    </g>
    <g transform="matrix(-.97962 -.20086 -.20086 .97962 2466.7 249.47)" style="fill:none;stroke-width:.99427;stroke:#000">
     <path transform="translate(-25.134 54.36)" d="m1187.3 71.712c-4.4295-2.8144-8.0798-1.7525-11.404-0.91998 0.9752 3.4356 0.2981 7.7227 4.6114 11.504-4.9449-0.20698-3.7152 0.97452-7.4935 0.7549 2.3252 1.4323 2.5473 4.293 5.9759 8.4637 2.1545 2.6208 4.1398 2.8861 4.8141 4.3834 0.9703 2.155 1.1651 4.0532-0.2331 5.4285-1.051 1.0339-1.7584 0.52704-3.4721-0.91408-1.5144-1.2735-1.9062-4.9331-4.2339-6.2985-3.7767-2.2154-8.1687 0.71887-10.885 0.11467 1.0464 2.3887-0.507 5.4121 0.9127 7.1749 1.5753 1.956 2.7291 1.0049 4.0236 3.121 0.6431 1.0512 1.0554 1.9811-0.055 2.5162-3.4497 1.2892-3.6802-5.2722-7.663-5.5499-7.5901-0.71185-6.8988 9.4612-14.096 12.639 4.4432 2.5057 3.9727 12.657 11.4 13.579 4.1958 0.5211 6.5705-7.2187 11.817-3.5436 1.5271 1.0697-0.1886 3.9331-1.4402 4.9033-2.1615 1.6754-4.8884 1.3662-6.1574 4.3479-2.4634 5.7884 0.3699 7.5266-1.0531 11.089 3.6743-2.199 9.99 0.0633 14.953-5.5958 2.6218-2.88 0.9328-9.8916 6.7363-8.6877 1.1378 0.98708 0.8661 2.7267-0.072 3.9572-1.7245 2.2625-3.8509 2.969-5.8626 5.647-3.0129 4.0107 2.2427 10.196-2.2066 14.806 17.616-4.2869 21.991-19.34 21.913-24.576-0.077 5.2353 6.4703 24.975 25.323 21.894-6.6395-2.4669-1.1663-7.0785-2.7881-11.335-1.0775-2.8277-3.7572-1.5122-5.4817-3.7747-0.9375-1.2305-0.9447-3.288 0.1927-4.2751 5.2592-2.4033 4.1543 3.5879 6.9713 6.2773 3.8613 3.6864 7.9021 0.36605 11.812-0.45601-2.6755-3.6918 2.4596-9.0286 0.256-11.961-1.9468-2.5906-5.2297-1.4388-7.391-3.1144-1.2514-0.96999-1.6711-3.396-0.3847-4.1386 5.5476-3.2024 6.2022 6.0915 12.192 5.5546 7.4273-0.92245 5.2344-10.275 9.6776-12.78-7.0463-1.4341-3.5515-9.5022-11.702-9.536-3.9924-0.0165-8.1128 6.7368-11.129 5.0872-1.7227-0.94214-1.2157-2.8715-0.5726-3.9227 1.2945-2.1161 6.119-2.4265 7.6951-4.3422 1.7397-2.1144 2.6794-6.269 2.6794-6.269-4.0669 3.6597-9.0171-1.5747-12.794 0.6407-2.3277 1.3654-2.6504 3.6812-4.1648 4.9547-1.7137 1.4411-3.3668 2.0486-4.4178 1.0147-1.3982-1.3753-0.9166-2.9976 0.7506-4.3584 1.6793-1.3706 3.7907-1.4341 6.1134-2.7813 1.8057-1.0473 2.664-8.3017 5.1648-9.77-3.7783 0.21962-1.7297 0.5639-6.6746 0.77088 5.5875-4.5872-0.2926-10.41 3.3354-13.685-4.9859 2.2799-6.156-0.56991-10.586 2.2444-1.3322-10.092-10.446-6.1021-12.576-15.656-2.4056 6.7595-11.569 5.3825-12.331 15.371z" style="fill:#c6a76e;stroke-linecap:round;stroke-linejoin:round;stroke-width:1.4914;stroke:#000"/>
     <g style="fill:none;stroke-width:.99427;stroke:#000">
      <ellipse cx="1173" cy="168.23" rx="9.4168" ry="16.147" style="fill:none;stroke-linecap:round;stroke-linejoin:round;stroke-width:1.4508;stroke:#000"/>
      <ellipse cx="1173" cy="168.23" rx="6.6743" ry="12.208" style="fill:#007c66;stroke-linecap:round;stroke-linejoin:round;stroke-width:1.062;stroke:#000"/>
      <path d="m1173 151.89v-24.43" style="fill:none;stroke-linecap:round;stroke-linejoin:round;stroke-width:.99427px;stroke:#000"/>
      <path d="m1168.7 152.77c-1.6404-4.5693-5.8231-8.5912-10.399-12.528" style="fill:none;stroke-linecap:round;stroke-linejoin:round;stroke-width:.99427px;stroke:#000"/>
      <path d="m1163.3 165.42c-5.596-0.15364-11.192-7.3189-16.788-11.651" style="fill:none;stroke-linecap:round;stroke-linejoin:round;stroke-width:.99427px;stroke:#000"/>
      <path d="m1163.6 169.68c-11.023 0.51183-16.379-0.95789-26.184-0.75171" style="fill:none;stroke-linecap:round;stroke-linejoin:round;stroke-width:.99427px;stroke:#000"/>
      <path d="m1163.5 173.24c-4.1141 0.75508-6.9276 4.5084-11.366 7.2119" style="fill:none;stroke-linecap:round;stroke-linejoin:round;stroke-width:.99427px;stroke:#000"/>
      <path d="m1169.7 183.48c-2.554 6.582-6.8143 8.8211-10.566 13.007" style="fill:none;stroke-linecap:round;stroke-linejoin:round;stroke-width:.99427px;stroke:#000"/>
      <path d="m1177.2 152.77c1.6404-4.5693 5.8231-8.5912 10.399-12.528" style="fill:none;stroke-linecap:round;stroke-linejoin:round;stroke-width:.99427px;stroke:#000"/>
      <path d="m1182.6 165.42c5.596-0.15364 11.192-7.3189 16.788-11.651" style="fill:none;stroke-linecap:round;stroke-linejoin:round;stroke-width:.99427px;stroke:#000"/>
      <path d="m1182.3 169.68c11.023 0.51183 16.379-0.95789 26.184-0.75171" style="fill:none;stroke-linecap:round;stroke-linejoin:round;stroke-width:.99427px;stroke:#000"/>
      <path d="m1182.1 172.69c4.1141 0.75508 7.2145 5.0624 11.653 7.766" style="fill:none;stroke-linecap:round;stroke-linejoin:round;stroke-width:.99427px;stroke:#000"/>
      <path d="m1175.9 183.48c2.554 6.582 7.0806 8.8211 10.833 13.007" style="fill:none;stroke-linecap:round;stroke-linejoin:round;stroke-width:.99427px;stroke:#000"/>
     </g>
    </g>
    <g style="stroke-width:.99427;stroke:#000">
     <path d="m945.57 209.4c3.7759 7.5507 9.0207 21.935 18.292 27.563 7.0913 4.3049 17.305 7.3314 24.932 0.87699-7.0621-0.80792-5.6243-4.9249-8.6446-7.3918-1.4432-1.1787-4.2769-0.4478-6.3332-1.3776-1.7796-0.80467-1.995-3.3227-0.68282-4.2602 4.0585-2.8997 5.3362 3.4482 9.5216 3.6332 2.6387 0.11668 5.432 0.0812 7.5171-2.0045-3.578-1.2509-2.5409-7.1119-6.0137-9.6469-2.1613-1.5777-7.1942-0.54615-9.9587-0.94506-1.6353-0.23598-3.6544-2.3006-1.9433-4.4422 2.0903-2.6162 5.5694 0.63841 8.1435-0.50114 7.2839-3.2246 7.0936-13.627 12.027-17.039-3.575 0.21743-7.1562-6.7251-12.904-4.7608-2.4827 0.84839-3.5576 3.5884-5.2275 6.3136-1.5255 2.4895-3.8865 4.0463-5.4217 2.2057-3.1985-3.8345 4.6406-4.9878 6.2642-8.2688 1.2066-2.4384 2.1687-5.8476 3.3827-8.3941-4.4175 2.8165-8.4812 1.007-13.155 3.8838-3.9552 2.4345-4.4867 9.4011-10.023 7.8929-2.4825-0.6763-0.98158-3.8615 0.75171-5.7631 2.1351-2.3424 6.7995-1.3721 9.0205-3.6332 4.1862-4.2621 0.16658-10.272 1.8793-14.157-4.4649 3.13-11.777-0.14072-15.285 5.5125-1.4637 2.3593-0.36863 5.9606-2.8816 7.1412-1.4891 0.69957-2.5615 0.11036-2.8815-1.5034-0.47118-2.3759 3.5959-2.597 4.7608-6.1389 1.3785-4.1914-1.7543-5.1576-0.12528-10.399-2.4499 3.9042-6.7166 2.9097-9.5216 5.262-2.3296 1.9535-2.5592 5.4171-5.5125 6.1389-3.4115 0.83382-4.6038-4.0439-12.403-2.631-8.9927 1.6291-6.5364 8.3096-10.9 12.779 6.7244-0.0677 11.188-2.0682 16.162 0.50114 8.3707 4.3238 12.95 15.127 17.164 23.553z" style="fill:#c6a76e;stroke-linecap:round;stroke-linejoin:round;stroke-width:1.4914;stroke:#000"/>
     <ellipse transform="rotate(-35.565)" cx="648.83" cy="734.44" rx="7.2811" ry="16.677" style="fill:#c6a76e;stroke-linecap:round;stroke-linejoin:round;stroke-width:1.4506;stroke:#000"/>
     <ellipse transform="matrix(.81278 -.58258 .58069 .81412 0 0)" cx="648.8" cy="735.48" rx="5.7314" ry="13.138" style="fill:#da1e2a;stroke-linecap:round;stroke-linejoin:round;stroke-width:1.0619;stroke:#000"/>
     <path d="m946.57 205.76c-5.6376-7.9421-2.8591-10.76-10.273-19.294" style="fill:none;stroke-linecap:round;stroke-linejoin:round;stroke-width:.99427px;stroke:#000"/>
     <path d="m950.33 206.39c-1.4124-4.3878-0.22619-7.3559-1.0023-10.9" style="fill:none;stroke-linecap:round;stroke-linejoin:round;stroke-width:.99427px;stroke:#000"/>
     <path d="m959.73 213.78c3.7838-1.6936 1.666-8.2053 3.3827-12.278" style="fill:none;stroke-linecap:round;stroke-linejoin:round;stroke-width:.99427px;stroke:#000"/>
     <path d="m961.73 216.16c4.3041-5.8374 8.9939-11.353 15.285-15.535" style="fill:none;stroke-linecap:round;stroke-linejoin:round;stroke-width:.99427px;stroke:#000"/>
     <path d="m962.98 218.92c5.2556 1.4167 9.6148-0.2829 12.779 1.1276" style="fill:none;stroke-linecap:round;stroke-linejoin:round;stroke-width:.99427px;stroke:#000"/>
     <path d="m964.74 233.45c4.4794 3.4297 7.7185 1.998 11.902 5.1367" style="fill:none;stroke-linecap:round;stroke-linejoin:round;stroke-width:.99427px;stroke:#000"/>
    </g>
    <g transform="matrix(-1 0 0 1 2340 0)" style="stroke-width:.99427;stroke:#000">
     <path d="m945.57 209.4c3.7759 7.5507 9.0207 21.935 18.292 27.563 7.0913 4.3049 17.305 7.3314 24.932 0.87699-7.0621-0.80792-5.6243-4.9249-8.6446-7.3918-1.4432-1.1787-4.2769-0.4478-6.3332-1.3776-1.7796-0.80467-1.995-3.3227-0.68282-4.2602 4.0585-2.8997 5.3362 3.4482 9.5216 3.6332 2.6387 0.11668 5.432 0.0812 7.5171-2.0045-3.578-1.2509-2.5409-7.1119-6.0137-9.6469-2.1613-1.5777-7.1942-0.54615-9.9587-0.94506-1.6353-0.23598-3.6544-2.3006-1.9433-4.4422 2.0903-2.6162 5.5694 0.63841 8.1435-0.50114 7.2839-3.2246 7.0936-13.627 12.027-17.039-3.575 0.21743-7.1562-6.7251-12.904-4.7608-2.4827 0.84839-3.5576 3.5884-5.2275 6.3136-1.5255 2.4895-3.8865 4.0463-5.4217 2.2057-3.1985-3.8345 4.6406-4.9878 6.2642-8.2688 1.2066-2.4384 2.1687-5.8476 3.3827-8.3941-4.4175 2.8165-8.4812 1.007-13.155 3.8838-3.9552 2.4345-4.4867 9.4011-10.023 7.8929-2.4825-0.6763-0.98158-3.8615 0.75171-5.7631 2.1351-2.3424 6.7995-1.3721 9.0205-3.6332 4.1862-4.2621 0.16658-10.272 1.8793-14.157-4.4649 3.13-11.777-0.14072-15.285 5.5125-1.4637 2.3593-0.36863 5.9606-2.8816 7.1412-1.4891 0.69957-2.5615 0.11036-2.8815-1.5034-0.47118-2.3759 3.5959-2.597 4.7608-6.1389 1.3785-4.1914-1.7543-5.1576-0.12528-10.399-2.4499 3.9042-6.7166 2.9097-9.5216 5.262-2.3296 1.9535-2.5592 5.4171-5.5125 6.1389-3.4115 0.83382-4.6038-4.0439-12.403-2.631-8.9927 1.6291-6.5364 8.3096-10.9 12.779 6.7244-0.0677 11.188-2.0682 16.162 0.50114 8.3707 4.3238 12.95 15.127 17.164 23.553z" style="fill:#c6a76e;stroke-linecap:round;stroke-linejoin:round;stroke-width:1.4914;stroke:#000"/>
     <ellipse transform="rotate(-35.565)" cx="648.83" cy="734.44" rx="7.2811" ry="16.677" style="fill:#c6a76e;stroke-linecap:round;stroke-linejoin:round;stroke-width:1.4506;stroke:#000"/>
     <ellipse transform="matrix(.81278 -.58258 .58069 .81412 0 0)" cx="648.8" cy="735.48" rx="5.7314" ry="13.138" style="fill:#da1e2a;stroke-linecap:round;stroke-linejoin:round;stroke-width:1.0619;stroke:#000"/>
     <path d="m946.57 205.76c-5.6376-7.9421-2.8591-10.76-10.273-19.294" style="fill:none;stroke-linecap:round;stroke-linejoin:round;stroke-width:.99427px;stroke:#000"/>
     <path d="m950.33 206.39c-1.4124-4.3878-0.22619-7.3559-1.0023-10.9" style="fill:none;stroke-linecap:round;stroke-linejoin:round;stroke-width:.99427px;stroke:#000"/>
     <path d="m959.73 213.78c3.7838-1.6936 1.666-8.2053 3.3827-12.278" style="fill:none;stroke-linecap:round;stroke-linejoin:round;stroke-width:.99427px;stroke:#000"/>
     <path d="m961.73 216.16c4.3041-5.8374 8.9939-11.353 15.285-15.535" style="fill:none;stroke-linecap:round;stroke-linejoin:round;stroke-width:.99427px;stroke:#000"/>
     <path d="m962.98 218.92c5.2556 1.4167 9.6148-0.2829 12.779 1.1276" style="fill:none;stroke-linecap:round;stroke-linejoin:round;stroke-width:.99427px;stroke:#000"/>
     <path d="m964.74 233.45c4.4794 3.4297 7.7185 1.998 11.902 5.1367" style="fill:none;stroke-linecap:round;stroke-linejoin:round;stroke-width:.99427px;stroke:#000"/>
    </g>
    <g style="stroke-width:.99427">
     <circle cx="1010.5" cy="224.58" r="9.2705" style="fill:#e7e7e7;stroke-linecap:round;stroke-linejoin:round;stroke-width:1.4506;stroke:#000"/>
     <circle cx="1109.9" cy="205.27" r="9.2705" style="fill:#e7e7e7;stroke-linecap:round;stroke-linejoin:round;stroke-width:1.4506;stroke:#000"/>
     <circle transform="scale(-1,1)" cx="-1230.1" cy="205.27" r="9.2705" style="fill:#e7e7e7;stroke-linecap:round;stroke-linejoin:round;stroke-width:1.4506;stroke:#000"/>
     <circle transform="scale(-1,1)" cx="-1329.5" cy="224.58" r="9.2705" style="fill:#e7e7e7;stroke-linecap:round;stroke-linejoin:round;stroke-width:1.4506;stroke:#000"/>
    </g>
   </g>
   <g style="stroke-width:.99427">
    <g style="stroke-width:.99427">
     <g style="stroke-width:.99427">
      <ellipse transform="translate(56.429 -76.64)" cx="1113.6" cy="400.46" rx="171.89" ry="36.266" style="fill:#c6a76e;stroke-linecap:round;stroke-linejoin:round;stroke-width:1.4914;stroke:#000"/>
      <g transform="matrix(.73618 0 0 1 76.747 384.55)" style="fill:#eac102;stroke-width:.99427;stroke:#000">
       <path d="m1428.7-25.419v-55.588" style="fill:#eac102;stroke-width:.66825;stroke:#000"/>
       <path d="m1418.5-25.967v-54.655" style="fill:#eac102;stroke-width:.98381;stroke:#000"/>
       <path d="m1408.9-26.233v-53.96" style="fill:#eac102;stroke-width:1.3179;stroke:#000"/>
       <path d="m1399.4-26.992v-52.711" style="fill:#eac102;stroke-width:1.6521;stroke:#000"/>
       <path d="m1390.9-27.218v-51.991" style="fill:#eac102;stroke-width:1.9862;stroke:#000"/>
       <path d="m1374.7-28.767-0.2241-49.318m7.8948 49.928v-50.498" style="fill:#eac102;stroke-width:2.3203;stroke:#000"/>
       <path d="m1359.8-29.558v-47.31m7.5684 47.962-0.2242-48.596" style="fill:#eac102;stroke-width:2.6359;stroke:#000"/>
       <path d="m1339.7-31.596v-43.234m6.5757 43.271v-43.995m6.7744 44.744v-45.431" style="fill:#eac102;stroke-width:2.97;stroke:#000"/>
       <path d="m1332.7-32.435v-41.556" style="fill:#eac102;stroke-width:3.3041;stroke:#000"/>
       <path d="m1326.2-33.287v-39.851" style="fill:#eac102;stroke-width:3.6383;stroke:#000"/>
       <path d="m1319.1-34.286v-37.853" style="fill:#eac102;stroke-width:3.9724;stroke:#000"/>
       <path d="m1304.8-37.683-0.2242-32.026m7.5939 33.351v-34.681" style="fill:#eac102;stroke-width:4.2879;stroke:#000"/>
       <path d="m1297.4-39.149v-29.143" style="fill:#eac102;stroke-width:4.5293;stroke:#000"/>
       <path d="m1290.6-40.642v-26.117" style="fill:#eac102;stroke-width:4.8634;stroke:#000"/>
       <path d="m1283.3-42.48v-22.301" style="fill:#eac102;stroke-width:5.1789;stroke:#000"/>
       <path d="m1275.7-44.669v-17.534" style="fill:#eac102;stroke-width:5.4945;stroke:#000"/>
       <path d="m1267.7-48.458v-11.009" style="fill:#eac102;stroke-width:6.4783;stroke:#000"/>
       <path d="m1469.2-24.547v-57.341m-17.237 57.059 0.224-56.812m-12.787 56.554v-56.252" style="fill:#eac102;stroke-width:.33413;stroke:#000"/>
       <path d="m1541.4-25.419v-55.588" style="fill:#eac102;stroke-width:.66825;stroke:#000"/>
       <path d="m1551.6-25.804v-54.818" style="fill:#eac102;stroke-width:.98381;stroke:#000"/>
       <path d="m1561.2-26.445v-53.748" style="fill:#eac102;stroke-width:1.3179;stroke:#000"/>
       <path d="m1570.7-26.723v-52.979" style="fill:#eac102;stroke-width:1.6521;stroke:#000"/>
       <path d="m1579.2-27.542v-51.666" style="fill:#eac102;stroke-width:1.9862;stroke:#000"/>
       <path d="m1595.4-28.767 0.2241-49.318m-7.8949 50.313v-50.882" style="fill:#eac102;stroke-width:2.3203;stroke:#000"/>
       <path d="m1610.3-30.124v-46.744m-7.5683 47.46 0.224-48.095" style="fill:#eac102;stroke-width:2.6359;stroke:#000"/>
       <path d="m1630.3-32.523v-42.307m-6.5759 43.271v-43.995m-6.7744 45.368v-46.055" style="fill:#eac102;stroke-width:2.97;stroke:#000"/>
       <path d="m1637.4-32.435v-41.556" style="fill:#eac102;stroke-width:3.3041;stroke:#000"/>
       <path d="m1643.9-34.154v-38.985" style="fill:#eac102;stroke-width:3.6383;stroke:#000"/>
       <path d="m1650.9-35.21v-36.929" style="fill:#eac102;stroke-width:3.9724;stroke:#000"/>
       <path d="m1665.3-37.683 0.2242-32.026m-7.5939 33.35v-34.681" style="fill:#eac102;stroke-width:4.2879;stroke:#000"/>
       <path d="m1672.7-39.149v-29.142" style="fill:#eac102;stroke-width:4.5293;stroke:#000"/>
       <path d="m1679.4-40.642v-26.116" style="fill:#eac102;stroke-width:4.8634;stroke:#000"/>
       <path d="m1686.8-42.48v-22.301" style="fill:#eac102;stroke-width:5.1789;stroke:#000"/>
       <path d="m1694.4-44.669v-17.533" style="fill:#eac102;stroke-width:5.4945;stroke:#000"/>
       <path d="m1702.4-48.458v-11.437" style="fill:#eac102;stroke-width:6.4783;stroke:#000"/>
       <path d="m1500.9-24.547v-57.341m17.237 57.099-0.224-56.852m12.787 56.554v-56.251" style="fill:#eac102;stroke-width:.33413;stroke:#000"/>
      </g>
      <ellipse transform="translate(56.429 -76.64)" cx="1113.6" cy="407.98" rx="162.25" ry="28.75" style="fill:none;stroke-linecap:round;stroke-linejoin:round;stroke-width:1.4914;stroke:#000"/>
      <path transform="translate(56.429 -76.64)" d="m1113.6 436.73v-57.5" style="fill:none;stroke-width:.19885;stroke:#000"/>
      <path transform="translate(-25.134 54.36)" d="m1195.1 233.2a171.89 36.266 0 0 0-171.89 36.266 171.89 36.266 0 0 0 14.789 14.607 162.25 28.75 0 0 1-5.1523-7.0898 162.25 28.75 0 0 1 162.25-28.75 162.25 28.75 0 0 1 162.25 28.75 162.25 28.75 0 0 1-5.5254 7.3008 171.89 36.266 0 0 0 15.162-14.818 171.89 36.266 0 0 0-171.89-36.266z" style="fill:#c6a76e;stroke-linecap:round;stroke-linejoin:round;stroke-width:1.4914;stroke:#000"/>
     </g>
     <path d="m1170 231.75c-103.03 0-186.55 25.246-186.55 47.289 0 3.1363 2.8074 6.2657 8.0098 9.2852l-0.2676-0.75781c-0.7801-2.214-0.7418-3.6968 0.8652-5.6875 25.024-22.338 96.686-37.586 177.95-37.592 81.262 6e-3 152.92 15.254 177.95 37.592 1.6069 1.9907 1.6453 3.4735 0.8652 5.6875l-0.2676 0.75781c5.2023-3.0195 8.0098-6.1489 8.0098-9.2852 0-22.043-83.524-47.289-186.55-47.289z" style="fill:#c6a76e;stroke-linecap:round;stroke-linejoin:round;stroke-width:1.4914;stroke:#000"/>
     <path d="m1170 244.29c-81.262 6e-3 -152.92 15.254-177.95 37.592-1.607 1.9907-1.6453 3.4735-0.8652 5.6875l10.316 29.277c15.805-17 86.388-29.267 168.5-29.285 82.108 0.0177 152.69 12.285 168.5 29.285l10.316-29.277c0.7801-2.214 0.7417-3.6968-0.8652-5.6875-25.024-22.338-96.686-37.586-177.95-37.592z" style="fill:#c6a76e;stroke-linecap:round;stroke-linejoin:round;stroke-width:1.4914;stroke:#000"/>
     <g transform="translate(56.429 -76.64)" style="stroke-width:.99427;stroke:#000">
      <path transform="translate(-81.563 131)" d="m1365 258.61c-2.4622-2.247-5.6057-4.2906-9.4219-6.2344-9.0917-4.6309-22.058-8.684-38.154-12.08-20.202-4.2623-45.407-7.387-72.549-9.125" style="fill:none;stroke-linecap:round;stroke-linejoin:round;stroke-width:.49714;stroke:#000"/>
      <path transform="translate(-81.563 131)" d="m1366.3 254.94c-2.5645-2.1319-5.5916-4.0073-9.0781-5.7832-9.5728-4.876-22.762-8.961-39.045-12.396-18.154-3.8302-40.198-6.736-64.014-8.5606" style="fill:none;stroke-linecap:round;stroke-linejoin:round;stroke-width:.49714;stroke:#000"/>
      <path transform="translate(-81.563 131)" d="m1367.6 251.33c-2.5839-2.0041-5.4853-3.7457-8.7109-5.3887-10.054-5.121-23.468-9.2361-39.938-12.711-17.002-3.5871-37.294-6.3545-59.207-8.2012" style="fill:none;stroke-linecap:round;stroke-linejoin:round;stroke-width:.49714;stroke:#000"/>
      <path transform="translate(-81.563 131)" d="m1368.8 247.77c-2.555-1.8739-5.3271-3.5026-8.332-5.0332-10.535-5.3661-24.174-9.5131-40.83-13.027-16.531-3.4879-36.046-6.2031-57.106-8.0566" style="fill:none;stroke-linecap:round;stroke-linejoin:round;stroke-width:.49714;stroke:#000"/>
      <path transform="translate(-81.563 131)" d="m1370.1 244.21c-2.4944-1.7455-5.1439-3.2615-7.9511-4.6914-11.016-5.6111-24.878-9.7863-41.721-13.34-16.599-3.5022-36.095-6.2216-57.098-8.084" style="fill:none;stroke-linecap:round;stroke-linejoin:round;stroke-width:.49714;stroke:#000"/>
      <path transform="translate(-81.563 131)" d="m1371.3 240.79c-2.4141-1.6246-4.9304-3.0519-7.5625-4.3926-11.484-5.8496-25.566-10.057-42.59-13.648-16.946-3.5754-36.794-6.3359-58.148-8.209" style="fill:none;stroke-linecap:round;stroke-linejoin:round;stroke-width:.49714;stroke:#000"/>
      <path transform="translate(-81.563 131)" d="m1372.6 237.18c-2.314-1.5022-4.6953-2.8354-7.1543-4.0879-11.978-6.1012-26.29-10.338-43.506-13.971-17.623-3.7182-38.268-6.5477-60.436-8.4316" style="fill:none;stroke-linecap:round;stroke-linejoin:round;stroke-width:.49714;stroke:#000"/>
      <path transform="translate(-81.563 131)" d="m1373.8 233.67c-2.2047-1.3874-4.4537-2.6223-6.752-3.793-12.459-6.3463-26.996-10.615-44.398-14.287-18.707-3.947-40.693-6.8892-64.248-8.7754" style="fill:none;stroke-linecap:round;stroke-linejoin:round;stroke-width:.49714;stroke:#000"/>
      <path transform="translate(-81.563 131)" d="m1374.3 229.77c-1.8577-1.1091-3.734-2.1344-5.6368-3.1035-12.94-6.5914-27.7-10.891-45.289-14.602-20.372-4.2981-44.475-7.4056-70.234-9.2676" style="fill:none;stroke-linecap:round;stroke-linejoin:round;stroke-width:.49714;stroke:#000"/>
      <path transform="translate(-81.563 131)" d="m1363.6 220.68c-11.687-5.095-24.626-8.6597-39.541-11.807-22.597-4.7676-49.619-8.073-78.381-9.8516" style="fill:none;stroke-linecap:round;stroke-linejoin:round;stroke-width:.49714;stroke:#000"/>
      <path transform="translate(-81.563 131)" d="m1323 204.63c-26.389-5.4197-58.332-8.889-91.947-10.33" style="fill:none;stroke-linecap:round;stroke-linejoin:round;stroke-width:.49714;stroke:#000"/>
     </g>
     <path transform="translate(-25.134 54.36)" d="m1298 198.91-1.709 10.787-16.547 6.0234-4.1875-3.2715-11.674 4.25 9.7383 7.6094 5.0391-1.834 13.889 10.852-0.9726 6.1465v6e-3c4.3549 0.62502 8.5822 1.2864 12.644 1.9922l0.9395-5.9277 16.982-6.1816 3.9258 3.0684 11.615-4.2266-9.4922-7.416-5.1718 1.8828-14.078-11 1.6055-10.141c-4.0544-0.92454-8.2473-1.7944-12.551-2.6191z" style="fill:#c6a76e;stroke-linecap:round;stroke-linejoin:round;stroke-width:1.2926;stroke:#000"/>
    </g>
    <path d="m1170 360.09v-57.5" style="fill:none;stroke-width:.19885;stroke:#000"/>
    <g style="stroke-width:.99427;stroke:#000">
     <g style="stroke-width:.99427;stroke:#000">
      <path d="m1275.4 253.75-1.7736 11.198-18.898 6.8783" style="fill:none;stroke-linecap:round;stroke-linejoin:round;stroke-width:.74571;stroke:#000"/>
      <path d="m1269 294.17 1.045-6.5977-15.848-12.382-3.9018 1.4201-6.0162-4.7004" style="fill:none;stroke-linecap:round;stroke-linejoin:round;stroke-width:.74571;stroke:#000"/>
     </g>
     <path d="m1283.3 255.41-1.7077 10.782 15.848 12.381" style="fill:none;stroke-linecap:round;stroke-linejoin:round;stroke-width:.74571;stroke:#000"/>
     <path d="m1277.1 295.48 0.9514-6.6395 18.898-6.8784 4.3454 3.395 7.7165-2.7177" style="fill:none;stroke-linecap:round;stroke-linejoin:round;stroke-width:.74571;stroke:#000"/>
     <path d="m1261.6 274.62 16.194-5.8943 13.58 10.61-16.194 5.8943z" style="fill:#007c66;stroke-linecap:round;stroke-linejoin:round;stroke-width:1.1931;stroke:#000"/>
    </g>
    <g transform="matrix(-1 0 0 1 2340 0)" style="stroke-width:.99427;stroke:#000">
     <g style="stroke-width:.99427;stroke:#000">
      <path d="m1272.9 253.26-1.71 10.797-16.548 6.0229-4.1873-3.2715-11.675 4.2492 9.7394 7.6092 5.0377-1.8336 13.89 10.852-0.9733 6.1454" style="fill:none;stroke-linecap:round;stroke-linejoin:round;stroke-width:1.2926;stroke:#000"/>
      <path d="m1275.4 253.75-1.7736 11.198-18.898 6.8783" style="fill:none;stroke-linecap:round;stroke-linejoin:round;stroke-width:.74571;stroke:#000"/>
      <path d="m1269 294.17 1.045-6.5977-15.848-12.382-3.9018 1.4201-6.0162-4.7004" style="fill:none;stroke-linecap:round;stroke-linejoin:round;stroke-width:.74571;stroke:#000"/>
     </g>
     <path d="m1283.3 255.41-1.7077 10.782 15.848 12.381" style="fill:none;stroke-linecap:round;stroke-linejoin:round;stroke-width:.74571;stroke:#000"/>
     <path d="m1285.4 255.88-1.6064 10.143 14.078 10.999 5.1723-1.8825v-1e-5l9.4919 7.4159-11.614 4.2273-3.9264-3.0676-16.982 6.1811-0.9389 5.9284" style="fill:none;stroke-linecap:round;stroke-linejoin:round;stroke-width:1.2926;stroke:#000"/>
     <path d="m1277.1 295.48 0.9514-6.6395 18.898-6.8784 4.3454 3.395 8.9461-3.1652" style="fill:none;stroke-linecap:round;stroke-linejoin:round;stroke-width:.74571;stroke:#000"/>
     <path d="m1261.6 274.62 16.194-5.8943 13.58 10.61-16.194 5.8943z" style="fill:#007c66;stroke-linecap:round;stroke-linejoin:round;stroke-width:1.1931;stroke:#000"/>
    </g>
    <g style="stroke-width:.99427;stroke:#000">
     <ellipse cx="1170" cy="266.02" rx="28.045" ry="17.386" style="fill:none;stroke-linecap:round;stroke-linejoin:round;stroke-width:1.2926;stroke:#000"/>
     <ellipse cx="1170" cy="266.02" rx="20.933" ry="12.729" style="fill:#da1e2a;stroke-linecap:round;stroke-linejoin:round;stroke-width:.99427;stroke:#000"/>
     <path d="m1187.5 267.6c-1.9736 4.9809-9.0548 8.6675-17.488 8.6675-2.0557 0-4.0311-0.21906-5.8717-0.62253" style="fill:none;stroke-linecap:round;stroke-linejoin:round;stroke-width:.74571;stroke:#000"/>
    </g>
    <g style="stroke-width:.99427;stroke:#000">
     <path transform="matrix(.98753 -.15741 0 1 0 0)" d="m1030.6 456.85c0 7.136-6.5922 13.259-14.828 12.921-7.0927-0.29146-8.8826-5.1412-11.041-12.45-2.2868-7.7437 2.8517-13.392 11.041-13.392s14.828 5.7848 14.828 12.921z" style="fill:#c6a76e;stroke-linecap:round;stroke-linejoin:round;stroke-width:1.3007;stroke:#000"/>
     <path d="m1011.4 296.04a8.8191 10.718 56.514 0 1-10.178 10.965 8.8191 10.718 56.514 0 1-10.178-7.6098 8.8191 10.718 56.514 0 1 10.178-10.965 8.8191 10.718 56.514 0 1 10.178 7.6098z" style="fill:#da1e2a;stroke-linecap:round;stroke-linejoin:round;stroke-width:.99427;stroke:#000"/>
    </g>
    <g transform="matrix(-1 0 0 1 2340 0)" style="stroke-width:.99427">
     <path transform="matrix(.98753 -.15741 0 1 0 0)" d="m1030.6 456.85c0 7.136-6.5922 13.259-14.828 12.921-7.0927-0.29146-8.8826-5.1412-11.041-12.45-2.2868-7.7437 2.8517-13.392 11.041-13.392s14.828 5.7848 14.828 12.921z" style="fill:#c6a76e;stroke-linecap:round;stroke-linejoin:round;stroke-width:1.3007;stroke:#000"/>
     <path d="m1011.4 296.04a8.8191 10.718 56.514 0 1-10.178 10.965 8.8191 10.718 56.514 0 1-10.178-7.6098 8.8191 10.718 56.514 0 1 10.178-10.965 8.8191 10.718 56.514 0 1 10.178 7.6098z" style="fill:#da1e2a;stroke-linecap:round;stroke-linejoin:round;stroke-width:.99427;stroke:#000"/>
    </g>
   </g>
  </g>
 </g>
 <g transform="translate(-69.833 -141.76)">
  <path transform="translate(56.429 -76.64)" d="m24.905 475.9v481.54c27.249 37.628 93.327 55.912 122.97 60.542 45.186 7.0577 76.036-7.3825 125.53 54.915 49.495-62.298 80.345-47.858 125.53-54.915 29.641-4.6297 95.721-22.916 122.97-60.544v-481.54h-248.5z" style="fill:#bdc1c6;stroke-linecap:round;stroke-linejoin:round;stroke:#000"/>
  <path transform="translate(69.833 141.76)" d="m11.5 258.5v280.2h497v-280.2z" style="fill:#c6a76e;stroke-linecap:round;stroke-linejoin:round;stroke:#000"/>
  <path transform="translate(69.833 141.76)" d="m68.662 258.5v280.2h54.365v-280.2h-54.365zm109.45 0v280.2h54.367v-280.2h-54.367zm109.42 0v280.2h54.396v-280.2h-54.396zm109.45 0v280.2h54.365v-280.2h-54.365z" style="fill:#da1e2a;stroke-linecap:round;stroke-linejoin:round;stroke:#000"/>
  <path transform="translate(69.833 141.76)" d="m11.5 538.7v200.35c27.249 37.628 93.326 55.911 122.97 60.541 45.186 7.0577 76.036-7.3818 125.53 54.916 49.495-62.298 80.345-47.858 125.53-54.916 29.641-4.6297 95.722-22.915 122.97-60.543v-200.35h-497z" style="fill:#da1e2a;stroke-linecap:round;stroke-linejoin:round;stroke:#000"/>
 </g>
 <g transform="translate(-13.405 -218.4)">
  <g transform="translate(-833.62)">
   <rect x="1093" y="782.57" width="28" height="57.96" style="fill-rule:evenodd;fill:#c6a76e;stroke-linecap:round;stroke-linejoin:round;stroke-width:1.2;stroke:#000"/>
   <g>
    <path d="m1093 830.87h28" style="fill:none;stroke-width:.75;stroke:#000"/>
    <path d="m1100 840.53v-9.6599" style="fill:none;stroke-width:.75;stroke:#000"/>
    <path d="m1114 840.53v-9.6599" style="fill:none;stroke-width:.75;stroke:#000"/>
    <path d="m1093 821.21 28 3e-5" style="fill:none;stroke-width:.75;stroke:#000"/>
    <path d="m1107 830.87v-9.66" style="fill:none;stroke-width:.75;stroke:#000"/>
    <g transform="translate(-7.9865e-6 -19.133)">
     <path d="m1093 830.87h28" style="fill:none;stroke-width:.75;stroke:#000"/>
     <path d="m1100 840.53v-9.6599" style="fill:none;stroke-width:.75;stroke:#000"/>
     <path d="m1114 840.53v-9.6599" style="fill:none;stroke-width:.75;stroke:#000"/>
     <path d="m1093 821.21 28 3e-5" style="fill:none;stroke-width:.75;stroke:#000"/>
     <path d="m1107 830.87v-9.66" style="fill:none;stroke-width:.75;stroke:#000"/>
    </g>
    <g transform="translate(2.2e-5 -38.64)">
     <path d="m1093 830.87h28" style="fill:none;stroke-width:.75;stroke:#000"/>
     <path d="m1100 840.53v-9.6599" style="fill:none;stroke-width:.75;stroke:#000"/>
     <path d="m1114 840.53v-9.6599" style="fill:none;stroke-width:.75;stroke:#000"/>
     <path d="m1107 830.87v-9.66" style="fill:none;stroke-width:.75;stroke:#000"/>
    </g>
   </g>
   <path transform="translate(-81.595 164.4)" d="m1171.6 602.17v16h34v-16h-6.8007v8h-6.7989v-8h-6.8008v8h-6.8007v-8z" style="fill-rule:evenodd;fill:#c6a76e;stroke-linecap:round;stroke-linejoin:round;stroke-width:1.2;stroke:#000"/>
  </g>
  <g transform="matrix(.84 0 0 .84 -609.57 134.49)">
   <rect x="1093" y="782.57" width="28" height="57.96" style="fill-rule:evenodd;fill:#c6a76e;stroke-linecap:round;stroke-linejoin:round;stroke-width:1.4286;stroke:#000"/>
   <g>
    <path d="m1093 830.87h28" style="fill:none;stroke-width:.89286;stroke:#000"/>
    <path d="m1100 840.53v-9.6599" style="fill:none;stroke-width:.89286;stroke:#000"/>
    <path d="m1114 840.53v-9.6599" style="fill:none;stroke-width:.89286;stroke:#000"/>
    <path d="m1093 821.21 28 3e-5" style="fill:none;stroke-width:.89286;stroke:#000"/>
    <path d="m1107 830.87v-9.66" style="fill:none;stroke-width:.89286;stroke:#000"/>
    <g transform="translate(-7.9865e-6 -19.133)">
     <path d="m1093 830.87h28" style="fill:none;stroke-width:.89286;stroke:#000"/>
     <path d="m1100 840.53v-9.6599" style="fill:none;stroke-width:.89286;stroke:#000"/>
     <path d="m1114 840.53v-9.6599" style="fill:none;stroke-width:.89286;stroke:#000"/>
     <path d="m1093 821.21 28 3e-5" style="fill:none;stroke-width:.89286;stroke:#000"/>
     <path d="m1107 830.87v-9.66" style="fill:none;stroke-width:.89286;stroke:#000"/>
    </g>
    <g transform="translate(2.2e-5 -38.64)">
     <path d="m1093 830.87h28" style="fill:none;stroke-width:.89286;stroke:#000"/>
     <path d="m1100 840.53v-9.6599" style="fill:none;stroke-width:.89286;stroke:#000"/>
     <path d="m1114 840.53v-9.6599" style="fill:none;stroke-width:.89286;stroke:#000"/>
     <path d="m1107 830.87v-9.66" style="fill:none;stroke-width:.89286;stroke:#000"/>
    </g>
   </g>
   <path transform="translate(-81.595 164.4)" d="m1171.6 602.17v16h34v-16h-6.8007v8h-6.7989v-8h-6.8008v8h-6.8007v-8z" style="fill-rule:evenodd;fill:#c6a76e;stroke-linecap:round;stroke-linejoin:round;stroke-width:1.4286;stroke:#000"/>
  </g>
  <g transform="matrix(.84 0 0 .84 -703.41 134.49)">
   <rect x="1093" y="782.57" width="28" height="57.96" style="fill-rule:evenodd;fill:#c6a76e;stroke-linecap:round;stroke-linejoin:round;stroke-width:1.4286;stroke:#000"/>
   <g>
    <path d="m1093 830.87h28" style="fill:none;stroke-width:.89286;stroke:#000"/>
    <path d="m1100 840.53v-9.6599" style="fill:none;stroke-width:.89286;stroke:#000"/>
    <path d="m1114 840.53v-9.6599" style="fill:none;stroke-width:.89286;stroke:#000"/>
    <path d="m1093 821.21 28 3e-5" style="fill:none;stroke-width:.89286;stroke:#000"/>
    <path d="m1107 830.87v-9.66" style="fill:none;stroke-width:.89286;stroke:#000"/>
    <g transform="translate(-7.9865e-6 -19.133)">
     <path d="m1093 830.87h28" style="fill:none;stroke-width:.89286;stroke:#000"/>
     <path d="m1100 840.53v-9.6599" style="fill:none;stroke-width:.89286;stroke:#000"/>
     <path d="m1114 840.53v-9.6599" style="fill:none;stroke-width:.89286;stroke:#000"/>
     <path d="m1093 821.21 28 3e-5" style="fill:none;stroke-width:.89286;stroke:#000"/>
     <path d="m1107 830.87v-9.66" style="fill:none;stroke-width:.89286;stroke:#000"/>
    </g>
    <g transform="translate(2.2e-5 -38.64)">
     <path d="m1093 830.87h28" style="fill:none;stroke-width:.89286;stroke:#000"/>
     <path d="m1100 840.53v-9.6599" style="fill:none;stroke-width:.89286;stroke:#000"/>
     <path d="m1114 840.53v-9.6599" style="fill:none;stroke-width:.89286;stroke:#000"/>
     <path d="m1107 830.87v-9.66" style="fill:none;stroke-width:.89286;stroke:#000"/>
    </g>
   </g>
   <path transform="translate(-81.595 164.4)" d="m1171.6 602.17v16h34v-16h-6.8007v8h-6.7989v-8h-6.8008v8h-6.8007v-8z" style="fill-rule:evenodd;fill:#c6a76e;stroke-linecap:round;stroke-linejoin:round;stroke-width:1.4286;stroke:#000"/>
  </g>
  <g transform="translate(-833.62)">
   <g>
    <path transform="translate(-81.595 164.4)" d="m1143.4 655.6v18.297l2.2344 2.2344v94.396h86.043v-94.396l2.2344-2.2344v-18.297h-10.057v7.6465h-10.057v-7.6465h-10.057v7.6465h-10.057v-7.6465h-10.059v7.6465h-10.057v-7.6465h-10.057v7.6465h-10.057v-7.6465z" style="fill-rule:evenodd;fill:#c6a76e;stroke-linecap:round;stroke-linejoin:round;stroke-width:1.2;stroke:#000"/>
    <path d="m1061.8 838.3h90.512" style="fill:none;stroke-width:1px;stroke:#000"/>
    <path d="m1064 840.53 86.044-4e-5" style="fill:none;stroke-width:1px;stroke:#000"/>
    <path d="m1064 908.99h86.043" style="fill:none;stroke-width:1px;stroke:#000"/>
    <g>
     <path transform="translate(-81.595 164.4)" d="m1143.4 655.6-5.9453 3.123v7.4648l-5.9453 2.9414v-7.2852l-5.9434 3.1211v7.1055l-5.9453 2.9414v-6.9238l-5.9434 3.1211v16.135l1.9707 1.9688v81.215h29.986v-94.396l-2.2344-2.2344z" style="fill-rule:evenodd;fill:#c6a76e;stroke-linecap:round;stroke-linejoin:round;stroke-width:1.2;stroke:#000"/>
     <path d="m1061.8 838.3-29.723 13.447" style="fill:none;stroke-width:1px;stroke:#000"/>
     <path d="m1064 840.53-29.986 13.183" style="fill:none;stroke-width:1px;stroke:#000"/>
     <path d="m1064 908.99-29.986 5.0876" style="fill:none;stroke-width:1px;stroke:#000"/>
    </g>
    <g transform="matrix(-1 0 0 1 2214 0)">
     <path transform="translate(-81.595 164.4)" d="m1143.4 655.6-5.9453 3.123v7.4648l-5.9453 2.9414v-7.2852l-5.9434 3.1211v7.1055l-5.9453 2.9414v-6.9238l-5.9434 3.1211v16.135l1.9707 1.9688v81.215h29.986v-94.396l-2.2344-2.2344z" style="fill-rule:evenodd;fill:#c6a76e;stroke-linecap:round;stroke-linejoin:round;stroke-width:1.2;stroke:#000"/>
     <path d="m1061.8 838.3-29.723 13.447" style="fill:none;stroke-width:1px;stroke:#000"/>
     <path d="m1064 840.53-29.986 13.183" style="fill:none;stroke-width:1px;stroke:#000"/>
     <path d="m1064 908.99-29.986 5.0876" style="fill:none;stroke-width:1px;stroke:#000"/>
    </g>
   </g>
   <path d="m1039.2 913.19v-10.295" style="fill:none;stroke-width:.75;stroke:#000"/>
   <path d="m1049 900.8v-10.735" style="fill:none;stroke-width:.75;stroke:#000"/>
   <path d="m1058.8 909.87v-11.173" style="fill:none;stroke-width:.75;stroke:#000"/>
   <path d="m1034 904.01 29.986-6.4369" style="fill:none;stroke-width:.75;stroke:#000"/>
   <path d="m1034 893.95 29.987-7.7862" style="fill:none;stroke-width:.75;stroke:#000"/>
   <path d="m1034 883.89 29.986-9.1353" style="fill:none;stroke-width:.75;stroke:#000"/>
   <path d="m1039.2 892.6v-10.295" style="fill:none;stroke-width:.75;stroke:#000"/>
   <path d="m1058.8 887.53v-11.174" style="fill:none;stroke-width:.75;stroke:#000"/>
   <path d="m1049 879.33v-10.734" style="fill:none;stroke-width:.75;stroke:#000"/>
   <path d="m1034 873.83 29.986-10.485" style="fill:none;stroke-width:.75;stroke:#000"/>
   <path d="m1039.2 872.01v-10.295" style="fill:none;stroke-width:.75;stroke:#000"/>
   <path d="m1058.8 865.18v-11.174" style="fill:none;stroke-width:.75;stroke:#000"/>
   <path d="m1034 863.77 29.986-11.834" style="fill:none;stroke-width:.75;stroke:#000"/>
   <path d="m1049 857.86v-10.734" style="fill:none;stroke-width:.75;stroke:#000"/>
   <g transform="matrix(-1 0 0 1 2214 0)">
    <path d="m1039.2 913.19v-10.295" style="fill:none;stroke-width:.75;stroke:#000"/>
    <path d="m1049 900.8v-10.735" style="fill:none;stroke-width:.75;stroke:#000"/>
    <path d="m1058.8 909.87v-11.173" style="fill:none;stroke-width:.75;stroke:#000"/>
    <path d="m1034 904.01 29.986-6.4369" style="fill:none;stroke-width:.75;stroke:#000"/>
    <path d="m1034 893.95 29.987-7.7862" style="fill:none;stroke-width:.75;stroke:#000"/>
    <path d="m1034 883.89 29.986-9.1353" style="fill:none;stroke-width:.75;stroke:#000"/>
    <path d="m1039.2 892.6v-10.295" style="fill:none;stroke-width:.75;stroke:#000"/>
    <path d="m1058.8 887.53v-11.174" style="fill:none;stroke-width:.75;stroke:#000"/>
    <path d="m1049 879.33v-10.734" style="fill:none;stroke-width:.75;stroke:#000"/>
    <path d="m1034 873.83 29.986-10.485" style="fill:none;stroke-width:.75;stroke:#000"/>
    <path d="m1039.2 872.01v-10.295" style="fill:none;stroke-width:.75;stroke:#000"/>
    <path d="m1058.8 865.18v-11.174" style="fill:none;stroke-width:.75;stroke:#000"/>
    <path d="m1034 863.77 29.986-11.834" style="fill:none;stroke-width:.75;stroke:#000"/>
    <path d="m1049 857.86v-10.734" style="fill:none;stroke-width:.75;stroke:#000"/>
   </g>
   <path d="m1064 897.58h86.04" style="fill:none;stroke-width:.75;stroke:#000"/>
   <path d="m1081.2 908.99v-11.409" style="fill:none;stroke-width:.75;stroke:#000"/>
   <path d="m1098.4 908.99v-11.409" style="fill:none;stroke-width:.75;stroke:#000"/>
   <path d="m1115.6 908.99v-11.409" style="fill:none;stroke-width:.75;stroke:#000"/>
   <path d="m1132.8 908.99v-11.409" style="fill:none;stroke-width:.75;stroke:#000"/>
   <path d="m1064 886.17 86.043-6e-5" style="fill:none;stroke-width:.75;stroke:#000"/>
   <path d="m1072.6 897.58v-11.409" style="fill:none;stroke-width:.75;stroke:#000"/>
   <path d="m1089.8 897.58v-11.409" style="fill:none;stroke-width:.75;stroke:#000"/>
   <path d="m1107 897.58v-11.409" style="fill:none;stroke-width:.75;stroke:#000"/>
   <path d="m1124.2 897.58v-11.409" style="fill:none;stroke-width:.75;stroke:#000"/>
   <path d="m1141.4 897.58v-11.409" style="fill:none;stroke-width:.75;stroke:#000"/>
   <g transform="translate(6.8945e-5 -22.818)">
    <path d="m1064 897.58h86.04" style="fill:none;stroke-width:.75;stroke:#000"/>
    <path d="m1081.2 908.99v-11.409" style="fill:none;stroke-width:.75;stroke:#000"/>
    <path d="m1098.4 908.99v-11.409" style="fill:none;stroke-width:.75;stroke:#000"/>
    <path d="m1115.6 908.99v-11.409" style="fill:none;stroke-width:.75;stroke:#000"/>
    <path d="m1132.8 908.99v-11.409" style="fill:none;stroke-width:.75;stroke:#000"/>
    <path d="m1064 886.17 86.043-6e-5" style="fill:none;stroke-width:.75;stroke:#000"/>
    <path d="m1072.6 897.58v-11.409" style="fill:none;stroke-width:.75;stroke:#000"/>
    <path d="m1089.8 897.58v-11.409" style="fill:none;stroke-width:.75;stroke:#000"/>
    <path d="m1107 897.58v-11.409" style="fill:none;stroke-width:.75;stroke:#000"/>
    <path d="m1124.2 897.58v-11.409" style="fill:none;stroke-width:.75;stroke:#000"/>
    <path d="m1141.4 897.58v-11.409" style="fill:none;stroke-width:.75;stroke:#000"/>
   </g>
   <g transform="translate(-8.1968e-5 -45.636)">
    <path d="m1064 897.58h86.04" style="fill:none;stroke-width:.75;stroke:#000"/>
    <path d="m1081.2 908.99v-11.409" style="fill:none;stroke-width:.75;stroke:#000"/>
    <path d="m1098.4 908.99v-11.409" style="fill:none;stroke-width:.75;stroke:#000"/>
    <path d="m1115.6 908.99v-11.409" style="fill:none;stroke-width:.75;stroke:#000"/>
    <path d="m1132.8 908.99v-11.409" style="fill:none;stroke-width:.75;stroke:#000"/>
    <path d="m1072.6 897.58v-11.409" style="fill:none;stroke-width:.75;stroke:#000"/>
    <path d="m1089.8 897.58v-11.409" style="fill:none;stroke-width:.75;stroke:#000"/>
    <path d="m1107 897.58v-11.409" style="fill:none;stroke-width:.75;stroke:#000"/>
    <path d="m1124.2 897.58v-11.409" style="fill:none;stroke-width:.75;stroke:#000"/>
    <path d="m1141.4 897.58v-11.409" style="fill:none;stroke-width:.75;stroke:#000"/>
   </g>
  </g>
  <g transform="translate(-889.52 76.64)">
   <rect x="1132.9" y="769.33" width="9.311" height="15.725" style="fill-rule:evenodd;fill:#da1e2a;stroke-linecap:round;stroke-linejoin:round;stroke-width:1.2;stroke:#000"/>
   <rect x="1183.6" y="769.33" width="9.311" height="15.725" style="fill-rule:evenodd;fill:#da1e2a;stroke-linecap:round;stroke-linejoin:round;stroke-width:1.2;stroke:#000"/>
  </g>
  <g transform="translate(-890.04 76.64)">
   <path transform="translate(-25.167 87.758)" d="m1188.6 706.57c-8.5576-2.2e-4 -16.31 7.2373-17.4 15.646a6.7309 6.7309 0 0 0-0.3027 1.9727v20.4h35.408v-20.4a6.7309 6.7309 0 0 0-0.3106-2.0137c-1.1105-8.3915-8.851-15.606-17.394-15.605z" style="fill-rule:evenodd;fill:#c1a967;stroke-linecap:round;stroke-linejoin:round;stroke:#000"/>
   <path d="m1163.4 801.06a10.888 10.888 0 0 0-10.889 10.889h-0.084v20.4h21.947v-20.4h-0.086a10.888 10.888 0 0 0-10.889-10.889z" style="fill-rule:evenodd;fill:#da1e2a;stroke-linecap:round;stroke-linejoin:round;stroke-width:1.2;stroke:#000"/>
   <path d="m1145.7 811.95h6.731" style="fill:none;stroke-width:1px;stroke:#000"/>
   <path d="m1145.7 822.15h6.731" style="fill:none;stroke-width:1px;stroke:#000"/>
   <path d="m1174.4 811.95h6.731" style="fill:none;stroke-width:1px;stroke:#000"/>
   <path d="m1174.4 822.15h6.731" style="fill:none;stroke-width:1px;stroke:#000"/>
   <path d="m1154.6 805.55-5.2003-3.7782" style="fill:none;stroke-width:1px;stroke:#000"/>
   <path d="m1160.1 801.59-2.0464-6.2982" style="fill:none;stroke-width:1px;stroke:#000"/>
   <path d="m1166.8 801.59 2.0463-6.2978" style="fill:none;stroke-width:1px;stroke:#000"/>
   <path d="m1172.3 805.55 5.1992-3.7774" style="fill:none;stroke-width:1px;stroke:#000"/>
  </g>
  <g transform="translate(-833.61 -4)">
   <g transform="translate(-1.6869)" style="fill:#b27246;stroke:#000">
    <path d="m1033.4 927.29a26.689 52.346 0 0 0-26.447 45.725h52.889a26.689 52.346 0 0 0-26.441-45.725z" style="fill-rule:evenodd;fill:#954f01;stroke-linecap:round;stroke-linejoin:round;stroke-width:1.2056;stroke:#000"/>
    <path d="m1184 927.29a26.689 52.346 0 0 0-26.447 45.725h52.889a26.689 52.346 0 0 0-26.441-45.725z" style="fill-rule:evenodd;fill:#954f01;stroke-linecap:round;stroke-linejoin:round;stroke-width:1.2056;stroke:#000"/>
   </g>
   <g transform="translate(-.62012)" style="fill:#b27246;stroke:#000">
    <path transform="translate(-81.595 164.4)" d="m1151.4 756.27a26.689 52.346 0 0 0-26.69 52.346h53.377a26.689 52.346 0 0 0-26.688-52.346z" style="fill-rule:evenodd;fill:#954f01;stroke-linecap:round;stroke-linejoin:round;stroke-width:1.2056;stroke:#000"/>
    <path d="m1145.5 920.67a26.689 52.346 0 0 0-26.69 52.346h53.377a26.689 52.346 0 0 0-26.688-52.346z" style="fill-rule:evenodd;fill:#954f01;stroke-linecap:round;stroke-linejoin:round;stroke-width:1.2056;stroke:#000"/>
   </g>
   <path transform="translate(-81.595 164.4)" d="m1188.6 753.16a26.689 52.346 0 0 0-26.689 52.346 26.689 52.346 0 0 0 0.055 3.1035h53.244a26.689 52.346 0 0 0 0.078-3.1035 26.689 52.346 0 0 0-26.688-52.346z" style="fill-rule:evenodd;fill:#954f01;stroke-linecap:round;stroke-linejoin:round;stroke-width:1.2056;stroke:#000"/>
   <g transform="translate(-.80677)">
    <path transform="translate(-81.595 164.4)" d="m1131.9 775.51a26.689 52.346 0 0 0-24.795 33.104h49.607a26.689 52.346 0 0 0-24.812-33.104z" style="fill-rule:evenodd;fill:#954f01;stroke-linecap:round;stroke-linejoin:round;stroke-width:1.2056;stroke:#000"/>
    <path d="m1165.3 939.32a26.689 52.346 0 0 0-24.795 33.104h49.607a26.689 52.346 0 0 0-24.812-33.104z" style="fill-rule:evenodd;fill:#954f01;stroke-linecap:round;stroke-linejoin:round;stroke-width:1.2056;stroke:#000"/>
   </g>
   <g transform="translate(.44638)">
    <path transform="translate(-81.595 164.4)" d="m1169.6 772.61a26.689 52.346 0 0 0-25.334 36h50.654a26.689 52.346 0 0 0-25.32-36z" style="fill-rule:evenodd;fill:#954f01;stroke-linecap:round;stroke-linejoin:round;stroke-width:1.2056;stroke:#000"/>
    <path d="m1125.2 937.01a26.689 52.346 0 0 0-25.334 36h50.654a26.689 52.346 0 0 0-25.32-36z" style="fill-rule:evenodd;fill:#954f01;stroke-linecap:round;stroke-linejoin:round;stroke-width:1.2056;stroke:#000"/>
   </g>
  </g>
 </g>
 <g transform="translate(-13.405 -218.4)">
  <path transform="translate(13.405 218.4)" d="m342.15 754.45v0.0039c-19.11 0.01342-20.388 10.205-39.715 10.846-2e-3 8e-5 -0.00976-7e-5 -0.00976 0-0.54608 0.0181-1.1118 0.02539-1.6875 0.02539-0.0824 7e-3 -0.15939 0.00781-0.24219 0.00781-20.49-5.2e-4 -19.769-10.87-41.67-10.877h-0.01953c-21.203 0-20.47 10.877-41.686 10.877-20.493 0-19.038-10.87-41.674-10.877h-0.01367c-19.766 4.4e-4 -20.472 10.877-41.688 10.877-20.498-7e-5 -19.769-10.877-41.691-10.877-21.204 0-20.47 10.877-41.686 10.877-5.6642-2e-5 -9.6541-0.82872-12.939-2.0293 9.8888 6.7455 20.915 12.479 32.09 17.287 5.755-2.981 10.769-6.3281 22.535-6.3281 21.922 0 21.193 10.875 41.691 10.875 21.215 0 21.922-10.875 41.688-10.875h0.01367c22.636 7e-3 21.18 10.875 41.674 10.875 21.216 0 20.482-10.875 41.686-10.875h0.01953c21.901 7e-3 21.18 10.874 41.67 10.875 0.0828 0 0.15981 4.3e-4 0.24219-0.00977 0.57573 0 1.1414-0.01039 1.6875-0.02539 0-1e-4 0.00776 1e-4 0.00976 0 19.327-0.6406 20.605-10.832 39.715-10.846h0.03515c20.485 0 20.484 10.877 41.688 10.877 21.922 0 22.641-10.877 41.689-10.877 12.244 0 16.89 3.8794 23.338 7.0059 12.359-5.2162 24.586-11.569 35.361-19.15-4.2548 1.8036-9.3359 3.2148-17.012 3.2148-22.028 7e-5 -21.202-10.877-41.688-10.877-19.049 0-19.768 10.877-41.689 10.877-21.204 7e-5 -21.202-10.877-41.688-10.877h-0.03515zm0.0332 39.613-0.0332 0.00195c-19.11 0.013-20.388 10.205-39.715 10.846-2e-3 1e-4 -0.00976 0-0.00976 0-0.54608 0.018-1.1118 0.02539-1.6875 0.02539-0.0824 0.01-0.15939 0.00976-0.24219 0.00976-20.49-5e-4 -19.769-10.87-41.67-10.877h-0.01953c-21.203 0-20.47 10.877-41.686 10.877-20.493 0-19.038-10.87-41.674-10.877h-0.01367c-12.275 2.5e-4 -17.203 4.1936-24.254 7.373 27.273 2.0512 50.3 0.36367 78.061 21.703 10-3.02 13.479-9.2695 29.566-9.2695h0.01953c17.409 0.0089 20.554 6.8584 31.393 9.6738 27.35-21.268 50.087-20.124 76.707-21.982-7.0621-3.1941-11.843-7.5039-24.742-7.5039zm-83.375 39.621c-6.4549 0-10.865 1.0136-14.492 2.416 0.29403 0.25246 0.57576 0.51655 0.86524 0.77344 0.32394 0.28672 0.64867 0.573 0.96679 0.86523 0.26598 0.24489 0.5272 0.49354 0.78907 0.74219 0.43649 0.41361 0.86816 0.83195 1.293 1.2559 0.17069 0.17063 0.34097 0.34142 0.50976 0.51367 0.54087 0.55109 1.071 1.1102 1.5918 1.6777 0.0675 0.07364 0.13791 0.14485 0.20508 0.21875 1.2419 1.3651 2.4221 2.7771 3.543 4.2305 0.06246 0.08101 0.12348 0.16288 0.18555 0.24414 0.49387 0.64646 0.97444 1.3022 1.4434 1.9648 0.07077 0.09999 0.14074 0.20043 0.21094 0.30078 0.47252 0.67561 0.93488 1.3574 1.3809 2.0488 0.04591 0.07116 0.09305 0.14156 0.13867 0.21289 0.18747 0.29316 0.36152 0.59347 0.54492 0.88867 0.3976 0.48869 0.7914 0.96031 1.1914 1.459 0.55183 0.00376 1.0879 0.01561 1.6113 0.03321 0.40414-0.50398 0.80144-0.98083 1.2031-1.4746 0.13546-0.22028 0.26576-0.44334 0.4043-0.66211 0.1646-0.25973 0.33554-0.51588 0.5039-0.77344 0.29098-0.44549 0.58464-0.88926 0.88672-1.3281 0.2032-0.29498 0.411-0.587 0.61914-0.87891 0.28744-0.40343 0.5802-0.80373 0.87696-1.2012 0.21058-0.28184 0.42152-0.56303 0.63672-0.8418 0.33096-0.42901 0.66997-0.85188 1.0117-1.2734 0.19163-0.23627 0.37927-0.47508 0.57422-0.70898 0.53781-0.64545 1.0857-1.2834 1.6484-1.9102 0.57589-0.64138 1.1664-1.2696 1.7676-1.8906 0.17658-0.18254 0.35839-0.36027 0.53711-0.54102 0.40922-0.41349 0.82192-0.82465 1.2422-1.2285 0.28281-0.27215 0.56975-0.54085 0.85743-0.8086 0.30228-0.28082 0.60643-0.56011 0.91406-0.83593 0.19916-0.179 0.39239-0.36412 0.59375-0.54102-3.9465-1.6684-8.7636-2.9449-16.236-2.9473h-0.01953z" style="fill:#f0f2f0;stroke-linecap:round;stroke-linejoin:round;stroke:#000"/>
  <path transform="translate(13.405 218.4)" d="m342.15 734.65c-19.11 0.0134-20.388 10.205-39.715 10.846-2e-3 8e-5 -0.00976-7e-5 -0.00976 0-0.54608 0.0181-1.1118 0.02539-1.6875 0.02539-0.0824 7e-3 -0.15939 0.00781-0.24219 0.00781-20.49-5.2e-4 -19.769-10.87-41.67-10.877h-0.01953c-21.203 0-20.47 10.877-41.686 10.877-20.493 0-19.038-10.87-41.674-10.877h-0.01367c-19.766 4.4e-4 -20.472 10.877-41.688 10.877-20.498-7e-5 -19.769-10.877-41.691-10.877-21.204 0-20.47 10.877-41.682 10.877-20.186 5e-5 -21.174-9.8425-38.877-10.795v4.3125c6.8007 9.3908 16.021 17.577 26.488 24.646 3.2636 0.98688 7.1827 1.6426 12.381 1.6426h0.003906v-0.00195c21.216 0 20.482-10.875 41.686-10.875 21.922 0 21.193 10.875 41.691 10.875 21.215 0 21.922-10.875 41.688-10.875h0.01367c22.636 7e-3 21.18 10.875 41.674 10.875 21.216 0 20.482-10.875 41.686-10.875h0.01953c21.901 7e-3 21.18 10.874 41.67 10.875 0.0828 0 0.15981 0.00114 0.24219-0.00586 0.57573 0 1.1414-0.00699 1.6875-0.02539 0-8e-5 0.00776 7e-5 0.00976 0 19.327-0.64054 20.605-10.832 39.715-10.846h0.03515c20.485 0 20.484 10.877 41.688 10.877 21.922 0 22.641-10.877 41.689-10.877 20.485 0 19.66 10.877 41.688 10.877h0.0039v-0.00196c8.0142 0 13.099-1.5532 17.393-3.4844 9.3724-6.6415 17.629-14.213 23.85-22.803v-4.3867c-19.322 0.16612-20.194 10.869-41.65 10.869-21.624 3e-5 -20.798-10.877-41.283-10.877-19.049 0-19.768 10.877-41.689 10.877-21.204 7e-5 -21.202-10.877-41.688-10.877h-0.03515zm0 39.611v0.00196c-19.11 0.0134-20.388 10.205-39.715 10.846-2e-3 1e-4 -0.00976-1e-4 -0.00976 0-0.54608 0.018-1.1118 0.02539-1.6875 0.02539-0.0824 0.01-0.15939 0.00978-0.24219 0.00976-20.49-4e-4 -19.769-10.87-41.67-10.877h-0.01953c-21.203 0-20.47 10.877-41.686 10.877-20.493 0-19.038-10.87-41.674-10.877h-0.01367c-19.766 4.4e-4 -20.472 10.877-41.688 10.877-20.498 0-19.769-10.877-41.691-10.877-11.764 0-16.778 3.3471-22.531 6.3281 24.45 10.52 49.583 16.594 64.939 18.992 5.7858 0.90369 11.332 1.4524 16.717 1.8574 7.0506-3.1789 11.979-7.3708 24.254-7.3711h0.01367c22.636 0.01 21.18 10.875 41.674 10.875 21.216 0 20.482-10.875 41.686-10.875h0.01953c21.901 0.01 21.18 10.874 41.67 10.875 0.0828 0 0.15981 7.8e-4 0.24219-0.00976 0.57573 0 1.1414-0.01039 1.6875-0.02539 0 0 0.00776 1e-4 0.00976 0 19.327-0.6405 20.605-10.832 39.715-10.846h0.03515c12.897 0 17.678 4.308 24.738 7.502 5.9791-0.41743 12.131-0.97186 18.602-1.9824 15.028-2.3472 39.422-8.2117 63.373-18.32-6.4471-3.1264-11.093-7.0059-23.336-7.0059-19.049 0-19.768 10.877-41.689 10.877-21.204 1e-4 -21.202-10.877-41.688-10.877h-0.03515zm-83.342 39.623c-16.083 0-19.564 6.2481-29.559 9.2695 3.9883 3.0663 8.0745 6.6102 12.285 10.707 0.28535 0.21848 0.57324 0.43423 0.85352 0.6582 8e-3 6e-3 0.01584 0.01148 0.02344 0.01758 0.49819 0.39846 0.98841 0.80594 1.4746 1.2168 0.10565 0.089 0.21524 0.17407 0.32032 0.26367 0.0358 0.0306 0.0736 0.05925 0.10937 0.08985 3.6271-1.4022 8.037-2.416 14.492-2.416h0.01953c7.4729 0 12.29 1.2811 16.236 2.9492 0.10743-0.0944 0.22007-0.18356 0.32812-0.27734 0.39676-0.34344 0.80001-0.68052 1.2051-1.0156 0.30144-0.25012 0.60031-0.50261 0.90625-0.74805 0.19985-0.15981 0.40567-0.31291 0.60742-0.4707 0.10292-0.08076 0.2091-0.15804 0.3125-0.23828 4.0349-3.9278 7.9576-7.3536 11.787-10.332-10.83-2.8185-13.98-9.6682-31.383-9.6738h-0.01953z" style="fill:#0038a8;stroke-linecap:round;stroke-linejoin:round;stroke:#000"/>
  <path transform="translate(13.405 218.4)" d="m258.88 853.49c0.38468 0.66173 0.75886 1.3297 1.1191 2.0039 0.35245-0.65871 0.71614-1.312 1.0918-1.959-0.71253-0.0269-1.4449-0.0438-2.2109-0.0449z" style="fill:#004173;stroke-linecap:round;stroke-linejoin:round;stroke:#000"/>
 </g>
 <g transform="translate(-13.405 -218.4)">
  <path d="m24.905 475.9v481.54c27.249 37.628 93.327 55.912 122.97 60.542 45.186 7.0577 76.036-7.3825 125.53 54.915 49.495-62.298 80.345-47.858 125.53-54.915 29.641-4.6297 95.721-22.916 122.97-60.544v-481.54h-248.5z" style="fill:none;stroke-linecap:round;stroke-linejoin:round;stroke-width:3;stroke:#000"/>
 </g>
</svg>
