<?xml version="1.0" encoding="UTF-8" standalone="no"?>
<!-- Created with Inkscape (http://www.inkscape.org/) -->
<svg
   xmlns:dc="http://purl.org/dc/elements/1.1/"
   xmlns:cc="http://web.resource.org/cc/"
   xmlns:rdf="http://www.w3.org/1999/02/22-rdf-syntax-ns#"
   xmlns:svg="http://www.w3.org/2000/svg"
   xmlns="http://www.w3.org/2000/svg"
   xmlns:xlink="http://www.w3.org/1999/xlink"
   xmlns:sodipodi="http://sodipodi.sourceforge.net/DTD/sodipodi-0.dtd"
   xmlns:inkscape="http://www.inkscape.org/namespaces/inkscape"
   width="409"
   height="454"
   id="svg2000"
   sodipodi:version="0.32"
   inkscape:version="0.44"
   version="1.0"
   sodipodi:docname="Escudo de las Islas Baleares.svg">
  <metadata
     id="metadata253">
    <rdf:RDF>
      <cc:Work
         rdf:about="">
        <dc:format>image/svg+xml</dc:format>
        <dc:type
           rdf:resource="http://purl.org/dc/dcmitype/StillImage" />
        <dc:title>Escudo de las Islas Baleares</dc:title>
        <dc:date>2006-07-05</dc:date>
        <dc:creator>
          <cc:Agent>
            <dc:title>Valadrem (http://valadrem.blogspot.com)</dc:title>
          </cc:Agent>
        </dc:creator>
        <dc:language>es</dc:language>
        <dc:source>http://commons.wikimedia.org/wiki/Image:Escudo_de_las_Islas_Baleares.svg</dc:source>
        <dc:relation>http://commons.wikimedia.org/wiki/Image:Escudo_de_las_Islas_Baleares.svg</dc:relation>
        <dc:description>Escudo de las Islas Baleares</dc:description>
        <dc:contributor>
          <cc:Agent>
            <dc:title>Ver http://commons.wikimedia.org/wiki/Image:Escudo_de_las_Islas_Baleares.svg</dc:title>
          </cc:Agent>
        </dc:contributor>
      </cc:Work>
    </rdf:RDF>
  </metadata>
  <defs
     id="defs2002" />
  <g transform="translate(4,4) scale(2,2)">
  <g
     id="g5049"
     style="stroke-width:3;stroke-miterlimit:4;stroke-dasharray:none">
    <path
       sodipodi:nodetypes="cccscsczc"
       id="path1881"
       d="M 93.977106,2.5674556 C 83.769415,11.780743 72.244324,11.774403 59.068866,11.337505 L 58.982886,22.085116 C 58.982886,22.085116 69.352842,21.638331 75.017055,22.772963 C 85.956007,24.96421 93.969947,34.937993 93.969947,34.937993 C 93.969947,34.937993 95.094856,25.868275 91.56964,22.772963 C 88.610978,20.175112 83.401457,18.301957 83.401457,18.301957 C 83.401457,18.301957 87.95007,16.620085 90.623851,13.74497 C 93.297632,10.869856 94.149067,2.223532 93.977106,2.5674556 z "
       style="fill:#f7c500;fill-opacity:1;fill-rule:evenodd;stroke:black;stroke-width:3;stroke-linecap:butt;stroke-linejoin:miter;stroke-opacity:1;stroke-miterlimit:4;stroke-dasharray:none" />
    <path
       sodipodi:nodetypes="czcccscc"
       id="path2278"
       d="M 34.76757,22.227574 C 34.76757,22.227574 29.589645,21.824642 29.405462,18.817842 C 37.034384,8.1818574 64.227293,32.219685 68.956669,38.077561 C 72.456441,28.994792 67.905747,22.29889 60.186618,17.61411 C 64.802526,13.053527 69.387157,9.0209418 67.924898,2.1375513 C 50.121454,13.851156 28.78369,-7.3808641 14.100865,12.111333 C 9.966452,18.830266 12.410751,37.755114 12.410751,37.755114 L 34.76757,22.227574 z "
       style="fill:#f7c500;fill-opacity:1;fill-rule:evenodd;stroke:black;stroke-width:3;stroke-linecap:butt;stroke-linejoin:miter;stroke-opacity:1;stroke-miterlimit:4;stroke-dasharray:none" />
    <path
       sodipodi:nodetypes="cczc"
       id="path2280"
       d="M 9.9535343,31.14038 C 12.478223,22.804337 8.5944474,16.468938 5.1070039,9.2898832 C 5.1070039,9.2898832 11.474702,10.691482 14.105058,13.180934 C 16.8197,15.750157 17.752918,18.774319 17.752918,18.774319"
       style="fill:#f7c500;fill-opacity:1;fill-rule:evenodd;stroke:black;stroke-width:3;stroke-linecap:butt;stroke-linejoin:miter;stroke-opacity:1;stroke-miterlimit:4;stroke-dasharray:none" />
    <path
       sodipodi:nodetypes="ccccccczcczc"
       id="path3172"
       d="M 36.72179,21.935798 C 28.992097,20.845203 22.708606,27.264188 18.725681,33.122568 C 15.199153,28.295617 10.884376,26.980614 5.3501946,28.745136 C 4.7087722,35.754417 9.8849229,42.357536 15.077821,46.498054 C 9.2336101,44.420021 2.5592298,44.809659 0.72957198,51.605058 C 9.0704737,50.729146 14.988158,58.926588 17.996109,65.649319 C 12.496581,61.190008 6.7783425,64.701012 4.6206226,70.57393 C 4.6206226,70.57393 9.64985,69.726594 14.59144,77.383268 C 19.53303,85.039941 14.365112,99.547344 16.780156,99.270428 L 27.480545,101.21595 C 32.791685,94.22031 35.335698,85.638449 33.560311,76.896887 C 23.432114,59.118515 17.270142,35.475441 36.72179,21.935798 z "
       style="fill:#f7c500;fill-opacity:1;fill-rule:evenodd;stroke:black;stroke-width:3;stroke-linecap:butt;stroke-linejoin:miter;stroke-opacity:1;stroke-miterlimit:4;stroke-dasharray:none" />
    <path
       sodipodi:nodetypes="cszccccc"
       id="path4071"
       d="M 30.642023,136.72179 C 38.859896,144.87889 36.329463,156.19705 26.139896,159.65417 C 14.440715,163.62348 6.9321838,156.97316 5.3103152,147.70352 C 3.6471448,138.19783 10.507155,126.4948 14.902996,125.26474 C 17.051776,125.43882 19.584117,129.00078 21.467366,129.79113 C 25.994264,134.33275 15.141846,142.98687 21.027306,148.13249 C 24.657358,150.06868 29.430652,146.87537 29.55004,142.89117 C 29.740204,140.82276 29.265589,138.48975 30.642023,136.72179 z "
       style="fill:#f7c500;fill-opacity:1;fill-rule:evenodd;stroke:black;stroke-width:3;stroke-linecap:butt;stroke-linejoin:miter;stroke-opacity:1;stroke-miterlimit:4;stroke-dasharray:none" />
    <path
       sodipodi:nodetypes="cszzzccczscz"
       id="path4067"
       d="M 17.16161,128.29848 C 17.515462,127.98607 17.022685,126.37621 17.185285,125.41369 C 17.36966,124.32227 17.72193,123.68677 18.09413,121.61641 C 18.781977,117.79026 17.042264,118.88919 17.196176,111.33328 C 17.35012,103.77582 22.969196,107.73272 21.581202,113.39681 C 21.140721,115.19431 21.477503,118.23533 22.440811,119.69941 C 25.164139,120.36743 26.790337,122.19443 26.781263,122.25808 C 26.768375,122.39146 20.665247,118.56749 19.553275,119.90185 C 13.493702,128.54166 19.735498,134.61824 29.061538,132.65653 C 36.707251,125.08505 36.851882,95.13652 22.870916,94.996904 C 8.9759214,94.858146 4.0797044,101.80206 4.9868912,113.74074 C 5.8940779,125.67942 16.703533,128.70291 17.16161,128.29848 z "
       style="fill:#f7c500;fill-opacity:1;fill-rule:evenodd;stroke:black;stroke-width:3;stroke-linecap:butt;stroke-linejoin:miter;stroke-opacity:1;stroke-miterlimit:4;stroke-dasharray:none" />
    <path
       sodipodi:nodetypes="ccc"
       id="path5041"
       d="M 15.807393,201.16732 C 20.914397,195.08755 20.428016,185.35992 20.428016,185.35992 C 47.174014,191.88599 25.696848,194.96705 15.807393,201.16732 z "
       style="fill:white;fill-opacity:1;fill-rule:evenodd;stroke:black;stroke-width:3;stroke-linecap:butt;stroke-linejoin:miter;stroke-opacity:1;stroke-miterlimit:4;stroke-dasharray:none" />
    <path
       sodipodi:nodetypes="ccsss"
       id="path5039"
       d="M 29.669261,204.0856 C 23.259264,200.82588 29.182879,188.76459 29.182879,188.76459 C 29.182879,188.76459 18.274659,195.50511 15.321012,187.79184 C 7.7855306,168.11337 25.490048,170.51406 37.290829,181.62722 C 51.584522,195.08804 59.286949,219.14728 29.669261,204.0856 z "
       style="fill:#f7c500;fill-opacity:1;fill-rule:evenodd;stroke:black;stroke-width:3;stroke-linecap:butt;stroke-linejoin:miter;stroke-opacity:1;stroke-miterlimit:4;stroke-dasharray:none" />
    <path
       sodipodi:nodetypes="czsczzzc"
       id="path4152"
       d="M 44.990272,198.49222 C 44.990272,198.49222 46.08463,192.04767 43.774319,190.95331 C 32.409347,189.37802 29.685163,205.91989 40.612841,208.21984 C 69.221261,214.24105 62.369869,168.3551 37.937743,179.52335 C 37.937743,179.52335 45.803274,167.15803 36.235409,160.55447 C 26.389266,153.75884 7.6686895,159.20674 9.4844354,171.74124 C 9.2625792,185.00642 35.143069,185.43847 27.966926,171.49805 C 26.56858,169.12694 21.643969,171.01167 21.643969,171.01167"
       style="fill:#f7c500;fill-opacity:1;fill-rule:nonzero;stroke:black;stroke-width:3;stroke-linecap:butt;stroke-linejoin:miter;stroke-opacity:1;stroke-miterlimit:4;stroke-dasharray:none" />
    <path
       sodipodi:nodetypes="ccccccccccc"
       id="path5043"
       d="M 82.076848,198.49222 L 82.80642,203.59922 C 77.309046,197.35427 71.377421,195.88134 63.107977,195.57393 C 66.651899,197.75984 69.082731,200.36746 71.011673,203.96401 C 66.777477,199.26723 58.12082,201.64388 52.650778,202.86965 C 56.988921,209.8938 62.661166,210.76523 70.160506,212.23249 C 66.441643,213.88295 62.364871,213.97382 58.365759,214.05642 C 68.149412,223.00655 71.574449,220.67178 82.441634,214.42121 C 79.354777,217.57695 75.341116,219.10839 71.61965,221.23054 C 80.815252,222.63568 86.751645,220.39565 93.506809,214.5428 C 94.542762,206.16629 89.579269,201.48078 82.076848,198.49222 z "
       style="fill:#f7c500;fill-opacity:1;fill-rule:evenodd;stroke:black;stroke-width:3;stroke-linecap:butt;stroke-linejoin:miter;stroke-opacity:1;stroke-miterlimit:4;stroke-dasharray:none" />
    <path
       id="path5047"
       d="M 92.655642,209.92218 C 92.655642,209.92218 91.682879,208.70623 87.548638,208.70623 C 83.414397,208.70623 79.644941,209.07101 79.644941,209.07101 C 79.644941,209.07101 81.833657,209.55739 84.143969,209.55739 C 86.45428,209.55739 92.290856,210.04377 92.655642,209.92218 z "
       style="fill:none;fill-opacity:0.75;fill-rule:evenodd;stroke:black;stroke-width:3;stroke-linecap:butt;stroke-linejoin:miter;stroke-opacity:1;stroke-miterlimit:4;stroke-dasharray:none" />
  </g>
  <use
     x="0"
     y="0"
     xlink:href="#g5049"
     id="use5074"
     transform="matrix(-1,0,0,1,200.2296,0)"
     width="200"
     height="225"
     style="stroke-width:3;stroke-miterlimit:4;stroke-dasharray:none" />
  <path
     sodipodi:nodetypes="cczccc"
     id="path979"
     style="font-size:12px;fill:#f7c500;fill-opacity:1;stroke:black;stroke-width:0.61128831"
     d="M 165.53231,30.109639 L 165.53231,134.98246 C 160.18211,181.17962 130.30219,200.44348 99.72633,200.44348 C 69.147728,200.44348 37.364735,178.71204 33.960067,134.98246 L 33.960067,30.109639 L 165.53231,30.109639" />
  <g
     style="fill-rule:evenodd"
     id="Layer 2"
     transform="matrix(0.122471,0,0,0.138156,-323.2737,-590.7425)" />
  <g
     id="g2561"
     transform="translate(-278.0941,-24.44731)" />
  <path
     style="fill:#de2119;fill-opacity:1;fill-rule:evenodd;stroke:black;stroke-width:0.32200012;stroke-linejoin:miter;stroke-miterlimit:4;stroke-opacity:1"
     d="M 48.502209,30.191056 L 62.867221,30.191056 L 62.867221,188.8823 C 57.126983,184.57504 54.03308,182.09071 48.502209,175.1022 L 48.502209,30.191056 z "
     id="rect3114"
     sodipodi:nodetypes="ccccc" />
  <path
     style="fill:#de2119;fill-opacity:1;fill-rule:evenodd;stroke:black;stroke-width:0.32200018;stroke-linejoin:miter;stroke-miterlimit:4;stroke-opacity:1"
     d="M 77.87621,30.191089 L 92.241222,30.191089 L 92.241222,199.87768 C 87.075195,199.36109 82.251022,198.177 77.87621,196.58751 L 77.87621,30.191089 z "
     id="rect3116"
     sodipodi:nodetypes="ccccc" />
  <path
     sodipodi:nodetypes="ccccc"
     id="path2035"
     d="M 150.98901,30.191056 L 136.624,30.191056 L 136.624,188.8823 C 142.36424,184.57504 145.45814,182.09071 150.98901,175.1022 L 150.98901,30.191056 z "
     style="fill:#de2119;fill-opacity:1;fill-rule:evenodd;stroke:black;stroke-width:0.32200012;stroke-linejoin:miter;stroke-miterlimit:4;stroke-opacity:1" />
  <path
     sodipodi:nodetypes="ccccc"
     id="path2037"
     d="M 121.61501,30.191089 L 107.25,30.191089 L 107.25,199.87768 C 112.41603,199.36109 117.2402,198.177 121.61501,196.58751 L 121.61501,30.191089 z "
     style="fill:#de2119;fill-opacity:1;fill-rule:evenodd;stroke:black;stroke-width:0.32200018;stroke-linejoin:miter;stroke-miterlimit:4;stroke-opacity:1" />
  <path
     sodipodi:type="arc"
     style="opacity:1;fill:#f7c500;fill-opacity:1;fill-rule:evenodd;stroke:black;stroke-width:2.83892198;stroke-linejoin:miter;stroke-miterlimit:4;stroke-dasharray:none;stroke-opacity:1"
     id="path2282"
     sodipodi:cx="98.9786"
     sodipodi:cy="17.193579"
     sodipodi:rx="7.2957196"
     sodipodi:ry="8.1468868"
     d="M 106.27432 17.193579 A 7.2957196 8.1468868 0 1 1  91.68288,17.193579 A 7.2957196 8.1468868 0 1 1  106.27432 17.193579 z"
     transform="matrix(1.116682,0,0,1.000014,-10.41282,-3.520232e-4)" />
  <path
     transform="matrix(1.116682,0,0,1.000014,-10.41282,193.9997)"
     d="M 106.27432 17.193579 A 7.2957196 8.1468868 0 1 1  91.68288,17.193579 A 7.2957196 8.1468868 0 1 1  106.27432 17.193579 z"
     sodipodi:ry="8.1468868"
     sodipodi:rx="7.2957196"
     sodipodi:cy="17.193579"
     sodipodi:cx="98.9786"
     id="path4150"
     style="opacity:1;fill:#f7c500;fill-opacity:1;fill-rule:evenodd;stroke:black;stroke-width:2.83892198;stroke-linejoin:miter;stroke-miterlimit:4;stroke-dasharray:none;stroke-opacity:1"
     sodipodi:type="arc" />
  <path
     sodipodi:nodetypes="cccccc"
     id="path5962"
     d="M 34.048725,56.834657 L 34.048852,30.293054 L 48.591597,30.291789 L 163.66843,145.36863 C 160.92595,160.1617 154.02968,170.48645 151.56964,174.35558 L 34.048725,56.834657 z "
     style="fill:#1d206f;fill-opacity:1;fill-rule:evenodd;stroke:black;stroke-width:0.32200015;stroke-linejoin:miter;stroke-miterlimit:4;stroke-opacity:1" />
  </g>
</svg>
