<svg xmlns="http://www.w3.org/2000/svg" width="705" height="905" version="1.0"><defs><linearGradient id="b"><stop style="stop-color:#403800;stop-opacity:1" offset="0"/><stop offset=".5" style="stop-color:#c8af00;stop-opacity:1"/><stop style="stop-color:#403900;stop-opacity:1" offset="1"/></linearGradient><linearGradient id="a"><stop style="stop-color:#5d070b;stop-opacity:1" offset="0"/><stop offset=".5" style="stop-color:#ed1c24;stop-opacity:1"/><stop style="stop-color:#5d070a;stop-opacity:1" offset="1"/></linearGradient><linearGradient id="c"><stop offset="0" style="stop-color:#7b0916;stop-opacity:1"/><stop offset="1" style="stop-color:#ce1126;stop-opacity:1"/></linearGradient></defs><path style="fill:#eac102;fill-rule:evenodd;stroke:#000;stroke-width:2.05451894px;stroke-linecap:butt;stroke-linejoin:miter;stroke-opacity:1" d="M2417.103 230.144c20.676 40.491 45.406 92.369 64.518 86.024 4.122-1.736 5.463-11.816-.705-44.423l-37.37-73.684c-5.172-8.376-19.861-2.033-20.802 6.699l-5.64 25.384z" transform="matrix(.49971 0 0 .47409 -1125.118 88.585)"/><path d="m2448.75 274.906 6.813-19.969c-13.815-17.774-35.164-50.18-58.032-90.468-4.727-8.337-20.926-3.418-17.062 5.844 30.869 58.46 52.804 89.216 68.281 104.593zM3496.761 230.144c-20.675 40.491-45.405 92.369-64.518 86.024-4.122-1.736-5.463-11.816.706-44.423l37.37-73.684c5.171-8.376 19.861-2.033 20.801 6.699l5.641 25.384z" style="fill:#eac102;fill-rule:evenodd;stroke:#000;stroke-width:2.05451894px;stroke-linecap:butt;stroke-linejoin:miter;stroke-opacity:1" transform="matrix(.49971 0 0 .47409 -1125.118 88.585)"/><path d="m3458.094 255.188 6.812 19.968c15.488-15.3 37.482-46.1 68.5-104.844 3.864-9.26-12.335-14.18-17.062-5.843-22.975 40.476-44.443 73-58.25 90.719z" style="fill:#eac102;fill-rule:evenodd;stroke:#000;stroke-width:2.05451894px;stroke-linecap:butt;stroke-linejoin:miter;stroke-opacity:1" transform="matrix(.49971 0 0 .47409 -1125.118 88.585)"/><path d="m2259.22-21.284 13.513-10.7c38.725-10.031 73.253 26.828 73.025 42.667 9.68-8.806 19.36-5.788 29.039-5.28-5.726 18.92-.138 33.015-6.864 53.325 8.969 2.784 15.989 6.738 17.95 13.727l8.976-5.808 11.088-.528c2.121 52.754-15.08 41.16-11.616 60.717l18.48-22.703 20.062 2.112c9.82 1.864 12.627 13.462 23.23 14.783-7.483 10.116-12.038 27.91-19.006 40.126-8.556 6.212-16.076 5.173-23.23 1.583 23.333 8.588 29.448 28.738 38.54 39.598-9.559.528-18.141 1.584-22.174 2.112 14.738 21.028 23.153 37.859 37.486 49.629l-8.448 1.584-43.821-21.647-36.958-38.014-45.405-70.22-1.584-110.872c-23.15-11.794-19.606-39.16-72.283-36.19z" style="fill:#eac102;fill-rule:evenodd;stroke:#000;stroke-width:2.12318206;stroke-linecap:round;stroke-linejoin:round;stroke-miterlimit:4;stroke-dasharray:none;stroke-opacity:1" transform="matrix(.49971 0 0 .44392 -1125.132 95.206)"/><path d="M2257.836-20.617c63.056 6.588 63.012 95.73 75.586 148.407l40.318 68.267c25.497 24.638 41.98 55.29 57.75 58.903 15.277 3.5 14.219-3.019 29.759.658-30.425-13.526-16.494-44.747-79.72-63.685 20.445-11.326 20.444 19.878 61.393 10.996-11.231-28.088-35.37-29.443-46.274-39.86 16.707-5.397 18.54 5.342 30.697.458 13.499-5.423 10.385-26.335 21.075-40.318-13.993-6.174-25.367-24.565-42.609-15.578-5.992 4.969-14.814 21.736-24.74 25.657-4.177-22.38 9.867-24.388 12.828-35.736 2.934-11.245-1.755-14.662.916-30.697-45.422 16.762-28.28 47.084-49.031 60.368-.213-32.214 8.898-18.514 25.665-53.954-6.33-9.421-10.793-7.643-16.036-10.538 8.33-18.001.796-28.962 9.622-54.063-16.68-5.572-22.356 3.466-27.032 9.163-1.695-15.592-38.161-65.956-80.167-38.448z" style="fill:#eac102;fill-rule:evenodd;stroke:#000;stroke-width:2.1231823px;stroke-linecap:butt;stroke-linejoin:round;stroke-opacity:1" transform="matrix(.49971 0 0 .44392 -1125.132 95.206)"/><path d="M2348.03 39.813c-13.443 30.095-12.093 60.189-11.112 90.283m32.64-15.973c-2.704 15.12-12.25 23.4-22.223 31.251m69.448-9.028c-23.958 1.777-25.712 17.052-61.114 22.223m6.945 9.723c17.158 3.444 34.118 7.087 45.835 15.973m-36.807 5.556c23.369 28.197 42.978 30.734 50.002 45.14" style="fill:none;fill-rule:evenodd;stroke:#000;stroke-width:1.06159115;stroke-linecap:butt;stroke-linejoin:miter;stroke-miterlimit:4;stroke-dasharray:none;stroke-opacity:1" transform="matrix(.49971 0 0 .44392 -1125.132 95.206)"/><path d="M2069.063 730.688c.223.007.43.093.656.093 12.758 0 23.094-12.766 23.093-28.5 0-15.734-10.335-28.5-23.093-28.5-.226 0-.433.086-.657.094v56.813z" style="opacity:1;fill:#e3e4e5;fill-opacity:1;fill-rule:nonzero;stroke:#000;stroke-width:1.91170466;stroke-linecap:butt;stroke-linejoin:miter;marker:none;marker-start:none;marker-mid:none;marker-end:none;stroke-miterlimit:4;stroke-dasharray:none;stroke-dashoffset:0;stroke-opacity:1;visibility:visible;display:inline;overflow:visible;enable-background:accumulate" transform="scale(-.555 .49303) rotate(33.341 1595.822 -3087.053)"/><path d="M2066.286 668.732h6.95v66.529h-6.95c-2.458-25.69-2.862-50.125 0-66.53z" style="fill:#eac102;fill-opacity:1;fill-rule:nonzero;stroke:#000;stroke-width:1.91170466;stroke-linecap:butt;stroke-linejoin:miter;marker:none;marker-start:none;marker-mid:none;marker-end:none;stroke-miterlimit:4;stroke-dashoffset:0;stroke-opacity:1;visibility:visible;display:inline;overflow:visible;enable-background:accumulate" transform="scale(-.555 .49303) rotate(33.341 1595.822 -3087.053)"/><path style="fill:#eac102;fill-rule:evenodd;stroke:#000;stroke-width:2.12318206;stroke-linecap:round;stroke-linejoin:round;stroke-miterlimit:4;stroke-dasharray:none;stroke-opacity:1" d="m2259.22-21.284 13.513-10.7c38.725-10.031 73.253 26.828 73.025 42.667 9.68-8.806 19.36-5.788 29.039-5.28-5.726 18.92-.138 33.015-6.864 53.325 8.969 2.784 15.989 6.738 17.95 13.727l8.976-5.808 11.088-.528c2.121 52.754-15.08 41.16-11.616 60.717l18.48-22.703 20.062 2.112c9.82 1.864 12.627 13.462 23.23 14.783-7.483 10.116-12.038 27.91-19.006 40.126-8.556 6.212-16.076 5.173-23.23 1.583 23.333 8.588 29.448 28.738 38.54 39.598-9.559.528-18.141 1.584-22.174 2.112 14.738 21.028 23.153 37.859 37.486 49.629l-8.448 1.584-43.821-21.647-36.958-38.014-45.405-70.22-1.584-110.872c-23.15-11.794-19.606-39.16-72.283-36.19z" transform="matrix(-.49971 0 0 .44392 1830.132 95.206)"/><path style="fill:#eac102;fill-rule:evenodd;stroke:#000;stroke-width:2.1231823px;stroke-linecap:butt;stroke-linejoin:round;stroke-opacity:1" d="M2257.836-20.617c63.056 6.588 63.012 95.73 75.586 148.407l40.318 68.267c25.497 24.638 41.98 55.29 57.75 58.903 15.277 3.5 14.219-3.019 29.759.658-30.425-13.526-16.494-44.747-79.72-63.685 20.445-11.326 20.444 19.878 61.393 10.996-11.231-28.088-35.37-29.443-46.274-39.86 16.707-5.397 18.54 5.342 30.697.458 13.499-5.423 10.385-26.335 21.075-40.318-13.993-6.174-25.367-24.565-42.609-15.578-5.992 4.969-14.814 21.736-24.74 25.657-4.177-22.38 9.867-24.388 12.828-35.736 2.934-11.245-1.755-14.662.916-30.697-45.422 16.762-28.28 47.084-49.031 60.368-.213-32.214 8.898-18.514 25.665-53.954-6.33-9.421-10.793-7.643-16.036-10.538 8.33-18.001.796-28.962 9.622-54.063-16.68-5.572-22.356 3.466-27.032 9.163-1.695-15.592-38.161-65.956-80.167-38.448z" transform="matrix(-.49971 0 0 .44392 1830.132 95.206)"/><path style="fill:none;fill-rule:evenodd;stroke:#000;stroke-width:1.06159115;stroke-linecap:butt;stroke-linejoin:miter;stroke-miterlimit:4;stroke-dasharray:none;stroke-opacity:1" d="M2348.03 39.813c-13.443 30.095-12.093 60.189-11.112 90.283m32.64-15.973c-2.704 15.12-12.25 23.4-22.223 31.251m69.448-9.028c-23.958 1.777-25.712 17.052-61.114 22.223m6.945 9.723c17.158 3.444 34.118 7.087 45.835 15.973m-36.807 5.556c23.369 28.197 42.978 30.734 50.002 45.14" transform="matrix(-.49971 0 0 .44392 1830.132 95.206)"/><path style="opacity:1;fill:#e3e4e5;fill-opacity:1;fill-rule:nonzero;stroke:#000;stroke-width:1.91170466;stroke-linecap:butt;stroke-linejoin:miter;marker:none;marker-start:none;marker-mid:none;marker-end:none;stroke-miterlimit:4;stroke-dasharray:none;stroke-dashoffset:0;stroke-opacity:1;visibility:visible;display:inline;overflow:visible;enable-background:accumulate" d="M2069.063 730.688c.223.007.43.093.656.093 12.758 0 23.094-12.766 23.093-28.5 0-15.734-10.335-28.5-23.093-28.5-.226 0-.433.086-.657.094v56.813z" transform="scale(.555 .49303) rotate(33.341 2230.967 -966.065)"/><path style="fill:#eac102;fill-opacity:1;fill-rule:nonzero;stroke:#000;stroke-width:1.91170466;stroke-linecap:butt;stroke-linejoin:miter;marker:none;marker-start:none;marker-mid:none;marker-end:none;stroke-miterlimit:4;stroke-dashoffset:0;stroke-opacity:1;visibility:visible;display:inline;overflow:visible;enable-background:accumulate" d="M2066.286 668.732h6.95v66.529h-6.95c-2.458-25.69-2.862-50.125 0-66.53z" transform="scale(.555 .49303) rotate(33.341 2230.967 -966.065)"/><path d="M1025.858 429.086c-1.368.017-2.751.88-2.797 2.526-1.26 16.304-7.933 41.716-32.699 46.318-24.564 4.565-46.223-30.134-47.14-43.931.013-2.06-1.653-2.86-3.338-2.77-1.909.1-3.846 1.339-3.374 3.165 3.664 18.838-.172 42.833-17.177 47.121-16.935 4.27-35.436-15.77-48.625-40.753-1.222-4.724-8.254-2.873-6.908.593 10.747 25.975 7.116 44.256-.626 48.11-9.402 2.866-29.013-20-40.024-40.159-1.872-2.728-8.767-1.311-7.129 2.188 8.014 15.486 15.972 30.97 16.344 46.714-.92-.913-2.11-2.276-3.411-3.865l-2.675 7.439c6.46 6.09 10.052 5.697 11.853 4.085 3.602-3.223 3.674-9.89-1.154-24.747 8.887 8.969 22.858 19.972 31.852 13.91 8.995-6.062 9.824-16.99 9.006-30.219 11.004 13.663 27.734 27.759 42.748 24.26 15.212-3.547 21.851-16.952 23.89-34.003 8.381 15.455 25.655 33.124 46.943 30.417 20.452-2.6 32.2-25.414 34.392-32.92 2.193 7.506 13.953 30.32 34.405 32.92 21.288 2.707 38.55-14.962 46.931-30.417 2.038 17.05 8.678 30.456 23.89 34.002 15.013 3.5 31.744-10.596 42.747-24.259-.817 13.23.012 24.157 9.006 30.22 8.995 6.06 22.965-4.942 31.852-13.911-4.828 14.857-4.756 21.524-1.153 24.747 1.793 1.605 5.362 2.01 11.767-3.992l-2.675-7.439c-1.27 1.546-2.424 2.877-3.325 3.772.372-15.745 8.33-31.228 16.343-46.714 1.639-3.5-5.244-4.916-7.116-2.188-11.01 20.158-30.622 43.025-40.024 40.16-7.742-3.855-11.385-22.136-.638-48.11 1.345-3.467-5.687-5.318-6.908-.594-13.19 24.982-31.678 45.024-48.613 40.753-17.006-4.288-20.853-28.283-17.19-47.12.89-3.439-6.728-4.79-6.699-.396-.917 13.797-22.588 48.496-47.153 43.931-24.766-4.602-31.426-30.014-32.686-46.318.011-1.714-1.343-2.543-2.712-2.526z" style="fill:#eac102;fill-rule:evenodd;stroke:#000;stroke-width:.78571439px;stroke-linecap:butt;stroke-linejoin:miter;stroke-opacity:1" transform="matrix(1.27273 0 0 1.27273 -953.076 -419.716)"/><path transform="matrix(.49971 0 0 .47683 -1121.824 -533.217)" d="M3198.051 1390.38a29.463 29.463 0 1 1-58.925 0 29.463 29.463 0 1 1 58.925 0z" style="opacity:1;fill:#e3e4e5;fill-opacity:1;fill-rule:evenodd;stroke:#000;stroke-width:2.04860044;stroke-linecap:round;stroke-linejoin:round;marker:none;marker-start:none;marker-mid:none;marker-end:none;stroke-miterlimit:4;stroke-dasharray:none;stroke-dashoffset:0;stroke-opacity:1;visibility:visible;display:inline;overflow:visible;enable-background:accumulate"/><path d="M3153.871 1446.208c10.772 4.059 21.975 5.422 35.222 4.384-.747 7.615-7.853 4.525-6.793 11.03 1.06 6.506-27.318 4.333-24.724-2.545 2.594-6.877-5.077-5.295-3.705-12.869z" style="fill:#eac102;fill-rule:evenodd;stroke:#000;stroke-width:2.04860044;stroke-linecap:butt;stroke-linejoin:miter;stroke-miterlimit:4;stroke-dasharray:none;stroke-opacity:1" transform="matrix(.49971 0 0 .47683 -1124.71 -549.575)"/><path style="opacity:1;fill:#e3e4e5;fill-opacity:1;fill-rule:evenodd;stroke:#000;stroke-width:2.04860044;stroke-linecap:round;stroke-linejoin:round;marker:none;marker-start:none;marker-mid:none;marker-end:none;stroke-miterlimit:4;stroke-dasharray:none;stroke-dashoffset:0;stroke-opacity:1;visibility:visible;display:inline;overflow:visible;enable-background:accumulate" d="M3198.051 1390.38a29.463 29.463 0 1 1-58.925 0 29.463 29.463 0 1 1 58.925 0z" transform="matrix(-.49971 0 0 .47683 1826.824 -533.217)"/><path style="fill:#eac102;fill-rule:evenodd;stroke:#000;stroke-width:2.04860044;stroke-linecap:butt;stroke-linejoin:miter;stroke-miterlimit:4;stroke-dasharray:none;stroke-opacity:1" d="M3153.871 1446.208c10.772 4.059 21.975 5.422 35.222 4.384-.747 7.615-7.853 4.525-6.793 11.03 1.06 6.506-27.318 4.333-24.724-2.545 2.594-6.877-5.077-5.295-3.705-12.869z" transform="matrix(-.49971 0 0 .47683 1829.71 -549.575)"/><g style="opacity:1"><path transform="matrix(-.47068 .159 .16477 .44343 1351.093 -969.783)" d="M3198.051 1390.38a29.463 29.463 0 1 1-58.925 0 29.463 29.463 0 1 1 58.925 0z" style="opacity:1;fill:#e3e4e5;fill-opacity:1;fill-rule:evenodd;stroke:#000;stroke-width:2.06322742;stroke-linecap:round;stroke-linejoin:round;marker:none;marker-start:none;marker-mid:none;marker-end:none;stroke-miterlimit:4;stroke-dasharray:none;stroke-dashoffset:0;stroke-opacity:1;visibility:visible;display:inline;overflow:visible;enable-background:accumulate"/><path d="M3153.871 1446.208c10.772 4.059 21.975 5.422 35.222 4.384-.747 7.615-7.853 4.525-6.793 11.03 1.06 6.506-27.318 4.333-24.724-2.545 2.594-6.877-5.077-5.295-3.705-12.869z" style="fill:#eac102;fill-rule:evenodd;stroke:#000;stroke-width:2.06322742;stroke-linecap:butt;stroke-linejoin:miter;stroke-miterlimit:4;stroke-dasharray:none;stroke-opacity:1" transform="matrix(-.47068 .159 .16477 .44343 1348.158 -985.913)"/></g><g style="opacity:1"><path style="opacity:1;fill:#e3e4e5;fill-opacity:1;fill-rule:evenodd;stroke:#000;stroke-width:2.06322742;stroke-linecap:round;stroke-linejoin:round;marker:none;marker-start:none;marker-mid:none;marker-end:none;stroke-miterlimit:4;stroke-dasharray:none;stroke-dashoffset:0;stroke-opacity:1;visibility:visible;display:inline;overflow:visible;enable-background:accumulate" d="M3198.051 1390.38a29.463 29.463 0 1 1-58.925 0 29.463 29.463 0 1 1 58.925 0z" transform="matrix(.47068 .159 -.16477 .44343 -646.093 -969.783)"/><path style="fill:#eac102;fill-rule:evenodd;stroke:#000;stroke-width:2.06322742;stroke-linecap:butt;stroke-linejoin:miter;stroke-miterlimit:4;stroke-dasharray:none;stroke-opacity:1" d="M3153.871 1446.208c10.772 4.059 21.975 5.422 35.222 4.384-.747 7.615-7.853 4.525-6.793 11.03 1.06 6.506-27.318 4.333-24.724-2.545 2.594-6.877-5.077-5.295-3.705-12.869z" transform="matrix(.47068 .159 -.16477 .44343 -643.158 -985.913)"/></g><g style="display:inline"><path style="fill:#eac102;fill-rule:evenodd;stroke:#000;stroke-width:1.97355247px;stroke-linecap:butt;stroke-linejoin:miter;stroke-opacity:1" d="M2841.494 4.13s28.878-5.15 44.492 18.175c15.341 22.918 52.763 20.519 52.763 20.519l-15.829 51.59-102.009-38.693c-.71 0 6.26-9.734 19.347-8.793 13.087.94 20.5 17.833 40.451 9.966l-39.215-52.763zM3076.514 4.13s-28.88-5.15-44.492 18.175c-15.342 22.918-52.764 20.519-52.764 20.519l15.83 51.59 102.008-38.693c.71 0-6.259-9.734-19.346-8.793-13.088.94-20.5 17.833-40.452 9.966l39.216-52.763z" transform="matrix(.50046 0 0 .51302 -1128.366 70.985)"/><path style="fill:#eac102;fill-rule:evenodd;stroke:#000;stroke-width:1.97355247px;stroke-linecap:butt;stroke-linejoin:miter;stroke-opacity:1" d="M2958.754-131.547c-17.55 18.957-35.44 40.264-36.406 68.266-14.07-14.666-28.149-4.41-42.219-1.782 7.069 9.515-.2 35.592 9.375 53.376-10.242.805-14.866 9.842-21.094 15.218 4.193 15.598 52.046 17.806 60.375 46.313-52.1-5.196-35.6-42.887-87.937-45.719-8.366 43.102 24.965 34.57 27.562 58.031-15.913 2.984-19.887-13.09-33.75-12.437-19.43.914-27.838 22.164-40.125 29.437 18.94 5.16 26.056 23.196 45.063 27.563 10.272 2.36 15.109-15.806 31.156-7.625-15.738 21.825-31.438 15.412-23.469 46.312 59.57 5.258 35.225-35.333 75.063-29.312-60.173 37.023-27.113 51.093-42.219 79.75 30.999-12.638 42.149-3.991 78.875-30.313 36.726 26.322 47.877 17.674 78.875 30.313-15.106-28.657 17.954-42.727-42.219-79.75 39.839-6.021 15.493 34.57 75.063 29.312 7.969-30.9-7.73-24.487-23.469-46.312 16.047-8.18 20.884 9.984 31.156 7.625 19.007-4.367 26.122-22.403 45.063-27.563-12.287-7.273-20.695-28.523-40.125-29.437-13.863-.653-17.837 15.421-33.75 12.437 2.597-23.462 35.928-14.93 27.562-58.031-52.337 2.832-35.836 40.523-87.937 45.719 8.329-28.507 56.182-30.715 60.375-46.313-6.228-5.376-10.852-14.413-21.094-15.219 9.576-17.783 2.306-43.86 9.375-53.374-14.07-2.629-28.148-12.885-42.219 1.78-.967-28-18.856-49.308-36.406-68.265l-.25-.25-.25.25z" transform="matrix(.50046 0 0 .51302 -1128.366 70.985)"/><path style="fill:none;fill-rule:evenodd;stroke:#000;stroke-width:.98677623;stroke-linecap:round;stroke-linejoin:miter;stroke-miterlimit:4;stroke-dasharray:none;stroke-opacity:1" d="M2959.407 53.36c-1.814-3.266 0-157.772 0-157.772m-9.51 213.064c-4.702 18.528-21.422 48.188-41.035 58.707m20.596-75.341c-15.562.789-44.36 16.442-55.877 23.786m53.156-30.846c-55.011 4.998-77.46-17.22-94.48-10.296m96.758-5.716s-13.507-3.94-29.346-8.27c-10.178-2.784-16.34-15.242-22.838-22.088m75.034 11.418s-.815-10.302-13.14-39.172c-11.945-27.98-27.474-42.901-27.474-42.901m56.86 140.72c4.702 18.527 21.421 48.187 41.035 58.706m-20.596-75.341c15.562.789 44.36 16.442 55.877 23.786m-53.156-30.846c55.011 4.998 77.46-17.22 94.48-10.296m-96.758-5.716s13.507-3.94 29.346-8.27c10.178-2.784 16.34-15.242 22.838-22.088m-75.034 11.418s.815-10.302 13.14-39.172c11.945-27.98 27.474-42.901 27.474-42.901" transform="matrix(.50046 0 0 .51302 -1128.366 70.985)"/><path style="fill:#eac102;fill-opacity:1;fill-rule:evenodd;stroke:#000;stroke-width:1.55807137;stroke-linecap:round;stroke-linejoin:round;marker:none;marker-start:none;marker-mid:none;marker-end:none;stroke-miterlimit:4;stroke-dasharray:none;stroke-dashoffset:0;stroke-opacity:1;visibility:visible;display:inline;overflow:visible;enable-background:accumulate" d="M2989.922 81.517a27.554 27.554 0 1 1-55.108 0 27.554 27.554 0 1 1 55.108 0z" transform="matrix(.65633 0 0 .62763 -1591.367 61.191)"/><path transform="matrix(.52176 0 0 .49881 -1192.71 71.692)" d="M2989.922 81.517a27.554 27.554 0 1 1-55.108 0 27.554 27.554 0 1 1 55.108 0z" style="fill:#e3e4e5;fill-opacity:1;fill-rule:evenodd;stroke:#000;stroke-width:1.96018338;stroke-linecap:round;stroke-linejoin:round;marker:none;marker-start:none;marker-mid:none;marker-end:none;stroke-miterlimit:4;stroke-dasharray:none;stroke-dashoffset:0;stroke-opacity:1;visibility:visible;display:inline;overflow:visible;enable-background:accumulate"/></g><path style="fill:#eac102;fill-rule:evenodd;stroke:#000;stroke-width:.78571439px;stroke-linecap:butt;stroke-linejoin:miter;stroke-opacity:1" d="M1025.635 484.089c-56.613.564-113.876.617-169.475 11.94-12.408 3.739-30.146 5.827-34.804 19.07-1.528 11.061 12.501 15.75 21.264 18.79 41.744 11.963 85.853 12.976 129.105 14.846 67.29 1.289 135.015 1.812 201.806-7.122 18.247-3.365 38.34-5.442 53.345-16.78 8.96-8.379-.958-20.095-10.862-22.504-33.978-12.447-71.036-13.783-106.972-16.317-27.774-1.447-55.595-1.905-83.407-1.923z" transform="matrix(1.27273 0 0 1.27273 -953.076 -419.716)"/><path style="fill:#eac102;fill-opacity:1;fill-rule:evenodd;stroke:#000;stroke-width:.78571427px;stroke-linecap:butt;stroke-linejoin:miter;stroke-opacity:1" d="M1025.81 497.686c-30.858 0-56.88.574-78.813 1.571-4.387.2-8.621.422-12.687.652-48.772 2.767-74.923 7.658-88.938 12.126a89.559 89.559 0 0 0-3.281 1.097c-5.012 1.821-8.094 3.565-9.969 4.981-.369.279-.686.546-.969.8a10.34 10.34 0 0 0-.75.742c-1.253 1.383-1.218 2.223-1.218 2.223l10.656 36.734h371.937l10.657-36.734s.034-.84-1.22-2.223a10.32 10.32 0 0 0-.75-.741c-1.714-1.55-4.92-3.596-10.937-5.782-.008-.003-.022.003-.03 0-13.072-4.744-39.352-10.225-92.188-13.223h-.032c-4.066-.23-8.27-.452-12.656-.652-21.933-.997-47.954-1.571-78.812-1.571z" transform="matrix(1.27273 0 0 1.27273 -953.076 -419.716)"/><path transform="matrix(.70336 0 0 .72367 -798.806 -275.03)" d="M1796.348 707.07a23.066 23.066 0 1 1-46.132 0 23.066 23.066 0 1 1 46.132 0z" style="opacity:1;fill:#eac102;fill-opacity:1;fill-rule:evenodd;stroke:#000;stroke-width:1.40165937px;stroke-linecap:round;stroke-linejoin:round;marker:none;marker-start:none;marker-mid:none;marker-end:none;stroke-miterlimit:4;stroke-dasharray:none;stroke-dashoffset:0;stroke-opacity:1;visibility:visible;display:inline;overflow:visible;enable-background:accumulate"/><path style="opacity:1;fill:#eac102;fill-opacity:1;fill-rule:evenodd;stroke:#000;stroke-width:1.41772473px;stroke-linecap:round;stroke-linejoin:round;marker:none;marker-start:none;marker-mid:none;marker-end:none;stroke-miterlimit:4;stroke-dasharray:none;stroke-dashoffset:0;stroke-opacity:1;visibility:visible;display:inline;overflow:visible;enable-background:accumulate" d="M1796.348 707.07a23.066 23.066 0 1 1-46.132 0 23.066 23.066 0 1 1 46.132 0z" transform="matrix(.6875 0 0 .72367 -768.963 -275.03)"/><path transform="matrix(.60826 0 0 .62594 -628.061 -205.932)" d="M1796.348 707.07a23.066 23.066 0 1 1-46.132 0 23.066 23.066 0 1 1 46.132 0z" style="opacity:1;fill:#e3e4e5;fill-opacity:1;fill-rule:evenodd;stroke:#000;stroke-width:1.62065351px;stroke-linecap:round;stroke-linejoin:round;marker:none;marker-start:none;marker-mid:none;marker-end:none;stroke-miterlimit:4;stroke-dasharray:none;stroke-dashoffset:0;stroke-opacity:1;visibility:visible;display:inline;overflow:visible;enable-background:accumulate"/><path style="opacity:1;fill:#eac102;fill-opacity:1;fill-rule:evenodd;stroke:#000;stroke-width:1.40165937px;stroke-linecap:round;stroke-linejoin:round;marker:none;marker-start:none;marker-mid:none;marker-end:none;stroke-miterlimit:4;stroke-dasharray:none;stroke-dashoffset:0;stroke-opacity:1;visibility:visible;display:inline;overflow:visible;enable-background:accumulate" d="M1796.348 707.07a23.066 23.066 0 1 1-46.132 0 23.066 23.066 0 1 1 46.132 0z" transform="matrix(-.70336 0 0 .72367 1503.807 -275.03)"/><path transform="matrix(-.6875 0 0 .72367 1473.963 -275.03)" d="M1796.348 707.07a23.066 23.066 0 1 1-46.132 0 23.066 23.066 0 1 1 46.132 0z" style="opacity:1;fill:#eac102;fill-opacity:1;fill-rule:evenodd;stroke:#000;stroke-width:1.41772473px;stroke-linecap:round;stroke-linejoin:round;marker:none;marker-start:none;marker-mid:none;marker-end:none;stroke-miterlimit:4;stroke-dasharray:none;stroke-dashoffset:0;stroke-opacity:1;visibility:visible;display:inline;overflow:visible;enable-background:accumulate"/><path style="opacity:1;fill:#e3e4e5;fill-opacity:1;fill-rule:evenodd;stroke:#000;stroke-width:1.62065351px;stroke-linecap:round;stroke-linejoin:round;marker:none;marker-start:none;marker-mid:none;marker-end:none;stroke-miterlimit:4;stroke-dasharray:none;stroke-dashoffset:0;stroke-opacity:1;visibility:visible;display:inline;overflow:visible;enable-background:accumulate" d="M1796.348 707.07a23.066 23.066 0 1 1-46.132 0 23.066 23.066 0 1 1 46.132 0z" transform="matrix(-.60826 0 0 .62594 1333.061 -205.932)"/><path style="fill:none;fill-rule:evenodd;stroke:#000;stroke-width:1.96673501px;stroke-linecap:round;stroke-linejoin:round;stroke-opacity:1" d="m1880.996 701.453 50.396-34.397h3.228l-48.065 34.397h-5.56zM1880.996 701.453l50.396 34.398h3.228l-48.065-34.398h-5.56z" transform="matrix(-.51558 .09369 0 .50143 1175.27 -289.457)"/><path style="fill:none;fill-opacity:1;fill-rule:evenodd;stroke:#000;stroke-width:1.96673501px;stroke-linecap:round;stroke-linejoin:round;marker:none;marker-start:none;marker-mid:none;marker-end:none;stroke-miterlimit:4;stroke-dasharray:none;stroke-dashoffset:0;stroke-opacity:1;visibility:visible;display:inline;overflow:visible;enable-background:accumulate" d="m1934.694 735.732 45.26-33.397-45.157-35.103" transform="matrix(-.51558 .09369 0 .50143 1175.27 -289.457)"/><path d="m1897.048 701.806 36.161 26.636 35.632-26.812-35.808-26.107-35.985 26.283z" style="fill:#008f4c;fill-rule:evenodd;stroke:#000;stroke-width:1.96673501px;stroke-linecap:round;stroke-linejoin:round;stroke-opacity:1" transform="matrix(-.51558 .09369 0 .50143 1174.239 -289.27)"/><path style="fill:none;fill-rule:evenodd;stroke:#000;stroke-width:1.18004096;stroke-linecap:round;stroke-linejoin:round;stroke-miterlimit:4;stroke-dasharray:none;stroke-opacity:1" d="m1921.365 701.89 19.128 14.028 18.849-14.121-18.942-13.75-19.035 13.843zM1933.033 728.266l7.497-12.348M1968.312 701.63l-9.04.132M1921.39 701.806h-23.637M1940.485 688.18l-7.452-12.657" transform="matrix(-.51558 .09369 0 .50143 1174.239 -289.27)"/><path d="m1880.996 701.453 50.396-34.397h3.228l-48.065 34.397h-5.56zM1880.996 701.453l50.396 34.398h3.228l-48.065-34.398h-5.56z" style="fill:none;fill-rule:evenodd;stroke:#000;stroke-width:1.96673501px;stroke-linecap:round;stroke-linejoin:round;stroke-opacity:1" transform="matrix(.51558 .09369 0 .50143 -470.27 -289.457)"/><path d="m1934.694 735.732 45.26-33.397-45.157-35.103" style="fill:none;fill-opacity:1;fill-rule:evenodd;stroke:#000;stroke-width:1.96673501px;stroke-linecap:round;stroke-linejoin:round;marker:none;marker-start:none;marker-mid:none;marker-end:none;stroke-miterlimit:4;stroke-dasharray:none;stroke-dashoffset:0;stroke-opacity:1;visibility:visible;display:inline;overflow:visible;enable-background:accumulate" transform="matrix(.51558 .09369 0 .50143 -470.27 -289.457)"/><path style="fill:#008f4c;fill-rule:evenodd;stroke:#000;stroke-width:1.96673501px;stroke-linecap:round;stroke-linejoin:round;stroke-opacity:1" d="m1897.048 701.806 36.161 26.636 35.632-26.812-35.808-26.107-35.985 26.283z" transform="matrix(.51558 .09369 0 .50143 -469.24 -289.27)"/><path d="m1921.365 701.89 19.128 14.028 18.849-14.121-18.942-13.75-19.035 13.843zM1933.033 728.266l7.497-12.348M1968.312 701.63l-9.04.132M1921.39 701.806h-23.637M1940.485 688.18l-7.452-12.657" style="fill:none;fill-rule:evenodd;stroke:#000;stroke-width:.98336738;stroke-linecap:round;stroke-linejoin:round;stroke-miterlimit:4;stroke-dasharray:none;stroke-opacity:1" transform="matrix(.51558 .09369 0 .50143 -469.24 -289.27)"/><g transform="matrix(.52702 0 0 .5 -488.326 -116.815)"><rect rx="25.576" ry="26.65" y="669.169" x="1531.773" height="67.836" width="127.299" style="opacity:1;fill:#eac102;fill-opacity:1;fill-rule:nonzero;stroke:#000;stroke-width:1.94804895;stroke-linecap:butt;stroke-linejoin:miter;marker:none;marker-start:none;marker-mid:none;marker-end:none;stroke-miterlimit:4;stroke-dasharray:none;stroke-dashoffset:0;stroke-opacity:1;visibility:visible;display:inline;overflow:visible;enable-background:accumulate"/><rect style="opacity:1;fill:#ed1c24;fill-opacity:1;fill-rule:nonzero;stroke:#000;stroke-width:1.94804895;stroke-linecap:butt;stroke-linejoin:miter;marker:none;marker-start:none;marker-mid:none;marker-end:none;stroke-miterlimit:4;stroke-dasharray:none;stroke-dashoffset:0;stroke-opacity:1;visibility:visible;display:inline;overflow:visible;enable-background:accumulate" width="114.544" height="58.579" x="1538.15" y="673.797" ry="23.013" rx="23.013"/></g><path d="m828.157 494.65-2.7 5.662a43.896 43.896 0 0 0 2.053 1.932l1.788-6.72c-.298-.397-.749-.938-1.141-.874zm395.36-.018c-.489.008-.514.022-1.349 1.057l2.09 6.438c.541-.467 1.087-.99 1.617-1.531l-2.358-5.964z" style="fill:#eac102;fill-opacity:1;fill-rule:evenodd;stroke:#000;stroke-width:.78571439px;stroke-linecap:butt;stroke-linejoin:miter;stroke-opacity:0" transform="matrix(1.27273 0 0 1.27273 -953.076 -419.716)"/><path d="m2485.233-95.278 11.52-4.942c34.563-5.265 51.21 33.927 54.428 56.04 13.283-4.463 30.967-9.576 50.873-4.77-4.993 21.105-1.248 24.198-9.142 52.065 19.665 3.835 20.27 10.421 25.834 14.308-24 19.994-59.525 25.641-61.206 50.872l38.552-6.756c18.415-15.235 18.265-45.167 55.244-45.706 3.84 43.714-20.93 30.607-30.205 62.001 29.278 2.385 90.044-2.076 87.835 7.154-27.16 17.734-25.226 23.34-39.347 32.988l-9.141.795c-9.232-4.17-14.687-18.918-28.616-9.936 0 0 7.697 5.73 29.41 14.705 21.037 8.696 17.09 31.795 17.09 31.795-30.985 4.79-43.31-3.592-56.834-11.128 36.392 26.298 26.453 43.16 46.899 64.386l-5.167-.398c-41.173 2.097-62.115-15.727-89.027-25.039 3.505 11.09-14.967 30.073-20.27 41.334h-3.974l-23.052-54.052c-2.888 7.312-7.28 5.602-11.128 7.154l-24.642-66.373c-16.182-5.513-13.597-17.282-14.705-27.82 3.78.466 3.842-1.299 12.32 1.986l-11.128-27.82-1.987-19.475c4.462 3.016 12.749.93 11.526 11.526 3.02 12.11 7.547 21.206 11.526 31.398l13.115-43.719-24.641-75.514 13.91-5.564c-5.251-17.168 21.44-36.617-15.87-51.495z" style="fill:#eac102;fill-rule:evenodd;stroke:#000;stroke-width:2.05451894px;stroke-linecap:butt;stroke-linejoin:miter;stroke-opacity:1" transform="matrix(.49971 0 0 .47409 -1126.738 82.613)"/><path d="M2483.464-94.74c35.63-12.751 57.505 21.597 59.308 50.034 17.088-4.869 34.218-9.218 52.216-3.165-10.992 24.11-.947 37.544-13.186 55.381 21.613 1.835 16.767 6.632 28.482 11.076-33.123 28.566-62.148 22.564-64.347 53.799 53.509-16.48 32.025-29.108 56.963-43.777 11.482-6.978 25.28-11.64 43.25-12.131 3.893 46.68-25.426 32.156-33.229 61.71 26.957-3.66 30.53-19.008 46.752-21.425 16.223-2.417 31.334 15.412 48.714 26.172-31.156 12.186-34.468 37.355-49.906 35.169-14.215-1.735-15.949-12.717-32.902-5.105 15.024 13.4 40.8 11.435 47.997 40.612-37.247 12.563-63.258-16.926-100.213-17.933 90.783 25.053 57.734 52.674 90.192 72.787-24.847-2.768-45.19 4.394-91.247-22.153 1.294 12.655-15.445 22.542-23.207 38.503-4.803-25.18-29.578-37.667-24.79-77.006-9.42 1.128 5.443 28.681-10.02 29.537-13.066-11.267-14.008-26.456-14.241-36.92-7.56-9.143 2.847 16.595-29.01-24.263-2.817-4.24 1.736-30.704 5.275-32.7 2.6 6.578 5.058 13.442 11.076 13.185-2.102-9.734-4.318-19.391-10.549-26.372-3.305-2.083-2.755-20.071-1.055-31.646 11.325 13.9 3.374 35.375 22.153 39.03-1.119-35.233-31.164-24.405-14.241-58.018-2.285-18.108-2.798-75.551 9.494-53.27-1.063-30.3 12.947-51.708-9.729-61.11z" style="fill:#eac102;fill-rule:evenodd;stroke:#000;stroke-width:2.05451894px;stroke-linecap:round;stroke-linejoin:round;stroke-opacity:1" transform="matrix(.49971 0 0 .47409 -1126.738 82.613)"/><path d="M2515.242 74.655c-15.628-89.021 10.802-115.664-7.005-158.61m58.444 70.377c-33.827 29.411-41.893 58.822-44.513 88.233m32.59 27.82c43.182 2.934 63.327-17.898 108.104-19.077m-111.283 7.95c34.863-4.958 43.855-24.441 54.847-39.745m-50.078 59.616c28.658.681 53.223 8.826 65.975 18.283m-78.693 5.564c28.69 32.747 46.906 30.587 69.95 44.513m-75.514-45.308c-4.252 25.578 5.817 42.191 8.743 54.847m-31.795-59.616c-3.143 4.54-5.335 10.032-6.36 16.692m-3.974-32.59c-13.095 5.147-11.494-1.485-26.23 1.59m26.23-21.462c-5.299-.841-10.598-3.465-15.897-12.718m21.462-3.18c-3.918-22.834-8.42-46.546-20.667-81.873" style="fill:none;fill-rule:evenodd;stroke:#000;stroke-width:1.02725947;stroke-linecap:round;stroke-linejoin:round;stroke-miterlimit:4;stroke-dasharray:none;stroke-opacity:1" transform="matrix(.49971 0 0 .47409 -1126.738 82.613)"/><path transform="matrix(-.49885 .32116 .34815 .60602 775.843 -866.222)" d="M1796.348 707.07a23.066 23.066 0 1 1-46.132 0 23.066 23.066 0 1 1 46.132 0z" style="opacity:1;fill:#eac102;fill-opacity:1;fill-rule:evenodd;stroke:#000;stroke-width:1.55393529px;stroke-linecap:round;stroke-linejoin:round;marker:none;marker-start:none;marker-mid:none;marker-end:none;stroke-miterlimit:4;stroke-dasharray:none;stroke-dashoffset:0;stroke-opacity:1;visibility:visible;display:inline;overflow:visible;enable-background:accumulate"/><path style="opacity:1;fill:#eac102;fill-opacity:1;fill-rule:evenodd;stroke:#000;stroke-width:1.57174587px;stroke-linecap:round;stroke-linejoin:round;marker:none;marker-start:none;marker-mid:none;marker-end:none;stroke-miterlimit:4;stroke-dasharray:none;stroke-dashoffset:0;stroke-opacity:1;visibility:visible;display:inline;overflow:visible;enable-background:accumulate" d="M1796.348 707.07a23.066 23.066 0 1 1-46.132 0 23.066 23.066 0 1 1 46.132 0z" transform="matrix(-.48761 .31393 .34815 .60602 754.676 -852.595)"/><path transform="matrix(-.4314 .27774 .30114 .52418 687.986 -730.392)" d="M1796.348 707.07a23.066 23.066 0 1 1-46.132 0 23.066 23.066 0 1 1 46.132 0z" style="opacity:1;fill:#e3e4e5;fill-opacity:1;fill-rule:evenodd;stroke:#000;stroke-width:1.79672086px;stroke-linecap:round;stroke-linejoin:round;marker:none;marker-start:none;marker-mid:none;marker-end:none;stroke-miterlimit:4;stroke-dasharray:none;stroke-dashoffset:0;stroke-opacity:1;visibility:visible;display:inline;overflow:visible;enable-background:accumulate"/><path style="fill:#eac102;fill-rule:evenodd;stroke:#000;stroke-width:2.05451894px;stroke-linecap:butt;stroke-linejoin:miter;stroke-opacity:1" d="m2485.233-95.278 11.52-4.942c34.563-5.265 51.21 33.927 54.428 56.04 13.283-4.463 30.967-9.576 50.873-4.77-4.993 21.105-1.248 24.198-9.142 52.065 19.665 3.835 20.27 10.421 25.834 14.308-24 19.994-59.525 25.641-61.206 50.872l38.552-6.756c18.415-15.235 18.265-45.167 55.244-45.706 3.84 43.714-20.93 30.607-30.205 62.001 29.278 2.385 90.044-2.076 87.835 7.154-27.16 17.734-25.226 23.34-39.347 32.988l-9.141.795c-9.232-4.17-14.687-18.918-28.616-9.936 0 0 7.697 5.73 29.41 14.705 21.037 8.696 17.09 31.795 17.09 31.795-30.985 4.79-43.31-3.592-56.834-11.128 36.392 26.298 26.453 43.16 46.899 64.386l-5.167-.398c-41.173 2.097-62.115-15.727-89.027-25.039 3.505 11.09-14.967 30.073-20.27 41.334h-3.974l-23.052-54.052c-2.888 7.312-7.28 5.602-11.128 7.154l-24.642-66.373c-16.182-5.513-13.597-17.282-14.705-27.82 3.78.466 3.842-1.299 12.32 1.986l-11.128-27.82-1.987-19.475c4.462 3.016 12.749.93 11.526 11.526 3.02 12.11 7.547 21.206 11.526 31.398l13.115-43.719-24.641-75.514 13.91-5.564c-5.251-17.168 21.44-36.617-15.87-51.495z" transform="matrix(-.49971 0 0 .47409 1831.738 82.613)"/><path style="fill:#eac102;fill-rule:evenodd;stroke:#000;stroke-width:2.05451894px;stroke-linecap:round;stroke-linejoin:round;stroke-opacity:1" d="M2483.464-94.74c35.63-12.751 57.505 21.597 59.308 50.034 17.088-4.869 34.218-9.218 52.216-3.165-10.992 24.11-.947 37.544-13.186 55.381 21.613 1.835 16.767 6.632 28.482 11.076-33.123 28.566-62.148 22.564-64.347 53.799 53.509-16.48 32.025-29.108 56.963-43.777 11.482-6.978 25.28-11.64 43.25-12.131 3.893 46.68-25.426 32.156-33.229 61.71 26.957-3.66 30.53-19.008 46.752-21.425 16.223-2.417 31.334 15.412 48.714 26.172-31.156 12.186-34.468 37.355-49.906 35.169-14.215-1.735-15.949-12.717-32.902-5.105 15.024 13.4 40.8 11.435 47.997 40.612-37.247 12.563-63.258-16.926-100.213-17.933 90.783 25.053 57.734 52.674 90.192 72.787-24.847-2.768-45.19 4.394-91.247-22.153 1.294 12.655-15.445 22.542-23.207 38.503-4.803-25.18-29.578-37.667-24.79-77.006-9.42 1.128 5.443 28.681-10.02 29.537-13.066-11.267-14.008-26.456-14.241-36.92-7.56-9.143 2.847 16.595-29.01-24.263-2.817-4.24 1.736-30.704 5.275-32.7 2.6 6.578 5.058 13.442 11.076 13.185-2.102-9.734-4.318-19.391-10.549-26.372-3.305-2.083-2.755-20.071-1.055-31.646 11.325 13.9 3.374 35.375 22.153 39.03-1.119-35.233-31.164-24.405-14.241-58.018-2.285-18.108-2.798-75.551 9.494-53.27-1.063-30.3 12.947-51.708-9.729-61.11z" transform="matrix(-.49971 0 0 .47409 1831.738 82.613)"/><path style="fill:none;fill-rule:evenodd;stroke:#000;stroke-width:1.02725947;stroke-linecap:round;stroke-linejoin:round;stroke-miterlimit:4;stroke-dasharray:none;stroke-opacity:1" d="M2515.242 74.655c-15.628-89.021 10.802-115.664-7.005-158.61m58.444 70.377c-33.827 29.411-41.893 58.822-44.513 88.233m32.59 27.82c43.182 2.934 63.327-17.898 108.104-19.077m-111.283 7.95c34.863-4.958 43.855-24.441 54.847-39.745m-50.078 59.616c28.658.681 53.223 8.826 65.975 18.283m-78.693 5.564c28.69 32.747 46.906 30.587 69.95 44.513m-75.514-45.308c-4.252 25.578 5.817 42.191 8.743 54.847m-31.795-59.616c-3.143 4.54-5.335 10.032-6.36 16.692m-3.974-32.59c-13.095 5.147-11.494-1.485-26.23 1.59m26.23-21.462c-5.299-.841-10.598-3.465-15.897-12.718m21.462-3.18c-3.918-22.834-8.42-46.546-20.667-81.873" transform="matrix(-.49971 0 0 .47409 1831.738 82.613)"/><path style="opacity:1;fill:#eac102;fill-opacity:1;fill-rule:evenodd;stroke:#000;stroke-width:1.55393529px;stroke-linecap:round;stroke-linejoin:round;marker:none;marker-start:none;marker-mid:none;marker-end:none;stroke-miterlimit:4;stroke-dasharray:none;stroke-dashoffset:0;stroke-opacity:1;visibility:visible;display:inline;overflow:visible;enable-background:accumulate" d="M1796.348 707.07a23.066 23.066 0 1 1-46.132 0 23.066 23.066 0 1 1 46.132 0z" transform="matrix(.49885 .32116 -.34815 .60602 -70.843 -866.222)"/><path transform="matrix(.48761 .31393 -.34815 .60602 -49.676 -852.595)" d="M1796.348 707.07a23.066 23.066 0 1 1-46.132 0 23.066 23.066 0 1 1 46.132 0z" style="opacity:1;fill:#eac102;fill-opacity:1;fill-rule:evenodd;stroke:#000;stroke-width:1.57174587px;stroke-linecap:round;stroke-linejoin:round;marker:none;marker-start:none;marker-mid:none;marker-end:none;stroke-miterlimit:4;stroke-dasharray:none;stroke-dashoffset:0;stroke-opacity:1;visibility:visible;display:inline;overflow:visible;enable-background:accumulate"/><path style="opacity:1;fill:#e3e4e5;fill-opacity:1;fill-rule:evenodd;stroke:#000;stroke-width:1.79672086px;stroke-linecap:round;stroke-linejoin:round;marker:none;marker-start:none;marker-mid:none;marker-end:none;stroke-miterlimit:4;stroke-dasharray:none;stroke-dashoffset:0;stroke-opacity:1;visibility:visible;display:inline;overflow:visible;enable-background:accumulate" d="M1796.348 707.07a23.066 23.066 0 1 1-46.132 0 23.066 23.066 0 1 1 46.132 0z" transform="matrix(.4314 .27774 -.30114 .52418 17.014 -730.392)"/><path d="M937.111 444.223c2.973.323 6.496.05 9.323-.978M1114.63 444.223c-2.973.323-6.496.05-9.323-.978M1231.438 460.725c-2.9-.696-6.093-2.136-8.353-4.047M820.078 460.725c2.9-.696 6.093-2.136 8.353-4.047" style="fill:none;fill-rule:evenodd;stroke:#000;stroke-width:.39285713;stroke-linecap:butt;stroke-linejoin:miter;stroke-miterlimit:4;stroke-dasharray:none;stroke-opacity:1" transform="matrix(1.27273 0 0 1.27273 -953.076 -419.716)"/><path style="opacity:1;fill:#ed1c24;fill-opacity:1;fill-rule:nonzero;stroke:#000;stroke-width:1.71392345;stroke-linecap:butt;stroke-linejoin:miter;marker:none;marker-start:none;marker-mid:none;marker-end:none;stroke-miterlimit:4;stroke-dasharray:none;stroke-dashoffset:0;stroke-opacity:1;visibility:visible;display:inline;overflow:visible;enable-background:accumulate" d="M2069.063 730.688c.223.007.43.093.656.093 12.758 0 23.094-12.766 23.093-28.5 0-15.734-10.335-28.5-23.093-28.5-.226 0-.433.086-.657.094v56.813z" transform="scale(-.59902 .5683) rotate(17.695 1687.25 -6648.787)"/><path style="fill:#eac102;fill-opacity:1;fill-rule:nonzero;stroke:#000;stroke-width:1.71392345;stroke-linecap:butt;stroke-linejoin:miter;marker:none;marker-start:none;marker-mid:none;marker-end:none;stroke-miterlimit:4;stroke-dashoffset:0;stroke-opacity:1;visibility:visible;display:inline;overflow:visible;enable-background:accumulate" d="M2066.286 668.732h6.95v66.529h-6.95c-2.458-25.69-2.862-50.125 0-66.53z" transform="scale(-.59902 .5683) rotate(17.695 1687.25 -6648.787)"/><path style="opacity:1;fill:#eac102;fill-opacity:1;fill-rule:evenodd;stroke:#000;stroke-width:1.71392345px;stroke-linecap:round;stroke-linejoin:round;marker:none;marker-start:none;marker-mid:none;marker-end:none;stroke-miterlimit:4;stroke-dasharray:none;stroke-dashoffset:0;stroke-opacity:1;visibility:visible;display:inline;overflow:visible;enable-background:accumulate" d="M2030.156 670.594c-6.01 1.755-10.687 15.383-10.687 31.906 0 16.522 4.678 30.119 10.687 31.875l.25.063c.352.082.703.125 1.063.125l10.843-.024v-18.351c.739-4.161 1.157-8.78 1.157-13.688 0-4.908-.418-9.558-1.157-13.719v-18.178l-12.156-.01z" transform="matrix(-.5786 .14709 .15504 .54894 1197.46 -431.15)"/><path style="opacity:1;fill:#eac102;fill-opacity:1;fill-rule:evenodd;stroke:#000;stroke-width:1.22203577px;stroke-linecap:round;stroke-linejoin:round;marker:none;marker-start:none;marker-mid:none;marker-end:none;stroke-miterlimit:4;stroke-dasharray:none;stroke-dashoffset:0;stroke-opacity:1;visibility:visible;display:inline;overflow:visible;enable-background:accumulate" d="M2048.379 702.486a6.07 32.089 0 1 1-12.138 0 6.07 32.089 0 1 1 12.138 0z" transform="matrix(-1.1449 .29104 .15412 .5457 2354.981 -722.853)"/><path style="fill:#e3e4e5;fill-opacity:1;fill-rule:evenodd;stroke:#000;stroke-width:1.71392345px;stroke-linecap:round;stroke-linejoin:round;marker:none;marker-start:none;marker-mid:none;marker-end:none;stroke-miterlimit:4;stroke-dashoffset:0;stroke-opacity:1;visibility:visible;display:inline;overflow:visible;enable-background:accumulate" d="M2042.955 674.4c25.153 7.781 23.558 49.664 0 57.98-16.346-3.472-14.067-57.719 0-57.98z" transform="matrix(-.5786 .14709 .15504 .54894 1197.46 -431.15)"/><path d="M2069.063 730.688c.223.007.43.093.656.093 12.758 0 23.094-12.766 23.093-28.5 0-15.734-10.335-28.5-23.093-28.5-.226 0-.433.086-.657.094v56.813z" style="opacity:1;fill:#ed1c24;fill-opacity:1;fill-rule:nonzero;stroke:#000;stroke-width:1.71392345;stroke-linecap:butt;stroke-linejoin:miter;marker:none;marker-start:none;marker-mid:none;marker-end:none;stroke-miterlimit:4;stroke-dasharray:none;stroke-dashoffset:0;stroke-opacity:1;visibility:visible;display:inline;overflow:visible;enable-background:accumulate" transform="scale(.59902 .5683) rotate(17.695 2275.713 -2868.24)"/><path d="M2066.286 668.732h6.95v66.529h-6.95c-2.458-25.69-2.862-50.125 0-66.53z" style="fill:#eac102;fill-opacity:1;fill-rule:nonzero;stroke:#000;stroke-width:1.71392345;stroke-linecap:butt;stroke-linejoin:miter;marker:none;marker-start:none;marker-mid:none;marker-end:none;stroke-miterlimit:4;stroke-dashoffset:0;stroke-opacity:1;visibility:visible;display:inline;overflow:visible;enable-background:accumulate" transform="scale(.59902 .5683) rotate(17.695 2275.713 -2868.24)"/><path d="M2030.156 670.594c-6.01 1.755-10.687 15.383-10.687 31.906 0 16.522 4.678 30.119 10.687 31.875l.25.063c.352.082.703.125 1.063.125l10.843-.024v-18.351c.739-4.161 1.157-8.78 1.157-13.688 0-4.908-.418-9.558-1.157-13.719v-18.178l-12.156-.01z" style="opacity:1;fill:#eac102;fill-opacity:1;fill-rule:evenodd;stroke:#000;stroke-width:1.71392345px;stroke-linecap:round;stroke-linejoin:round;marker:none;marker-start:none;marker-mid:none;marker-end:none;stroke-miterlimit:4;stroke-dasharray:none;stroke-dashoffset:0;stroke-opacity:1;visibility:visible;display:inline;overflow:visible;enable-background:accumulate" transform="matrix(.5786 .14709 -.15504 .54894 -492.46 -431.15)"/><path transform="matrix(1.1449 .29104 -.15412 .5457 -1649.981 -722.853)" d="M2048.379 702.486a6.07 32.089 0 1 1-12.138 0 6.07 32.089 0 1 1 12.138 0z" style="opacity:1;fill:#eac102;fill-opacity:1;fill-rule:evenodd;stroke:#000;stroke-width:1.22203577px;stroke-linecap:round;stroke-linejoin:round;marker:none;marker-start:none;marker-mid:none;marker-end:none;stroke-miterlimit:4;stroke-dasharray:none;stroke-dashoffset:0;stroke-opacity:1;visibility:visible;display:inline;overflow:visible;enable-background:accumulate"/><path d="M2042.955 674.4c25.153 7.781 23.558 49.664 0 57.98-16.346-3.472-14.067-57.719 0-57.98z" style="fill:#e3e4e5;fill-opacity:1;fill-rule:evenodd;stroke:#000;stroke-width:1.71392345px;stroke-linecap:round;stroke-linejoin:round;marker:none;marker-start:none;marker-mid:none;marker-end:none;stroke-miterlimit:4;stroke-dashoffset:0;stroke-opacity:1;visibility:visible;display:inline;overflow:visible;enable-background:accumulate" transform="matrix(.5786 .14709 -.15504 .54894 -492.46 -431.15)"/><path style="fill:#eac102;fill-rule:evenodd;stroke:#000;stroke-width:.87527865px;stroke-linecap:butt;stroke-linejoin:miter;stroke-opacity:1" d="M1146.982 293.415s40.214-20.435 186.113-20.435c145.417 0 186.114 20.435 186.114 20.435s-34.014 20.436-186.114 20.436c-152.583 0-186.113-20.436-186.113-20.436z" transform="matrix(1.17296 0 0 1.11282 -1211.17 -33.219)"/><path d="M1103.773 494.662v-47.28" style="font-size:12px;fill:none;stroke:#000;stroke-width:.45521635" transform="matrix(1.17296 0 0 1.11282 -997.748 -230.798)"/><path d="M1095.22 494.662v-47.28" style="font-size:12px;fill:none;stroke:#000;stroke-width:.67018127" transform="matrix(1.17296 0 0 1.11282 -997.748 -230.798)"/><path d="M1087.147 494.662v-47.28" style="font-size:12px;fill:none;stroke:#000;stroke-width:.89779156" transform="matrix(1.17296 0 0 1.11282 -997.748 -230.798)"/><path d="M1079.144 494.662v-47.28" style="font-size:12px;fill:none;stroke:#000;stroke-width:1.12540138" transform="matrix(1.17296 0 0 1.11282 -997.748 -230.798)"/><path d="M1072.012 494.662v-47.28" style="font-size:12px;fill:none;stroke:#000;stroke-width:1.35300779" transform="matrix(1.17296 0 0 1.11282 -997.748 -230.798)"/><path d="m1058.412 492.113-.189-43.034m6.636 43.6v-45.013" style="font-size:12px;fill:none;stroke:#000;stroke-width:1.58061779" transform="matrix(1.17296 0 0 1.11282 -997.748 -230.798)"/><path d="M1045.855 490.178V450.53m6.362 40.78-.189-42.194" style="font-size:12px;fill:none;stroke:#000;stroke-width:1.79558313" transform="matrix(1.17296 0 0 1.11282 -997.748 -230.798)"/><path d="M1029.009 487.914v-34.835m5.527 35.4v-36.532m5.695 37.665v-37.95" style="font-size:12px;fill:none;stroke:#000;stroke-width:2.02319264" transform="matrix(1.17296 0 0 1.11282 -997.748 -230.798)"/><path d="M1023.105 487.629V453.93" style="font-size:12px;fill:none;stroke:#000;stroke-width:2.25080276" transform="matrix(1.17296 0 0 1.11282 -997.748 -230.798)"/><path d="M1017.599 485.93v-31.434" style="font-size:12px;fill:none;stroke:#000;stroke-width:2.47840929" transform="matrix(1.17296 0 0 1.11282 -997.748 -230.798)"/><path d="M1011.694 485.08v-29.17" style="font-size:12px;fill:none;stroke:#000;stroke-width:2.70601916" transform="matrix(1.17296 0 0 1.11282 -997.748 -230.798)"/><path d="m999.606 482.534-.188-23.224m6.383 24.356v-26.055" style="font-size:12px;fill:none;stroke:#000;stroke-width:2.92098475" transform="matrix(1.17296 0 0 1.11282 -997.748 -230.798)"/><path d="M993.411 480.55v-20.393" style="font-size:12px;fill:none;stroke:#000;stroke-width:3.08536959" transform="matrix(1.17296 0 0 1.11282 -997.748 -230.798)"/><path d="M987.738 478.897v-16.983" style="font-size:12px;fill:none;stroke:#000;stroke-width:3.31297636" transform="matrix(1.17296 0 0 1.11282 -997.748 -230.798)"/><path d="M981.543 476.633V463.33" style="font-size:12px;fill:none;stroke:#000;stroke-width:3.52794075" transform="matrix(1.17296 0 0 1.11282 -997.748 -230.798)"/><path d="M975.176 475.5v-9.904" style="font-size:12px;fill:none;stroke:#000;stroke-width:3.74292064" transform="matrix(1.17296 0 0 1.11282 -997.748 -230.798)"/><path d="M968.437 473.238v-4.813" style="font-size:12px;fill:none;stroke:#000;stroke-width:4.41308689" transform="matrix(1.17296 0 0 1.11282 -997.748 -230.798)"/><path d="M1137.799 492.113v-43.315m-14.49 44.732.19-45.864m-10.75 46.43v-46.715" style="font-size:12px;fill:none;stroke:#000;stroke-width:.22760889" transform="matrix(1.17296 0 0 1.11282 -997.748 -230.798)"/><path style="font-size:12px;fill:none;stroke:#000;stroke-width:.45521635" d="M1198.514 494.662v-47.28" transform="matrix(1.17296 0 0 1.11282 -997.748 -230.798)"/><path style="font-size:12px;fill:none;stroke:#000;stroke-width:.67018127" d="M1207.066 494.662v-47.28" transform="matrix(1.17296 0 0 1.11282 -997.748 -230.798)"/><path style="font-size:12px;fill:none;stroke:#000;stroke-width:.89779156" d="M1215.14 494.662v-47.28" transform="matrix(1.17296 0 0 1.11282 -997.748 -230.798)"/><path style="font-size:12px;fill:none;stroke:#000;stroke-width:1.12540138" d="M1223.143 494.662v-47.28" transform="matrix(1.17296 0 0 1.11282 -997.748 -230.798)"/><path style="font-size:12px;fill:none;stroke:#000;stroke-width:1.35300779" d="M1230.274 494.662v-47.28" transform="matrix(1.17296 0 0 1.11282 -997.748 -230.798)"/><path style="font-size:12px;fill:none;stroke:#000;stroke-width:1.58061779" d="m1243.875 492.113.188-43.034m-6.636 43.6v-45.013" transform="matrix(1.17296 0 0 1.11282 -997.748 -230.798)"/><path style="font-size:12px;fill:none;stroke:#000;stroke-width:1.79558313" d="M1256.432 490.178V450.53m-6.362 40.78.188-42.194" transform="matrix(1.17296 0 0 1.11282 -997.748 -230.798)"/><path style="font-size:12px;fill:none;stroke:#000;stroke-width:2.02319264" d="M1273.278 487.914v-34.835m-5.528 35.4v-36.532m-5.694 37.665v-37.95" transform="matrix(1.17296 0 0 1.11282 -997.748 -230.798)"/><path style="font-size:12px;fill:none;stroke:#000;stroke-width:2.25080276" d="M1279.182 487.629V453.93" transform="matrix(1.17296 0 0 1.11282 -997.748 -230.798)"/><path style="font-size:12px;fill:none;stroke:#000;stroke-width:2.47840929" d="M1284.688 485.93v-31.434" transform="matrix(1.17296 0 0 1.11282 -997.748 -230.798)"/><path style="font-size:12px;fill:none;stroke:#000;stroke-width:2.70601916" d="M1290.592 485.08v-29.17" transform="matrix(1.17296 0 0 1.11282 -997.748 -230.798)"/><path style="font-size:12px;fill:none;stroke:#000;stroke-width:2.92098475" d="m1302.68 482.534.19-23.224m-6.384 24.356v-26.055" transform="matrix(1.17296 0 0 1.11282 -997.748 -230.798)"/><path style="font-size:12px;fill:none;stroke:#000;stroke-width:3.08536959" d="M1308.876 480.55v-20.393" transform="matrix(1.17296 0 0 1.11282 -997.748 -230.798)"/><path style="font-size:12px;fill:none;stroke:#000;stroke-width:3.31297636" d="M1314.548 478.897v-16.983" transform="matrix(1.17296 0 0 1.11282 -997.748 -230.798)"/><path style="font-size:12px;fill:none;stroke:#000;stroke-width:3.52794075" d="M1320.743 476.633V463.33" transform="matrix(1.17296 0 0 1.11282 -997.748 -230.798)"/><path style="font-size:12px;fill:none;stroke:#000;stroke-width:3.74292064" d="M1327.11 475.5v-9.904" transform="matrix(1.17296 0 0 1.11282 -997.748 -230.798)"/><path style="font-size:12px;fill:none;stroke:#000;stroke-width:4.41308689" d="M1333.85 473.238v-4.813" transform="matrix(1.17296 0 0 1.11282 -997.748 -230.798)"/><path style="font-size:12px;fill:none;stroke:#000;stroke-width:.22760889" d="M1164.488 492.113v-43.315m14.489 44.732-.188-45.864m10.748 46.43v-46.715" transform="matrix(1.17296 0 0 1.11282 -997.748 -230.798)"/><path style="fill:#eac102;fill-rule:evenodd;stroke:#000;stroke-width:.87527865px;stroke-linecap:butt;stroke-linejoin:miter;stroke-opacity:1" d="M1332.929 258.951c-56.613.595-113.87.658-169.469 12.594-12.408 3.94-30.155 6.135-34.812 20.094-1.528 11.659 12.487 16.608 21.25 19.812 41.744 12.61 85.872 13.685 129.125 15.656 67.29 1.359 134.99 1.886 201.78-7.53 18.248-3.548 38.34-5.738 53.344-17.688 8.96-8.832-.939-21.18-10.843-23.72-33.977-13.119-71.033-14.516-106.969-17.187-27.773-1.525-55.594-2.012-83.406-2.03zm.156 14.031c145.416 0 186.125 20.438 186.125 20.438s-34.025 20.437-186.125 20.437c-152.583 0-186.094-20.437-186.094-20.437s40.194-20.438 186.094-20.438z" transform="matrix(1.17296 0 0 1.11282 -1211.17 -33.219)"/><path transform="translate(21.071 4.246)" d="M81.98 297.383c.204 120.745-.411 241.503.312 362.239 3.847 108.356 86.787 207.326 192.7 230.21 97.983 23.87 207.672-19.028 262.977-103.622 33.122-47.31 45.32-105.86 42.59-162.852V297.383H81.978z" style="fill:none;fill-opacity:1;fill-rule:evenodd;stroke:none;stroke-width:1;stroke-linecap:butt;stroke-linejoin:miter;marker:none;marker-start:none;marker-mid:none;marker-end:none;stroke-miterlimit:4;stroke-dasharray:none;stroke-dashoffset:0;stroke-opacity:1;visibility:visible;display:inline;overflow:visible;enable-background:accumulate"/><path transform="translate(21.071 4.246)" d="M81.98 297.383c.204 120.745-.411 241.503.312 362.239 3.847 108.356 86.787 207.326 192.7 230.21 97.983 23.87 207.672-19.028 262.977-103.622 33.122-47.31 45.32-105.86 42.59-162.852V297.383H81.978z" style="fill:none;fill-opacity:1;fill-rule:evenodd;stroke:#000;stroke-width:3;stroke-linecap:butt;stroke-linejoin:miter;marker:none;marker-start:none;marker-mid:none;marker-end:none;stroke-miterlimit:4;stroke-dasharray:none;stroke-dashoffset:0;stroke-opacity:1;visibility:visible;display:inline;overflow:visible;enable-background:accumulate"/><path style="fill:#008f4c;fill-opacity:1;fill-rule:evenodd;stroke:#000;stroke-width:1;stroke-linecap:butt;stroke-linejoin:miter;marker:none;marker-start:none;marker-mid:none;marker-end:none;stroke-miterlimit:4;stroke-dasharray:none;stroke-dashoffset:0;stroke-opacity:1;visibility:visible;display:inline;overflow:visible;enable-background:accumulate" d="M503.406 823.281H46.531c31.453 70.583 95.686 126.693 172.031 143.188 97.983 23.87 207.664-19.031 262.97-103.625 8.734-12.477 15.94-25.757 21.874-39.563z" transform="translate(77.5 -72.394)"/><path style="fill:#0071bc;fill-opacity:1;fill-rule:evenodd;stroke:#000;stroke-width:1;stroke-linecap:butt;stroke-linejoin:miter;marker:none;marker-start:none;marker-mid:none;marker-end:none;stroke-miterlimit:4;stroke-dasharray:none;stroke-dashoffset:0;stroke-opacity:1;visibility:visible;display:inline;overflow:visible;enable-background:accumulate" d="M25.563 374.031c.204 120.745-.411 241.483.312 362.219 1.074 30.25 8.475 59.696 20.656 87.031h456.875c16.568-38.543 22.73-81.32 20.719-123.281V374.031H25.562z" transform="translate(77.5 -72.394)"/><g style="display:inline"><path style="fill:#ed1c24;fill-opacity:1;fill-rule:evenodd;stroke:#000;stroke-width:1.22245264;stroke-miterlimit:4;stroke-dasharray:none;stroke-opacity:1" d="M-583.827 315.134c10.965 15.664 16.71 33.271 11.256 40.9 10.17-3.528 15.196-1.767 25.902.226-2.246-8.82-18.785-41.664-35.18-40.619-.177.962-1.8-1.47-1.978-.507z" transform="matrix(.7719 0 0 .86691 866.874 114.17)"/><path style="fill:#ed1c24;fill-opacity:1;fill-rule:evenodd;stroke:#000;stroke-width:1.22245264;stroke-miterlimit:4;stroke-dasharray:none;stroke-opacity:1" d="M-559.947 336.486c-2.053-.344-9.17-.79-14.756-.79-6.913 0-13.222 2.532-18.025 4.136-4.814 1.608-7.505 2.846-14.276 2.846-13.259 0-18.431-7.57-18.431-13.67 0-4.008 1.215-7.228 3.546-10.542-1.095-1.036-2.602-1.459-4.049-1.459-4.56 0-9.803 4.484-9.803 13.494 0 13.826 11.038 20.225 21.91 20.225 9.96 0 19.459-4.843 23.689-6.586 4.242-1.727 10.174-3.313 13.877-3.313 6.637 0 13.751.738 16.698 1.542a12.73 12.73 0 0 0 .122-1.642c0-1.851-.223-3.085-.502-4.24" transform="matrix(.7719 0 0 .86691 866.874 114.17)"/><g style="fill:red"><path d="M362.162 1003.22c1.853.999 3.489 2.546 5.499 7.932 2.88-.55 7.932-5.991 7.932-11.07 0-1.066-.38-3.676-1.708-5.587-1.473-1.32-4.025-1.938-5.747-1.938-2.219 0-6.44 3.912-5.976 10.663" style="fill:red;fill-opacity:1;fill-rule:evenodd;stroke:#000;stroke-width:1.22245264;stroke-miterlimit:4;stroke-dasharray:none;stroke-opacity:1" transform="matrix(.7719 0 0 .86691 221.254 -133.125)"/><g style="fill:red"><g style="fill:red"><path d="M203.465 958.16c-3.755 0-8.33 7.966-8.34 7.924 2.04 2.361 1.912 4.853.318 9.922 5.365-.176 14.451-7.852 13.901-12.636 0 0-2.09-5.21-5.88-5.21M159.637 965.531c-4.377 0-6.568 4.122-7.017 6.037-.09 4.525 5.445 13.345 8.482 15.234 2.309-1.9 3.66-8.27 4.431-10.186 1.17-3.448-.98-11.085-5.896-11.085M137.576 933.591c-3.358.673-12.688 6.085-12.688 13.547 0 5.494 3.23 9.872 5.305 12.767 1.588-4.592 6.611-7.617 8.514-9.185-3.11-5.019-3.658-12.655-1.131-17.129M165.547 914.075c-.862-.782-5.132-3.93-7.904-3.93-6.07 0-16.198 5.72-16.643 11.565 1.798-.355 11.996-.087 13.865.825-.035-5.415 4.998-6.436 9.577-8.46" style="fill:red;fill-opacity:1;fill-rule:evenodd;stroke:#000;stroke-width:1.22245264;stroke-miterlimit:4;stroke-dasharray:none;stroke-opacity:1" transform="matrix(.7719 0 0 .86691 221.254 -133.125)"/></g><path style="fill:red;fill-opacity:1;fill-rule:evenodd;stroke:#000;stroke-width:1.22245264;stroke-miterlimit:4;stroke-dasharray:none;stroke-opacity:1" d="M132.567 799.25c-5.622 0-5.204 6.068-5.024 9.576.694 2.189 1.6 1.376 1.996 9.7 5.728-4.3 9.153-8.842 9.964-12.628-1.273-4.377-3.639-6.647-6.936-6.647" transform="matrix(.7719 0 0 .86691 221.254 -133.125)"/><g style="fill:red"><path d="M302.285 975.939c-.798-.57-2.513-.996-4.163-.996-8.024 0-16.251 8.788-14.458 19.521 2.029-2.876 8.843-4.572 11.036-5.178-.55-5.06 3.082-11.325 7.585-13.347M297.737 1013.441c-1.007 0-2.427.217-3.848.826-1.904 1.762-3.404 4.215-3.404 9.724 0 4.349 2.03 8.416 4.38 9.626 3.14-5.696 6.493-8.362 8.194-9.398 1.61-5.135-.34-10.778-5.322-10.778M330.888 1020.99c-2.592 0-4.543 2.057-6.337 5.587 1.932 4.75 3.26 9.44 3.444 13.89 4.667-3.329 7.467-7.798 8.306-12.368-.288-3.328-1.99-7.11-5.413-7.11" style="fill:red;fill-opacity:1;fill-rule:evenodd;stroke:#000;stroke-width:1.22245264;stroke-miterlimit:4;stroke-dasharray:none;stroke-opacity:1" transform="matrix(.7719 0 0 .86691 221.254 -133.125)"/></g><g style="fill:red"><path d="M81.433 786.986c-3.787 1.52-9.237 6.337-9.237 10.218 0 5.258 2.66 9.434 6.634 13.272 1.26-5.657 7.778-9.12 9.534-10.263 1.247-4.027-1.065-12.241-6.93-13.227M101.998 810.857c-4.066 0-6.852 4.52-7.35 5.927-.573 6.139 8.196 14.52 14.176 14.187-.29-3.836-.044-12.773.884-15.66-1.184-4.263-4.784-4.454-7.71-4.454M95.993 752.267c-1.024-.227-4.496-2.924-6.503-2.924-7.041 0-15.245 3.847-17.557 8.924 3.848-.173 10.534 1.046 12.652 2.089.393-3.074 5.341-5.215 11.408-7.75M127.222 586.92c-6.095-5.768-11.616-6.317-13.423-5.656 1.949-6.396 4.565-8.212 10.28-8.212 5.551 0 10.172 8.183 11.915 11.65-3.552 2.442-12.293-1.408-11.58.886M113.664 592.959c-3.338-3.711-8.279-5.217-14.65-5.217-9.555 0-17.986 5.837-18.938 11.192 4.44.142 12.97 1.44 15.748 2.596 3.607-3.303 8.34-8.958 17.84-8.571M94.345 616.077c-8.463.995-18.214 4.302-18.214 10.996 0 5.372 3.13 6.884 6.759 9.425 2.07-5.133 5.084-7.313 9.756-8.583-4.503-3.554-.388-3.906 2.804-10.18M101.259 644.163c-3.335 1.93-7.699 2.829-15.956 3.986 1.776 2.236 12.11 9.861 20.166 9.861 6.152 0 11.393-4.434 15.615-8.833-10.73.08-15.813-2.542-19.825-5.014" style="fill:red;fill-opacity:1;fill-rule:evenodd;stroke:#000;stroke-width:1.22245264;stroke-miterlimit:4;stroke-dasharray:none;stroke-opacity:1" transform="matrix(.7719 0 0 .86691 221.254 -133.125)"/></g></g></g><g style="fill:#ed1c24;fill-opacity:1"><g style="fill:#ed1c24;fill-opacity:1"><path style="fill:#ed1c24;fill-opacity:1;fill-rule:evenodd;stroke:#000;stroke-width:1.22245264;stroke-miterlimit:4;stroke-dasharray:none;stroke-opacity:1" d="M672.474 818.569c-6.996 3.997 2.472 3.867 5.726 5.72 6.142 2.21 11.286 6.557 14.396 12.016 6.877-2.117 13.246.836 19.059 4.03-7.247-13.565-22.295-22.248-38.363-22.534l-.818.768z" transform="matrix(.7719 0 0 .86691 -70.62 -137.189)"/><g style="fill:#ed1c24;fill-opacity:1"><path d="M292.981 816.58c-3.735 7.431-13.72 2.314-20.244 3.493-27.987-2.504-56.848 14.027-64.498 39.695-5.356 13.402 2.455 29.916-8.343 41.422 1.578 2.432 6.084 3.465 7.362 4.953-5.809 8.38-17.314 13.447-27.689 13.129-4.647-3.262-9.08-8.82-15.787-7.064-8.092.513-13.81 8.462-11.41 15.817-11.106-3.596-20.065 8.607-16.974 18.004.48 6.087 6.58 12.051 12.106 11.67-2.955 6.23-.105 13.314 5.113 17.66-.123-5.137 7.285-11.602 11.533-6.334 2.343 2.885 1.157 6.711 1.104 10.02 10.256-1.209 15.986-10.992 15.583-19.541 3.183-1.229 4.799-1.239 5.848 2.073 1.783 2.545 6.617 7.054 8.979 5.106.971-4.65 7.808-9.436 11.062-3.8 1.978 7.55 5.012.49 6.666-3.072 1.584-2.585.415-6.3.982-8.522 7.594-2.781 14.961-6.087 21.676-10.442.99 5.866 4.054 7.55 8.589 3.608 3-1.614 6.045-5.625 7.894-6.948 1.754 2.758-1.364 13.982 2.936 10.196 14.864-9.937 24.52-26.67 22.42-44.056.426-9.67-9.068-18.063-4.09-27.794 2.603-8.273 11.623-13.72 20.691-11.415 2.66-2.658 2.04-9.42 4.38-13.653 3.227-8.32 8.654-17.113 18.078-20.116-4.853-8.032-13.525-13.131-22.862-15.471l-.786.983-.319.399z" style="fill:#ed1c24;fill-opacity:1;fill-rule:evenodd;stroke:#000;stroke-width:1.22245264;stroke-miterlimit:4;stroke-dasharray:none;stroke-opacity:1" transform="matrix(.7719 0 0 .86691 221.254 -131.77)"/><path d="M454.405 564.246c-3.538 10.764-12.306 19.761-22.78 25.183 1.64-6.114.76-12.499-.655-18.58-12.858 9.072-29.827 14.632-36.972 29.214-4.793 8.965-5.822 19.294-4.867 29.253-24.115 22.085-31.689 58.763-17.546 87.72 9.41 20.622 23.518 40.371 44.703 51.787 14.093 8.497 27.237 22.42 24.13 39.273-.744 15.584-13.364 32.637-31.492 31.594-3.277-.113-10.264-1.136-10.43-4.453 6.774-16.856-4.983-34.357-18.69-44.57-16.96-14.19-38.158-23.301-54.191-38.39-2.974-3.152-4.54-8.074-8.998-4.3-8.882 2.516-18.099.172-26.257-3.3-19.072 19.328-50.313 27.902-76.933 18.128-9.95-2.768-22.79-2.509-29.527 5.98-6.301-6.278-5.86-16.215-2.822-23.84-8.62-1.326-15.536-6.841-19.508-13.974-10.051 8.158-20.985 15.044-33.481 19.36-6.453 1.81-12.503 8.53-19.483 7.167-4.936-3.123-10.746-9.944-17.26-5.297-8.294 4.234-10.599 15.416-4.621 21.958-6.78.618-10.464 9.766-6.951 13.773 6.44 1.331 6.415 9.073 6.664 13.791 1.752 2.312 5.182 2.412 3.313 6.066-.445 5.046 2.183 9.842 6.503 12.822-.086-4.582 6.468-9.922 9.57-4.338 1.2 2.586 1.97 5.567 5.563 2.956 6.505-2.386 3.892-11.272 6.748-14.473 2.17 3.157 6.411 4.067 9.897 5.413-1.569-3.912.165-13.126 6.462-9.751 2.701 2.292 2.91 8.257 7.199 3.954 5.591-3.517 3.834-11.346 3.312-15.778 11.143-6.53 24.61-1.447 33.05 6.597 3.752.207 6.165-6.075 7.522-8.248 4.053 3.726 6.366 8.961 9.489 13.475 5.64-3.014 8.762-9.5 9.979-14.588 6.572.878 12.584 4.348 17.71 8.33 4.01-1.905 6.605-5.59 7.606-9.635 16.563 18.361 41.495 28.71 66.946 29.906 11.728.182 25.446 6.98 30.68 15.585-12.36-3.62-23.748 5.354-28.343 15.586-11.014 22.475-6.684 50.965 11.03 69.263 6.957 6.915 11.922 15.826 10.458 25.674 1.69 2.138 8.405-2.872 10.209-3.723 1.377 6.669 5.552 13.563 12.924 15.624 1.792-3.668 3.342-7.367 5.685-10.749-1.625 15.341-12.616 31.631-29.161 35.626-5.852-.16-10.177-6.663-16.523-3.954-11.083 2.717-14.368 17.1-7.853 24.415-5.3 3.855-5.89 10.656-4.949 16.47 5.123-2.549 10.612 1.164 10.307 6.18-.053 3.44-1.505 6.755 3.517 6.526 3.518.79 7.265-1.712 9.734-2.457 2.298 3.413 8.737 7.445 10.02 1.344 2.425-4.82 9.794-3.117 9.734 2.188.752 4.912 7.469-.065 8.957-2.88 3.017-3.299 2.43-8.36 3.558-11.746 2.746-1.49 4.298-5.96 5.89-7.064 3.388 3.778 12.437 3.035 10.879-3.148.199-5.132 6.044-10.921 11.33-6.624 3.273.283 4.131-6.253 3.189-9.307-.627-3.136-5.084-5.214-.736-7.448 3.968-3.308 6.935-10.388 9.693-12.553 2.57 3.528 8.09 5.212 10.224.537 2.373-2.134.812-8.097 5.235-5.95 6.226 1.142 13.695-1.315 15.583-7.486-9.286-8.22-1.596-20.81-1.35-30.865 1.762-10.785-4.839-25.537-18.24-24.954-4.701.154-9.35 2.485-12.516 5.375-19.195-5.755-22.445-33.973-6.789-45.261 4.791-5.527 11.046 1.61 17.055 1.612 10.372 2.431 22.452 1.462 31.042-4.491 9.238 7.465 23.553.743 27.525-8.868a69.164 69.164 0 0 1 11.534-13.59c-3.684-2.677-8.301-4.61-13.047-3.532 7.175-14.002 4.406-29.84 4.499-44.762 2.364-12.395 14.883-22.865 11.001-36.278-1.049-4.723-2.894-9.21-6.42-2.65-5.536 5.698-16.084 5.777-19.918 13.706-1.93 1.643-1.322 8.22-4.336 4.261-8.17-5.998-16.897-17.62-9.856-27.065 8.1-7.454 23.586-9.221 25.725-21.498.184-3.535 2.262-16.93-1.401-9.797-2.7 5.643-8.03 12.872-15.613 10.104-9.928-3.87-23.617-5.068-30.633 4.223-4.674 4.476-3.923 12.863-3.967 17.122-15.28-13.571-11.68-41.62 8.425-49.522 13.425-6.692 32.172-10.647 36.318-26.528 3.858-9.739 1.137-9.158-5.562-2.341-10.186 9.63-26.029 3.532-37.75 8.906 2.093-3.37 5.47-5.912 8.18-8.868-9.331.685-19.354 1.77-26.748 7.601 4.213-12.869 16.206-23.33 30.879-24.646 24.654-3.87 43.498-24.406 45.234-47.603 1.233-12.634-.326-25.382-4.704-37.353l-2.74 7.448z" style="fill:#ed1c24;fill-opacity:1;fill-rule:evenodd;stroke:#000;stroke-width:1.22245264;stroke-miterlimit:4;stroke-dasharray:none;stroke-opacity:1" transform="matrix(.7719 0 0 .86691 221.254 -131.77)"/><path d="M129.628 581.751c-7.3-.482-12.538 6.286-10.225 12.707.319 2.949 2.334 7.58 1.84 9.367-3.838-5.367-1.126-14.162-8.63-17.275-11.957-4.642-24.788 12.647-15.377 21.537 1.52 1.782 5.148 3.57 5.766 4.99-8.354-2.62-17.667 3.754-16.645 12.208-.77 8.101 5.828 15.422 13.66 17.199.278 9.861 10.18 22.014 21.635 17.927 2.642.096 3.66 5.872 5.44 8.177 5.163 10.554 7.435 21.922 7.157 33.514 4.029.24 8.81-.08 11.493-3.301 2.15 10.34 1.066 21.18-2.372 31.21 5.794 1.722 12.54.219 16.523-4.145 3.097 5.765 2.442 12.334 2.699 18.58 8.753-11.176 9.704-25.895 19.468-36.393 4.614-5.663 10.607-10.863 18.24-12.438-1.628-7.952-2.506-16.24.042-24.07-14.03-9.18-29.778-17.441-40.223-30.537-5.715-11.371-18.004-20.042-20.144-32.768-.143-7.712 6.731-18.451-1.963-24.224-2.411-1.605-5.427-2.47-8.384-2.265z" style="fill:#ed1c24;fill-opacity:1;fill-rule:evenodd;stroke:#000;stroke-width:1.22245264;stroke-miterlimit:4;stroke-dasharray:none;stroke-opacity:1" transform="matrix(.7719 0 0 .86691 221.254 -131.77)"/><path d="M349.447 678.251c3.102-27.39 2.415-40.08.648-44.79 4.562-.287 8.437-1.009 11.965-2.778-3.934-4.368-10.23-13.438-12.24-21.4-1.662-6.57-5.491-16.982-10.204-19.01 3.122-1.136 5.361-2.704 8.057-7.087-8.057-4.36-11.532-9.896-19.635-14.593 2.572-1.709 4.817-4.78 5.563-7.962-4.208-.647-8.234-2.484-12.226-4.705-.642 3.601-1.76 6.915-5.158 11.224l-.515-1.585c2.114-2.793 4.581-6.834 4.581-10.36 0-4.9-5.264-10.723-7.639-12.294-2.58-1.702-5.981-2.115-11.4 2.1-3.975.795-6.027 4.869-8.45 7.247l-.616-.614c2.362-2.607 5.372-5.364 6.826-6.777a16.98 16.98 0 0 0-3.874-.445c-4.562 0-9.02.696-12.58 3.867-22.77 0-34.495 14.788-36.966 21.792-8.746 5.891-18.416 14.87-18.416 21.318 0 1.701.207 2.779.538 3.534 2.346-1.38 6.07-2.647 8.125-4.734l-.055.766c-1.747 2.027-6.088 3.92-7.617 5.038-1.132 1.71-.693 5.89-.693 8.318 0 7.188 6.527 13.366 13.296 13.366 9.655 0 13.066-10.21 12.503-14.911 5.243-.483 20.127 5.56 20.127 22.989 0 10.876-10.44 12.028-14.091 12.028-3.672 0-6.381-1.287-10.425-1.287-4.048 0-5.913 1.639-5.913 4.747 0 4.218 4.264 8.01 8.894 8.01 4.558 0 4.89-4.293 8.537-4.293 2.145 0 5.799 1.282 5.799 8.104 0 6.762-6.208 9.615-12.38 9.615-14.265 0-24.07-11.877-28.221-11.877v14.862c-13.22 0-17.608-4.215-23.096-9.97-4.525 4.21-9.493 12.311-9.493 21.485 0 6.362.459 11.594 1.59 15.237-11.296 1.836-22.938 14.417-28.474 29.149-3.547 9.38-4.508 14.365-11.763 17.903 4.063 11.474 13.1 17.304 21.67 17.67-5.399 7.01-2.245 22.362 1.734 23.035 5.225-5.482 10.8-6.706 16.817-6.706 13.883 0 21.377 5.63 34.84 5.63 25.617 0 41.947-9.956 54.33-22.389 5.635 3.086 23.084 5.234 26.927 5.234 7.56 0 14.026-3.269 17.311-8.474-2.598-3.931-5.786-13.576-3.534-20.619 3.122 2.906 8.954 5.038 13.457 3.916-.97-11.957-7.533-22.93-4.496-27.524 3.455-5.261 5.655-12.023 6.46-16.545h12.625c-1.839-3.212-3.79-8.075-3.05-14.455z" style="fill:#ed1c24;fill-opacity:1;fill-rule:evenodd;stroke:#000;stroke-width:1.22245264;stroke-miterlimit:4;stroke-dasharray:none;stroke-opacity:1" transform="matrix(.7719 0 0 .86691 221.254 -131.77)"/></g></g><path d="M617.186 622.79c.169.609-.393 6.558 3.25 5.497 0 0 1.156-5.167 1.156-5.197M625.409 643.072c-.475-.86-3.305-3.305-2.77-5.256-3.716.991-1.834 4.32-1.198 7.166" style="fill:#ed1c24;fill-opacity:1;fill-rule:evenodd;stroke:#000;stroke-width:1.22245264;stroke-miterlimit:4;stroke-dasharray:none;stroke-opacity:1" transform="matrix(.7719 0 0 .86691 -70.62 -137.189)"/></g><path style="fill:#000;fill-opacity:1;fill-rule:evenodd;stroke:none;stroke-width:0;stroke-miterlimit:4;stroke-dasharray:none;stroke-opacity:1" d="M-570.77 295.247s-3.408-3.275-4.799-4.768c-16.762-8.686 2.35.034-6.5 2.979-3.481 0-4.04-.017-4.04-3.274 0-1.511.652-3.9 1.68-5.243 4.152.438 9.69 3.063 13.954 9.903-.012-.026-.294.403-.294.403z" transform="matrix(.7719 0 0 .86691 866.874 114.17)"/></g><path d="M93.62 545.738c-10.134 1.516-17.749 4.006-21.54 7.065l-.337.616c-1.809 3.665 7.097 11.461 21.972 20.167l-.094-27.848m95.061 76.313c1.54-4.575-14.28-13.732-36.644-21.843-10.218-3.615-18.652-7.38-29.113-11.94-31.059-13.572-54.006-29.149-51.182-34.834l.308-.58c-1.66 1.325-1.235 52.998-1.235 52.998-2.834 5.206 18.166 20.557 46.768 34.103 9.152 4.32 28.478 11.382 37.605 14.541 16.318 5.596 32.541 16.147 31.055 20.063l2.438-52.494v-.014z" style="font-size:12px;fill:#eac102;fill-opacity:1;stroke:#000;stroke-width:1.211918;stroke-miterlimit:4;stroke-dasharray:none" transform="matrix(1 0 0 .98043 77.5 -56.276)"/><g style="display:inline"><path style="fill:#e3e4e5;fill-opacity:1;fill-rule:evenodd;stroke:#000;stroke-width:1.18865824px;stroke-linecap:butt;stroke-linejoin:miter;stroke-opacity:1" d="M466.56 96.917s2.216.626 3.156 2.88c.965 2.314.844 11.574.844 11.863.033.068 9.475.128 19.312.157v.03c.04 0 6.906-.023 11.406-.03 4.48.007 11.336.03 11.375.03v-.03c9.837-.029 19.279-.089 19.313-.157 0-.29-.09-9.549.875-11.864.94-2.253 3.125-2.88 3.125-2.88H466.56zM460.35 79.11s-2.088 1.133-.31 6.822c1.6 5.118 7.275 10.26 7.275 10.26l33.956-.13 33.935.13s5.674-5.142 7.274-10.26c1.779-5.69-.288-6.823-.288-6.823H460.35z" transform="matrix(.84964 0 0 .83301 -221.825 290.957)"/><path style="fill:#e3e4e5;fill-opacity:1;fill-rule:evenodd;stroke:#000;stroke-width:1.18865836;stroke-linecap:butt;stroke-linejoin:miter;marker:none;marker-start:none;marker-mid:none;marker-end:none;stroke-miterlimit:4;stroke-dasharray:none;stroke-dashoffset:0;stroke-opacity:1;visibility:visible;display:inline;overflow:visible;enable-background:accumulate" d="M457.969 56.951h86.587v21.834h-86.587z" transform="matrix(.84964 0 0 .83301 -221.825 290.957)"/><path style="fill:#e3e4e5;fill-opacity:1;fill-rule:evenodd;stroke:#000;stroke-width:1.18865836px;stroke-linecap:butt;stroke-linejoin:miter;stroke-opacity:1" d="M455.78 52.867c-.158.069-.127.79.54 2.25.558 1.222 1.513 1.85 1.513 1.85h86.853s.955-.628 1.513-1.85c.762-1.67.704-2.371.472-2.24h-90.813c-.029-.016-.056-.02-.078-.01zM467.88 119.648c.492.293.54.696.611 1.482 0 0-2.877 81.03-3.928 184.018-1.051 102.988-.276 205.976-.276 205.976-.042.831-.665 2.155-2.213 2.785h78.378c-1.548-.63-2.16-1.954-2.203-2.785 0 0 .316-102.988-.738-205.976-1.053-102.988-3.477-184.018-3.477-184.018.072-.786.12-1.19.612-1.482H467.88z" transform="matrix(.84964 0 0 .83301 -221.825 290.957)"/><path style="fill:#e3e4e5;fill-opacity:1;fill-rule:evenodd;stroke:#000;stroke-width:1.18865836;stroke-linecap:butt;stroke-linejoin:miter;marker:none;marker-start:none;marker-mid:none;marker-end:none;stroke-miterlimit:4;stroke-dashoffset:0;stroke-opacity:1;visibility:visible;display:inline;overflow:visible;enable-background:accumulate" d="M460.093 517.644h82.339c4.291 0 7.746 3.614 7.746 8.103s-3.455 8.103-7.746 8.103h-82.339c-4.291 0-7.746-3.614-7.746-8.103 0-4.49 3.455-8.103 7.746-8.103z" transform="matrix(.84964 0 0 .83301 -221.825 290.957)"/><path style="fill:#e3e4e5;fill-opacity:1;fill-rule:evenodd;stroke:#000;stroke-width:1.18865836;stroke-linecap:butt;stroke-linejoin:miter;marker:none;marker-start:none;marker-mid:none;marker-end:none;stroke-miterlimit:4;stroke-dashoffset:0;stroke-opacity:1;visibility:visible;display:inline;overflow:visible;enable-background:accumulate" d="M468.096 110.849h66.333c1.185 0 2.14 1.072 2.14 2.403v.926c0 1.331-.955 2.403-2.14 2.403h-66.333c-1.185 0-2.139-1.072-2.139-2.403v-.926c0-1.331.954-2.403 2.14-2.403z" transform="matrix(.84964 0 0 .83301 -221.825 290.957)"/><path d="M465.677 97.683h71.171l-.297-1.602H465.84l-.163 1.602z" style="fill:#e3e4e5;fill-opacity:1;fill-rule:evenodd;stroke:#000;stroke-width:1.18865824px;stroke-linecap:round;stroke-linejoin:round;stroke-opacity:1" transform="matrix(.84964 0 0 .83301 -221.825 290.957)"/><path style="fill:#e3e4e5;fill-opacity:1;fill-rule:evenodd;stroke:#000;stroke-width:1.18865824;stroke-linecap:round;stroke-linejoin:round;marker:none;marker-start:none;marker-mid:none;marker-end:none;stroke-miterlimit:4;stroke-dasharray:none;stroke-dashoffset:0;stroke-opacity:1;visibility:visible;display:inline;overflow:visible;enable-background:accumulate" d="M459.003 513.875h84.519v3.748h-84.519z" transform="matrix(.84964 0 0 .83301 -221.825 290.957)"/><path style="fill:#e3e4e5;fill-opacity:1;fill-rule:evenodd;stroke:#000;stroke-width:1.18865824;stroke-linecap:round;stroke-linejoin:round;marker:none;marker-start:none;marker-mid:none;marker-end:none;stroke-miterlimit:4;stroke-dasharray:none;stroke-dashoffset:0;stroke-opacity:1;visibility:visible;display:inline;overflow:visible;enable-background:accumulate" d="M450.5 532.612h101.525v19.249H450.5z" transform="matrix(.84964 0 0 .83301 -221.825 290.957)"/><path style="fill:#e3e4e5;fill-opacity:1;fill-rule:evenodd;stroke:#000;stroke-width:1.18865824px;stroke-linecap:round;stroke-linejoin:round;stroke-opacity:1" d="M467.03 119.478h68.31l.284-2.633h-68.722l.127 2.633z" transform="matrix(.84964 0 0 .83301 -221.825 290.957)"/></g><path style="font-size:12px;fill:#eac102;fill-opacity:1;stroke:#000;stroke-width:1.211918;stroke-miterlimit:4;stroke-dasharray:none" d="M170.853 500.222c7.944-4.65 13.325-9.412 12.456-11.787-.435-2.185-2.96-3.815-6.564-6.24-5.67-4.006-9.118-11.157-6.419-14.457-4.698 3.84-7.669 9.577-7.669 15.957 0 6.671 3.13 12.686 8.196 16.527zm14.832 40.72c1.501 4.576-13.919 13.733-35.715 21.844-9.958 3.615-18.179 7.38-28.374 11.94-30.27 13.572-52.635 29.149-49.883 34.834l.3.58c-1.618-1.325-1.203-52.998-1.203-52.998-2.763-5.206 17.705-20.557 45.58-34.103 8.92-4.32 27.756-11.382 36.651-14.541 15.904-5.596 31.716-16.147 30.268-20.063l2.376 52.494v.014zM80.224 727.657c-8.6 4.65-14.424 9.412-13.483 11.787.47 2.185 3.204 3.815 7.105 6.24 6.137 4.006 9.869 11.157 6.948 14.457 5.085-3.84 8.301-9.577 8.301-15.957 0-6.671-3.388-12.686-8.871-16.527zm-16.055-40.72c-1.625-4.576 15.066-13.733 38.66-21.844 10.778-3.615 19.677-7.38 30.712-11.94 32.767-13.572 58.112-26.469 55.134-32.155.86 4.736.112 45.113-.16 49.739-.664 5.936-19.165 20.557-49.339 34.103-9.655 4.32-30.044 11.382-39.672 14.541-17.215 5.596-34.33 16.147-32.763 20.063l-2.572-52.494v-.014z" transform="matrix(1 0 0 .98043 77.5 -56.276)"/><g style="fill:#ed1c24;fill-opacity:1"><text xml:space="preserve" style="font-size:49.03749847px;font-style:normal;font-variant:normal;font-weight:700;font-stretch:normal;text-align:start;line-height:100%;writing-mode:lr-tb;text-anchor:start;fill:#ed1c24;fill-opacity:1;stroke:#000;stroke-width:1.21191776;stroke-linecap:butt;stroke-linejoin:miter;stroke-miterlimit:4;stroke-dasharray:none;stroke-opacity:1;font-family:Times New Roman" x="-482.41" y="260.843" transform="matrix(.75289 -.44031 .50974 1.00411 397.067 45.022)"><tspan style="fill:#ed1c24;fill-opacity:1;stroke-width:1.21191776" x="-482.41" y="260.843">P</tspan></text><text xml:space="preserve" style="font-size:51.60860062px;font-style:normal;font-variant:normal;font-weight:700;font-stretch:normal;text-align:start;line-height:100%;writing-mode:lr-tb;text-anchor:start;fill:#ed1c24;fill-opacity:1;stroke:#000;stroke-width:1.21191788;stroke-linecap:butt;stroke-linejoin:miter;stroke-miterlimit:4;stroke-dasharray:none;stroke-opacity:1;font-family:Times New Roman" x="-432.937" y="301.882" transform="matrix(.81484 -.38775 .48208 .97382 397.067 45.022)"><tspan style="fill:#ed1c24;fill-opacity:1;stroke-width:1.21191788" x="-432.937" y="301.882">L</tspan></text><text xml:space="preserve" style="font-size:51.6085968px;font-style:normal;font-variant:normal;font-weight:700;font-stretch:normal;text-align:start;line-height:100%;writing-mode:lr-tb;text-anchor:start;fill:#ed1c24;fill-opacity:1;stroke:#000;stroke-width:1.21191788;stroke-linecap:butt;stroke-linejoin:miter;stroke-miterlimit:4;stroke-dasharray:none;stroke-opacity:1;font-family:Times New Roman" x="-380.267" y="325.159" transform="matrix(.8422 -.32672 .40621 1.00653 397.067 45.022)"><tspan style="fill:#ed1c24;fill-opacity:1;stroke-width:1.21191788" x="-380.267" y="325.159">V</tspan></text><text xml:space="preserve" style="font-size:49.64616776px;font-style:normal;font-variant:normal;font-weight:700;font-stretch:normal;text-align:start;line-height:100%;writing-mode:lr-tb;text-anchor:start;fill:#ed1c24;fill-opacity:1;stroke:#000;stroke-width:1.21191788;stroke-linecap:butt;stroke-linejoin:miter;stroke-miterlimit:4;stroke-dasharray:none;stroke-opacity:1;font-family:Times New Roman" x="-306.678" y="336.917" transform="matrix(.84074 -.24233 .27882 1.08578 397.067 45.022)"><tspan style="fill:#ed1c24;fill-opacity:1;stroke-width:1.21191788" x="-306.678" y="336.917">S</tspan></text></g><g style="fill:#ed1c24;fill-opacity:1"><text transform="matrix(.72294 -.3709 .32607 1.18887 397.067 45.022)" y="355.447" x="-498.104" style="font-size:42.61467361px;font-style:normal;font-variant:normal;font-weight:700;font-stretch:normal;text-align:start;line-height:100%;writing-mode:lr-tb;text-anchor:start;fill:#ed1c24;fill-opacity:1;stroke:#000;stroke-width:1.21191764;stroke-linecap:butt;stroke-linejoin:miter;stroke-miterlimit:4;stroke-dasharray:none;stroke-opacity:1;font-family:Times New Roman" xml:space="preserve"><tspan style="fill:#ed1c24;fill-opacity:1;stroke-width:1.21191764" y="355.447" x="-498.104">V</tspan></text><text transform="matrix(.76909 -.26294 .24099 1.1924 397.067 45.022)" y="409.766" x="-418.143" style="font-size:45.61746979px;font-style:normal;font-variant:normal;font-weight:700;font-stretch:normal;text-align:start;line-height:100%;writing-mode:lr-tb;text-anchor:start;fill:#ed1c24;fill-opacity:1;stroke:#000;stroke-width:1.21191776;stroke-linecap:butt;stroke-linejoin:miter;stroke-miterlimit:4;stroke-dasharray:none;stroke-opacity:1;font-family:Times New Roman" xml:space="preserve"><tspan style="fill:#ed1c24;fill-opacity:1;stroke-width:1.21191776" y="409.766" x="-418.143">L</tspan></text><text transform="matrix(.75694 -.29856 .27658 1.18616 397.067 45.022)" y="394.699" x="-413.518" style="font-size:45.38986588px;font-style:normal;font-variant:normal;font-weight:700;font-stretch:normal;text-align:start;line-height:100%;writing-mode:lr-tb;text-anchor:start;fill:#ed1c24;fill-opacity:1;stroke:#000;stroke-width:1.21191764;stroke-linecap:butt;stroke-linejoin:miter;stroke-miterlimit:4;stroke-dasharray:none;stroke-opacity:1;font-family:Times New Roman" xml:space="preserve"><tspan style="fill:#ed1c24;fill-opacity:1;stroke-width:1.21191764" y="394.699" x="-413.518">T</tspan></text><text transform="matrix(.73424 -.37274 .35045 1.1574 397.067 45.022)" y="367.154" x="-419.414" style="font-size:43.95928955px;font-style:normal;font-variant:normal;font-weight:700;font-stretch:normal;text-align:start;line-height:100%;writing-mode:lr-tb;text-anchor:start;fill:#ed1c24;fill-opacity:1;stroke:#000;stroke-width:1.21191752;stroke-linecap:butt;stroke-linejoin:miter;stroke-miterlimit:4;stroke-dasharray:none;stroke-opacity:1;font-family:Times New Roman" xml:space="preserve"><tspan style="fill:#ed1c24;fill-opacity:1;stroke-width:1.21191752" y="367.154" x="-419.414">R</tspan></text><text transform="matrix(.67612 -.4799 .49153 1.10119 397.067 45.022)" y="317.046" x="-458.141" style="font-size:42.42361832px;font-style:normal;font-variant:normal;font-weight:700;font-stretch:normal;text-align:start;line-height:100%;writing-mode:lr-tb;text-anchor:start;fill:#ed1c24;fill-opacity:1;stroke:#000;stroke-width:1.21191764;stroke-linecap:butt;stroke-linejoin:miter;stroke-miterlimit:4;stroke-dasharray:none;stroke-opacity:1;font-family:Times New Roman" xml:space="preserve"><tspan style="fill:#ed1c24;fill-opacity:1;stroke-width:1.21191764" y="317.046" x="-458.141">A</tspan></text></g><path d="M25.551 374.023c.204 120.745-.41 241.503.312 362.24 3.847 108.356 86.788 207.325 192.7 230.209 97.983 23.87 207.673-19.027 262.978-103.621 33.122-47.311 45.32-105.86 42.589-162.853V374.023H25.55z" style="fill:none;fill-opacity:1;fill-rule:evenodd;stroke:#000;stroke-width:3;stroke-linecap:butt;stroke-linejoin:miter;marker:none;marker-start:none;marker-mid:none;marker-end:none;stroke-miterlimit:4;stroke-dasharray:none;stroke-dashoffset:0;stroke-opacity:1;visibility:visible;display:inline;overflow:visible;enable-background:accumulate" transform="translate(77.5 -72.394)"/></svg>